<svg width="298" height="298" viewBox="0 0 298 298" fill="none" xmlns="http://www.w3.org/2000/svg">
<g filter="url(#filter0_d)">
<rect x="8" y="4" width="282" height="282" fill="white"/>
<path d="M42 53C33.7155 53 27 46.2845 27 38C27 29.7155 33.7155 23 42 23C50.2845 23 57 29.7155 57 38C57 46.2845 50.2845 53 42 53ZM40.5045 44L51.1095 33.3935L48.9885 31.2725L40.5045 39.758L36.261 35.5145L34.14 37.6355L40.5045 44Z" fill="#326A32"/>
<path d="M127.864 186.562C126.893 186.562 126.016 186.347 125.232 185.918C124.457 185.488 123.846 184.896 123.398 184.14C122.959 183.374 122.74 182.52 122.74 181.578C122.74 180.635 122.959 179.786 123.398 179.03C123.846 178.264 124.462 177.667 125.246 177.238C126.03 176.808 126.907 176.594 127.878 176.594C128.606 176.594 129.278 176.715 129.894 176.958C130.51 177.2 131.032 177.555 131.462 178.022L130.804 178.68C130.038 177.905 129.072 177.518 127.906 177.518C127.131 177.518 126.426 177.695 125.792 178.05C125.157 178.404 124.658 178.89 124.294 179.506C123.939 180.122 123.762 180.812 123.762 181.578C123.762 182.343 123.939 183.034 124.294 183.65C124.658 184.266 125.157 184.751 125.792 185.106C126.426 185.46 127.131 185.638 127.906 185.638C129.082 185.638 130.048 185.246 130.804 184.462L131.462 185.12C131.032 185.586 130.505 185.946 129.88 186.198C129.264 186.44 128.592 186.562 127.864 186.562ZM133.46 176.09H134.454V186.478H133.46V176.09ZM137.22 179.114H138.214V186.478H137.22V179.114ZM137.724 177.504C137.519 177.504 137.346 177.434 137.206 177.294C137.066 177.154 136.996 176.986 136.996 176.79C136.996 176.603 137.066 176.44 137.206 176.3C137.346 176.16 137.519 176.09 137.724 176.09C137.929 176.09 138.102 176.16 138.242 176.3C138.382 176.43 138.452 176.589 138.452 176.776C138.452 176.981 138.382 177.154 138.242 177.294C138.102 177.434 137.929 177.504 137.724 177.504ZM144.032 186.548C143.304 186.548 142.65 186.389 142.072 186.072C141.502 185.754 141.054 185.311 140.728 184.742C140.401 184.163 140.238 183.514 140.238 182.796C140.238 182.077 140.401 181.433 140.728 180.864C141.054 180.294 141.502 179.851 142.072 179.534C142.65 179.216 143.304 179.058 144.032 179.058C144.666 179.058 145.231 179.184 145.726 179.436C146.23 179.678 146.626 180.038 146.916 180.514L146.174 181.018C145.931 180.654 145.623 180.383 145.25 180.206C144.876 180.019 144.47 179.926 144.032 179.926C143.5 179.926 143.019 180.047 142.59 180.29C142.17 180.523 141.838 180.859 141.596 181.298C141.362 181.736 141.246 182.236 141.246 182.796C141.246 183.365 141.362 183.869 141.596 184.308C141.838 184.737 142.17 185.073 142.59 185.316C143.019 185.549 143.5 185.666 144.032 185.666C144.47 185.666 144.876 185.577 145.25 185.4C145.623 185.222 145.931 184.952 146.174 184.588L146.916 185.092C146.626 185.568 146.23 185.932 145.726 186.184C145.222 186.426 144.657 186.548 144.032 186.548ZM151.489 182.782L149.753 184.378V186.478H148.759V176.09H149.753V183.132L154.149 179.114H155.381L152.231 182.124L155.675 186.478H154.457L151.489 182.782ZM161.325 186.562C160.056 186.562 159.067 186.198 158.357 185.47C157.648 184.742 157.293 183.682 157.293 182.292V176.678H158.329V182.25C158.329 183.388 158.586 184.238 159.099 184.798C159.613 185.358 160.355 185.638 161.325 185.638C162.305 185.638 163.052 185.358 163.565 184.798C164.079 184.238 164.335 183.388 164.335 182.25V176.678H165.343V182.292C165.343 183.682 164.989 184.742 164.279 185.47C163.579 186.198 162.595 186.562 161.325 186.562ZM175.535 185.582V186.478H167.499V185.764L173.995 177.574H167.597V176.678H175.367V177.392L168.885 185.582H175.535Z" fill="black"/>
<g clip-path="url(#clip0)">
<path d="M75.7517 156.478C74.354 156.47 72.965 156.258 71.6287 155.849C70.1632 155.399 68.7467 154.803 67.4007 154.07C65.56 153.124 63.8015 152.025 62.1437 150.786C60.6515 149.617 59.2412 148.348 57.9227 146.986C56.1367 145.2 54.4707 143.373 53.1007 141.695C51.5854 139.909 50.2771 137.957 49.2007 135.877L49.1097 135.687V135.681L49.0887 135.637V135.627V135.617L48.9827 135.39L48.9757 135.375L48.9687 135.36L48.8687 135.141L48.8557 135.113V135.105L48.7817 134.941L48.7587 134.89L48.7417 134.851L48.7277 134.82V134.814L48.6507 134.639L48.6427 134.619L48.6217 134.6L48.5307 134.388L48.5157 134.353L48.4267 134.138L48.4207 134.124L48.4147 134.11L48.3307 133.9L48.3207 133.875L48.2397 133.668V133.661L48.2287 133.633L48.1517 133.433L48.1447 133.413L48.1357 133.39C48.1117 133.326 48.0887 133.262 48.0647 133.196V133.183L48.0507 133.144C48.0237 133.07 48.0027 133.009 47.9837 132.955V132.943L47.9687 132.898L47.8907 132.7L47.8717 132.642L47.8107 132.458L47.8007 132.429L47.7927 132.4C47.7707 132.332 47.7527 132.273 47.7357 132.219L47.7187 132.162L47.6697 132L47.6607 131.969V131.963L47.6507 131.928L47.6007 131.768L47.5927 131.741L47.5847 131.7C47.5677 131.637 47.5527 131.582 47.5387 131.53L47.5287 131.5L47.5197 131.467C47.5067 131.416 47.4917 131.361 47.4767 131.299L47.4617 131.239V131.225C47.4507 131.18 47.4357 131.125 47.4217 131.061L47.4007 130.982C47.3887 130.933 47.3767 130.882 47.3637 130.82L47.3557 130.782L47.3467 130.742C47.3347 130.688 47.3237 130.634 47.3127 130.581L47.3007 130.507C47.2927 130.469 47.2857 130.431 47.2777 130.393V130.373V130.356V130.35L47.2627 130.27V130.26L47.2417 130.143C47.2347 130.106 47.2287 130.069 47.2227 130.032L47.2027 129.91C47.1967 129.875 47.1917 129.84 47.1857 129.81C47.1797 129.78 47.1727 129.723 47.1657 129.679L47.1597 129.636L47.1537 129.593C47.1467 129.542 47.1397 129.493 47.1337 129.442L47.1107 129.364V129.35C47.1007 129.292 47.1007 129.244 47.0907 129.2C47.0907 129.173 47.0847 129.146 47.0817 129.119V129.109C47.0767 129.061 47.0717 129.009 47.0667 128.961C47.0667 128.933 47.0617 128.904 47.0587 128.876V128.87C47.0547 128.829 47.051 128.787 47.0477 128.746C47.0477 128.709 47.0417 128.673 47.0397 128.636C47.0377 128.599 47.0347 128.563 47.0317 128.527C47.0317 128.486 47.0267 128.445 47.0247 128.403C47.0227 128.361 47.0247 128.334 47.0187 128.303C47.0127 128.272 47.0187 128.22 47.0137 128.179V128.173C47.0137 128.138 47.0137 128.103 47.0137 128.068C47.0137 128.033 47.0137 128.013 47.0137 127.986V127.946C47.0137 127.908 47.0137 127.869 47.0137 127.831C47.0137 127.793 47.0137 127.769 47.0137 127.738V127.505C47.0137 127.457 47.0137 127.409 47.0137 127.361C47.0137 127.327 47.0137 127.293 47.0137 127.261C47.0137 127.229 47.0137 127.176 47.0137 127.133C47.0137 127.109 47.0137 127.086 47.0137 127.062V127.027C47.0137 126.973 47.0137 126.927 47.0207 126.881C47.0207 126.854 47.0207 126.826 47.0207 126.799C47.0207 126.755 47.0257 126.708 47.0297 126.652C47.0297 126.626 47.0297 126.599 47.0357 126.573C47.0357 126.523 47.0437 126.473 47.0477 126.423V126.374V126.339C47.0523 126.289 47.0573 126.239 47.0627 126.189L47.0707 126.11V126.094C47.0707 126.049 47.0807 126 47.0887 125.942C47.0887 125.924 47.0887 125.906 47.0957 125.888V125.862V125.852C47.1017 125.802 47.1087 125.752 47.1157 125.702L47.1257 125.631C47.1337 125.577 47.1417 125.523 47.1497 125.47L47.1597 125.41V125.401C47.1677 125.351 47.1767 125.296 47.1877 125.233L47.1997 125.163C47.2097 125.105 47.2207 125.046 47.2317 124.987L47.2407 124.941V124.916C47.2517 124.858 47.2637 124.798 47.2757 124.74L47.2857 124.69V124.681C47.2977 124.623 47.3107 124.563 47.3237 124.504V124.485L47.3317 124.448C47.3437 124.393 47.3577 124.335 47.3737 124.267L47.3867 124.214C47.4007 124.157 47.4157 124.095 47.4347 124.019L47.4417 123.992L47.4477 123.97C47.4647 123.903 47.4827 123.835 47.5027 123.761L47.5077 123.742L47.5137 123.721C47.5337 123.648 47.5517 123.583 47.5687 123.521L47.5817 123.475C47.5987 123.416 47.6197 123.346 47.6407 123.275V123.267L47.6517 123.231C47.6737 123.159 47.6957 123.089 47.7157 123.025L47.7267 122.99C47.7487 122.921 47.7727 122.847 47.8007 122.763L47.8067 122.744V122.737C47.8317 122.661 47.8587 122.584 47.8827 122.513L47.8947 122.48C47.9197 122.407 47.9467 122.333 47.9717 122.264L47.9777 122.248L47.9837 122.232C48.0147 122.148 48.0407 122.079 48.0647 122.013L48.0747 121.986C48.1037 121.911 48.1337 121.833 48.1647 121.754L48.1707 121.739C48.2007 121.662 48.2337 121.581 48.2707 121.491L48.2777 121.474C48.3117 121.391 48.3437 121.313 48.3777 121.237L48.3887 121.211C48.4177 121.142 48.4497 121.068 48.4887 120.979L48.5007 120.952C48.5307 120.884 48.5637 120.808 48.6067 120.714L48.6157 120.694C48.6607 120.594 48.6987 120.512 48.7337 120.437C50.8177 115.957 53.9337 112.837 56.9527 109.821L57.0127 109.761C58.7687 108.005 60.4077 106.506 62.0227 105.179C63.8698 103.645 65.8378 102.263 67.9077 101.046C69.0583 100.361 70.293 99.8289 71.5807 99.462C72.6842 99.157 73.8237 99.0016 74.9687 99C76.5083 99.0111 78.036 99.2711 79.4927 99.77C80.8865 100.246 82.2354 100.845 83.5237 101.559C85.5812 102.664 87.5551 103.918 89.4297 105.311C91.1941 106.625 92.8611 108.065 94.4177 109.62C96.0426 111.264 97.5299 113.038 98.8647 114.925C100.112 116.61 101.141 118.445 101.929 120.388C102.442 121.747 102.878 123.133 103.235 124.541C103.546 125.765 103.721 127.019 103.757 128.281C103.781 129.518 103.632 130.752 103.312 131.947C102.935 133.314 102.4 134.633 101.717 135.876C100.744 137.7 99.6059 139.431 98.3167 141.047C97.0328 142.633 95.6585 144.144 94.2007 145.572C92.6257 147.147 90.9666 148.635 89.2307 150.03C87.4137 151.493 85.5081 152.842 83.5247 154.07C81.2144 155.593 78.5186 156.429 75.7517 156.478ZM80.0067 150.108C78.8529 150.787 77.6065 151.295 76.3067 151.616C77.6065 151.295 78.8529 150.787 80.0067 150.108ZM63.0307 147.814C63.1517 147.896 63.2767 147.979 63.4017 148.06C63.2637 147.97 63.1427 147.889 63.0307 147.814ZM58.8087 144.291L59.0217 144.498L58.8087 144.291ZM60.8457 124.156L60.7797 124.299V124.31L60.7207 124.442L60.7147 124.457L60.6587 124.586V124.593V124.6L60.6037 124.732V124.741L60.5487 124.878V124.884L60.4987 125.013V125.022V125.03L60.4537 125.151L60.4477 125.166L60.4047 125.286V125.296V125.304C60.3907 125.342 60.3777 125.383 60.3627 125.428V125.438C60.3457 125.489 60.3327 125.527 60.3217 125.564L60.3157 125.583L60.2807 125.698L60.2737 125.722C60.2623 125.759 60.2513 125.795 60.2407 125.832V125.845V125.858L60.2097 125.968L60.1587 126L60.1527 126.024L60.1287 126.114L60.1217 126.141C60.1127 126.177 60.1037 126.213 60.0947 126.249L60.0877 126.278L60.0647 126.378L60.0587 126.406L60.0507 126.444L60.0377 126.505V126.521V126.538L60.0207 126.621V126.637L60.0007 126.689L59.9887 126.753L59.9827 126.787V126.802V126.823C59.9777 126.854 59.9727 126.884 59.9677 126.915L59.9617 126.953L59.9487 127.043L59.9427 127.081C59.9427 127.111 59.9347 127.14 59.9307 127.17V127.193V127.216C59.9307 127.244 59.9237 127.272 59.9207 127.3V127.328V127.353V127.38C59.9207 127.399 59.9207 127.418 59.9157 127.436V127.483V127.508C59.9157 127.527 59.9157 127.547 59.9157 127.566C59.9157 127.585 59.9157 127.595 59.9157 127.61C59.9157 127.625 59.9157 127.662 59.9107 127.688C59.9107 127.698 59.9107 127.708 59.9107 127.719V127.737C59.9107 127.763 59.9107 127.789 59.9107 127.816C59.9107 127.843 59.9107 127.854 59.9107 127.873C59.9107 127.895 59.9107 127.918 59.9107 127.94V128.003C59.9107 128.028 59.9107 128.053 59.9107 128.078V128.259C59.9107 128.28 59.9107 128.302 59.9107 128.323C59.9107 128.344 59.9107 128.368 59.9107 128.391V128.449C59.9107 128.473 59.9107 128.497 59.9107 128.521V128.55V128.579C59.9107 128.595 59.9107 128.61 59.9107 128.626V128.65V128.681V128.711C59.9107 128.731 59.9107 128.752 59.9107 128.772V128.806V128.843V128.889C59.9107 128.916 59.9157 128.943 59.9187 128.97C59.9187 128.981 59.9187 128.991 59.9187 129.002V129.02C59.9187 129.048 59.9247 129.075 59.9287 129.102V129.123V129.151L59.9347 129.193L59.9397 129.231L59.9467 129.279V129.303L59.9537 129.349V129.373V129.402L59.9597 129.436V129.465V129.494L59.9657 129.527L59.9787 129.595V129.614L59.9857 129.652V129.671L59.9957 129.723L60.0037 129.761C60.0097 129.791 60.016 129.821 60.0227 129.85L60.0317 129.893L60.0457 129.954L60.0517 129.982V130.003V130.022L60.0727 130.11L60.0827 130.151C60.0917 130.187 60.0997 130.217 60.1067 130.244L60.1167 130.282L60.1417 130.373L60.1467 130.391L60.1517 130.409C60.1597 130.439 60.1687 130.468 60.1767 130.498L60.1877 130.537L60.2147 130.628L60.2197 130.645V130.66L60.2507 130.76V130.775V130.791L60.2667 130.839L60.2837 130.89L60.2907 130.91V130.922L60.3167 130.999L60.3247 131.022L60.3357 131.053V131.067L60.3667 131.155L60.3767 131.184L60.4167 131.292L60.4227 131.307V131.317L60.4657 131.43L60.4737 131.45L60.5187 131.565L60.5247 131.579L60.5647 131.679L60.5717 131.696V131.703V131.712C60.5877 131.751 60.6047 131.791 60.6217 131.831L60.6277 131.846L60.6777 131.964L60.6847 131.981L60.7237 132.07L60.7347 132.095L60.7447 132.117L60.7977 132.236V132.243L60.8037 132.256L60.8597 132.378V132.388V132.395L60.8757 132.429L60.9187 132.522V132.528L60.9397 132.571L60.9817 132.66C62.2874 134.942 63.9181 137.021 65.8227 138.833C67.3338 140.442 69.1159 141.774 71.0877 142.767C72.4979 143.593 74.0929 144.053 75.7267 144.104C77.2637 144.077 78.7612 143.613 80.0447 142.767C82.1953 141.426 84.185 139.842 85.9747 138.047C87.638 136.479 89.0469 134.662 90.1507 132.661C91.7907 129.593 91.4767 127.361 90.2687 124.061C89.2895 121.861 87.9101 119.861 86.2007 118.165C84.4128 116.385 82.3742 114.877 80.1497 113.687C78.7085 112.828 77.0768 112.34 75.4007 112.266C74.0236 112.281 72.676 112.667 71.5007 113.385C69.2795 114.726 67.2447 116.354 65.4487 118.226L65.4167 118.258C63.5476 119.93 61.9999 121.93 60.8497 124.158L60.8457 124.156ZM58.1637 143.656L58.5347 144.024L58.1637 143.656ZM90.7297 141.466C90.4387 141.766 90.1297 142.08 89.8007 142.41C89.4157 142.795 89.0207 143.178 88.6197 143.555C89.0197 143.178 89.4197 142.795 89.8007 142.41C90.1317 142.078 90.4397 141.764 90.7297 141.464V141.466ZM96.5737 133.538C96.5037 133.675 96.4317 133.814 96.3577 133.953C95.8743 134.86 95.3436 135.74 94.7677 136.591C95.3436 135.74 95.8743 134.86 96.3577 133.953C96.4327 133.812 96.5007 133.673 96.5747 133.535L96.5737 133.538ZM97.2357 122.467C97.5976 123.581 97.8629 124.724 98.0287 125.883C97.8651 124.722 97.5997 123.578 97.2357 122.464V122.467ZM88.4597 109.6C88.9857 110.072 89.496 110.556 89.9907 111.051C91.4085 112.485 92.7061 114.033 93.8707 115.679C94.3767 116.395 94.8337 117.096 95.2287 117.764C93.7598 115.323 92.0011 113.069 89.9907 111.051C89.4973 110.554 88.987 110.071 88.4597 109.6ZM79.3427 103.428C79.7077 103.604 80.0827 103.796 80.4877 104.014C81.6107 104.614 82.7157 105.278 83.7707 105.975C82.7177 105.275 81.6127 104.619 80.4887 104.014C80.0827 103.8 79.7087 103.6 79.3427 103.428ZM61.5177 130.982C61.3291 130.543 61.1701 130.092 61.0417 129.632C60.8807 129.061 60.7891 128.473 60.7687 127.88C60.8242 128.951 61.0786 130.002 61.5187 130.98L61.5177 130.982Z" fill="#53B7D1"/>
<path d="M136.635 140.744C137.929 140.744 139.12 140.719 140.209 140.667C141.299 140.616 142.422 140.505 143.58 140.335C143.681 140.312 143.787 140.313 143.887 140.34C143.987 140.366 144.079 140.417 144.155 140.488C144.23 140.559 144.288 140.647 144.322 140.745C144.355 140.843 144.364 140.948 144.347 141.05V144.88C144.347 145.322 144.076 145.629 143.53 145.799C142.197 146.212 140.829 146.502 139.444 146.667C137.971 146.865 136.487 146.967 135.001 146.973C132.614 147.039 130.237 146.64 128.001 145.798C126.186 145.082 124.587 143.911 123.355 142.398C122.104 140.795 121.215 138.939 120.749 136.959C120.177 134.569 119.904 132.117 119.934 129.659V127.31C119.904 124.854 120.17 122.403 120.726 120.01C121.173 118.034 122.044 116.178 123.28 114.571C124.498 113.055 126.092 111.883 127.902 111.171C130.137 110.33 132.514 109.931 134.902 109.996C137.677 110.016 140.433 110.464 143.073 111.324C143.307 111.383 143.52 111.507 143.686 111.682C143.796 111.848 143.85 112.045 143.839 112.244V115.921C143.856 116.024 143.846 116.128 143.813 116.226C143.779 116.324 143.722 116.413 143.646 116.483C143.57 116.554 143.478 116.605 143.378 116.632C143.278 116.658 143.173 116.66 143.072 116.636C142.118 116.503 141.079 116.401 139.956 116.329C138.834 116.258 137.693 116.225 136.534 116.229C135.135 116.19 133.74 116.415 132.424 116.893C131.345 117.315 130.413 118.043 129.742 118.987C129.008 120.071 128.512 121.298 128.287 122.587C127.975 124.28 127.83 125.999 127.853 127.72V129.303C127.83 131.025 127.983 132.745 128.312 134.435C128.55 135.722 129.064 136.941 129.819 138.01C130.515 138.945 131.463 139.662 132.551 140.078C133.859 140.552 135.245 140.777 136.636 140.742L136.635 140.744ZM150.272 111.43C150.272 110.885 150.525 110.613 151.037 110.613H157.369C157.48 110.597 157.594 110.608 157.7 110.643C157.807 110.678 157.903 110.738 157.983 110.817C158.062 110.897 158.121 110.993 158.157 111.1C158.192 111.206 158.203 111.319 158.187 111.43V137.83C158.13 138.598 158.308 139.366 158.698 140.03C158.966 140.305 159.296 140.513 159.659 140.637C160.023 140.761 160.411 140.798 160.791 140.745H172.892C173.003 140.729 173.116 140.74 173.222 140.775C173.328 140.81 173.425 140.87 173.504 140.949C173.583 141.029 173.644 141.125 173.679 141.232C173.714 141.338 173.724 141.451 173.708 141.562V145.341C173.708 145.988 173.42 146.328 172.841 146.362C170.969 146.532 168.824 146.677 166.406 146.796C163.988 146.916 161.485 146.975 158.898 146.975C157.533 147 156.169 146.863 154.836 146.566C153.851 146.354 152.932 145.908 152.156 145.266C151.459 144.646 150.954 143.84 150.7 142.943C150.386 141.796 150.24 140.609 150.267 139.419L150.272 111.43ZM186.376 145.493C186.393 145.611 186.383 145.731 186.345 145.844C186.307 145.957 186.244 146.06 186.159 146.144C186.075 146.229 185.973 146.292 185.86 146.33C185.747 146.367 185.627 146.378 185.509 146.361H179.328C179.211 146.378 179.091 146.367 178.978 146.33C178.865 146.292 178.762 146.229 178.678 146.144C178.594 146.06 178.53 145.957 178.492 145.844C178.455 145.731 178.443 145.611 178.46 145.493V111.532C178.46 110.92 178.75 110.613 179.328 110.613H185.509C186.088 110.613 186.377 110.92 186.376 111.532V145.493ZM210.277 140.743C211.571 140.743 212.764 140.718 213.853 140.666C214.942 140.615 216.066 140.504 217.223 140.334C217.324 140.311 217.428 140.312 217.529 140.339C217.629 140.365 217.721 140.416 217.797 140.487C217.873 140.558 217.931 140.646 217.964 140.744C217.998 140.842 218.006 140.947 217.99 141.049V144.879C217.99 145.322 217.718 145.628 217.172 145.798C215.84 146.211 214.471 146.501 213.086 146.666C211.613 146.864 210.13 146.966 208.644 146.972C206.256 147.038 203.879 146.638 201.644 145.797C199.829 145.081 198.228 143.91 196.996 142.397C195.747 140.793 194.861 138.938 194.397 136.958C193.824 134.568 193.55 132.116 193.579 129.658V127.309C193.55 124.853 193.816 122.402 194.371 120.009C194.819 118.033 195.691 116.177 196.926 114.57C198.145 113.054 199.738 111.882 201.548 111.17C203.783 110.329 206.161 109.93 208.548 109.995C211.324 110.015 214.08 110.463 216.72 111.323C216.954 111.382 217.166 111.506 217.331 111.681C217.442 111.847 217.496 112.044 217.485 112.243V115.92C217.501 116.023 217.493 116.127 217.459 116.225C217.426 116.324 217.369 116.412 217.293 116.483C217.218 116.553 217.125 116.604 217.025 116.631C216.925 116.657 216.82 116.659 216.719 116.635C215.765 116.502 214.726 116.4 213.603 116.328C212.479 116.257 211.339 116.224 210.182 116.228C208.782 116.189 207.386 116.414 206.07 116.892C204.991 117.314 204.059 118.042 203.389 118.986C202.655 120.07 202.159 121.297 201.934 122.586C201.623 124.279 201.477 125.998 201.499 127.719V129.302C201.476 131.024 201.629 132.744 201.957 134.434C202.196 135.721 202.711 136.94 203.466 138.009C204.162 138.944 205.109 139.661 206.198 140.077C207.506 140.551 208.891 140.776 210.282 140.741L210.277 140.743ZM249.55 110.612C249.664 110.601 249.777 110.625 249.877 110.679C249.977 110.734 250.059 110.817 250.112 110.918C250.161 111.027 250.177 111.147 250.159 111.265C250.142 111.383 250.091 111.493 250.012 111.582L239.082 127.822L251.442 145.441C251.508 145.522 251.549 145.62 251.563 145.724C251.576 145.828 251.561 145.933 251.518 146.028C251.47 146.14 251.387 146.233 251.281 146.293C251.175 146.353 251.052 146.377 250.931 146.36H243.731C243.434 146.375 243.137 146.323 242.863 146.207C242.627 146.076 242.433 145.881 242.302 145.645L231.831 129.711V145.491C231.848 145.609 231.838 145.729 231.8 145.842C231.762 145.955 231.699 146.058 231.615 146.142C231.53 146.226 231.428 146.29 231.315 146.327C231.202 146.365 231.082 146.376 230.964 146.359H224.783C224.665 146.376 224.545 146.365 224.432 146.327C224.319 146.29 224.216 146.226 224.132 146.142C224.048 146.058 223.985 145.955 223.948 145.842C223.91 145.729 223.898 145.609 223.915 145.491V111.53C223.915 110.918 224.205 110.611 224.783 110.611H230.964C231.542 110.611 231.831 110.918 231.831 111.53V125.93L241.585 111.222C241.716 111.032 241.892 110.876 242.097 110.769C242.302 110.662 242.53 110.607 242.761 110.609L249.55 110.612Z" fill="#222222"/>
</g>
</g>
<defs>
<filter id="filter0_d" x="0" y="0" width="298" height="298" filterUnits="userSpaceOnUse" color-interpolation-filters="sRGB">
<feFlood flood-opacity="0" result="BackgroundImageFix"/>
<feColorMatrix in="SourceAlpha" type="matrix" values="0 0 0 0 0 0 0 0 0 0 0 0 0 0 0 0 0 0 127 0" result="hardAlpha"/>
<feOffset dy="4"/>
<feGaussianBlur stdDeviation="4"/>
<feColorMatrix type="matrix" values="0 0 0 0 0 0 0 0 0 0 0 0 0 0 0 0 0 0 0.12 0"/>
<feBlend mode="normal" in2="BackgroundImageFix" result="effect1_dropShadow"/>
<feBlend mode="normal" in="SourceGraphic" in2="effect1_dropShadow" result="shape"/>
</filter>
<clipPath id="clip0">
<rect width="204.562" height="57.478" fill="white" transform="translate(47 99)"/>
</clipPath>
</defs>
</svg>
