<svg width="205" height="92" viewBox="0 0 205 92" fill="none" xmlns="http://www.w3.org/2000/svg">
<path d="M80.8637 87.5615C79.8931 87.5615 79.0157 87.3469 78.2317 86.9175C77.4571 86.4882 76.8457 85.8955 76.3977 85.1395C75.9591 84.3742 75.7397 83.5202 75.7397 82.5775C75.7397 81.6349 75.9591 80.7855 76.3977 80.0295C76.8457 79.2642 77.4617 78.6669 78.2457 78.2375C79.0297 77.8082 79.9071 77.5935 80.8777 77.5935C81.6057 77.5935 82.2777 77.7149 82.8937 77.9575C83.5097 78.2002 84.0324 78.5549 84.4617 79.0215L83.8037 79.6795C83.0384 78.9049 82.0724 78.5175 80.9057 78.5175C80.1311 78.5175 79.4264 78.6949 78.7917 79.0495C78.1571 79.4042 77.6577 79.8895 77.2937 80.5055C76.9391 81.1215 76.7617 81.8122 76.7617 82.5775C76.7617 83.3429 76.9391 84.0335 77.2937 84.6495C77.6577 85.2655 78.1571 85.7509 78.7917 86.1055C79.4264 86.4602 80.1311 86.6375 80.9057 86.6375C82.0817 86.6375 83.0477 86.2455 83.8037 85.4615L84.4617 86.1195C84.0324 86.5862 83.5051 86.9455 82.8797 87.1975C82.2637 87.4402 81.5917 87.5615 80.8637 87.5615ZM86.4602 77.0895H87.4542V87.4775H86.4602V77.0895ZM90.22 80.1135H91.214V87.4775H90.22V80.1135ZM90.724 78.5035C90.5187 78.5035 90.346 78.4335 90.206 78.2935C90.066 78.1535 89.996 77.9855 89.996 77.7895C89.996 77.6029 90.066 77.4395 90.206 77.2995C90.346 77.1595 90.5187 77.0895 90.724 77.0895C90.9293 77.0895 91.102 77.1595 91.242 77.2995C91.382 77.4302 91.452 77.5889 91.452 77.7755C91.452 77.9809 91.382 78.1535 91.242 78.2935C91.102 78.4335 90.9293 78.5035 90.724 78.5035ZM97.0318 87.5475C96.3038 87.5475 95.6504 87.3889 95.0718 87.0715C94.5024 86.7542 94.0544 86.3109 93.7278 85.7415C93.4011 85.1629 93.2378 84.5142 93.2378 83.7955C93.2378 83.0769 93.4011 82.4329 93.7278 81.8635C94.0544 81.2942 94.5024 80.8509 95.0718 80.5335C95.6504 80.2162 96.3038 80.0575 97.0318 80.0575C97.6664 80.0575 98.2311 80.1835 98.7258 80.4355C99.2298 80.6782 99.6264 81.0375 99.9158 81.5135L99.1738 82.0175C98.9311 81.6535 98.6231 81.3829 98.2498 81.2055C97.8764 81.0189 97.4704 80.9255 97.0318 80.9255C96.4998 80.9255 96.0191 81.0469 95.5898 81.2895C95.1698 81.5229 94.8384 81.8589 94.5958 82.2975C94.3624 82.7362 94.2458 83.2355 94.2458 83.7955C94.2458 84.3649 94.3624 84.8689 94.5958 85.3075C94.8384 85.7369 95.1698 86.0729 95.5898 86.3155C96.0191 86.5489 96.4998 86.6655 97.0318 86.6655C97.4704 86.6655 97.8764 86.5769 98.2498 86.3995C98.6231 86.2222 98.9311 85.9515 99.1738 85.5875L99.9158 86.0915C99.6264 86.5675 99.2298 86.9315 98.7258 87.1835C98.2218 87.4262 97.6571 87.5475 97.0318 87.5475ZM104.489 83.7815L102.753 85.3775V87.4775H101.759V77.0895H102.753V84.1315L107.149 80.1135H108.381L105.231 83.1235L108.675 87.4775H107.457L104.489 83.7815ZM114.325 87.5615C113.056 87.5615 112.067 87.1975 111.357 86.4695C110.648 85.7415 110.293 84.6822 110.293 83.2915V77.6775H111.329V83.2495C111.329 84.3882 111.586 85.2375 112.099 85.7975C112.613 86.3575 113.355 86.6375 114.325 86.6375C115.305 86.6375 116.052 86.3575 116.565 85.7975C117.079 85.2375 117.335 84.3882 117.335 83.2495V77.6775H118.343V83.2915C118.343 84.6822 117.989 85.7415 117.279 86.4695C116.579 87.1975 115.595 87.5615 114.325 87.5615ZM128.535 86.5815V87.4775H120.499V86.7635L126.995 78.5735H120.597V77.6775H128.367V78.3915L121.885 86.5815H128.535Z" fill="black"/>
<g clip-path="url(#clip0)">
<path d="M28.7517 57.478C27.354 57.4704 25.965 57.2585 24.6287 56.849C23.1632 56.3994 21.7467 55.8034 20.4007 55.07C18.56 54.1236 16.8015 53.0251 15.1437 51.786C13.6515 50.6173 12.2412 49.3476 10.9227 47.986C9.13667 46.2 7.47067 44.373 6.10067 42.695C4.58544 40.9089 3.27713 38.9572 2.20067 36.877L2.10967 36.687V36.681L2.08867 36.637V36.627V36.617L1.98267 36.39L1.97567 36.375L1.96867 36.36L1.86867 36.141L1.85567 36.113V36.105L1.78167 35.941L1.75867 35.89L1.74167 35.851L1.72767 35.82V35.814L1.65067 35.639L1.64267 35.619L1.62167 35.6L1.53067 35.388L1.51567 35.353L1.42667 35.138L1.42067 35.124L1.41467 35.11L1.33067 34.9L1.32067 34.875L1.23967 34.668V34.661L1.22867 34.633L1.15167 34.433L1.14467 34.413L1.13567 34.39C1.11167 34.326 1.08867 34.262 1.06467 34.196V34.183L1.05067 34.144C1.02367 34.07 1.00267 34.009 0.983672 33.955V33.943L0.968672 33.898L0.890672 33.7L0.871672 33.642L0.810672 33.458L0.800672 33.429L0.792672 33.4C0.770672 33.332 0.752672 33.273 0.735672 33.219L0.718672 33.162L0.669672 33L0.660672 32.969V32.963L0.650672 32.928L0.600672 32.768L0.592672 32.741L0.584672 32.7C0.567672 32.637 0.552672 32.582 0.538672 32.53L0.528672 32.5L0.519672 32.467C0.506672 32.416 0.491672 32.361 0.476672 32.299L0.461672 32.239V32.225C0.450672 32.18 0.435672 32.125 0.421672 32.061L0.400672 31.982C0.388672 31.933 0.376672 31.882 0.363672 31.82L0.355672 31.782L0.346672 31.742C0.334672 31.688 0.323672 31.634 0.312672 31.581L0.300672 31.507C0.292672 31.469 0.285672 31.431 0.277672 31.393V31.373V31.356V31.35L0.262672 31.27V31.26L0.241672 31.143C0.234672 31.106 0.228672 31.069 0.222672 31.032L0.202672 30.91C0.196672 30.875 0.191672 30.84 0.185672 30.81C0.179672 30.78 0.172672 30.723 0.165672 30.679L0.159672 30.636L0.153672 30.593C0.146672 30.542 0.139672 30.493 0.133672 30.442L0.110672 30.364V30.35C0.100672 30.292 0.100672 30.244 0.0906719 30.2C0.0906719 30.173 0.0846719 30.146 0.0816719 30.119V30.109C0.0766719 30.061 0.0716719 30.009 0.0666719 29.961C0.0666719 29.933 0.0616719 29.904 0.0586719 29.876V29.87C0.0546719 29.8287 0.0510052 29.7873 0.0476719 29.746C0.0476719 29.709 0.0416719 29.673 0.0396719 29.636C0.0376719 29.599 0.0346719 29.563 0.0316719 29.527C0.0316719 29.486 0.0266719 29.445 0.0246719 29.403C0.0226719 29.361 0.0246719 29.334 0.0186719 29.303C0.0126719 29.272 0.0186719 29.22 0.0136719 29.179V29.173C0.0136719 29.138 0.0136719 29.103 0.0136719 29.068C0.0136719 29.033 0.0136719 29.013 0.0136719 28.986V28.946C0.0136719 28.908 0.0136719 28.869 0.0136719 28.831C0.0136719 28.793 0.0136719 28.769 0.0136719 28.738V28.505C0.0136719 28.457 0.0136719 28.409 0.0136719 28.361C0.0136719 28.327 0.0136719 28.293 0.0136719 28.261C0.0136719 28.229 0.0136719 28.176 0.0136719 28.133C0.0136719 28.109 0.0136719 28.086 0.0136719 28.062V28.027C0.0136719 27.973 0.0136719 27.927 0.0206719 27.881C0.0206719 27.854 0.0206719 27.826 0.0206719 27.799C0.0206719 27.755 0.0256719 27.708 0.0296719 27.652C0.0296719 27.626 0.0296719 27.599 0.0356719 27.573C0.0356719 27.523 0.0436719 27.473 0.0476719 27.423V27.374V27.339C0.0523385 27.289 0.0573385 27.239 0.0626719 27.189L0.0706719 27.11V27.094C0.0706719 27.049 0.0806719 27 0.0886719 26.942C0.0886719 26.924 0.0886719 26.906 0.0956719 26.888V26.862V26.852C0.101672 26.802 0.108672 26.752 0.115672 26.702L0.125672 26.631C0.133672 26.577 0.141672 26.523 0.149672 26.47L0.159672 26.41V26.401C0.167672 26.351 0.176672 26.296 0.187672 26.233L0.199672 26.163C0.209672 26.105 0.220672 26.046 0.231672 25.987L0.240672 25.941V25.916C0.251672 25.858 0.263672 25.798 0.275672 25.74L0.285672 25.69V25.681C0.297672 25.623 0.310672 25.563 0.323672 25.504V25.485L0.331672 25.448C0.343672 25.393 0.357672 25.335 0.373672 25.267L0.386672 25.214C0.400672 25.157 0.415672 25.095 0.434672 25.019L0.441672 24.992L0.447672 24.97C0.464672 24.903 0.482672 24.835 0.502672 24.761L0.507672 24.742L0.513672 24.721C0.533672 24.648 0.551672 24.583 0.568672 24.521L0.581672 24.475C0.598672 24.416 0.619672 24.346 0.640672 24.275V24.267L0.651672 24.231C0.673672 24.159 0.695672 24.089 0.715672 24.025L0.726672 23.99C0.748672 23.921 0.772672 23.847 0.800672 23.763L0.806672 23.744V23.737C0.831672 23.661 0.858672 23.584 0.882672 23.513L0.894672 23.48C0.919672 23.407 0.946672 23.333 0.971672 23.264L0.977672 23.248L0.983672 23.232C1.01467 23.148 1.04067 23.079 1.06467 23.013L1.07467 22.986C1.10367 22.911 1.13367 22.833 1.16467 22.754L1.17067 22.739C1.20067 22.662 1.23367 22.581 1.27067 22.491L1.27767 22.474C1.31167 22.391 1.34367 22.313 1.37767 22.237L1.38867 22.211C1.41767 22.142 1.44967 22.068 1.48867 21.979L1.50067 21.952C1.53067 21.884 1.56367 21.808 1.60667 21.714L1.61567 21.694C1.66067 21.594 1.69867 21.512 1.73367 21.437C3.81767 16.957 6.93367 13.837 9.95267 10.821L10.0127 10.761C11.7687 9.005 13.4077 7.506 15.0227 6.179C16.8698 4.64499 18.8378 3.26282 20.9077 2.046C22.0583 1.3613 23.293 0.828855 24.5807 0.462C25.6842 0.156957 26.8237 0.00156739 27.9687 0C29.5083 0.0111137 31.036 0.271137 32.4927 0.77C33.8865 1.24623 35.2354 1.8449 36.5237 2.559C38.5812 3.66396 40.5551 4.91797 42.4297 6.311C44.1941 7.62519 45.8611 9.06528 47.4177 10.62C49.0426 12.2638 50.5299 14.038 51.8647 15.925C53.112 17.6097 54.1415 19.4452 54.9287 21.388C55.4418 22.7467 55.8778 24.1332 56.2347 25.541C56.5458 26.7646 56.7209 28.0189 56.7567 29.281C56.7813 30.5178 56.6315 31.752 56.3117 32.947C55.9349 34.3143 55.3996 35.633 54.7167 36.876C53.744 38.7001 52.6059 40.431 51.3167 42.047C50.0328 43.6332 48.6585 45.144 47.2007 46.572C45.6257 48.1467 43.9666 49.6348 42.2307 51.03C40.4137 52.493 38.5081 53.8422 36.5247 55.07C34.2144 56.5935 31.5186 57.4286 28.7517 57.478ZM33.0067 51.108C31.8529 51.7872 30.6065 52.2951 29.3067 52.616C30.6065 52.2952 31.8529 51.7872 33.0067 51.108ZM16.0307 48.814C16.1517 48.896 16.2767 48.979 16.4017 49.06C16.2637 48.97 16.1427 48.889 16.0307 48.814ZM11.8087 45.291L12.0217 45.498L11.8087 45.291ZM13.8457 25.156L13.7797 25.299V25.31L13.7207 25.442L13.7147 25.457L13.6587 25.586V25.593V25.6L13.6037 25.732V25.741L13.5487 25.878V25.884L13.4987 26.013V26.022V26.03L13.4537 26.151L13.4477 26.166L13.4047 26.286V26.296V26.304C13.3907 26.342 13.3777 26.383 13.3627 26.428V26.438C13.3457 26.489 13.3327 26.527 13.3217 26.564L13.3157 26.583L13.2807 26.698L13.2737 26.722C13.2623 26.7587 13.2513 26.7953 13.2407 26.832V26.845V26.858L13.2097 26.968L13.1587 27L13.1527 27.024L13.1287 27.114L13.1217 27.141C13.1127 27.177 13.1037 27.213 13.0947 27.249L13.0877 27.278L13.0647 27.378L13.0587 27.406L13.0507 27.444L13.0377 27.505V27.521V27.538L13.0207 27.621V27.637L13.0007 27.689L12.9887 27.753L12.9827 27.787V27.802V27.823C12.9777 27.854 12.9727 27.884 12.9677 27.915L12.9617 27.953L12.9487 28.043L12.9427 28.081C12.9427 28.111 12.9347 28.14 12.9307 28.17V28.193V28.216C12.9307 28.244 12.9237 28.272 12.9207 28.3V28.328V28.353V28.38C12.9207 28.399 12.9207 28.418 12.9157 28.436V28.483V28.508C12.9157 28.527 12.9157 28.547 12.9157 28.566C12.9157 28.585 12.9157 28.595 12.9157 28.61C12.9157 28.625 12.9157 28.662 12.9107 28.688C12.9107 28.698 12.9107 28.708 12.9107 28.719V28.737C12.9107 28.763 12.9107 28.789 12.9107 28.816C12.9107 28.843 12.9107 28.854 12.9107 28.873C12.9107 28.895 12.9107 28.918 12.9107 28.94V29.003C12.9107 29.028 12.9107 29.053 12.9107 29.078V29.259C12.9107 29.28 12.9107 29.302 12.9107 29.323C12.9107 29.344 12.9107 29.368 12.9107 29.391V29.449C12.9107 29.473 12.9107 29.497 12.9107 29.521V29.55V29.579C12.9107 29.595 12.9107 29.61 12.9107 29.626V29.65V29.681V29.711C12.9107 29.731 12.9107 29.752 12.9107 29.772V29.806V29.843V29.889C12.9107 29.916 12.9157 29.943 12.9187 29.97C12.9187 29.981 12.9187 29.991 12.9187 30.002V30.02C12.9187 30.048 12.9247 30.075 12.9287 30.102V30.123V30.151L12.9347 30.193L12.9397 30.231L12.9467 30.279V30.303L12.9537 30.349V30.373V30.402L12.9597 30.436V30.465V30.494L12.9657 30.527L12.9787 30.595V30.614L12.9857 30.652V30.671L12.9957 30.723L13.0037 30.761C13.0097 30.791 13.016 30.8207 13.0227 30.85L13.0317 30.893L13.0457 30.954L13.0517 30.982V31.003V31.022L13.0727 31.11L13.0827 31.151C13.0917 31.187 13.0997 31.217 13.1067 31.244L13.1167 31.282L13.1417 31.373L13.1467 31.391L13.1517 31.409C13.1597 31.439 13.1687 31.468 13.1767 31.498L13.1877 31.537L13.2147 31.628L13.2197 31.645V31.66L13.2507 31.76V31.775V31.791L13.2667 31.839L13.2837 31.89L13.2907 31.91V31.922L13.3167 31.999L13.3247 32.022L13.3357 32.053V32.067L13.3667 32.155L13.3767 32.184L13.4167 32.292L13.4227 32.307V32.317L13.4657 32.43L13.4737 32.45L13.5187 32.565L13.5247 32.579L13.5647 32.679L13.5717 32.696V32.703V32.712C13.5877 32.751 13.6047 32.791 13.6217 32.831L13.6277 32.846L13.6777 32.964L13.6847 32.981L13.7237 33.07L13.7347 33.095L13.7447 33.117L13.7977 33.236V33.243L13.8037 33.256L13.8597 33.378V33.388V33.395L13.8757 33.429L13.9187 33.522V33.528L13.9397 33.571L13.9817 33.66C15.2874 35.9416 16.9181 38.021 18.8227 39.833C20.3338 41.4424 22.1159 42.774 24.0877 43.767C25.4979 44.5935 27.0929 45.0532 28.7267 45.104C30.2637 45.0768 31.7612 44.6131 33.0447 43.767C35.1953 42.4256 37.185 40.8419 38.9747 39.047C40.638 37.4795 42.0469 35.6624 43.1507 33.661C44.7907 30.593 44.4767 28.361 43.2687 25.061C42.2895 22.8607 40.9101 20.8615 39.2007 19.165C37.4128 17.3852 35.3742 15.8766 33.1497 14.687C31.7085 13.8281 30.0768 13.3399 28.4007 13.266C27.0236 13.2806 25.676 13.6672 24.5007 14.385C22.2795 15.7259 20.2447 17.3536 18.4487 19.226L18.4167 19.258C16.5476 20.93 14.9999 22.9296 13.8497 25.158L13.8457 25.156ZM11.1637 44.656L11.5347 45.024L11.1637 44.656ZM43.7297 42.466C43.4387 42.766 43.1297 43.08 42.8007 43.41C42.4157 43.795 42.0207 44.178 41.6197 44.555C42.0197 44.178 42.4197 43.795 42.8007 43.41C43.1317 43.078 43.4397 42.764 43.7297 42.464V42.466ZM49.5737 34.538C49.5037 34.675 49.4317 34.814 49.3577 34.953C48.8743 35.8596 48.3436 36.7402 47.7677 37.591C48.3436 36.7402 48.8743 35.8596 49.3577 34.953C49.4327 34.812 49.5007 34.673 49.5747 34.535L49.5737 34.538ZM50.2357 23.467C50.5976 24.5808 50.8629 25.7237 51.0287 26.883C50.8651 25.7223 50.5997 24.5782 50.2357 23.464V23.467ZM41.4597 10.6C41.9857 11.072 42.496 11.5557 42.9907 12.051C44.4085 13.4849 45.7061 15.0328 46.8707 16.679C47.3767 17.395 47.8337 18.096 48.2287 18.764C46.7598 16.3232 45.0011 14.0692 42.9907 12.051C42.4973 11.5543 41.987 11.0707 41.4597 10.6ZM32.3427 4.428C32.7077 4.604 33.0827 4.796 33.4877 5.014C34.6107 5.614 35.7157 6.278 36.7707 6.975C35.7177 6.275 34.6127 5.619 33.4887 5.014C33.0827 4.8 32.7087 4.6 32.3427 4.428ZM14.5177 31.982C14.3291 31.5431 14.1701 31.0921 14.0417 30.632C13.8807 30.0611 13.7891 29.4728 13.7687 28.88C13.8242 29.9509 14.0786 31.0021 14.5187 31.98L14.5177 31.982Z" fill="#53B7D1"/>
<path d="M89.6351 41.7442C90.9291 41.7442 92.1199 41.7185 93.2093 41.6672C94.2986 41.6159 95.4224 41.5053 96.5804 41.3353C96.6813 41.3116 96.7869 41.313 96.887 41.3397C96.9872 41.3663 97.0788 41.4173 97.1546 41.488C97.2304 41.5587 97.2881 41.647 97.3216 41.7451C97.3551 41.8432 97.3637 41.948 97.347 42.0503V45.8802C97.347 46.3222 97.0756 46.6293 96.5296 46.7993C95.1967 47.2117 93.8291 47.5021 92.4437 47.6672C90.9711 47.8649 89.487 47.9671 88.0013 47.9732C85.6139 48.0385 83.2365 47.6396 81.0013 46.7983C79.1864 46.082 77.5868 44.9112 76.3548 43.3983C75.1038 41.7947 74.2146 39.9391 73.7493 37.9592C73.1772 35.5688 72.9037 33.1169 72.9339 30.6593V28.3103C72.9043 25.854 73.1702 23.403 73.7259 21.0102C74.1731 19.0336 75.0443 17.1778 76.2796 15.5712C77.4984 14.0553 79.0915 12.8833 80.9017 12.1712C83.1368 11.3298 85.5142 10.9308 87.9017 10.9963C90.6774 11.0163 93.4334 11.4642 96.0726 12.3243C96.3069 12.3827 96.5198 12.5069 96.6858 12.6822C96.7963 12.8481 96.8503 13.0453 96.8392 13.2442V16.9212C96.8557 17.0236 96.8464 17.1283 96.8128 17.2264C96.7792 17.3245 96.7216 17.4128 96.6458 17.4835C96.57 17.5542 96.4784 17.605 96.3782 17.6317C96.2781 17.6583 96.1725 17.6599 96.0716 17.6362C95.1176 17.5029 94.079 17.4005 92.9564 17.3292C91.8337 17.2578 90.6931 17.2245 89.5345 17.2292C88.1346 17.19 86.7405 17.4153 85.4241 17.8933C84.3454 18.3149 83.4128 19.0427 82.7425 19.9873C82.0081 21.0707 81.512 22.2978 81.2874 23.5872C80.9752 25.2799 80.8299 26.9992 80.8528 28.7203V30.3033C80.8295 32.0252 80.9833 33.7449 81.3118 35.4353C81.5505 36.7217 82.0644 37.9412 82.8187 39.0102C83.5149 39.9446 84.4628 40.6618 85.5511 41.0782C86.8595 41.5521 88.2449 41.7774 89.636 41.7423L89.6351 41.7442ZM103.272 12.4303C103.272 11.8853 103.525 11.6132 104.037 11.6132H110.369C110.48 11.5974 110.594 11.6076 110.7 11.643C110.807 11.6785 110.903 11.7382 110.983 11.8175C111.062 11.8967 111.121 11.9933 111.157 12.0997C111.192 12.2061 111.203 12.3193 111.187 12.4303V38.8303C111.13 39.5985 111.308 40.3656 111.698 41.0302C111.966 41.3051 112.296 41.5131 112.659 41.6373C113.023 41.7615 113.411 41.7984 113.791 41.7452H125.892C126.003 41.7293 126.116 41.7395 126.222 41.775C126.328 41.8104 126.425 41.8701 126.504 41.9494C126.583 42.0287 126.644 42.1254 126.679 42.2318C126.714 42.3381 126.724 42.4512 126.708 42.5622V46.3413C126.708 46.9879 126.42 47.3283 125.841 47.3623C123.969 47.5323 121.824 47.6769 119.406 47.7962C116.988 47.9156 114.485 47.9753 111.898 47.9753C110.533 48.0001 109.169 47.8627 107.836 47.5662C106.851 47.3541 105.932 46.9082 105.156 46.2662C104.459 45.646 103.954 44.8402 103.7 43.9432C103.386 42.7957 103.24 41.6087 103.267 40.4193L103.272 12.4303ZM139.376 46.4932C139.393 46.6112 139.383 46.7314 139.345 46.8444C139.307 46.9575 139.244 47.0601 139.159 47.1444C139.075 47.2286 138.973 47.292 138.86 47.3297C138.747 47.3673 138.627 47.3782 138.509 47.3613H132.328C132.211 47.3782 132.091 47.3673 131.978 47.3297C131.865 47.292 131.762 47.2286 131.678 47.1444C131.594 47.0601 131.53 46.9575 131.492 46.8444C131.455 46.7314 131.443 46.6112 131.46 46.4932V12.5322C131.46 11.9195 131.75 11.6132 132.328 11.6132H138.509C139.088 11.6132 139.377 11.9195 139.376 12.5322V46.4932ZM163.277 41.7432C164.571 41.7432 165.764 41.7176 166.853 41.6662C167.942 41.6149 169.066 41.5042 170.223 41.3342C170.324 41.3105 170.428 41.3122 170.529 41.3388C170.629 41.3655 170.721 41.4163 170.797 41.487C170.873 41.5577 170.931 41.6459 170.964 41.744C170.998 41.842 171.006 41.9469 170.99 42.0493V45.8792C170.99 46.3219 170.718 46.6283 170.172 46.7983C168.84 47.2106 167.471 47.501 166.086 47.6662C164.613 47.8639 163.13 47.9662 161.644 47.9722C159.256 48.0376 156.879 47.6385 154.644 46.7972C152.829 46.0809 151.228 44.9102 149.996 43.3973C148.747 41.7933 147.861 39.9377 147.397 37.9582C146.824 35.5679 146.55 33.116 146.579 30.6583V28.3093C146.55 25.853 146.816 23.402 147.371 21.0092C147.819 19.0328 148.691 17.1771 149.926 15.5703C151.145 14.0543 152.738 12.8824 154.548 12.1702C156.783 11.3289 159.161 10.9298 161.548 10.9952C164.324 11.0154 167.08 11.4633 169.72 12.3232C169.954 12.3819 170.166 12.5061 170.331 12.6812C170.442 12.8471 170.496 13.0443 170.485 13.2432V16.9202C170.501 17.0225 170.493 17.1273 170.459 17.2254C170.426 17.3235 170.369 17.4118 170.293 17.4825C170.218 17.5532 170.125 17.6042 170.025 17.6308C169.925 17.6575 169.82 17.6589 169.719 17.6352C168.765 17.5019 167.726 17.3995 166.603 17.3282C165.479 17.2569 164.339 17.2236 163.182 17.2282C161.782 17.1889 160.386 17.4142 159.07 17.8923C157.991 18.3139 157.059 19.0418 156.389 19.9863C155.655 21.0702 155.159 22.297 154.934 23.5863C154.623 25.2791 154.477 26.9981 154.499 28.7192V30.3022C154.476 32.024 154.629 33.7438 154.957 35.4343C155.196 36.7209 155.711 37.9405 156.466 39.0092C157.162 39.944 158.109 40.6614 159.198 41.0772C160.506 41.5512 161.891 41.7764 163.282 41.7413L163.277 41.7432ZM202.55 11.6123C202.664 11.6013 202.777 11.6246 202.877 11.6792C202.977 11.7337 203.059 11.817 203.112 11.9183C203.161 12.0268 203.177 12.1472 203.159 12.265C203.142 12.3828 203.091 12.493 203.012 12.5822L192.082 28.8222L204.442 46.4412C204.508 46.5223 204.549 46.6203 204.563 46.724C204.576 46.8277 204.561 46.9331 204.518 47.0283C204.47 47.1403 204.387 47.2334 204.281 47.2934C204.175 47.3534 204.052 47.3768 203.931 47.3602H196.731C196.434 47.3749 196.137 47.3227 195.863 47.2072C195.627 47.0755 195.433 46.8809 195.302 46.6452L184.831 30.7113V46.4913C184.848 46.6092 184.838 46.7292 184.8 46.8421C184.762 46.955 184.699 47.0577 184.615 47.1419C184.53 47.2261 184.428 47.2895 184.315 47.3272C184.202 47.365 184.082 47.3759 183.964 47.3592H177.783C177.665 47.3759 177.545 47.3651 177.432 47.3274C177.319 47.2896 177.216 47.2261 177.132 47.1419C177.048 47.0577 176.985 46.955 176.948 46.8421C176.91 46.7292 176.898 46.6091 176.915 46.4913V12.5302C176.915 11.9176 177.205 11.6113 177.783 11.6113H183.964C184.542 11.6113 184.831 11.9176 184.831 12.5302V26.9303L194.585 12.2222C194.716 12.0316 194.892 11.876 195.097 11.7691C195.302 11.6622 195.53 11.6073 195.761 11.6092L202.55 11.6123Z" fill="#222222"/>
</g>
<defs>
<clipPath id="clip0">
<rect width="204.562" height="57.478" fill="white"/>
</clipPath>
</defs>
</svg>
