<svg width="180" height="180" viewBox="0 0 180 180" fill="none" xmlns="http://www.w3.org/2000/svg">
<circle cx="90" cy="90" r="90" fill="#F7F7F7"/>
<g clip-path="url(#clip0)">
<path d="M135.413 121.899H122.951V129.088H135.413V121.899Z" fill="#326A32"/>
<path d="M109.822 127.425C109.711 127.806 109.659 128.249 109.891 128.571C110.019 128.732 110.188 128.856 110.381 128.93C110.875 129.123 111.407 129.201 111.937 129.158C112.038 129.163 112.139 129.146 112.234 129.11C112.329 129.073 112.415 129.018 112.487 128.947C113.715 127.93 114.545 126.513 114.833 124.945C114.856 124.864 114.851 124.778 114.82 124.7C114.78 124.639 114.723 124.591 114.657 124.561C114.384 124.39 114.089 124.255 113.781 124.161C112.094 123.725 110.24 126.003 109.822 127.425Z" fill="#0B170B"/>
<path d="M127.514 122.093C127.741 122.356 128.02 122.569 128.334 122.718C128.492 122.791 128.664 122.827 128.837 122.824C129.011 122.821 129.181 122.779 129.336 122.701C129.8 122.436 129.932 121.822 129.895 121.29C129.826 120.304 129.356 119.416 128.815 118.611C128.644 118.357 128.265 117.599 127.932 117.589C127.774 117.585 127.184 118.158 127.023 118.267C126.437 118.665 126.031 118.95 126.153 119.714C126.289 120.567 126.94 121.479 127.514 122.093Z" fill="#0B170B"/>
<path d="M122.373 81.3383C119.876 81.1447 117.492 81.2164 114.991 81.088C114.781 81.0773 114.882 83.483 114.664 84.7893C114.553 85.4607 110.788 124.792 111.255 124.872C112.455 125.123 113.669 125.303 114.89 125.41C115.385 125.454 120.002 99.8264 119.781 97.7437C120.385 98.6302 122.514 102.724 123.591 107.432C125.011 113.645 125.43 120.672 126.313 120.278C126.881 119.497 127.652 118.887 128.543 118.514C130.002 117.971 127.637 88.0867 125.138 86.7128C125.108 85.8381 125.076 84.942 124.746 84.1312C124.281 82.9876 123.364 82.0745 122.373 81.3383Z" fill="#0B170B"/>
<path d="M142.575 129.306H73.7842V129.045H142.623L142.575 129.306Z" fill="#070F07"/>
<path d="M96.3868 55.2849H40.5073V65.7031H96.3868V55.2849Z" fill="#E6E6E6"/>
<path d="M41.6987 64.5781H95.1957V56.4098H41.6987V64.5781Z" fill="white"/>
<path d="M46.3819 63.5383C48.2019 63.5383 49.6773 62.145 49.6773 60.4263C49.6773 58.7077 48.2019 57.3144 46.3819 57.3144C44.5618 57.3144 43.0864 58.7077 43.0864 60.4263C43.0864 62.145 44.5618 63.5383 46.3819 63.5383Z" fill="#326A32"/>
<path d="M86.7869 59.2087H54.2622V59.8852H86.7869V59.2087Z" fill="#326A32"/>
<path d="M86.7869 60.9675H54.2622V61.644H86.7869V60.9675Z" fill="#326A32"/>
<path d="M96.3868 69.4916H40.5073V79.9098H96.3868V69.4916Z" fill="#E6E6E6"/>
<path d="M41.6987 78.8211H95.1957V70.6528H41.6987V78.8211Z" fill="white"/>
<path d="M46.3819 77.8802C48.2019 77.8802 49.6773 76.487 49.6773 74.7683C49.6773 73.0496 48.2019 71.6564 46.3819 71.6564C44.5618 71.6564 43.0864 73.0496 43.0864 74.7683C43.0864 76.487 44.5618 77.8802 46.3819 77.8802Z" fill="#CCCCCC"/>
<path d="M86.7869 73.5507H54.2622V74.2272H86.7869V73.5507Z" fill="#CCCCCC"/>
<path d="M86.7869 75.3094H54.2622V75.9859H86.7869V75.3094Z" fill="#CCCCCC"/>
<path d="M96.3868 83.6982H40.5073V94.1164H96.3868V83.6982Z" fill="#E6E6E6"/>
<path d="M41.6987 92.9914H95.1957V84.8231H41.6987V92.9914Z" fill="white"/>
<path d="M46.3819 92.0869C48.2019 92.0869 49.6773 90.6937 49.6773 88.975C49.6773 87.2563 48.2019 85.863 46.3819 85.863C44.5619 85.863 43.0864 87.2563 43.0864 88.975C43.0864 90.6937 44.5619 92.0869 46.3819 92.0869Z" fill="#CCCCCC"/>
<path d="M86.7869 87.7572H54.2622V88.4337H86.7869V87.7572Z" fill="#CCCCCC"/>
<path d="M86.7869 89.5162H54.2622V90.1927H86.7869V89.5162Z" fill="#CCCCCC"/>
<path d="M96.3868 97.9048H40.5073V108.323H96.3868V97.9048Z" fill="#E6E6E6"/>
<path d="M41.6987 107.198H95.1957V99.0297H41.6987V107.198Z" fill="white"/>
<path d="M46.3819 106.293C48.2019 106.293 49.6773 104.9 49.6773 103.182C49.6773 101.463 48.2019 100.07 46.3819 100.07C44.5619 100.07 43.0864 101.463 43.0864 103.182C43.0864 104.9 44.5619 106.293 46.3819 106.293Z" fill="#CCCCCC"/>
<path d="M86.7869 101.964H54.2622V102.64H86.7869V101.964Z" fill="#CCCCCC"/>
<path d="M86.7869 103.723H54.2622V104.399H86.7869V103.723Z" fill="#CCCCCC"/>
<path d="M121.758 62.2608C120.462 60.0716 117.899 59.9696 117.899 59.9696C117.899 59.9696 115.401 59.6501 113.798 62.9844C112.305 66.0922 110.244 69.0928 113.467 69.8203L114.049 68.0084L114.409 69.9552C114.868 69.9882 115.328 69.9961 115.788 69.9788C119.24 69.8673 122.527 70.0114 122.421 68.7728C122.28 67.1264 123.004 64.3673 121.758 62.2608Z" fill="#0B170B"/>
<path d="M116.978 69.7198C116.984 69.9662 116.982 70.2261 116.86 70.44C116.617 70.8641 116.024 70.9276 115.668 71.2619C115.293 71.6134 115.25 72.1839 115.233 72.6975C115.214 73.2344 115.198 73.789 115.394 74.2892C115.514 74.5648 115.666 74.8255 115.846 75.0659C116.064 75.3796 116.283 75.6919 116.505 76.0028C116.623 76.1779 116.755 76.3434 116.9 76.4979C117.297 76.9023 117.841 77.1261 118.385 77.2858C118.736 77.389 119.115 77.4693 119.464 77.3573C119.694 77.2673 119.907 77.1366 120.091 76.9714C120.361 76.7782 120.6 76.5462 120.802 76.283C121.094 75.8585 121.175 75.327 121.236 74.815C121.415 73.3008 121.485 71.7757 121.445 70.2515C121.452 70.0854 121.422 69.9197 121.358 69.7666C121.177 69.4142 120.694 69.3389 120.439 69.0358C120.221 68.7766 120.212 68.4066 120.214 68.0681L120.219 67.2063C120.226 67.1336 120.212 67.0604 120.177 66.9963C120.145 66.9617 120.107 66.9338 120.065 66.914C120.022 66.8942 119.976 66.8829 119.93 66.8809C119.394 66.792 118.851 66.7557 118.308 66.7725C117.868 66.7859 117.024 66.7491 116.644 66.9941C116.298 67.2166 116.731 67.831 116.811 68.1761C116.918 68.6837 116.974 69.2009 116.978 69.7198Z" fill="#FFB8B8"/>
<path d="M117.988 68.2398C119.912 68.2398 121.471 66.6801 121.471 64.7562C121.471 62.8323 119.912 61.2727 117.988 61.2727C116.064 61.2727 114.504 62.8323 114.504 64.7562C114.504 66.6801 116.064 68.2398 117.988 68.2398Z" fill="#FFB8B8"/>
<path d="M117.199 72.2899C115.401 66.5924 114.454 74.5951 113.32 76.7802C113.331 78.2868 113.372 82.4537 113.724 84.0331C115.093 90.1685 121.871 89.6869 123.909 84.5124C124.995 81.756 122.587 74.9248 122.668 71.7373C119.683 68.7128 119.499 78.3083 117.199 72.2899Z" fill="#326A32"/>
<path d="M115.225 70.3356C111.33 72.2291 113.188 77.3163 111.776 80.6456C110.648 85.2133 107.78 86.6496 114.338 86.7559C115.751 82.5808 114.371 78.0457 116.298 73.7944C116.43 72.1294 117.001 71.5032 116.951 70.0932C116.573 69.508 115.594 70.1543 115.225 70.3356Z" fill="#244D24"/>
<path d="M121.185 62.0498L118.652 60.7232L115.155 61.2659L114.432 64.4617L116.233 64.3923L116.736 63.2183V64.3729L117.567 64.3411L118.049 62.4719L118.351 64.4617L121.305 64.4013L121.185 62.0498Z" fill="#0B170B"/>
<path d="M119.618 71.9392C121.623 71.7052 119.668 69.2972 121.26 69.3381C126.026 68.5365 127.451 71.4882 125.639 75.608C123.978 78.9078 129.855 83.5432 126.571 85.3896C125.406 85.8174 123.738 87.1628 122.599 86.577C120.771 81.9818 120.705 76.7315 119.618 71.9392Z" fill="#244D24"/>
<path d="M125.199 85.0574C124.501 85.3913 123.949 85.9223 123.482 86.5391C123.383 86.6697 123.515 86.9133 123.812 86.9093C124.088 86.9056 124.253 86.5518 124.528 86.5481C124.613 87.2855 124.765 88.0134 124.984 88.7224C125.535 88.2391 125.864 87.5588 126.18 86.8977L126.803 85.5909C127.032 85.1112 127.261 84.6312 127.467 84.1413C127.523 84.0268 127.558 83.9029 127.569 83.7759C127.596 82.9329 126.765 82.9278 126.407 83.4554C126.014 84.0325 125.892 84.726 125.199 85.0574Z" fill="#FFB8B8"/>
<path d="M125.343 70.5639C125.875 71.1176 126.412 71.676 126.826 72.3237C127.239 72.9714 129.379 78.7962 129.466 78.9197C129.775 79.3756 129.414 80.5542 129.396 80.6217C129.36 80.8333 128.914 82.9467 128.802 83.4134C128.724 83.74 128.725 84.08 128.673 84.4119C128.622 84.7438 128.507 85.0851 128.251 85.3029C128.219 85.3341 128.179 85.3565 128.135 85.3679C127.993 85.3956 127.897 85.2315 127.847 85.0959C127.692 84.6734 127.536 84.2427 127.264 83.8848C126.991 83.5269 126.578 83.2466 126.129 83.248C126.091 83.159 126.076 83.0624 126.084 82.9663C126.091 82.8701 126.122 82.7772 126.173 82.6952C126.263 82.5252 126.395 82.3811 126.494 82.2164C126.62 81.9919 126.706 81.7471 126.747 81.4931C126.97 80.3261 126.746 79.1182 126.121 78.108C125.975 77.8684 125.8 77.6487 125.598 77.4544C125.378 77.2486 125.121 77.0831 124.918 76.8606C124.606 76.4905 124.417 76.0318 124.378 75.5489C124.34 75.0691 124.353 74.5868 124.416 74.1097C124.507 73.163 124.624 72.2148 124.76 71.2734C124.77 71.1507 124.802 71.0308 124.854 70.9191C124.96 70.7211 125.139 70.6595 125.343 70.5639Z" fill="#244D24"/>
<path d="M113.712 83.6446C113.354 83.117 112.522 83.1221 112.549 83.9651C112.561 84.0922 112.596 84.216 112.652 84.3305C112.858 84.8204 113.087 85.3004 113.316 85.7801L113.939 87.0869C114.254 87.748 114.584 88.4283 115.134 88.9116C115.353 88.2025 115.506 87.4747 115.59 86.7373C115.866 86.741 116.031 87.0948 116.307 87.0985C116.603 87.1025 116.736 86.8589 116.637 86.7283C116.17 86.1115 115.617 85.5805 114.919 85.2466C114.226 84.9152 114.104 84.2217 113.712 83.6446Z" fill="#FFB8B8"/>
<path d="M115.265 71.1083C115.317 71.22 115.348 71.3399 115.359 71.4625C115.494 72.404 115.611 73.3521 115.703 74.2989C115.765 74.776 115.778 75.2583 115.741 75.738C115.702 76.221 115.513 76.6796 115.2 77.0498C114.997 77.2722 114.74 77.4377 114.521 77.6435C114.319 77.8379 114.143 78.0576 113.998 78.2971C113.372 79.3073 113.149 80.5152 113.371 81.6823C113.413 81.9363 113.498 82.1811 113.624 82.4056C113.724 82.5703 113.856 82.7144 113.946 82.8844C113.997 82.9663 114.027 83.0593 114.035 83.1554C114.042 83.2516 114.027 83.3481 113.99 83.4371C113.54 83.4358 113.127 83.7161 112.855 84.074C112.582 84.4319 112.426 84.8626 112.271 85.285C112.222 85.4207 112.125 85.5847 111.983 85.5571C111.94 85.5457 111.9 85.5233 111.867 85.492C111.611 85.2742 111.496 84.9329 111.445 84.601C111.394 84.2691 111.395 83.9291 111.317 83.6025C111.205 83.1358 110.758 81.0225 110.723 80.8108C110.704 80.7433 110.343 79.5647 110.652 79.1088C110.739 78.9853 112.879 73.1605 113.293 72.5128C113.706 71.8652 114.243 71.3068 114.776 70.7531C114.979 70.8486 115.159 70.9103 115.265 71.1083Z" fill="#244D24"/>
</g>
<defs>
<clipPath id="clip0">
<rect width="102.115" height="74.0215" fill="white" transform="translate(40.5073 55.2849)"/>
</clipPath>
</defs>
</svg>
