<svg width="180" height="180" viewBox="0 0 180 180" fill="none" xmlns="http://www.w3.org/2000/svg">
<circle cx="90" cy="90" r="90" fill="#F7F7F7"/>
<g clip-path="url(#clip0)">
<path d="M137.587 49.1804H106.88C105.398 49.1803 103.961 49.6846 102.803 50.6103C101.646 51.5361 100.838 52.8282 100.512 54.2743L84.9969 123.12C84.8276 123.871 84.8246 124.65 84.9881 125.402C85.1516 126.154 85.4776 126.862 85.9432 127.475C86.4088 128.088 87.0029 128.591 87.6836 128.95C88.3643 129.309 89.1153 129.514 89.8838 129.552L121.451 131.108C123.141 131.191 124.804 130.657 126.129 129.604C127.454 128.551 128.351 127.051 128.652 125.385L137.454 76.7105L138.109 76.8976L139.793 67.6719L139.119 67.5034L141.576 53.9164C141.681 53.3344 141.657 52.7364 141.505 52.1649C141.353 51.5934 141.076 51.0626 140.695 50.6103C140.314 50.1579 139.838 49.7952 139.301 49.548C138.764 49.3008 138.179 49.1751 137.588 49.18L137.587 49.1804Z" fill="#0B170B"/>
<path d="M110.922 50.6646H107.338C106.309 50.6646 105.311 51.0167 104.509 51.6626C103.707 52.3085 103.15 53.2092 102.931 54.2153L88.0379 122.5C87.9521 122.893 87.9522 123.3 88.0381 123.693C88.124 124.086 88.2937 124.456 88.5357 124.778C88.7776 125.099 89.0861 125.364 89.44 125.556C89.7939 125.747 90.1849 125.86 90.5863 125.886L122.051 127.949C122.938 128.007 123.816 127.736 124.517 127.188C125.218 126.64 125.692 125.853 125.85 124.977L138.558 54.3988C138.641 53.942 138.622 53.4727 138.503 53.024C138.384 52.5753 138.168 52.1582 137.87 51.8021C137.573 51.446 137.201 51.1595 136.78 50.963C136.36 50.7664 135.902 50.6646 135.438 50.6646H132.038C131.709 50.6645 131.389 50.7731 131.127 50.9733C130.866 51.1736 130.678 51.4544 130.593 51.7723C130.517 52.0531 130.351 52.3011 130.12 52.4779C129.89 52.6547 129.607 52.7505 129.316 52.7504H113.174C112.605 52.7503 112.057 52.5355 111.64 52.1488C111.222 51.7621 110.966 51.2321 110.922 50.6646Z" fill="white"/>
<path d="M128.316 98.4011C128.377 98.4032 128.437 98.3832 128.484 98.3448C128.532 98.3064 128.564 98.2522 128.575 98.1919L135.534 59.7751C135.54 59.7386 135.539 59.7011 135.53 59.6652C135.521 59.6292 135.504 59.5957 135.48 59.5668C135.457 59.5382 135.428 59.515 135.395 59.4989C135.362 59.4828 135.326 59.4742 135.289 59.4737L103.632 59.0997H103.629C103.572 59.1002 103.516 59.1202 103.472 59.1564C103.427 59.1926 103.396 59.2429 103.384 59.2991L95.1809 96.469C95.1729 96.5052 95.1728 96.5428 95.1806 96.5791C95.1885 96.6154 95.204 96.6496 95.2263 96.6793C95.2484 96.7088 95.2766 96.7331 95.3091 96.7504C95.3416 96.7677 95.3775 96.7777 95.4143 96.7796L128.316 98.4011Z" fill="#E6E6E6"/>
<path d="M100.844 100.885C100.815 100.885 100.787 100.895 100.765 100.913C100.742 100.931 100.726 100.956 100.72 100.984L100.423 102.255C100.419 102.273 100.419 102.291 100.423 102.309C100.426 102.327 100.434 102.344 100.445 102.359C100.456 102.374 100.47 102.386 100.486 102.395C100.502 102.404 100.52 102.41 100.538 102.411L117.285 103.602C117.316 103.604 117.347 103.594 117.372 103.575C117.397 103.556 117.414 103.529 117.42 103.499L117.705 102.028C117.708 102.01 117.708 101.992 117.704 101.974C117.7 101.957 117.692 101.94 117.68 101.926C117.669 101.911 117.655 101.899 117.639 101.891C117.623 101.883 117.605 101.878 117.587 101.876L100.852 100.885L100.844 100.885Z" fill="#E6E6E6"/>
<path d="M121.191 108.323C121.221 108.325 121.251 108.317 121.276 108.299C121.301 108.282 121.318 108.256 121.325 108.226L121.688 106.753C121.693 106.735 121.693 106.716 121.69 106.697C121.686 106.679 121.678 106.662 121.667 106.647C121.657 106.632 121.642 106.619 121.626 106.61C121.61 106.601 121.592 106.596 121.573 106.595L100.186 105.098C100.157 105.096 100.128 105.104 100.104 105.12C100.08 105.137 100.063 105.161 100.055 105.189L99.6776 106.463C99.6722 106.481 99.671 106.5 99.6739 106.519C99.6769 106.538 99.684 106.556 99.6947 106.571C99.7055 106.587 99.7196 106.6 99.736 106.609C99.7524 106.619 99.7707 106.625 99.7896 106.626L121.191 108.323Z" fill="#E6E6E6"/>
<path d="M120.043 113.047C120.073 113.049 120.103 113.041 120.128 113.023C120.152 113.005 120.17 112.979 120.177 112.95L120.54 111.476C120.544 111.458 120.545 111.439 120.541 111.421C120.538 111.403 120.53 111.386 120.519 111.371C120.508 111.355 120.494 111.343 120.478 111.334C120.461 111.325 120.443 111.32 120.425 111.318L99.0376 109.822C99.0086 109.82 98.9796 109.827 98.9557 109.844C98.9318 109.861 98.9143 109.885 98.9063 109.913L98.5292 111.186C98.5238 111.205 98.5225 111.224 98.5255 111.243C98.5285 111.261 98.5356 111.279 98.5463 111.295C98.557 111.31 98.5711 111.324 98.5875 111.333C98.604 111.343 98.6223 111.348 98.6412 111.35L120.043 113.047Z" fill="#E6E6E6"/>
<path d="M82.9611 129.676C82.9611 130.745 73.185 130.858 61.1527 131.611C49.1311 132.362 39.3442 130.745 39.3442 129.676C39.3442 128.608 49.1768 126.458 61.1527 127.742C73.185 129.031 82.9611 128.608 82.9611 129.676Z" fill="#E6E6E6"/>
<path d="M110.192 121.122C110.223 121.125 110.253 121.117 110.278 121.099C110.303 121.081 110.321 121.055 110.328 121.025L111.096 117.955C111.1 117.937 111.101 117.918 111.097 117.9C111.094 117.882 111.086 117.865 111.076 117.85C111.065 117.835 111.051 117.822 111.035 117.813C111.019 117.804 111.001 117.798 110.982 117.797L97.8485 116.692C97.8179 116.689 97.7875 116.698 97.7627 116.717C97.7379 116.735 97.7204 116.761 97.7133 116.791L97.0587 119.738C97.0548 119.756 97.0546 119.774 97.0583 119.792C97.062 119.809 97.0694 119.826 97.0801 119.841C97.0908 119.855 97.1044 119.868 97.1202 119.877C97.1359 119.886 97.1534 119.891 97.1714 119.893L110.192 121.122Z" fill="#326A32"/>
<path d="M57.1606 108.61C57.326 108.496 57.4645 108.348 57.5664 108.175C57.6683 108.002 57.731 107.809 57.7503 107.61C57.7695 107.41 57.7448 107.209 57.6778 107.02C57.6108 106.831 57.5032 106.659 57.3625 106.516L57.8943 94.6406L55.1869 94.9446L55.3442 106.56C55.1197 106.812 54.9955 107.138 54.9951 107.476C54.9948 107.814 55.1183 108.14 55.3423 108.392C55.5663 108.645 55.8751 108.807 56.2103 108.846C56.5455 108.886 56.8837 108.802 57.1607 108.609L57.1606 108.61Z" fill="#FFB9B9"/>
<path d="M62.1001 128.712L63.6411 128.983L65.1641 123.166L63.145 122.766L62.1001 128.712Z" fill="#FFB9B9"/>
<path d="M66.3618 130.937L61.5189 130.085L61.8478 128.213L64.8196 128.736C65.3159 128.823 65.7572 129.104 66.0464 129.517C66.3356 129.93 66.4491 130.44 66.3618 130.937L66.3618 130.937Z" fill="#0E1F0E"/>
<path d="M57.8704 129.483H59.435L60.1792 123.446H57.8701L57.8704 129.483Z" fill="#FFB9B9"/>
<path d="M62.4517 130.937L57.5344 130.937L57.5343 129.037L60.5517 129.036C61.0556 129.036 61.5388 129.237 61.8951 129.593C62.2514 129.949 62.4516 130.433 62.4517 130.937Z" fill="#0E1F0E"/>
<path d="M64.3978 127.319C64.3734 127.319 64.3491 127.318 64.3248 127.315L62.4833 127.163C62.3995 127.154 62.3185 127.127 62.2454 127.085C62.1722 127.043 62.1083 126.986 62.0577 126.918C62.0071 126.851 61.9707 126.774 61.9508 126.692C61.9308 126.61 61.9278 126.524 61.9418 126.441L63.77 117.417L62.6214 111.357C62.612 111.307 62.5852 111.263 62.5458 111.232C62.5064 111.201 62.4572 111.186 62.4071 111.188C62.3571 111.191 62.3096 111.211 62.2735 111.246C62.2374 111.281 62.215 111.327 62.2106 111.377L60.5183 126.777C60.5025 126.939 60.4243 127.089 60.3003 127.195C60.1762 127.3 60.016 127.354 59.8534 127.344L58.1184 127.279C57.9664 127.268 57.8236 127.202 57.7169 127.093C57.6103 126.984 57.5472 126.84 57.5396 126.688L57.6781 108.078L66.6727 106.953L67.3011 116.661L67.2986 116.672L65.0026 126.843C64.9696 126.979 64.892 127.1 64.7824 127.186C64.6728 127.272 64.5374 127.319 64.3978 127.319Z" fill="#0E1F0E"/>
<path d="M60.6442 86.9459C62.3753 86.9459 63.7786 85.542 63.7786 83.8103C63.7786 82.0785 62.3753 80.6747 60.6442 80.6747C58.9131 80.6747 57.5098 82.0785 57.5098 83.8103C57.5098 85.542 58.9131 86.9459 60.6442 86.9459Z" fill="#FFB9B9"/>
<path d="M63.5977 109.494C63.1075 109.497 62.6267 109.36 62.2122 109.098C60.6936 108.148 58.9693 108.526 58.0765 108.835C57.9879 108.866 57.8934 108.877 57.8001 108.866C57.7069 108.855 57.6172 108.824 57.5378 108.774C57.4594 108.724 57.3931 108.658 57.344 108.58C57.2948 108.501 57.2641 108.412 57.254 108.32L55.6306 93.8142C55.3585 91.3837 56.822 89.0986 59.1105 88.3808C59.1965 88.3538 59.2839 88.3283 59.3727 88.3042C60.0849 88.111 60.8307 88.0764 61.5576 88.2026C62.2846 88.3288 62.9751 88.6129 63.5805 89.0348C64.1972 89.4613 64.713 90.0179 65.0915 90.6654C65.47 91.3128 65.7021 92.0354 65.7713 92.7822L67.1382 107.385C67.1476 107.48 67.1348 107.575 67.101 107.664C67.0672 107.753 67.0132 107.833 66.9434 107.897C66.464 108.34 65.0733 109.494 63.5977 109.494Z" fill="#326A32"/>
<path d="M58.6538 96.925L54.9912 96.5221C54.8869 96.5106 54.7864 96.4768 54.6964 96.423C54.6064 96.3691 54.5291 96.2965 54.4697 96.2101C54.4103 96.1237 54.3702 96.0254 54.3522 95.9221C54.3341 95.8188 54.3386 95.7128 54.3652 95.6113L55.2976 92.0563C55.325 91.7899 55.405 91.5315 55.5329 91.2962C55.6608 91.0608 55.834 90.8531 56.0426 90.6852C56.2512 90.5172 56.491 90.3922 56.7481 90.3175C57.0052 90.2428 57.2746 90.2198 57.5407 90.2499C57.8068 90.2799 58.0643 90.3624 58.2983 90.4926C58.5323 90.6228 58.7382 90.7981 58.9041 91.0084C59.0699 91.2187 59.1925 91.4597 59.2647 91.7177C59.3369 91.9756 59.3573 92.2453 59.3247 92.5112L59.4632 96.172C59.4671 96.2769 59.4484 96.3813 59.4084 96.4783C59.3684 96.5753 59.3079 96.6625 59.2312 96.7339C59.1544 96.8054 59.0631 96.8595 58.9636 96.8925C58.864 96.9255 58.7586 96.9367 58.6543 96.9253L58.6538 96.925Z" fill="#326A32"/>
<path d="M67.1231 108.101C67.2736 107.969 67.3931 107.805 67.4734 107.621C67.5537 107.437 67.5928 107.238 67.5878 107.038C67.5829 106.837 67.5341 106.64 67.4448 106.461C67.3556 106.281 67.2281 106.124 67.0713 105.999L66.1687 94.146L63.5156 94.7435L65.0726 106.286C64.88 106.564 64.796 106.902 64.8363 107.237C64.8766 107.573 65.0385 107.881 65.2913 108.105C65.544 108.329 65.8701 108.452 66.2077 108.451C66.5452 108.451 66.8708 108.326 67.1226 108.101H67.1231Z" fill="#FFB9B9"/>
<path d="M62.4991 96.18C62.4224 96.1085 62.3619 96.0214 62.3218 95.9244C62.2818 95.8275 62.2631 95.7231 62.2671 95.6182L62.4056 91.9574C62.3757 91.6929 62.3983 91.4251 62.4719 91.1693C62.5455 90.9135 62.6687 90.6746 62.8346 90.4665C63.0005 90.2583 63.2057 90.0849 63.4385 89.956C63.6714 89.8272 63.9274 89.7455 64.1918 89.7157C64.4562 89.6858 64.7239 89.7083 64.9797 89.782C65.2354 89.8556 65.4741 89.9789 65.6822 90.1448C65.8903 90.3108 66.0636 90.5161 66.1924 90.749C66.3212 90.982 66.4028 91.238 66.4327 91.5026L67.3651 95.0575C67.3917 95.159 67.3961 95.265 67.3781 95.3683C67.3601 95.4717 67.32 95.5699 67.2606 95.6563C67.2012 95.7428 67.1238 95.8154 67.0339 95.8692C66.9439 95.923 66.8433 95.9568 66.7391 95.9683L63.0765 96.3712C62.9722 96.3827 62.8667 96.3715 62.7672 96.3385C62.6676 96.3054 62.5764 96.2513 62.4996 96.1797L62.4991 96.18Z" fill="#326A32"/>
<path d="M60.4582 87.064C60.4024 87.064 60.3467 87.0575 60.2923 87.0447L60.2764 87.0409C57.5206 86.6196 56.9115 85.0223 56.7779 84.3555C56.6395 83.665 56.797 82.9986 57.1531 82.7397C56.959 82.1269 56.9901 81.5829 57.2458 81.1232C57.6925 80.3215 58.66 80.0508 58.79 80.0171C59.5631 79.4466 60.4881 79.8274 60.6564 79.9047C62.152 79.3512 62.7238 79.8118 62.8269 79.9147C63.4954 80.0349 63.9029 80.2931 64.0382 80.6828C64.2922 81.4144 63.4888 82.3246 63.4544 82.363L63.4366 82.3829L62.2395 82.44C62.1259 82.4454 62.0147 82.4746 61.9132 82.5258C61.8116 82.577 61.722 82.649 61.65 82.737C61.578 82.8251 61.5254 82.9273 61.4954 83.0371C61.4655 83.1468 61.459 83.2617 61.4762 83.3741C61.5086 83.5192 61.5495 83.6622 61.5988 83.8024C61.8029 84.4415 61.9561 84.9875 61.7588 85.1951C61.714 85.2353 61.6589 85.262 61.5996 85.2723C61.5404 85.2826 61.4794 85.276 61.4238 85.2532C61.2366 85.2032 61.1096 85.2136 61.0463 85.2845C60.948 85.3941 60.978 85.6719 61.1308 86.0664C61.1787 86.1912 61.1916 86.3267 61.1681 86.4583C61.1445 86.5899 61.0855 86.7125 60.9973 86.8129C60.9309 86.8913 60.8483 86.9543 60.7552 86.9976C60.6621 87.041 60.5607 87.0636 60.458 87.064H60.4582Z" fill="#0E1F0E"/>
</g>
<defs>
<clipPath id="clip0">
<rect width="102.295" height="82.6229" fill="white" transform="translate(39.3442 49.1803)"/>
</clipPath>
</defs>
</svg>
