<svg width="180" height="180" viewBox="0 0 180 180" fill="none" xmlns="http://www.w3.org/2000/svg">
<circle cx="90" cy="90" r="90" fill="#F7F7F7"/>
<g clip-path="url(#clip0)">
<path d="M132.767 131.556L131.252 131.555L130.531 125.712H132.767L132.767 131.556Z" fill="#9E616A"/>
<path d="M133.153 133.024L128.268 133.024V132.962C128.268 132.458 128.468 131.974 128.825 131.618C129.182 131.261 129.665 131.061 130.169 131.061H130.17L133.153 131.061L133.153 133.024Z" fill="#070F07"/>
<path d="M126.959 131.556L125.444 131.555L124.723 125.712H126.959L126.959 131.556Z" fill="#9E616A"/>
<path d="M127.345 133.024L122.46 133.024V132.962C122.46 132.458 122.661 131.974 123.017 131.618C123.374 131.261 123.858 131.061 124.362 131.061H124.362L127.346 131.061L127.345 133.024Z" fill="#070F07"/>
<path d="M61.5054 132.798V85.8628C61.5054 85.5737 61.6202 85.2965 61.8246 85.0921C62.029 84.8877 62.3062 84.7728 62.5953 84.7728H67.4593C67.7483 84.7728 68.0256 84.8877 68.23 85.0921C68.4344 85.2965 68.5492 85.5737 68.5492 85.8628V132.92L61.5054 132.798Z" fill="#1D3D1D"/>
<path d="M77.5703 132.945V95.6253C77.5703 95.3363 77.6851 95.059 77.8896 94.8546C78.094 94.6502 78.3712 94.5354 78.6603 94.5354H83.5242C83.8133 94.5354 84.0905 94.6502 84.2949 94.8546C84.4993 95.059 84.6141 95.3363 84.6141 95.6253V132.865L77.5703 132.945Z" fill="#1D3D1D"/>
<path d="M49.0239 88.606C48.9524 88.606 48.8823 88.5853 48.8222 88.5463C48.7622 88.5073 48.7147 88.4518 48.6855 88.3864C48.6563 88.3211 48.6467 88.2486 48.6578 88.1779C48.6689 88.1072 48.7002 88.0412 48.748 87.9879L65.0113 69.848L81.0166 78.8356L97.1172 51.0931L113.519 64.5932C113.557 64.6241 113.588 64.6622 113.611 64.7052C113.634 64.7481 113.648 64.7952 113.653 64.8437C113.658 64.8922 113.653 64.9411 113.638 64.9877C113.624 65.0343 113.601 65.0776 113.57 65.1152C113.539 65.1529 113.501 65.184 113.458 65.2069C113.415 65.2298 113.368 65.244 113.319 65.2487C113.271 65.2534 113.222 65.2484 113.175 65.2342C113.129 65.22 113.086 65.1967 113.048 65.1657L97.3202 52.2205L81.291 79.8401L65.1666 70.7856L49.3001 88.4828C49.2653 88.5216 49.2228 88.5527 49.1752 88.5739C49.1276 88.5952 49.0761 88.6061 49.0239 88.606Z" fill="#1D3D1D"/>
<path d="M48.9626 91.6955C50.8735 91.6955 52.4227 90.1464 52.4227 88.2354C52.4227 86.3244 50.8735 84.7753 48.9626 84.7753C47.0516 84.7753 45.5024 86.3244 45.5024 88.2354C45.5024 90.1464 47.0516 91.6955 48.9626 91.6955Z" fill="#326A32"/>
<path d="M65.0275 73.777C66.9385 73.777 68.4876 72.2278 68.4876 70.3168C68.4876 68.4058 66.9385 66.8567 65.0275 66.8567C63.1165 66.8567 61.5674 68.4058 61.5674 70.3168C61.5674 72.2278 63.1165 73.777 65.0275 73.777Z" fill="#CCCCCC"/>
<path d="M81.092 82.7979C83.0029 82.7979 84.5521 81.2488 84.5521 79.3378C84.5521 77.4268 83.0029 75.8777 81.092 75.8777C79.181 75.8777 77.6318 77.4268 77.6318 79.3378C77.6318 81.2488 79.181 82.7979 81.092 82.7979Z" fill="#E6E6E6"/>
<path d="M97.1569 55.117C99.0679 55.117 100.617 53.5678 100.617 51.6568C100.617 49.7459 99.0679 48.1967 97.1569 48.1967C95.2459 48.1967 93.6968 49.7459 93.6968 51.6568C93.6968 53.5678 95.2459 55.117 97.1569 55.117Z" fill="#326A32"/>
<path d="M128.051 80.8869C129.962 80.8869 131.511 79.3378 131.511 77.4268C131.511 75.5158 129.962 73.9667 128.051 73.9667C126.14 73.9667 124.591 75.5158 124.591 77.4268C124.591 79.3378 126.14 80.8869 128.051 80.8869Z" fill="#326A32"/>
<path d="M126.827 104.381C128.122 104.537 131.434 103.356 131.614 105.153C133.318 110.171 133.268 129.406 133.268 129.406L130.673 129.529C130.673 129.529 128.599 114.246 127.618 110.977C127.126 114.951 127.212 130.147 127.212 130.147L124.864 130.271C124.864 130.271 122.758 117.33 122.746 113.532C122.49 110.75 123.118 106.627 122.849 103.938C124.134 104.345 125.485 104.495 126.827 104.381L126.827 104.381Z" fill="#1D3D1D"/>
<path d="M109.7 132.779V78.683C109.7 77.9893 110.188 77.4268 110.79 77.4268H115.654C116.256 77.4268 116.744 77.9892 116.744 78.683V132.921L109.7 132.779Z" fill="#1D3D1D"/>
<path d="M122.422 89.824C121.902 88.7621 121.268 87.7605 120.53 86.8372C120.376 86.6568 120.235 86.4652 120.11 86.2638C119.844 85.8028 119.765 85.2616 119.597 84.7574C119.127 83.3437 117.956 82.208 117.67 80.7461C117.567 80.2147 116.69 81.7592 116.92 82.4181C117.332 83.6106 117.385 84.8736 117.909 86.0253C118.433 87.177 119.048 88.2818 119.501 89.4595C119.758 90.128 119.963 90.8188 120.34 91.4367C120.717 92.0546 121.305 92.5723 122.015 92.665C122.011 92.2171 122.079 91.7713 122.217 91.3452C122.371 90.8583 122.646 90.285 122.422 89.824Z" fill="#9E616A"/>
<path d="M130.196 90.6248C130.165 89.751 130.301 88.8793 130.598 88.0569C130.712 87.7418 130.845 87.4217 130.834 87.0869C130.818 86.7754 130.67 86.49 130.535 86.2082C130.07 85.2382 129.744 84.21 129.423 83.1843L128.805 81.2504C128.603 81.1027 129.78 81.0514 130.031 81.3987C130.851 82.538 131.473 83.8467 132.123 85.0911C132.289 85.3876 132.43 85.6972 132.545 86.0167C132.704 86.5345 132.779 87.0743 132.768 87.6158C132.768 88.6278 132.634 89.6362 132.496 90.6397C132.408 91.2687 132.293 91.9533 131.818 92.3697C131.323 91.737 130.827 91.1191 130.196 90.6248Z" fill="#9E616A"/>
<path d="M126.929 89.6235C128.345 89.6235 129.493 88.4755 129.493 87.0593C129.493 85.6431 128.345 84.4951 126.929 84.4951C125.513 84.4951 124.365 85.6431 124.365 87.0593C124.365 88.4755 125.513 89.6235 126.929 89.6235Z" fill="#9E616A"/>
<path d="M124.844 84.5011C124.815 84.4233 124.809 84.339 124.825 84.2577C124.842 84.1764 124.881 84.1013 124.938 84.041C125.002 83.9906 125.087 83.9717 125.156 83.9236C125.253 83.8416 125.333 83.7405 125.39 83.6266C125.566 83.3815 125.822 83.2063 126.114 83.1322C126.406 83.0581 126.715 83.0898 126.986 83.2217C127.409 83.4435 127.665 83.8876 128.042 84.1866C128.233 84.3416 128.455 84.4566 128.648 84.6115C129.033 84.9446 129.307 85.3879 129.433 85.8816C129.558 86.372 129.631 86.8742 129.651 87.3799C129.671 87.5317 129.665 87.6857 129.633 87.8354C129.594 87.961 129.536 88.0798 129.461 88.1876C129.073 88.7745 128.563 89.3075 127.923 89.6104C127.283 89.9132 126.505 89.9625 125.874 89.6456C125.811 89.6199 125.756 89.5762 125.717 89.5199C125.681 89.4343 125.672 89.3396 125.692 89.2488C125.726 88.8901 125.655 88.5291 125.488 88.21C125.371 87.9753 125.194 87.7733 125.101 87.5304C125.013 87.2584 124.976 86.9729 124.99 86.6876C124.979 85.9485 125.029 85.2125 124.844 84.5011Z" fill="#0B170B"/>
<path d="M45.4404 132.852V106.736C45.4404 106.401 45.9284 106.129 46.5304 106.129H51.3943C51.9963 106.129 52.4843 106.401 52.4843 106.736V132.921L45.4404 132.852Z" fill="#1D3D1D"/>
<path d="M140.697 133.192H39.4678C39.435 133.192 39.4036 133.179 39.3804 133.156C39.3573 133.133 39.3442 133.102 39.3442 133.069C39.3442 133.036 39.3573 133.005 39.3804 132.982C39.4036 132.958 39.435 132.945 39.4678 132.945H140.697C140.73 132.945 140.761 132.958 140.785 132.982C140.808 133.005 140.821 133.036 140.821 133.069C140.821 133.102 140.808 133.133 140.785 133.156C140.761 133.179 140.73 133.192 140.697 133.192H140.697Z" fill="#E6E6E6"/>
<path d="M93.6353 132.761V71.3717C93.6353 70.5844 94.1233 69.9461 94.7252 69.9461H99.5891C100.191 69.9461 100.679 70.5844 100.679 71.3717V132.921L93.6353 132.761Z" fill="#326A32"/>
<path d="M116.849 82.1017C117.463 82.1017 117.961 81.6037 117.961 80.9895C117.961 80.3753 117.463 79.8773 116.849 79.8773C116.235 79.8773 115.737 80.3753 115.737 80.9895C115.737 81.6037 116.235 82.1017 116.849 82.1017Z" fill="#A0616A"/>
<path d="M129.206 81.6074C129.821 81.6074 130.319 81.1095 130.319 80.4952C130.319 79.881 129.821 79.3831 129.206 79.3831C128.592 79.3831 128.094 79.881 128.094 80.4952C128.094 81.1095 128.592 81.6074 129.206 81.6074Z" fill="#A0616A"/>
<path d="M131.909 94.2629C132.018 94.1636 132.902 88.9894 132.897 88.8728C132.884 88.2353 130.939 87.5073 130.549 87.7606C130.182 87.9996 129.543 90.7418 129.131 91.2412L128.696 90.4793H125.236L125.026 90.8688C124.572 90.5953 124.163 90.3431 124.018 90.2596C123.968 90.2257 123.913 90.1989 123.856 90.1799C123.496 90.0995 123.159 89.9409 122.867 89.7153C122.583 89.4966 121.264 87.2058 120.91 87.2663C120.511 87.333 119.165 88.4971 119.18 89.6143C119.35 89.6106 121.555 94.0195 121.586 94.1838C121.755 94.8783 122.314 105.007 122.494 105.479C123.326 105.398 122.669 105.255 123.474 105.479C124.34 105.72 125.255 105.459 126.148 105.362C126.52 105.326 126.894 105.309 127.268 105.313C128.627 105.319 130.567 105.395 131.883 105.732C131.891 104.869 131.133 103.003 130.853 102.189C130.816 101.946 130.817 101.698 130.856 101.455C130.892 101.157 131.616 94.5922 131.909 94.2629Z" fill="#E6E6E6"/>
</g>
<defs>
<clipPath id="clip0">
<rect width="101.477" height="84.9958" fill="white" transform="translate(39.3442 48.1967)"/>
</clipPath>
</defs>
</svg>
