<svg width="736" height="728" viewBox="0 0 736 728" fill="none" xmlns="http://www.w3.org/2000/svg">
<path d="M362.887 172.945H358.887V63.4C358.887 46.5853 352.207 30.4592 340.318 18.5694C328.428 6.67962 312.302 0 295.487 0H63.4C46.5853 0 30.4593 6.67962 18.5695 18.5694C6.67965 30.4592 0 46.5853 0 63.4V664.374C0 681.189 6.67965 697.315 18.5695 709.205C30.4593 721.094 46.5853 727.774 63.4 727.774H295.486C312.301 727.774 328.427 721.094 340.317 709.205C352.206 697.315 358.886 681.189 358.886 664.374V250.921H362.886L362.887 172.945Z" fill="#0B170B"/>
<path d="M298.045 16.493H267.75C269.144 19.9089 269.676 23.6152 269.3 27.2853C268.924 30.9554 267.651 34.4767 265.593 37.5389C263.535 40.601 260.756 43.1101 257.5 44.8449C254.244 46.5797 250.611 47.4871 246.922 47.487H113.963C110.274 47.4867 106.642 46.5792 103.386 44.8445C100.131 43.1097 97.3519 40.601 95.2943 37.5393C93.2367 34.4776 91.9637 30.9568 91.5873 27.2872C91.2109 23.6175 91.7428 19.9117 93.136 16.496H64.836C52.2785 16.496 40.2354 21.4844 31.3559 30.3639C22.4764 39.2434 17.488 51.2865 17.488 63.844V663.933C17.488 676.491 22.4764 688.534 31.3559 697.413C40.2354 706.293 52.2785 711.281 64.836 711.281H298.036C310.593 711.281 322.637 706.293 331.516 697.413C340.396 688.534 345.384 676.491 345.384 663.933V63.841C345.384 51.2835 340.396 39.2404 331.516 30.3609C322.637 21.4814 310.593 16.493 298.036 16.493H298.045Z" fill="white"/>
<path d="M315.726 134.486H47.159V593.288H315.726V134.486Z" fill="#E6E6E6"/>
<path d="M181.841 677.746C196.2 677.746 207.841 666.105 207.841 651.746C207.841 637.387 196.2 625.746 181.841 625.746C167.482 625.746 155.841 637.387 155.841 651.746C155.841 666.105 167.482 677.746 181.841 677.746Z" fill="#E6E6E6"/>
<path d="M306.125 642.399L303.155 671.112L319.986 669.132L321.966 645.37L306.125 642.399Z" fill="#FFB9B9"/>
<path d="M261.573 424.58C261.573 424.58 175.435 507.747 229.89 533.49H246.721C246.721 533.49 283.354 473.09 301.176 474.085L306.126 531.51L303.156 647.35L324.938 648.34C324.938 648.34 337.809 589.925 336.819 557.252L359.591 436.461L261.573 424.58Z" fill="#0E1F0E"/>
<path d="M234.838 529.53L246.719 533.49C246.719 533.49 293.253 522.599 296.219 523.59L305.432 523.526L305.132 499.826H265.532L234.838 529.53Z" fill="#0E1F0E"/>
<path d="M321.966 665.172C321.966 665.172 304.144 657.251 301.174 665.172C298.204 673.093 299.194 695.865 299.194 695.865C301.569 700.432 302.27 705.686 301.174 710.716C299.194 718.637 309.095 722.597 321.966 718.637C334.837 714.677 334.837 704.776 334.837 704.776L321.966 665.172Z" fill="#0E1F0E"/>
<path d="M336.817 497.842C336.817 497.842 350.678 489.921 349.688 501.802C348.866 509.649 346.863 517.326 343.747 524.574C343.747 524.574 356.618 558.237 343.747 561.207C330.876 564.177 320.975 557.247 320.975 552.296C320.975 547.345 336.817 497.842 336.817 497.842Z" fill="#0E1F0E"/>
<path d="M293.253 226.563L295.234 264.187L312.065 279.036L330.877 252.304V225.573L293.253 226.563Z" fill="#FFB9B9"/>
<path d="M306.124 264.186L294.79 255.764L287.313 267.156L253.65 286.956L273.45 338.44L274.44 388.935C274.44 388.935 237.807 426.558 259.589 431.509C281.371 436.46 358.598 447.35 362.558 438.44C366.518 429.53 357.608 337.451 357.608 337.451L360.578 259.234L330.878 248.495L306.124 264.186Z" fill="#326A32"/>
<path d="M245.729 326.893C245.729 326.893 237.808 382.993 252.66 382.993C261.48 383.023 270.222 381.342 278.402 378.043L266.521 347.35L271.471 326.558L245.729 326.893Z" fill="#FFB9B9"/>
<path d="M268.501 376.066L279.392 378.046C279.392 378.046 311.075 358.246 313.055 357.254C315.035 356.262 281.372 339.432 281.372 339.432L258.6 348.343L268.501 376.066Z" fill="#FFB9B9"/>
<path opacity="0.1" d="M281.372 339.432L267.072 345.027L271.472 326.561L245.73 326.892C245.73 326.892 237.809 382.992 252.661 382.992C261.481 383.022 270.223 381.341 278.403 378.042L278.328 377.848L279.393 378.042C279.393 378.042 311.076 358.242 313.056 357.25C315.036 356.258 281.372 339.432 281.372 339.432Z" fill="black"/>
<path d="M316.158 245.336C331.772 245.336 344.43 232.678 344.43 217.064C344.43 201.45 331.772 188.792 316.158 188.792C300.544 188.792 287.886 201.45 287.886 217.064C287.886 232.678 300.544 245.336 316.158 245.336Z" fill="#FFB9B9"/>
<path d="M291.162 185.169L285.638 182.958C285.638 182.958 297.188 170.242 313.257 171.348L308.737 166.372C308.737 166.372 319.785 161.949 329.828 173.559C335.108 179.659 341.216 186.836 345.028 194.917H350.944L348.475 200.353L357.114 205.792L348.244 204.815C349.084 209.508 348.797 214.334 347.405 218.895L347.643 223.195C347.643 223.195 337.362 207.288 337.362 205.077V210.606C337.362 210.606 331.838 205.63 331.838 202.313L328.825 206.183L327.314 200.092L308.734 206.173L311.747 201.197L300.197 202.856L304.717 196.775C304.717 196.775 291.661 203.962 291.158 210.044C290.655 216.126 284.128 223.865 284.128 223.865L281.115 218.336C281.115 218.336 276.599 193.462 291.162 185.169Z" fill="#0E1F0E"/>
<path d="M340.777 309.73C335.78 315.903 332.992 323.571 332.856 331.512L280.381 329.532C280.381 329.532 266.52 327.552 266.52 337.453V347.353C266.52 347.353 273.451 344.383 277.411 347.353C281.371 350.323 323.945 376.066 344.737 366.165C365.529 356.264 370.479 317.651 370.479 317.651C370.479 317.651 351.668 301.809 340.777 309.73Z" fill="#FFB9B9"/>
<path d="M352.663 260.225L360.584 259.235C360.584 259.235 376.425 261.215 374.445 291.908C372.465 322.601 371.475 324.581 371.475 324.581C371.475 324.581 350.683 305.769 335.832 314.681L352.663 260.225Z" fill="#326A32"/>
<path d="M257.61 286.961H253.65C248.519 293.442 245.728 301.467 245.729 309.733C245.638 318.587 244.475 327.396 242.264 335.97L273.452 330.525L257.61 286.961Z" fill="#326A32"/>
<path d="M735.74 134.46H448.248V191.221H735.74V134.46Z" fill="#E6E6E6"/>
<path d="M454.377 185.093H729.612V140.593H454.377V185.093Z" fill="white"/>
<path d="M478.471 145.518C481.824 145.518 485.102 146.512 487.891 148.375C490.679 150.238 492.852 152.886 494.135 155.985C495.419 159.083 495.754 162.492 495.1 165.781C494.446 169.07 492.831 172.091 490.46 174.462C488.089 176.833 485.068 178.448 481.779 179.102C478.49 179.756 475.081 179.421 471.983 178.137C468.884 176.854 466.236 174.681 464.373 171.893C462.51 169.104 461.516 165.826 461.516 162.473C461.516 157.976 463.302 153.664 466.482 150.484C469.662 147.304 473.974 145.518 478.471 145.518V145.518Z" fill="#326A32"/>
<path d="M686.35 155.838H519.015V159.524H686.35V155.838Z" fill="#E6E6E6"/>
<path d="M686.35 165.421H519.015V169.107H686.35V165.421Z" fill="#E6E6E6"/>
<path d="M735.74 215.46H448.248V272.221H735.74V215.46Z" fill="#E6E6E6"/>
<path d="M454.377 266.093H729.612V221.593H454.377V266.093Z" fill="white"/>
<path d="M478.471 260.428C487.835 260.428 495.426 252.837 495.426 243.473C495.426 234.109 487.835 226.518 478.471 226.518C469.107 226.518 461.516 234.109 461.516 243.473C461.516 252.837 469.107 260.428 478.471 260.428Z" fill="#326A32"/>
<path d="M686.35 236.838H519.015V240.524H686.35V236.838Z" fill="#E6E6E6"/>
<path d="M686.35 246.421H519.015V250.107H686.35V246.421Z" fill="#E6E6E6"/>
<path d="M735.74 296.46H448.248V353.221H735.74V296.46Z" fill="#E6E6E6"/>
<path d="M454.377 347.093H729.612V302.593H454.377V347.093Z" fill="white"/>
<path d="M478.471 341.428C487.835 341.428 495.426 333.837 495.426 324.473C495.426 315.109 487.835 307.518 478.471 307.518C469.107 307.518 461.516 315.109 461.516 324.473C461.516 333.837 469.107 341.428 478.471 341.428Z" fill="#326A32"/>
<path d="M686.35 317.838H519.015V321.524H686.35V317.838Z" fill="#E6E6E6"/>
<path d="M686.35 327.421H519.015V331.107H686.35V327.421Z" fill="#E6E6E6"/>
</svg>
