<svg width="160" height="40" viewBox="0 0 160 40" fill="none" xmlns="http://www.w3.org/2000/svg">
<rect x="120" width="40" height="40" rx="20" fill="#EFF5EF"/>
<path d="M140 10C142.717 10 143.056 10.01 144.122 10.06C145.187 10.11 145.912 10.277 146.55 10.525C147.21 10.779 147.766 11.123 148.322 11.678C148.83 12.1779 149.224 12.7826 149.475 13.45C149.722 14.087 149.89 14.813 149.94 15.878C149.987 16.944 150 17.283 150 20C150 22.717 149.99 23.056 149.94 24.122C149.89 25.187 149.722 25.912 149.475 26.55C149.225 27.2178 148.831 27.8226 148.322 28.322C147.822 28.8303 147.217 29.2238 146.55 29.475C145.913 29.722 145.187 29.89 144.122 29.94C143.056 29.987 142.717 30 140 30C137.283 30 136.944 29.99 135.878 29.94C134.813 29.89 134.088 29.722 133.45 29.475C132.782 29.2245 132.178 28.8309 131.678 28.322C131.169 27.8222 130.776 27.2175 130.525 26.55C130.277 25.913 130.11 25.187 130.06 24.122C130.013 23.056 130 22.717 130 20C130 17.283 130.01 16.944 130.06 15.878C130.11 14.812 130.277 14.088 130.525 13.45C130.775 12.7822 131.169 12.1773 131.678 11.678C132.178 11.1692 132.782 10.7757 133.45 10.525C134.088 10.277 134.812 10.11 135.878 10.06C136.944 10.013 137.283 10 140 10ZM140 15C138.674 15 137.402 15.5268 136.464 16.4645C135.527 17.4021 135 18.6739 135 20C135 21.3261 135.527 22.5979 136.464 23.5355C137.402 24.4732 138.674 25 140 25C141.326 25 142.598 24.4732 143.536 23.5355C144.473 22.5979 145 21.3261 145 20C145 18.6739 144.473 17.4021 143.536 16.4645C142.598 15.5268 141.326 15 140 15ZM146.5 14.75C146.5 14.4185 146.368 14.1005 146.134 13.8661C145.899 13.6317 145.582 13.5 145.25 13.5C144.918 13.5 144.601 13.6317 144.366 13.8661C144.132 14.1005 144 14.4185 144 14.75C144 15.0815 144.132 15.3995 144.366 15.6339C144.601 15.8683 144.918 16 145.25 16C145.582 16 145.899 15.8683 146.134 15.6339C146.368 15.3995 146.5 15.0815 146.5 14.75ZM140 17C140.796 17 141.559 17.3161 142.121 17.8787C142.684 18.4413 143 19.2044 143 20C143 20.7956 142.684 21.5587 142.121 22.1213C141.559 22.6839 140.796 23 140 23C139.204 23 138.441 22.6839 137.879 22.1213C137.316 21.5587 137 20.7956 137 20C137 19.2044 137.316 18.4413 137.879 17.8787C138.441 17.3161 139.204 17 140 17Z" fill="black"/>
<rect x="60" width="40" height="40" rx="20" fill="#EFF5EF"/>
<path d="M80 10C74.477 10 70 14.477 70 20C70 24.991 73.657 29.128 78.438 29.879V22.89H75.898V20H78.438V17.797C78.438 15.291 79.93 13.907 82.215 13.907C83.309 13.907 84.453 14.102 84.453 14.102V16.562H83.193C81.95 16.562 81.563 17.333 81.563 18.124V20H84.336L83.893 22.89H81.563V29.879C86.343 29.129 90 24.99 90 20C90 14.477 85.523 10 80 10Z" fill="black"/>
<rect width="40" height="40" rx="20" fill="#EFF5EF"/>
<path d="M20 30C14.477 30 10 25.523 10 20C10 14.477 14.477 10 20 10C25.523 10 30 14.477 30 20C30 25.523 25.523 30 20 30ZM16.89 21.17L16.903 21.163L17.773 24.033C17.885 24.344 18.039 24.4 18.226 24.374C18.414 24.349 18.513 24.248 18.636 24.13L19.824 22.982L22.374 24.87C22.84 25.127 23.175 24.994 23.291 24.438L24.948 16.616C25.131 15.888 24.811 15.596 24.246 15.828L14.513 19.588C13.849 19.854 13.853 20.226 14.393 20.391L16.89 21.171V21.17Z" fill="black"/>
</svg>
