<svg width="24" height="24" viewBox="0 0 24 24" fill="none" xmlns="http://www.w3.org/2000/svg">
<circle cx="12" cy="12" r="12" fill="#F2F2F2"/>
<path d="M8.76574 16.0833L6.16699 18.125V7.33333C6.16699 7.17862 6.22845 7.03025 6.33785 6.92085C6.44724 6.81146 6.59562 6.75 6.75033 6.75H17.2503C17.405 6.75 17.5534 6.81146 17.6628 6.92085C17.7722 7.03025 17.8337 7.17862 17.8337 7.33333V15.5C17.8337 15.6547 17.7722 15.8031 17.6628 15.9125C17.5534 16.0219 17.405 16.0833 17.2503 16.0833H8.76574ZM8.36208 14.9167H16.667V7.91667H7.33366V15.7246L8.36208 14.9167ZM11.417 10.8333H12.5837V12H11.417V10.8333ZM9.08366 10.8333H10.2503V12H9.08366V10.8333ZM13.7503 10.8333H14.917V12H13.7503V10.8333Z" fill="#326A32"/>
</svg>
