<svg width="151" height="48" viewBox="0 0 151 48" fill="none" xmlns="http://www.w3.org/2000/svg">
<path d="M34.2068 18.8H38.7668C39.9508 18.8 40.9961 19.04 41.9028 19.52C42.8095 19.9893 43.5135 20.6507 44.0148 21.504C44.5161 22.3467 44.7668 23.312 44.7668 24.4C44.7668 25.488 44.5161 26.4587 44.0148 27.312C43.5135 28.1547 42.8095 28.816 41.9028 29.296C40.9961 29.7653 39.9508 30 38.7668 30H34.2068V18.8ZM38.7028 28.976C39.6841 28.976 40.5428 28.784 41.2788 28.4C42.0148 28.0053 42.5855 27.4667 42.9908 26.784C43.3961 26.0907 43.5988 25.296 43.5988 24.4C43.5988 23.504 43.3961 22.7147 42.9908 22.032C42.5855 21.3387 42.0148 20.8 41.2788 20.416C40.5428 20.0213 39.6841 19.824 38.7028 19.824H35.3908V28.976H38.7028ZM50.1296 21.52C51.2282 21.52 52.0709 21.7973 52.6576 22.352C53.2442 22.896 53.5376 23.7067 53.5376 24.784V30H52.4496V28.688C52.1936 29.1253 51.8149 29.4667 51.3136 29.712C50.8229 29.9573 50.2362 30.08 49.5536 30.08C48.6149 30.08 47.8682 29.856 47.3136 29.408C46.7589 28.96 46.4816 28.368 46.4816 27.632C46.4816 26.9173 46.7376 26.3413 47.2496 25.904C47.7722 25.4667 48.5989 25.248 49.7296 25.248H52.4016V24.736C52.4016 24.0107 52.1989 23.4613 51.7936 23.088C51.3882 22.704 50.7962 22.512 50.0176 22.512C49.4842 22.512 48.9722 22.6027 48.4816 22.784C47.9909 22.9547 47.5696 23.1947 47.2176 23.504L46.7056 22.656C47.1322 22.2933 47.6442 22.016 48.2416 21.824C48.8389 21.6213 49.4682 21.52 50.1296 21.52ZM49.7296 29.184C50.3696 29.184 50.9189 29.04 51.3776 28.752C51.8362 28.4533 52.1776 28.0267 52.4016 27.472V26.096H49.7616C48.3216 26.096 47.6016 26.5973 47.6016 27.6C47.6016 28.0907 47.7882 28.48 48.1616 28.768C48.5349 29.0453 49.0576 29.184 49.7296 29.184ZM63.5388 21.584L59.7948 30H58.6268L54.8988 21.584H56.0828L59.2348 28.752L62.4188 21.584H63.5388ZM68.3443 30.08C67.5336 30.08 66.803 29.8987 66.1523 29.536C65.5016 29.1627 64.9896 28.6507 64.6163 28C64.243 27.3493 64.0563 26.6133 64.0563 25.792C64.0563 24.9707 64.243 24.2347 64.6163 23.584C64.9896 22.9333 65.5016 22.4267 66.1523 22.064C66.803 21.7013 67.5336 21.52 68.3443 21.52C69.155 21.52 69.8856 21.7013 70.5363 22.064C71.187 22.4267 71.6936 22.9333 72.0563 23.584C72.4296 24.2347 72.6163 24.9707 72.6163 25.792C72.6163 26.6133 72.4296 27.3493 72.0563 28C71.6936 28.6507 71.187 29.1627 70.5363 29.536C69.8856 29.8987 69.155 30.08 68.3443 30.08ZM68.3443 29.072C68.9416 29.072 69.475 28.9387 69.9443 28.672C70.4243 28.3947 70.7976 28.0053 71.0643 27.504C71.331 27.0027 71.4643 26.432 71.4643 25.792C71.4643 25.152 71.331 24.5813 71.0643 24.08C70.7976 23.5787 70.4243 23.1947 69.9443 22.928C69.475 22.6507 68.9416 22.512 68.3443 22.512C67.747 22.512 67.2083 22.6507 66.7283 22.928C66.259 23.1947 65.8856 23.5787 65.6083 24.08C65.3416 24.5813 65.2083 25.152 65.2083 25.792C65.2083 26.432 65.3416 27.0027 65.6083 27.504C65.8856 28.0053 66.259 28.3947 66.7283 28.672C67.2083 28.9387 67.747 29.072 68.3443 29.072ZM85.4316 21.52C86.4876 21.52 87.3142 21.824 87.9116 22.432C88.5196 23.04 88.8236 23.936 88.8236 25.12V30H87.6876V25.232C87.6876 24.3573 87.4742 23.6907 87.0476 23.232C86.6316 22.7733 86.0396 22.544 85.2716 22.544C84.3969 22.544 83.7089 22.816 83.2076 23.36C82.7062 23.8933 82.4556 24.6347 82.4556 25.584V30H81.3196V25.232C81.3196 24.3573 81.1062 23.6907 80.6796 23.232C80.2636 22.7733 79.6662 22.544 78.8876 22.544C78.0236 22.544 77.3356 22.816 76.8236 23.36C76.3222 23.8933 76.0716 24.6347 76.0716 25.584V30H74.9356V21.584H76.0236V23.12C76.3222 22.608 76.7382 22.2133 77.2716 21.936C77.8049 21.6587 78.4182 21.52 79.1116 21.52C79.8156 21.52 80.4236 21.6693 80.9356 21.968C81.4582 22.2667 81.8476 22.7093 82.1036 23.296C82.4129 22.7413 82.8556 22.3093 83.4316 22C84.0182 21.68 84.6849 21.52 85.4316 21.52ZM91.9043 21.584H93.0403V30H91.9043V21.584ZM92.4803 19.744C92.2456 19.744 92.0483 19.664 91.8883 19.504C91.7283 19.344 91.6483 19.152 91.6483 18.928C91.6483 18.7147 91.7283 18.528 91.8883 18.368C92.0483 18.208 92.2456 18.128 92.4803 18.128C92.715 18.128 92.9123 18.208 93.0723 18.368C93.2323 18.5173 93.3123 18.6987 93.3123 18.912C93.3123 19.1467 93.2323 19.344 93.0723 19.504C92.9123 19.664 92.715 19.744 92.4803 19.744Z" fill="#326A32"/>
<path d="M105 24H117" stroke="#326A32" stroke-width="1.5" stroke-linecap="round" stroke-linejoin="round"/>
<path d="M112 19L117 24L112 29" stroke="#326A32" stroke-width="1.5" stroke-linecap="round" stroke-linejoin="round"/>
<path d="M4 1H147V-1H4V1ZM150 4V44H152V4H150ZM147 47H4V49H147V47ZM1 44V4H-1V44H1ZM4 47C2.34315 47 1 45.6569 1 44H-1C-1 46.7614 1.23858 49 4 49V47ZM150 44C150 45.6569 148.657 47 147 47V49C149.761 49 152 46.7614 152 44H150ZM147 1C148.657 1 150 2.34315 150 4H152C152 1.23858 149.761 -1 147 -1V1ZM4 -1C1.23858 -1 -1 1.23858 -1 4H1C1 2.34315 2.34315 1 4 1V-1Z" fill="#326A32"/>
</svg>
