<svg width="24" height="24" viewBox="0 0 24 24" fill="none" xmlns="http://www.w3.org/2000/svg">
<circle cx="12" cy="12" r="12" fill="#ECECEC"/>
<path d="M15.5 9.08333H17.25C17.4047 9.08333 17.553 9.14479 17.6624 9.25419C17.7718 9.36358 17.8333 9.51196 17.8333 9.66667V16.6667C17.8333 16.8214 17.7718 16.9697 17.6624 17.0791C17.553 17.1885 17.4047 17.25 17.25 17.25H6.74996C6.59525 17.25 6.44688 17.1885 6.33748 17.0791C6.22808 16.9697 6.16663 16.8214 6.16663 16.6667V7.33333C6.16663 7.17862 6.22808 7.03025 6.33748 6.92085C6.44688 6.81146 6.59525 6.75 6.74996 6.75H15.5V9.08333ZM7.33329 10.25V16.0833H16.6666V10.25H7.33329ZM7.33329 7.91667V9.08333H14.3333V7.91667H7.33329ZM13.75 12.5833H15.5V13.75H13.75V12.5833Z" fill="#326A32"/>
</svg>
