<svg width="179" height="48" viewBox="0 0 179 48" fill="none" xmlns="http://www.w3.org/2000/svg">
<path d="M41.7823 24.4H42.9183V28.672C42.3956 29.1307 41.777 29.4827 41.0623 29.728C40.3476 29.9733 39.5956 30.096 38.8063 30.096C37.6863 30.096 36.6783 29.8507 35.7823 29.36C34.8863 28.8693 34.1823 28.192 33.6703 27.328C33.1583 26.4533 32.9023 25.4773 32.9023 24.4C32.9023 23.3227 33.1583 22.352 33.6703 21.488C34.1823 20.6133 34.8863 19.9307 35.7823 19.44C36.6783 18.9493 37.6916 18.704 38.8223 18.704C39.6756 18.704 40.4596 18.8427 41.1743 19.12C41.889 19.3867 42.4916 19.7867 42.9823 20.32L42.2463 21.072C41.361 20.1973 40.2356 19.76 38.8703 19.76C37.9636 19.76 37.1423 19.9627 36.4063 20.368C35.681 20.7627 35.1103 21.3173 34.6943 22.032C34.2783 22.736 34.0703 23.5253 34.0703 24.4C34.0703 25.2747 34.2783 26.064 34.6943 26.768C35.1103 27.472 35.681 28.0267 36.4063 28.432C37.1316 28.8373 37.9476 29.04 38.8543 29.04C40.0063 29.04 40.9823 28.752 41.7823 28.176V24.4ZM46.0293 21.584H47.1653V30H46.0293V21.584ZM46.6053 19.744C46.3706 19.744 46.1733 19.664 46.0133 19.504C45.8533 19.344 45.7733 19.152 45.7733 18.928C45.7733 18.7147 45.8533 18.528 46.0133 18.368C46.1733 18.208 46.3706 18.128 46.6053 18.128C46.84 18.128 47.0373 18.208 47.1973 18.368C47.3573 18.5173 47.4373 18.6987 47.4373 18.912C47.4373 19.1467 47.3573 19.344 47.1973 19.504C47.0373 19.664 46.84 19.744 46.6053 19.744ZM58.0062 18.128V30H56.9182V28.336C56.5769 28.9013 56.1235 29.3333 55.5582 29.632C55.0035 29.9307 54.3742 30.08 53.6702 30.08C52.8809 30.08 52.1662 29.8987 51.5262 29.536C50.8862 29.1733 50.3849 28.6667 50.0222 28.016C49.6595 27.3653 49.4782 26.624 49.4782 25.792C49.4782 24.96 49.6595 24.2187 50.0222 23.568C50.3849 22.9173 50.8862 22.416 51.5262 22.064C52.1662 21.7013 52.8809 21.52 53.6702 21.52C54.3529 21.52 54.9662 21.664 55.5102 21.952C56.0649 22.2293 56.5182 22.64 56.8702 23.184V18.128H58.0062ZM53.7662 29.072C54.3529 29.072 54.8809 28.9387 55.3502 28.672C55.8302 28.3947 56.2035 28.0053 56.4702 27.504C56.7475 27.0027 56.8862 26.432 56.8862 25.792C56.8862 25.152 56.7475 24.5813 56.4702 24.08C56.2035 23.5787 55.8302 23.1947 55.3502 22.928C54.8809 22.6507 54.3529 22.512 53.7662 22.512C53.1689 22.512 52.6302 22.6507 52.1502 22.928C51.6809 23.1947 51.3075 23.5787 51.0302 24.08C50.7635 24.5813 50.6302 25.152 50.6302 25.792C50.6302 26.432 50.7635 27.0027 51.0302 27.504C51.3075 28.0053 51.6809 28.3947 52.1502 28.672C52.6302 28.9387 53.1689 29.072 53.7662 29.072ZM69.7894 29.488C69.5761 29.68 69.3094 29.8293 68.9894 29.936C68.6801 30.032 68.3548 30.08 68.0134 30.08C67.2241 30.08 66.6161 29.8667 66.1894 29.44C65.7628 29.0133 65.5494 28.4107 65.5494 27.632V22.544H64.0454V21.584H65.5494V19.744H66.6854V21.584H69.2454V22.544H66.6854V27.568C66.6854 28.0693 66.8081 28.4533 67.0534 28.72C67.3094 28.976 67.6721 29.104 68.1414 29.104C68.3761 29.104 68.6001 29.0667 68.8134 28.992C69.0374 28.9173 69.2294 28.8107 69.3894 28.672L69.7894 29.488ZM74.8014 21.52C75.9001 21.52 76.7428 21.7973 77.3294 22.352C77.9161 22.896 78.2094 23.7067 78.2094 24.784V30H77.1214V28.688C76.8654 29.1253 76.4868 29.4667 75.9854 29.712C75.4948 29.9573 74.9081 30.08 74.2254 30.08C73.2868 30.08 72.5401 29.856 71.9854 29.408C71.4308 28.96 71.1534 28.368 71.1534 27.632C71.1534 26.9173 71.4094 26.3413 71.9214 25.904C72.4441 25.4667 73.2708 25.248 74.4014 25.248H77.0734V24.736C77.0734 24.0107 76.8708 23.4613 76.4654 23.088C76.0601 22.704 75.4681 22.512 74.6894 22.512C74.1561 22.512 73.6441 22.6027 73.1534 22.784C72.6628 22.9547 72.2414 23.1947 71.8894 23.504L71.3774 22.656C71.8041 22.2933 72.3161 22.016 72.9134 21.824C73.5108 21.6213 74.1401 21.52 74.8014 21.52ZM74.4014 29.184C75.0414 29.184 75.5908 29.04 76.0494 28.752C76.5081 28.4533 76.8494 28.0267 77.0734 27.472V26.096H74.4334C72.9934 26.096 72.2734 26.5973 72.2734 27.6C72.2734 28.0907 72.4601 28.48 72.8334 28.768C73.2068 29.0453 73.7294 29.184 74.4014 29.184ZM85.5829 21.52C86.6389 21.52 87.4763 21.8293 88.0949 22.448C88.7243 23.056 89.0389 23.9467 89.0389 25.12V30H87.9029V25.232C87.9029 24.3573 87.6843 23.6907 87.2469 23.232C86.8096 22.7733 86.1856 22.544 85.3749 22.544C84.4683 22.544 83.7483 22.816 83.2149 23.36C82.6923 23.8933 82.4309 24.6347 82.4309 25.584V30H81.2949V21.584H82.3829V23.136C82.6923 22.624 83.1189 22.2293 83.6629 21.952C84.2176 21.664 84.8576 21.52 85.5829 21.52ZM92.1231 18.128H93.2591V30H92.1231V18.128ZM99.3639 21.52C100.463 21.52 101.305 21.7973 101.892 22.352C102.479 22.896 102.772 23.7067 102.772 24.784V30H101.684V28.688C101.428 29.1253 101.049 29.4667 100.548 29.712C100.057 29.9573 99.4706 30.08 98.7879 30.08C97.8493 30.08 97.1026 29.856 96.5479 29.408C95.9933 28.96 95.7159 28.368 95.7159 27.632C95.7159 26.9173 95.9719 26.3413 96.4839 25.904C97.0066 25.4667 97.8333 25.248 98.9639 25.248H101.636V24.736C101.636 24.0107 101.433 23.4613 101.028 23.088C100.623 22.704 100.031 22.512 99.2519 22.512C98.7186 22.512 98.2066 22.6027 97.7159 22.784C97.2253 22.9547 96.8039 23.1947 96.4519 23.504L95.9399 22.656C96.3666 22.2933 96.8786 22.016 97.4759 21.824C98.0733 21.6213 98.7026 21.52 99.3639 21.52ZM98.9639 29.184C99.6039 29.184 100.153 29.04 100.612 28.752C101.071 28.4533 101.412 28.0267 101.636 27.472V26.096H98.9959C97.5559 26.096 96.8359 26.5973 96.8359 27.6C96.8359 28.0907 97.0226 28.48 97.3959 28.768C97.7693 29.0453 98.2919 29.184 98.9639 29.184ZM108.113 30.08C107.431 30.08 106.775 29.984 106.145 29.792C105.527 29.5893 105.041 29.3387 104.689 29.04L105.201 28.144C105.553 28.4213 105.996 28.6507 106.529 28.832C107.063 29.0027 107.617 29.088 108.193 29.088C108.961 29.088 109.527 28.9707 109.889 28.736C110.263 28.4907 110.449 28.1493 110.449 27.712C110.449 27.4027 110.348 27.1627 110.145 26.992C109.943 26.8107 109.687 26.6773 109.377 26.592C109.068 26.496 108.657 26.4053 108.145 26.32C107.463 26.192 106.913 26.064 106.497 25.936C106.081 25.7973 105.724 25.568 105.425 25.248C105.137 24.928 104.993 24.4853 104.993 23.92C104.993 23.216 105.287 22.64 105.873 22.192C106.46 21.744 107.276 21.52 108.321 21.52C108.865 21.52 109.409 21.5947 109.953 21.744C110.497 21.8827 110.945 22.0693 111.297 22.304L110.801 23.216C110.108 22.736 109.281 22.496 108.321 22.496C107.596 22.496 107.047 22.624 106.673 22.88C106.311 23.136 106.129 23.472 106.129 23.888C106.129 24.208 106.231 24.464 106.433 24.656C106.647 24.848 106.908 24.992 107.217 25.088C107.527 25.1733 107.953 25.264 108.497 25.36C109.169 25.488 109.708 25.616 110.113 25.744C110.519 25.872 110.865 26.0907 111.153 26.4C111.441 26.7093 111.585 27.136 111.585 27.68C111.585 28.416 111.276 29.0027 110.657 29.44C110.049 29.8667 109.201 30.08 108.113 30.08ZM117.974 21.52C119.03 21.52 119.867 21.8293 120.486 22.448C121.115 23.056 121.43 23.9467 121.43 25.12V30H120.294V25.232C120.294 24.3573 120.075 23.6907 119.638 23.232C119.2 22.7733 118.576 22.544 117.766 22.544C116.859 22.544 116.139 22.816 115.606 23.36C115.083 23.8933 114.822 24.6347 114.822 25.584V30H113.686V18.128H114.822V23.056C115.131 22.5653 115.558 22.1867 116.102 21.92C116.646 21.6533 117.27 21.52 117.974 21.52Z" fill="#326A32"/>
<path d="M133 24H145" stroke="#326A32" stroke-width="1.5" stroke-linecap="round" stroke-linejoin="round"/>
<path d="M140 19L145 24L140 29" stroke="#326A32" stroke-width="1.5" stroke-linecap="round" stroke-linejoin="round"/>
</svg>
