<svg width="590" height="444" viewBox="0 0 590 444" fill="none" xmlns="http://www.w3.org/2000/svg">
<g clip-path="url(#clip0)">
<path opacity="0.1" d="M574.199 304.154C573.645 304.53 573.081 304.894 572.507 305.246C570.377 306.565 568.165 307.747 565.886 308.787C553.849 314.347 539.028 317.062 524.591 318.907C492.2 323.047 459.131 323.852 426.207 324.641C337.238 326.778 248.038 328.92 159.306 323.985C124.247 322.038 88.4044 318.779 56.6284 308.787C52.0743 307.355 47.6091 305.78 43.2328 304.062C34.3811 300.573 25.873 296.319 18.8059 291.252C12.1389 286.496 6.76941 281.034 3.54873 274.823C-3.16445 261.89 0.389587 247.362 8.05665 234.68C11.2792 229.51 14.8789 224.584 18.8264 219.943C24.7242 212.825 31.2527 205.871 37.2069 198.759C58.3977 173.368 72.2241 141.306 52.6641 115.301C47.0228 107.829 38.9198 101.27 34.3401 93.4661C28.4885 83.4944 28.9449 72.4158 30.8014 61.6549C31.0425 60.2969 31.3143 58.939 31.5656 57.5965C34.7657 41.6396 40.7404 24.4734 59.1311 14.4862C78.2552 4.13525 105.416 4.65793 129.16 8.33713C166.085 14.0968 200.149 26.1234 234.551 36.9919C268.952 47.8604 304.975 57.7809 342.807 58.8673C376.209 59.805 415.165 52.754 437.33 34.4093C458.87 16.6025 499.333 15.2446 528.515 26.0055C548.516 33.3844 563.47 46.6921 569.768 61.6549C571.039 64.6337 571.962 67.7494 572.517 70.94C573.028 73.8275 573.2 76.7648 573.03 79.6922C572.937 81.1423 572.768 82.572 572.517 83.9863C567.64 113.512 532.561 136.797 511.232 163.176C500.811 176.059 493.456 191.529 500.621 205.426C511.55 226.594 549.552 234.121 572.517 249.873C576.927 252.892 580.784 256.222 583.799 260.019C594.887 274.024 590.779 292.984 574.199 304.154Z" fill="#326A32"/>
<path d="M151.244 166.461C151.244 166.461 127.653 124.688 92.102 112.656C77.1833 107.604 64.1621 98.1036 55.2591 85.1187C51.0432 78.9526 47.4038 72.4121 44.3867 65.58" stroke="#122612" stroke-width="2" stroke-miterlimit="10"/>
<path d="M22.0317 57.8578C26.0832 61.7829 44.9458 65.8465 44.9458 65.8465C44.9458 65.8465 40.3301 47.1276 36.2684 43.2024C34.3159 41.3551 31.7135 40.3509 29.0252 40.4075C26.3369 40.4642 23.7791 41.577 21.9063 43.5049C20.0335 45.4328 18.9964 48.0204 19.0199 50.7071C19.0434 53.3937 20.1255 55.9628 22.0317 57.8578Z" fill="#326A32"/>
<path d="M32.7043 91.7239C38.238 92.8205 56.2953 85.9899 56.2953 85.9899C56.2953 85.9899 42.233 72.7898 36.6943 71.6933C34.0619 71.2301 31.3527 71.8157 29.1473 73.3245C26.9418 74.8334 25.4157 77.1454 24.8959 79.765C24.3761 82.3847 24.904 85.1036 26.3664 87.339C27.8289 89.5745 30.1096 91.1485 32.7197 91.7239H32.7043Z" fill="#326A32"/>
<path d="M71.5523 128.372C76.8859 126.528 88.9891 111.529 88.9891 111.529C88.9891 111.529 70.1779 107.23 64.8494 109.075C63.5419 109.48 62.3294 110.145 61.2838 111.028C60.2382 111.911 59.3808 112.995 58.7625 114.215C58.1441 115.435 57.7775 116.768 57.6843 118.132C57.5912 119.497 57.7734 120.867 58.2201 122.16C58.6668 123.453 59.369 124.643 60.2849 125.66C61.2008 126.676 62.3118 127.499 63.552 128.078C64.7922 128.658 66.1362 128.983 67.5043 129.033C68.8725 129.084 70.2368 128.859 71.5164 128.372H71.5523Z" fill="#326A32"/>
<path d="M107.2 149.505C112.77 148.588 127.253 135.854 127.253 135.854C127.253 135.854 109.462 128.419 103.872 129.336C101.195 129.777 98.8035 131.262 97.2228 133.465C95.6421 135.668 95.0021 138.409 95.4435 141.083C95.8848 143.758 97.3715 146.148 99.5763 147.727C101.781 149.306 104.524 149.946 107.2 149.505Z" fill="#326A32"/>
<path d="M72.024 71.3653C72.024 77.0019 61.8184 93.3585 61.8184 93.3585C61.8184 93.3585 51.5922 77.0122 51.587 71.3755C51.5565 70.0155 51.7983 68.6631 52.2981 67.3976C52.798 66.1322 53.5458 64.9794 54.4977 64.0067C55.4496 63.0341 56.5863 62.2612 57.8413 61.7336C59.0962 61.206 60.444 60.9342 61.8055 60.9342C63.167 60.9342 64.5148 61.206 65.7698 61.7336C67.0247 62.2612 68.1615 63.0341 69.1134 64.0067C70.0653 64.9794 70.8131 66.1322 71.3129 67.3976C71.8127 68.6631 72.0545 70.0155 72.024 71.3755V71.3653Z" fill="#326A32"/>
<path d="M113.385 96.5868C111.698 101.967 97.0564 114.522 97.0564 114.522C97.0564 114.522 92.1946 95.8643 93.8768 90.4838C94.7726 88.0086 96.5903 85.9745 98.9507 84.8059C101.311 83.6373 104.032 83.4244 106.546 84.2116C109.059 84.9988 111.172 86.7253 112.442 89.031C113.713 91.3367 114.043 94.0435 113.365 96.5868H113.385Z" fill="#326A32"/>
<path d="M150.228 126.615C149.464 132.2 137.156 147.05 137.156 147.05C137.156 147.05 129.207 129.484 129.976 123.894C130.136 122.549 130.562 121.249 131.229 120.071C131.897 118.892 132.792 117.857 133.863 117.028C134.935 116.198 136.16 115.589 137.469 115.237C138.778 114.885 140.144 114.797 141.487 114.978C142.831 115.158 144.125 115.604 145.294 116.288C146.463 116.973 147.485 117.884 148.299 118.967C149.112 120.05 149.703 121.284 150.035 122.597C150.367 123.91 150.434 125.276 150.233 126.615H150.228Z" fill="#326A32"/>
<path opacity="0.25" d="M22.0317 57.8578C26.0832 61.7829 44.9458 65.8465 44.9458 65.8465C44.9458 65.8465 40.3301 47.1276 36.2684 43.2024C34.3159 41.3551 31.7135 40.3509 29.0252 40.4075C26.3369 40.4642 23.7791 41.577 21.9063 43.5049C20.0335 45.4328 18.9964 48.0204 19.0199 50.7071C19.0434 53.3937 20.1255 55.9628 22.0317 57.8578Z" fill="black"/>
<path opacity="0.25" d="M32.7043 91.7239C38.238 92.8205 56.2953 85.9899 56.2953 85.9899C56.2953 85.9899 42.233 72.7898 36.6943 71.6933C34.0619 71.2301 31.3527 71.8157 29.1473 73.3245C26.9418 74.8334 25.4157 77.1454 24.8959 79.765C24.3761 82.3847 24.904 85.1036 26.3664 87.339C27.8289 89.5745 30.1096 91.1485 32.7197 91.7239H32.7043Z" fill="black"/>
<path opacity="0.25" d="M71.5523 128.372C76.8859 126.528 88.9891 111.529 88.9891 111.529C88.9891 111.529 70.1779 107.23 64.8494 109.075C63.5419 109.48 62.3294 110.145 61.2838 111.028C60.2382 111.911 59.3808 112.995 58.7625 114.215C58.1441 115.435 57.7775 116.768 57.6843 118.132C57.5912 119.497 57.7734 120.867 58.2201 122.16C58.6668 123.453 59.369 124.643 60.2849 125.66C61.2008 126.676 62.3118 127.499 63.552 128.078C64.7922 128.658 66.1362 128.983 67.5043 129.033C68.8725 129.084 70.2368 128.859 71.5164 128.372H71.5523Z" fill="black"/>
<path opacity="0.25" d="M107.2 149.505C112.77 148.588 127.253 135.854 127.253 135.854C127.253 135.854 109.462 128.419 103.872 129.336C101.195 129.777 98.8035 131.262 97.2228 133.465C95.6421 135.668 95.0021 138.409 95.4435 141.083C95.8848 143.758 97.3715 146.148 99.5763 147.727C101.781 149.306 104.524 149.946 107.2 149.505Z" fill="black"/>
<path opacity="0.25" d="M72.024 71.3653C72.024 77.0019 61.8184 93.3585 61.8184 93.3585C61.8184 93.3585 51.5922 77.0122 51.587 71.3755C51.5565 70.0155 51.7983 68.6631 52.2981 67.3976C52.798 66.1322 53.5458 64.9794 54.4977 64.0067C55.4496 63.0341 56.5863 62.2612 57.8413 61.7336C59.0962 61.206 60.444 60.9342 61.8055 60.9342C63.167 60.9342 64.5148 61.206 65.7698 61.7336C67.0247 62.2612 68.1615 63.0341 69.1134 64.0067C70.0653 64.9794 70.8131 66.1322 71.3129 67.3976C71.8127 68.6631 72.0545 70.0155 72.024 71.3755V71.3653Z" fill="black"/>
<path opacity="0.25" d="M113.385 96.5868C111.698 101.967 97.0564 114.522 97.0564 114.522C97.0564 114.522 92.1946 95.8643 93.8768 90.4838C94.7726 88.0086 96.5903 85.9745 98.9507 84.8059C101.311 83.6373 104.032 83.4244 106.546 84.2116C109.059 84.9988 111.172 86.7253 112.442 89.031C113.713 91.3367 114.043 94.0435 113.365 96.5868H113.385Z" fill="black"/>
<path opacity="0.25" d="M150.228 126.615C149.464 132.2 137.156 147.05 137.156 147.05C137.156 147.05 129.207 129.484 129.976 123.894C130.136 122.549 130.562 121.249 131.229 120.071C131.897 118.892 132.792 117.857 133.863 117.028C134.935 116.198 136.16 115.589 137.469 115.237C138.778 114.885 140.144 114.797 141.487 114.978C142.831 115.158 144.125 115.604 145.294 116.288C146.463 116.973 147.485 117.884 148.299 118.967C149.112 120.05 149.703 121.284 150.035 122.597C150.367 123.91 150.434 125.276 150.233 126.615H150.228Z" fill="black"/>
<path d="M149.885 165.631C149.885 165.631 145.269 117.888 117.637 92.4926C106.052 81.8341 97.9999 67.8706 95.1228 52.4005C93.7726 45.056 93.0997 37.6031 93.1125 30.1357" stroke="#122612" stroke-width="2" stroke-miterlimit="10"/>
<path d="M75.8036 14.0302C77.9166 19.2569 93.5123 30.6225 93.5123 30.6225C93.5123 30.6225 96.8714 11.6628 94.7636 6.41043C93.7503 3.89622 91.7789 1.88719 89.2831 0.825311C86.7873 -0.236574 83.9715 -0.264329 81.4552 0.74815C78.9389 1.76063 76.9283 3.73041 75.8655 6.22415C74.8027 8.7179 74.7749 11.5313 75.7883 14.0456L75.8036 14.0302Z" fill="#326A32"/>
<path d="M71.8241 49.3106C76.4398 52.5542 95.7074 53.6149 95.7074 53.6149C95.7074 53.6149 88.1994 35.8543 83.5837 32.6055C81.3654 31.0897 78.6388 30.5078 75.9942 30.9859C73.3496 31.4639 70.9999 32.9635 69.4537 35.1599C67.9076 37.3563 67.2894 40.0727 67.733 42.7212C68.1767 45.3696 69.6465 47.7369 71.8241 49.3106Z" fill="#326A32"/>
<path d="M92.4819 98.5443C98.1232 99.0157 115.273 90.2122 115.273 90.2122C115.273 90.2122 99.8207 78.6673 94.1948 78.1959C92.8411 78.0519 91.4723 78.1795 90.1687 78.5713C88.8651 78.9631 87.6529 79.6111 86.6034 80.4773C85.5538 81.3436 84.688 82.4106 84.0568 83.6157C83.4256 84.8208 83.0417 86.1398 82.9276 87.4952C82.8135 88.8506 82.9715 90.2151 83.3924 91.5086C83.8133 92.8022 84.4885 93.9987 85.3785 95.0279C86.2685 96.0571 87.3553 96.8983 88.5751 97.5022C89.7949 98.106 91.1231 98.4603 92.4819 98.5443Z" fill="#326A32"/>
<path d="M116.503 132.277C121.97 133.697 140.376 127.916 140.376 127.916C140.376 127.916 127.099 113.927 121.637 112.513C119.014 111.833 116.228 112.223 113.892 113.596C111.557 114.968 109.863 117.212 109.183 119.833C108.502 122.454 108.892 125.237 110.266 127.571C111.64 129.905 113.885 131.598 116.509 132.277H116.503Z" fill="#326A32"/>
<path d="M116.016 46.6101C113.734 51.7702 97.7639 62.5875 97.7639 62.5875C97.7639 62.5875 95.0458 43.4997 97.328 38.3447C98.4629 35.9279 100.5 34.0512 103.003 33.1166C105.505 32.1819 108.275 32.2637 110.718 33.3442C113.161 34.4248 115.084 36.4183 116.074 38.8978C117.064 41.3774 117.044 44.1457 116.016 46.6101Z" fill="#326A32"/>
<path d="M143.613 86.4203C139.89 90.658 121.412 96.2076 121.412 96.2076C121.412 96.2076 124.53 77.1813 128.258 72.9435C129.134 71.9032 130.209 71.0481 131.42 70.4283C132.631 69.8085 133.954 69.4366 135.311 69.3343C136.667 69.232 138.031 69.4014 139.321 69.8325C140.612 70.2637 141.803 70.9479 142.825 71.8452C143.847 72.7424 144.68 73.8345 145.274 75.0575C145.869 76.2805 146.212 77.6097 146.286 78.9673C146.359 80.3248 146.161 81.6833 145.702 82.9631C145.243 84.2429 144.532 85.4183 143.613 86.4203Z" fill="#326A32"/>
<path d="M165.121 128.793C162.167 133.599 144.895 142.187 144.895 142.187C144.895 142.187 144.751 122.91 147.705 118.104C149.124 115.793 151.403 114.141 154.041 113.509C156.679 112.878 159.46 113.319 161.772 114.737C164.085 116.154 165.739 118.432 166.371 121.068C167.003 123.703 166.561 126.482 165.142 128.793H165.121Z" fill="#326A32"/>
<path opacity="0.1" d="M328.217 444C423.107 444 500.031 440.139 500.031 435.376C500.031 430.613 423.107 426.752 328.217 426.752C233.327 426.752 156.403 430.613 156.403 435.376C156.403 440.139 233.327 444 328.217 444Z" fill="#326A32"/>
<path d="M136.504 418.845C136.504 418.845 114.821 417.539 117.375 432.716C117.375 432.716 116.862 435.402 119.303 436.621C119.303 436.621 119.339 435.494 121.524 435.878C122.303 436.006 123.095 436.044 123.883 435.991C124.946 435.917 125.956 435.5 126.76 434.802C126.76 434.802 132.858 432.286 135.227 422.33C135.227 422.33 136.981 420.162 136.91 419.604L133.253 421.141C133.253 421.141 134.504 423.775 133.52 425.968C133.52 425.968 133.402 421.233 132.699 421.356C132.555 421.382 130.796 422.268 130.796 422.268C130.796 422.268 132.945 426.88 131.309 430.206C131.309 430.206 131.925 424.543 130.109 422.601L127.545 424.103C127.545 424.103 130.058 428.853 128.355 432.722C128.355 432.722 128.791 426.783 127.001 424.472L124.668 426.291C124.668 426.291 127.032 430.964 125.591 434.177C125.591 434.177 125.401 427.264 124.16 426.742C124.16 426.742 122.109 428.54 121.811 429.304C121.811 429.304 123.427 432.696 122.422 434.489C122.422 434.489 121.806 429.878 121.304 429.878C121.304 429.878 119.252 432.927 119.057 435.002C119.057 435.002 119.144 431.891 120.811 429.57C119.637 429.79 118.552 430.349 117.693 431.179C117.693 431.179 118.011 429.022 121.314 428.832C121.314 428.832 122.996 426.521 123.442 426.378C123.442 426.378 120.16 426.101 118.17 426.988C118.17 426.988 119.924 424.938 124.047 425.876L126.35 423.995C126.35 423.995 122.027 423.406 120.196 424.057C120.196 424.057 122.304 422.258 126.971 423.57L129.463 422.063C129.463 422.063 125.781 421.274 123.586 421.551C123.586 421.551 125.899 420.306 130.201 421.658L131.991 420.854C131.991 420.854 129.294 420.342 128.504 420.239C127.714 420.137 127.668 419.937 127.668 419.937C129.378 419.652 131.134 419.847 132.74 420.5C132.74 420.5 136.566 419.081 136.504 418.845Z" fill="#326A32"/>
<path opacity="0.1" d="M121.565 440.536C130.04 440.536 136.909 439.375 136.909 437.943C136.909 436.511 130.04 435.35 121.565 435.35C113.091 435.35 106.221 436.511 106.221 437.943C106.221 439.375 113.091 440.536 121.565 440.536Z" fill="#326A32"/>
<path d="M98.5126 419.655C98.5126 419.655 86.2914 418.917 87.7428 427.474C87.6684 427.909 87.7336 428.355 87.9289 428.75C88.1242 429.145 88.4397 429.468 88.83 429.673C88.83 429.673 88.83 429.042 90.0814 429.258C90.5202 429.33 90.966 429.35 91.4096 429.319C92.0107 429.28 92.5821 429.044 93.0354 428.648C93.0354 428.648 96.4714 427.233 97.8048 421.617C97.8048 421.617 98.7946 420.398 98.7536 420.08L96.7022 420.961C96.7022 420.961 97.4048 422.447 96.851 423.682C96.851 423.682 96.7843 421.018 96.3894 421.079C96.3073 421.079 95.3175 421.592 95.3175 421.592C95.3175 421.592 96.533 424.185 95.615 426.065C95.615 426.065 95.9637 422.873 94.938 421.781L93.4662 422.627C93.4662 422.627 94.8816 425.302 93.9226 427.485C93.9226 427.485 94.1688 424.138 93.1636 422.837L91.8456 423.862C91.8456 423.862 93.179 426.496 92.3584 428.304C92.3584 428.304 92.2558 424.41 91.5532 424.113C91.0547 424.535 90.6103 425.017 90.2301 425.548C90.2301 425.548 91.1378 427.459 90.5737 428.468C90.5737 428.468 90.2301 425.876 89.9429 425.86C89.9429 425.86 88.7941 427.582 88.6762 428.76C88.7318 427.667 89.0731 426.607 89.666 425.686C89.004 425.811 88.3928 426.126 87.9069 426.593C87.9069 426.593 88.0864 425.378 89.9583 425.271C89.9583 425.271 90.9071 423.969 91.1584 423.887C91.1584 423.887 89.307 423.734 88.189 424.231C88.189 424.231 89.1736 423.083 91.4968 423.606L92.7995 422.545C92.7995 422.545 90.3634 422.212 89.3275 422.581C89.3275 422.581 90.5173 421.556 93.1482 422.304L94.5637 421.458C93.4746 421.22 92.3593 421.124 91.2455 421.172C91.2455 421.172 92.5533 420.47 94.9791 421.233L96.0048 420.777C96.0048 420.777 94.4662 420.48 94.0354 420.434C93.6046 420.388 93.5687 420.265 93.5687 420.265C94.5319 420.101 95.5217 420.211 96.4253 420.582C96.4253 420.582 98.5536 419.788 98.5126 419.655Z" fill="#326A32"/>
<path opacity="0.1" d="M90.0922 431.881C94.8704 431.881 98.7439 431.227 98.7439 430.421C98.7439 429.614 94.8704 428.96 90.0922 428.96C85.3139 428.96 81.4404 429.614 81.4404 430.421C81.4404 431.227 85.3139 431.881 90.0922 431.881Z" fill="#326A32"/>
<path d="M121.77 401.505C121.77 401.505 107.011 400.618 108.749 410.954C108.66 411.478 108.739 412.017 108.975 412.494C109.21 412.971 109.591 413.361 110.062 413.608C110.062 413.608 110.088 412.84 111.601 413.096C112.131 413.185 112.67 413.211 113.206 413.173C113.925 413.127 114.609 412.848 115.155 412.378C115.155 412.378 119.304 410.667 120.919 403.893C120.919 403.893 122.109 402.417 122.063 402.032L119.575 403.098C119.575 403.098 120.422 404.892 119.755 406.383C119.755 406.383 119.673 403.165 119.196 403.237C119.099 403.237 117.904 403.862 117.904 403.862C117.904 403.862 119.365 406.988 118.263 409.263C118.263 409.263 118.678 405.409 117.442 404.087L115.693 405.112C115.693 405.112 117.401 408.346 116.242 410.979C116.242 410.979 116.539 406.936 115.324 405.343L113.734 406.583C113.734 406.583 115.339 409.765 114.36 411.948C114.36 411.948 114.232 407.244 113.391 406.89C113.391 406.89 112.001 408.115 111.785 408.617C111.785 408.617 112.888 410.928 112.206 412.148C112.206 412.148 111.785 409.012 111.442 408.996C111.442 408.996 110.057 411.077 109.903 412.496C109.972 411.18 110.384 409.905 111.098 408.796C110.298 408.949 109.56 409.332 108.975 409.898C108.975 409.898 109.19 408.428 111.442 408.299C111.442 408.299 112.585 406.721 112.888 406.629C112.888 406.629 110.657 406.439 109.298 407.039C109.298 407.039 110.493 405.655 113.298 406.286L114.868 405.005C114.868 405.005 111.924 404.605 110.678 405.046C110.678 405.046 112.114 403.821 115.293 404.718L117.001 403.693C117.001 403.693 114.493 403.18 113.001 403.349C113.001 403.349 114.575 402.499 117.504 403.421L118.724 402.873C118.724 402.873 116.888 402.514 116.35 402.458C115.811 402.401 115.78 402.248 115.78 402.248C116.944 402.054 118.139 402.187 119.232 402.632C119.232 402.632 121.832 401.669 121.77 401.505Z" fill="#326A32"/>
<path opacity="0.1" d="M111.616 416.273C117.386 416.273 122.063 415.484 122.063 414.51C122.063 413.536 117.386 412.747 111.616 412.747C105.847 412.747 101.169 413.536 101.169 414.51C101.169 415.484 105.847 416.273 111.616 416.273Z" fill="#326A32"/>
<path d="M347.187 423.677V427.684H228.586V424.431C235.819 421.753 242.094 416.992 246.617 410.749C251.14 404.507 253.707 397.063 253.994 389.362C254.282 381.661 252.275 374.047 248.23 367.486C244.184 360.924 238.281 355.709 231.268 352.502H346.397C341.107 354.928 336.427 358.506 332.7 362.974C328.973 367.442 326.293 372.686 324.858 378.323C322.929 385.911 323.334 393.904 326.02 401.259C328.706 408.613 333.548 414.989 339.915 419.552C342.184 421.184 344.622 422.567 347.187 423.677Z" fill="#DDEFDD"/>
<path opacity="0.1" d="M346.398 352.502C341.107 354.928 336.427 358.506 332.7 362.974C328.973 367.442 326.294 372.686 324.858 378.323H252.818C251.383 372.686 248.704 367.442 244.976 362.974C241.249 358.506 236.569 354.928 231.279 352.502H346.398Z" fill="black"/>
<path d="M92.7847 332.087V354.582C92.7847 367.003 101.883 377.072 113.109 377.072H462.04C473.266 377.072 482.364 367.003 482.364 354.582V332.087H92.7847Z" fill="#DDEFDD"/>
<path opacity="0.1" d="M347.187 423.677V427.684H228.586V424.431C231.839 423.222 234.916 421.584 237.735 419.563H339.915C342.184 421.19 344.622 422.57 347.187 423.677Z" fill="black"/>
<path d="M381.502 420.813H194.267C191.576 420.813 189.395 422.992 189.395 425.681V427.818C189.395 430.506 191.576 432.686 194.267 432.686H381.502C384.193 432.686 386.374 430.506 386.374 427.818V425.681C386.374 422.992 384.193 420.813 381.502 420.813Z" fill="#DDEFDD"/>
<path d="M482.364 85.5953C482.364 80.2094 480.223 75.0442 476.411 71.2358C472.6 67.4274 467.43 65.2879 462.04 65.2879H113.109C107.719 65.2879 102.549 67.4274 98.7375 71.2358C94.926 75.0442 92.7847 80.2094 92.7847 85.5953V336.463H482.364V85.5953Z" fill="#326A32"/>
<path d="M471.732 94.6755V310.216C471.733 311.529 471.475 312.83 470.972 314.043C470.47 315.256 469.733 316.359 468.803 317.287C467.874 318.216 466.771 318.952 465.557 319.454C464.342 319.956 463.041 320.214 461.727 320.214H113.416C112.102 320.214 110.801 319.956 109.587 319.454C108.372 318.952 107.269 318.216 106.34 317.287C105.41 316.359 104.674 315.256 104.171 314.043C103.668 312.83 103.41 311.529 103.411 310.216V94.6755C103.411 92.024 104.465 89.4811 106.341 87.6062C108.218 85.7314 110.763 84.6781 113.416 84.6781H461.727C464.38 84.6781 466.925 85.7314 468.802 87.6062C470.678 89.4811 471.732 92.024 471.732 94.6755Z" fill="#F4F4F7"/>
<path d="M287.574 79.6665C290.166 79.6665 292.266 77.5673 292.266 74.9778C292.266 72.3884 290.166 70.2892 287.574 70.2892C284.982 70.2892 282.881 72.3884 282.881 74.9778C282.881 77.5673 284.982 79.6665 287.574 79.6665Z" fill="white"/>
<path d="M287.574 367.08C293.964 367.08 299.144 361.904 299.144 355.52C299.144 349.135 293.964 343.959 287.574 343.959C281.184 343.959 276.004 349.135 276.004 355.52C276.004 361.904 281.184 367.08 287.574 367.08Z" fill="white"/>
<path d="M471.732 94.6755H103.416C103.415 93.3628 103.673 92.0629 104.175 90.85C104.678 89.6371 105.414 88.535 106.343 87.6065C107.271 86.6781 108.374 85.9417 109.588 85.4392C110.801 84.9367 112.102 84.6781 113.416 84.6781H461.727C463.041 84.6774 464.342 84.9355 465.556 85.4377C466.771 85.9399 467.874 86.6763 468.803 87.6047C469.732 88.5332 470.469 89.6356 470.972 90.8488C471.475 92.0621 471.733 93.3624 471.732 94.6755Z" fill="white"/>
<path d="M113.416 92.1595C114.798 92.1595 115.919 91.0399 115.919 89.6588C115.919 88.2778 114.798 87.1582 113.416 87.1582C112.034 87.1582 110.914 88.2778 110.914 89.6588C110.914 91.0399 112.034 92.1595 113.416 92.1595Z" fill="#EDEDF4"/>
<path d="M120.919 92.1595C122.301 92.1595 123.422 91.0399 123.422 89.6588C123.422 88.2778 122.301 87.1582 120.919 87.1582C119.537 87.1582 118.417 88.2778 118.417 89.6588C118.417 91.0399 119.537 92.1595 120.919 92.1595Z" fill="#EDEDF4"/>
<path d="M128.427 92.1595C129.809 92.1595 130.93 91.0399 130.93 89.6588C130.93 88.2778 129.809 87.1582 128.427 87.1582C127.045 87.1582 125.924 88.2778 125.924 89.6588C125.924 91.0399 127.045 92.1595 128.427 92.1595Z" fill="#EDEDF4"/>
<path d="M435.346 122.346H138.089V295.915H435.346V122.346Z" fill="white"/>
<path d="M188.876 269.017H199.836V271.067H188.876V269.017ZM194.359 263.54C194.554 263.538 194.747 263.496 194.924 263.414C195.101 263.332 195.259 263.213 195.387 263.066C195.515 262.918 195.609 262.745 195.664 262.557C195.719 262.37 195.734 262.173 195.706 261.98C195.679 261.787 195.611 261.602 195.506 261.437C195.401 261.273 195.262 261.132 195.099 261.026C194.935 260.919 194.75 260.849 194.557 260.819C194.364 260.79 194.167 260.802 193.979 260.855L191.123 258.769L190.953 258.923L193.046 261.772C193.009 261.902 192.99 262.036 192.989 262.171C192.989 262.351 193.024 262.53 193.092 262.696C193.161 262.862 193.262 263.013 193.389 263.14C193.516 263.268 193.668 263.368 193.834 263.437C194 263.505 194.179 263.54 194.359 263.54Z" fill="#193619"/>
<path d="M194.359 253.271C192.69 253.271 191.054 253.739 189.639 254.623C188.224 255.507 187.085 256.77 186.353 258.269C185.621 259.767 185.326 261.441 185.5 263.1C185.674 264.759 186.311 266.335 187.338 267.649H189.856L190.03 267.475L190.974 266.532L189.979 265.553L189.036 266.491C188.185 265.455 187.661 264.191 187.528 262.858H188.861V261.485H187.528C187.661 260.152 188.185 258.888 189.036 257.852L189.979 258.789L190.959 257.811L190.02 256.868C191.057 256.019 192.322 255.495 193.656 255.361V256.694H195.026V255.361C196.361 255.496 197.627 256.02 198.667 256.868L197.723 257.811L198.708 258.789L199.651 257.852C200.499 258.889 201.024 260.152 201.159 261.485H199.821V262.858H201.159C201.024 264.191 200.499 265.454 199.651 266.491L198.708 265.553L197.723 266.532L198.672 267.475L198.841 267.649H201.359C202.386 266.335 203.023 264.759 203.197 263.101C203.372 261.443 203.076 259.77 202.345 258.271C201.614 256.772 200.476 255.509 199.061 254.625C197.647 253.741 196.012 253.272 194.343 253.271H194.359Z" fill="#193619"/>
<path d="M194.354 215.946C193.716 215.919 193.091 215.76 192.518 215.479C192.466 215.455 192.408 215.445 192.351 215.449C192.293 215.454 192.238 215.474 192.191 215.507C192.144 215.539 192.106 215.584 192.081 215.636C192.057 215.688 192.046 215.745 192.051 215.802L192.2 217.985C192.202 218.015 192.213 218.044 192.231 218.068C192.249 218.093 192.273 218.112 192.301 218.124C192.328 218.136 192.359 218.141 192.389 218.137C192.419 218.133 192.447 218.121 192.471 218.103L193.092 217.632C193.111 217.618 193.132 217.609 193.154 217.604C193.177 217.599 193.2 217.599 193.222 217.603C193.245 217.607 193.266 217.616 193.285 217.629C193.304 217.642 193.321 217.658 193.333 217.678L194.21 219.051C194.225 219.074 194.246 219.093 194.271 219.107C194.296 219.12 194.323 219.127 194.351 219.127C194.379 219.127 194.406 219.12 194.431 219.107C194.456 219.093 194.477 219.074 194.492 219.051L195.374 217.678C195.388 217.66 195.406 217.645 195.427 217.634C195.447 217.623 195.47 217.616 195.493 217.614C195.516 217.612 195.539 217.615 195.561 217.622C195.583 217.63 195.603 217.642 195.62 217.657L196.241 218.129C196.265 218.147 196.293 218.159 196.323 218.163C196.353 218.166 196.384 218.162 196.411 218.15C196.439 218.138 196.463 218.119 196.481 218.094C196.499 218.07 196.51 218.041 196.513 218.011L196.661 215.828C196.664 215.771 196.653 215.714 196.628 215.663C196.603 215.612 196.565 215.569 196.518 215.536C196.471 215.504 196.417 215.484 196.36 215.479C196.304 215.473 196.247 215.482 196.195 215.505C195.621 215.785 194.996 215.943 194.359 215.971L194.354 215.946Z" fill="#193619"/>
<path d="M200.421 210.447L198.369 208.346C198.369 201.588 194.379 198.61 194.379 198.61C194.379 198.61 190.349 201.608 190.349 208.346L188.297 210.447C188.259 210.487 188.23 210.535 188.213 210.587C188.196 210.64 188.192 210.695 188.2 210.75L188.989 215.531C188.995 215.587 189.016 215.641 189.049 215.688C189.082 215.734 189.127 215.771 189.179 215.794C189.23 215.818 189.287 215.828 189.344 215.823C189.401 215.818 189.455 215.799 189.502 215.766L192.379 213.819C192.932 214.329 193.644 214.631 194.395 214.675C195.135 214.636 195.836 214.333 196.369 213.819L199.241 215.766C199.288 215.799 199.343 215.818 199.399 215.823C199.456 215.828 199.513 215.818 199.565 215.794C199.617 215.771 199.661 215.734 199.694 215.688C199.728 215.641 199.748 215.587 199.754 215.531L200.549 210.745C200.551 210.689 200.541 210.633 200.519 210.581C200.497 210.53 200.463 210.484 200.421 210.447ZM194.374 206.123C194.1 206.135 193.828 206.065 193.594 205.921C193.36 205.778 193.174 205.568 193.061 205.318C192.948 205.068 192.912 204.79 192.958 204.519C193.004 204.249 193.131 203.998 193.321 203.8C193.511 203.602 193.756 203.466 194.024 203.408C194.293 203.35 194.572 203.374 194.827 203.477C195.082 203.58 195.3 203.756 195.453 203.984C195.606 204.212 195.688 204.48 195.687 204.754C195.694 205.11 195.56 205.453 195.314 205.71C195.068 205.966 194.73 206.114 194.374 206.123Z" fill="#193619"/>
<path d="M201.19 163.612H200.975C200.693 163.612 200.462 163.576 200.431 163.294C199.806 157.483 196.139 157.371 196.139 156.002C196.139 154.634 199.811 154.521 200.431 148.711C200.462 148.429 200.693 148.393 200.975 148.393H201.19C201.347 148.395 201.498 148.337 201.613 148.231C201.728 148.125 201.799 147.98 201.811 147.824C201.814 147.743 201.801 147.662 201.773 147.586C201.744 147.51 201.701 147.441 201.645 147.382C201.589 147.323 201.521 147.276 201.447 147.244C201.372 147.211 201.292 147.194 201.211 147.194H187.523C187.367 147.193 187.217 147.252 187.103 147.357C186.989 147.463 186.919 147.608 186.908 147.763C186.903 147.844 186.916 147.925 186.944 148.001C186.972 148.078 187.016 148.148 187.072 148.207C187.128 148.266 187.196 148.312 187.271 148.344C187.345 148.377 187.426 148.393 187.508 148.393H187.743C188.02 148.393 188.256 148.429 188.287 148.711C188.913 154.521 192.58 154.634 192.58 156.002C192.58 157.371 188.908 157.483 188.287 163.294C188.256 163.576 188.02 163.612 187.743 163.612H187.523C187.367 163.611 187.217 163.67 187.103 163.775C186.989 163.881 186.919 164.026 186.908 164.181C186.903 164.262 186.916 164.343 186.944 164.42C186.972 164.496 187.016 164.566 187.072 164.625C187.128 164.684 187.196 164.731 187.271 164.763C187.345 164.795 187.426 164.811 187.508 164.811H201.211C201.292 164.811 201.373 164.795 201.448 164.763C201.523 164.731 201.59 164.684 201.646 164.625C201.703 164.566 201.746 164.496 201.774 164.42C201.803 164.343 201.815 164.262 201.811 164.181C201.798 164.025 201.727 163.88 201.612 163.775C201.497 163.67 201.346 163.611 201.19 163.612ZM190.39 162.151C191.621 158.734 193.795 159.149 193.795 157.801V155.423C193.795 154.593 192.221 154.014 191.231 152.666C191.199 152.616 191.181 152.559 191.179 152.499C191.176 152.44 191.19 152.381 191.218 152.329C191.247 152.277 191.288 152.233 191.339 152.202C191.39 152.171 191.448 152.155 191.508 152.154H197.2C197.261 152.153 197.32 152.168 197.373 152.198C197.425 152.228 197.468 152.272 197.498 152.324C197.527 152.377 197.542 152.437 197.54 152.497C197.538 152.557 197.52 152.616 197.488 152.666C196.518 154.019 194.923 154.598 194.923 155.428V157.806C194.923 159.144 197.016 158.78 198.339 162.157C198.462 162.459 198.37 162.838 198.047 162.838H190.687C190.354 162.828 190.277 162.459 190.39 162.151Z" fill="#193619"/>
<path opacity="0.2" d="M387.99 155.997C387.992 157.509 387.394 158.96 386.327 160.031C385.259 161.103 383.81 161.707 382.297 161.711H235.751C234.986 161.734 234.224 161.603 233.511 161.326C232.797 161.049 232.146 160.632 231.597 160.1C231.048 159.567 230.611 158.93 230.313 158.226C230.015 157.521 229.861 156.764 229.861 156C229.861 155.235 230.015 154.478 230.313 153.774C230.611 153.07 231.048 152.432 231.597 151.9C232.146 151.367 232.797 150.95 233.511 150.673C234.224 150.397 234.986 150.266 235.751 150.289H382.297C383.809 150.294 385.256 150.898 386.323 151.968C387.39 153.038 387.99 154.487 387.99 155.997Z" fill="#070F07"/>
<path opacity="0.2" d="M387.989 208.864C387.991 209.613 387.846 210.355 387.561 211.048C387.276 211.74 386.857 212.37 386.328 212.901C385.8 213.432 385.172 213.854 384.48 214.143C383.788 214.431 383.046 214.581 382.297 214.583H235.751C234.264 214.538 232.854 213.917 231.818 212.851C230.783 211.785 230.204 210.357 230.204 208.872C230.204 207.386 230.783 205.959 231.818 204.893C232.854 203.826 234.264 203.205 235.751 203.161H382.297C383.807 203.168 385.253 203.771 386.32 204.84C387.387 205.908 387.987 207.355 387.989 208.864Z" fill="#070F07"/>
<path opacity="0.2" d="M387.99 262.171C387.99 263.681 387.39 265.13 386.323 266.199C385.256 267.268 383.808 267.871 382.297 267.875H235.751C234.986 267.898 234.224 267.767 233.511 267.49C232.797 267.213 232.146 266.796 231.597 266.264C231.048 265.731 230.611 265.094 230.313 264.39C230.015 263.685 229.861 262.928 229.861 262.164C229.861 261.399 230.015 260.642 230.313 259.938C230.611 259.233 231.048 258.596 231.597 258.064C232.146 257.531 232.797 257.114 233.511 256.837C234.224 256.561 234.986 256.43 235.751 256.453H382.297C383.81 256.458 385.26 257.063 386.327 258.136C387.394 259.208 387.992 260.659 387.99 262.171Z" fill="#070F07"/>
<path d="M358.578 150.289V161.711H235.751C234.986 161.734 234.224 161.603 233.511 161.326C232.797 161.049 232.146 160.632 231.597 160.1C231.048 159.567 230.611 158.93 230.313 158.226C230.015 157.521 229.861 156.764 229.861 156C229.861 155.235 230.015 154.478 230.313 153.774C230.611 153.07 231.048 152.432 231.597 151.9C232.146 151.367 232.797 150.95 233.511 150.673C234.224 150.397 234.986 150.266 235.751 150.289H358.578Z" fill="#326A32"/>
<path d="M380.374 203.151V214.583H235.751C234.264 214.538 232.854 213.917 231.818 212.851C230.783 211.785 230.204 210.357 230.204 208.872C230.204 207.386 230.783 205.959 231.818 204.893C232.854 203.826 234.264 203.205 235.751 203.161L380.374 203.151Z" fill="#326A32"/>
<path d="M326.781 256.463V267.875H235.751C234.986 267.898 234.224 267.767 233.511 267.49C232.797 267.213 232.146 266.796 231.597 266.264C231.048 265.731 230.611 265.094 230.313 264.39C230.015 263.685 229.861 262.928 229.861 262.164C229.861 261.399 230.015 260.642 230.313 259.938C230.611 259.233 231.048 258.596 231.597 258.064C232.146 257.531 232.797 257.114 233.511 256.837C234.224 256.561 234.986 256.43 235.751 256.453L326.781 256.463Z" fill="#326A32"/>
<path d="M532.346 240.624C532.628 239.861 530.525 235.613 530.525 235.403C530.525 235.192 528.345 232.84 528.345 231.503C528.345 230.166 525.468 227.322 525.468 227.322C525.468 227.322 521.606 225.718 521.186 222.238C520.765 218.759 516.57 218.687 516.57 218.687C516.57 218.687 516.57 218.37 516.57 217.888C516.57 216.802 516.54 214.875 516.057 213.814C515.559 212.852 514.7 212.126 513.668 211.795C513.668 211.795 513.247 209.074 512.406 208.239C511.936 207.747 511.599 207.143 511.428 206.485C511.257 205.827 511.256 205.136 511.427 204.478C511.847 203.161 510.867 199.815 508.826 199.353C506.785 198.892 504.477 198.098 504.477 198.098C504.477 198.098 504.247 198.144 503.913 198.19L503.631 198.098C503.145 198.19 502.653 198.251 502.159 198.283C501.728 198.296 501.307 198.156 500.97 197.888C500.252 197.094 494.61 195.623 493.533 195.623C492.456 195.623 489.456 194.224 489.456 194.224L486.441 191.928C485.594 191.283 484.03 188.669 483.805 188.29L483.774 188.239C483.517 187.644 483.304 187.031 483.138 186.405C484.164 185.33 485.042 184.124 485.748 182.818C485.82 182.684 485.882 182.546 485.953 182.408C486.107 182.407 486.259 182.383 486.405 182.336L486.594 182.264C487.303 181.888 487.837 181.25 488.082 180.486C488.138 180.332 488.179 180.179 488.22 180.025L488.251 179.871C488.251 179.764 488.297 179.656 488.318 179.553L488.348 179.374C488.348 179.266 488.384 179.164 488.395 179.056C488.405 178.949 488.395 178.938 488.395 178.882C488.395 178.826 488.425 178.616 488.446 178.488C488.493 177.996 488.567 177.506 488.666 177.022C489.087 175.131 490.205 173.532 491.031 171.785C491.143 171.534 491.256 171.273 491.354 171.022C491.451 170.77 491.549 170.463 491.631 170.176C491.631 170.089 491.677 170.002 491.697 169.915C491.754 169.705 491.8 169.5 491.841 169.284C491.841 169.192 491.877 169.1 491.892 169.008C491.938 168.721 491.979 168.429 492.005 168.137C492.148 166.471 491.9 164.796 491.282 163.243C490.769 161.936 489.974 160.758 489.441 159.451C488.636 157.468 488.415 155.224 487.436 153.338C485.784 150.171 481.892 148.582 478.717 149.776C477.179 150.345 475.871 151.447 474.322 151.939C472.271 152.6 470.024 152.103 467.881 151.806C465.737 151.508 463.357 151.483 461.634 152.882C459.644 154.496 459.101 157.524 457.234 159.297C456.449 160.04 455.48 160.517 454.67 161.203C454.086 161.668 453.638 162.28 453.372 162.976C453.354 163.025 453.338 163.075 453.326 163.125C453.305 163.183 453.29 163.243 453.28 163.304C453.28 163.376 453.254 163.443 453.244 163.515C453.234 163.586 453.244 163.612 453.244 163.658C453.236 163.783 453.236 163.908 453.244 164.032C453.255 164.149 453.274 164.266 453.3 164.381C453.3 164.416 453.3 164.447 453.3 164.478C453.3 164.509 453.352 164.673 453.388 164.77V164.826C453.423 164.934 453.47 165.036 453.511 165.144C453.552 165.252 453.557 165.247 453.582 165.303C453.599 165.347 453.618 165.389 453.639 165.431C453.91 165.947 454.128 166.49 454.29 167.05C454.378 167.406 454.355 167.779 454.224 168.121C454.036 168.511 453.773 168.859 453.449 169.146C452.051 170.597 450.972 172.323 450.28 174.214C450.198 174.429 450.121 174.644 450.054 174.865L450.146 174.89C450.347 174.952 450.553 174.996 450.762 175.024C450.88 175.024 450.998 175.054 451.116 175.059C451.595 175.087 452.076 175.051 452.546 174.952L452.905 174.87C453.392 174.738 453.867 174.567 454.326 174.357C454.326 174.501 454.326 174.639 454.326 174.783C454.326 174.926 454.326 174.942 454.326 175.024C454.333 178.107 455.2 181.126 456.831 183.744C458.462 186.361 460.791 188.471 463.557 189.838L463.619 190.289L463.665 190.668L463.475 190.489C463.475 190.489 462.209 189.858 461.019 191.672C460.14 192.856 458.948 193.771 457.578 194.316C457.578 194.316 444.802 196.335 444.31 198.011L438.346 198.359C438.346 198.359 436.238 198.636 436.028 203.022C435.817 207.409 434.694 207.829 434.694 207.829C434.694 207.829 432.238 212.149 432.448 214.378C432.658 216.607 430.504 217.709 430.504 217.709L430.222 221.68C430.222 221.68 427.904 221.331 427.273 224.047C426.643 226.763 425.519 228.018 425.519 228.018C425.519 228.018 421.658 231.221 421.447 233.937L419.063 235.403C419.063 235.403 413.514 234.147 412.252 231.918L411.862 231.554C411.85 231.538 411.84 231.521 411.832 231.503C411.001 230.724 409.242 229.084 409.508 229.453C409.673 229.804 409.712 230.199 409.621 230.575L409.211 230.114L408.108 228.931C408.108 228.931 399.857 219.456 394.605 218.79C394.048 218.935 393.538 219.222 393.125 219.622C392.711 220.023 392.409 220.523 392.246 221.075C391.579 223.34 390.882 227.091 392.615 228.936L400.913 237.796L401.128 237.954L402.934 240.271C402.631 240.998 402.375 241.705 402.159 242.346V242.407C402.113 242.546 402.072 242.684 402.031 242.812L401.985 242.951C401.944 243.084 401.908 243.212 401.867 243.335C401.826 243.458 401.826 243.489 401.8 243.565C401.775 243.642 401.8 243.653 401.764 243.699C401.564 244.396 401.441 244.934 401.375 245.236L400.908 245.092L401.364 245.287C401.362 245.311 401.362 245.335 401.364 245.359C401.351 245.408 401.34 245.457 401.334 245.508C401.472 245.569 401.616 245.636 401.764 245.692C404.221 246.763 416.493 252.143 417.15 252.958C417.852 253.865 422.489 256.509 426.699 254.28C430.909 252.051 431.827 248.644 431.827 248.644C431.827 248.644 435.899 243.007 436.038 242.166C436.176 241.326 439.336 240.358 439.336 240.358C439.336 240.358 439.618 249.689 438.002 253.102C436.387 256.514 433.387 271.631 433.387 271.631C433.584 271.591 433.786 271.579 433.987 271.595L433.807 272.466C434.053 272.422 434.305 272.422 434.551 272.466C434.325 274.183 433.012 282.161 433.012 282.161C433.012 282.161 432.586 285.784 431.889 287.039C431.192 288.295 431.115 294.839 431.115 294.839L429.991 299.573C429.991 299.573 430.14 299.901 430.417 300.393C430.417 300.393 431.622 303.063 433.653 304.564C433.559 305.307 433.368 306.034 433.084 306.727C432.647 307.786 432.456 308.93 432.525 310.073C432.525 310.073 431.33 315.433 431.474 316.97C431.617 318.507 430.699 322.264 430.699 322.264L429.438 334.382C429.438 334.382 428.597 344.897 429.017 347.757C429.438 350.616 428.735 354.51 428.735 354.51C428.735 354.51 429.576 362.801 429.366 363.703C429.156 364.605 428.104 368.51 428.735 370.667C429.366 372.824 429.017 378.748 429.017 378.748C429.017 378.748 429.438 386.552 429.925 389.058C430.412 391.564 429.786 394.772 429.786 394.772C429.786 394.772 429.273 400.131 429.084 400.131C428.894 400.131 427.032 403.821 430.766 407.444C434.499 411.067 432.176 410.518 432.176 410.518C432.176 410.518 429.227 409.058 429.576 412.056C429.909 414.91 430.371 414.162 430.412 414.105L429.715 416.396L430.227 416.462C430.094 416.621 429.961 416.785 429.817 416.975C429.393 417.507 428.921 417.999 428.407 418.445C427.561 419.071 427.489 420.459 427.489 420.459C427.489 420.459 422.299 426.096 417.452 428.955C414.888 430.462 412.709 431.733 411.749 432.788C410.883 433.731 411.026 434.495 412.821 435.089C416.611 436.344 423.278 436.97 428.053 435.371C430.899 434.42 433.458 432.767 435.494 430.564C435.494 430.564 438.51 429.027 441.459 429.586C444.408 430.144 450.305 426.311 450.305 426.311L450.198 425.327L449.885 422.478C449.684 422.24 449.534 421.962 449.446 421.663C449.358 421.364 449.333 421.05 449.372 420.741C449.409 419.898 449.326 419.055 449.126 418.235C449.075 417.959 449.023 417.687 448.972 417.426L449.51 417.328C449.51 417.328 448.808 413.777 450.075 413.075C451.341 412.373 450.982 403.257 450.982 403.257C450.982 403.257 449.372 401.167 448.526 400.818C447.68 400.47 448.454 396.15 448.598 395.597C448.741 395.043 449.803 384.195 449.803 384.195C449.803 384.195 449.382 380.787 449.941 379.322C450.5 377.856 449.239 372.22 449.239 372.22C449.239 372.22 448.818 371.523 449.592 370.682C450.367 369.842 450.08 362.397 450.08 362.397C450.08 362.397 450.013 358.635 450.013 357.657C450.013 356.678 450.854 353.132 451.623 351.948C452.393 350.765 451.905 347.075 451.905 347.075L451.946 346.793C451.946 346.691 451.987 346.558 452.013 346.404L452.075 346.03C452.414 343.989 452.871 341.971 453.444 339.983C454.357 337.057 455.408 331.907 455.408 331.907L461.942 314.864L462.014 314.664C462.014 314.664 465.029 320.234 465.029 325.394C465.029 325.394 465.804 331.59 465.593 333.26C465.383 334.931 466.229 342.801 466.229 342.801C466.229 342.801 467.137 354.075 467.137 354.587C467.137 355.1 468.26 363.78 468.963 365.102C469.665 366.424 468.26 370.467 467.84 370.882C467.419 371.297 467.978 381.541 467.978 381.541C467.978 381.541 466.927 389.617 466.716 391.277C466.506 392.937 465.665 399.358 466.368 401.863C467.07 404.369 466.788 404.718 466.788 404.718C466.788 404.718 469.317 407.28 467.814 407.505C467.277 407.623 466.771 407.854 466.33 408.182C465.889 408.511 465.523 408.93 465.257 409.411C464.991 409.892 464.831 410.425 464.787 410.972C464.743 411.52 464.817 412.071 465.004 412.588C465.877 415.134 466.904 417.624 468.081 420.044L469.245 419.798V420.628L469.327 424.779C469.327 424.779 469.84 428.75 469.542 429.657C469.256 431.451 469.064 433.259 468.968 435.074C468.917 435.668 468.886 436.068 468.886 436.068C468.886 436.068 468.886 439.757 476.681 438.63C484.476 437.503 485.892 434.464 485.892 434.464C485.892 434.464 485.892 434.32 485.953 434.08C486.066 433.378 486.317 431.881 486.528 431.051C486.81 429.934 484.281 424.902 484.281 424.902C484.281 424.902 483.861 421.489 483.158 420.721C482.864 420.282 482.671 419.783 482.594 419.26C482.528 418.978 482.471 418.686 482.425 418.399C482.61 418.427 482.781 418.457 482.938 418.492C482.938 418.492 482.512 416.058 484.133 415.289C485.753 414.52 485.323 412.922 485.112 412.214C484.902 411.507 485.743 407.603 485.743 407.603C485.631 407.214 485.623 406.803 485.723 406.412C485.822 406.02 486.024 405.662 486.307 405.374C487.292 404.4 488.061 397.574 488.061 397.574L488.2 371.246C488.2 371.246 488.712 366.578 488.133 364.697C487.553 362.817 487.01 359.199 487.779 358.22C488.548 357.242 487.851 352.717 487.851 352.717C487.851 352.717 487.851 343.176 488.902 340.808C489.954 338.441 489.605 323.468 489.605 323.468L489.887 313.645C489.887 313.645 492.179 311.477 491.636 300.173C494.082 300.019 496.841 299.932 497.277 300.27C498.051 300.895 503.031 304.103 505.995 302.079C506.626 301.802 509.503 299.363 509.503 299.363L508.267 278.482C509.037 279.645 509.508 280.419 509.508 280.419C509.508 277.493 517.791 268.023 517.791 268.023C517.791 268.023 525.509 258.062 527.197 256.878C528.884 255.694 532.176 249.422 532.176 249.422C532.664 248.228 533.228 247.066 533.864 245.943C534.612 244.734 532.048 241.393 532.346 240.624ZM514.237 247.936C512.134 248.146 507.708 252.953 507.642 253.998C507.486 254.688 507.166 255.329 506.708 255.869C506.672 255.449 506.637 255.023 506.606 254.588C506.093 248.439 505.58 240.932 505.816 240.204C506.236 238.954 506.093 233.312 506.093 233.312L506.17 233.204C507.585 237.575 511.98 242.73 511.98 242.73C511.98 242.73 512.755 244.959 513.668 245.026C514.581 245.092 514.237 247.936 514.237 247.936Z" fill="url(#paint0_linear)"/>
<path d="M401.693 246.353C401.693 246.353 404.257 232.943 412.463 232.876L418.478 245.246L414.468 248.013C414.468 248.013 405.775 248.285 401.693 246.353Z" fill="#193619"/>
<path opacity="0.1" d="M418.504 245.241L414.488 248.008C414.488 248.008 408.334 248.203 403.975 247.122C403.19 246.942 402.425 246.682 401.693 246.348C401.693 246.348 401.693 246.271 401.739 246.133C401.737 246.116 401.737 246.098 401.739 246.081C402.111 244.399 402.626 242.752 403.278 241.157C403.529 240.552 403.79 239.932 404.129 239.312C405.334 236.996 407.026 234.7 409.345 233.599C410.202 233.178 411.135 232.934 412.088 232.881H412.334H412.458L412.586 233.153L414.637 237.334L418.504 245.241Z" fill="black"/>
<path d="M486.856 300.957C486.856 300.957 495.502 300.127 496.261 300.747C497.021 301.367 501.934 304.549 504.841 302.545C507.749 300.542 505.811 293.558 505.811 293.281C505.811 293.004 505.534 283.119 505.534 283.119L500.344 276.14L493.841 263.904L480.558 262.592L480.902 282.013L480.835 291.959L486.856 300.957Z" fill="#193619"/>
<path opacity="0.1" d="M486.856 300.957C486.856 300.957 495.502 300.127 496.261 300.747C497.021 301.367 501.934 304.549 504.841 302.545C507.749 300.542 505.811 293.558 505.811 293.281C505.811 293.004 505.534 283.119 505.534 283.119L500.344 276.14L493.841 263.904L480.558 262.592L480.902 282.013L480.835 291.959L486.856 300.957Z" fill="black"/>
<path d="M410.755 232.517C410.755 232.517 410.068 240.952 404.806 241.09C404.806 241.09 403.319 240.194 401.314 238.697C396.698 235.238 389.364 228.603 391.39 222.423C394.293 213.578 408.406 229.889 408.406 229.889L409.493 231.103L410.755 232.517Z" fill="#FBBEBE"/>
<path opacity="0.1" d="M410.755 232.518C410.755 232.518 410.067 240.952 404.806 241.09C404.806 241.09 403.318 240.194 401.313 238.697L400.862 238.118C401.754 238.586 402.738 238.85 403.744 238.892C404.538 238.929 405.324 238.722 405.996 238.299C406.668 237.876 407.194 237.256 407.503 236.525C408.059 235.442 408.547 234.326 408.965 233.184C409.211 232.513 409.383 231.817 409.478 231.108L410.755 232.518Z" fill="black"/>
<path d="M408.452 247.798L407.267 246.261L403.288 241.136L401.236 238.518C402.128 238.985 403.112 239.25 404.119 239.292C404.912 239.328 405.698 239.121 406.37 238.698C407.042 238.274 407.568 237.655 407.878 236.924C408.432 235.84 408.918 234.723 409.334 233.578C409.991 231.713 409.98 230.755 409.744 230.432C409.508 230.109 411.216 231.682 412.032 232.456L412.062 232.487L412.447 232.851L412.586 233.132L414.591 237.134C414.591 237.134 414.591 237.191 414.591 237.304C414.806 238.59 415.483 246.655 408.452 247.798Z" fill="#E7EFFD"/>
<path d="M449.916 425.701C449.916 425.701 444.1 429.504 441.197 428.945C438.295 428.387 435.315 429.919 435.315 429.919C433.314 432.103 430.791 433.745 427.981 434.689C423.279 436.278 416.699 435.653 412.97 434.408C411.201 433.818 411.062 433.06 411.914 432.122C412.857 431.097 415.027 429.816 417.555 428.325C422.299 425.512 427.427 419.916 427.427 419.916C427.427 419.916 427.499 418.533 428.33 417.913C428.837 417.469 429.303 416.982 429.725 416.457C430.469 415.576 431.166 414.659 431.166 414.659L448.254 415.217C448.254 415.217 448.541 416.447 448.767 417.702C448.964 418.517 449.045 419.356 449.008 420.193C448.966 420.499 448.987 420.81 449.071 421.107C449.155 421.404 449.299 421.681 449.495 421.92L449.798 424.743L449.916 425.701Z" fill="#193619"/>
<path d="M485.677 430.493C485.471 431.318 485.225 432.798 485.112 433.495C485.076 433.731 485.056 433.88 485.056 433.88C485.056 433.88 483.671 436.918 475.994 438.025C468.317 439.132 468.301 435.463 468.301 435.463C468.301 435.463 468.332 435.068 468.383 434.474C468.497 432.675 468.702 430.882 468.999 429.104C469.271 428.202 468.788 424.261 468.788 424.261L468.706 420.162L468.65 417.298L481.389 415.965C481.469 416.917 481.606 417.864 481.799 418.799C481.882 419.316 482.07 419.809 482.353 420.249C483.051 421.013 483.466 424.395 483.466 424.395C483.466 424.395 485.953 429.381 485.677 430.493Z" fill="#193619"/>
<path opacity="0.1" d="M448.254 415.217C448.254 415.217 448.541 416.447 448.767 417.703C446.921 418.046 438.849 419.44 436.833 418.461C434.551 417.354 429.653 416.734 429.653 416.734L429.735 416.457C430.479 415.576 431.176 414.659 431.176 414.659L448.254 415.217Z" fill="black"/>
<path opacity="0.1" d="M481.79 418.809C478.564 418.261 471.492 419.583 468.707 420.152L468.65 417.287L481.389 415.965C481.465 416.921 481.599 417.87 481.79 418.809Z" fill="black"/>
<path d="M488.995 314.018L488.723 323.755C488.723 323.755 489.066 338.615 488.03 340.967C486.995 343.319 487.005 352.788 487.005 352.788C487.005 352.788 487.697 357.277 486.933 358.246C486.169 359.214 486.723 362.806 487.282 364.672C487.841 366.537 487.348 371.174 487.348 371.174L487.21 397.308C487.21 397.308 486.451 404.077 485.482 405.051C485.201 405.335 485.001 405.689 484.902 406.076C484.803 406.463 484.808 406.87 484.917 407.254C484.917 407.254 484.087 411.123 484.292 411.815C484.497 412.506 484.918 414.1 483.328 414.858C481.738 415.617 482.148 418.035 482.148 418.035C478.348 417.139 467.552 419.573 467.552 419.573C466.388 417.172 465.37 414.703 464.506 412.178C464.32 411.666 464.246 411.121 464.288 410.578C464.329 410.035 464.487 409.507 464.749 409.029C465.011 408.551 465.372 408.135 465.807 407.808C466.243 407.481 466.744 407.25 467.276 407.131C468.727 406.926 466.25 404.369 466.25 404.369C466.25 404.369 466.527 404.021 465.834 401.535C465.142 399.05 465.973 392.686 466.178 391.026C466.383 389.365 467.429 381.346 467.429 381.346C467.429 381.346 466.876 371.185 467.291 370.769C467.706 370.354 469.091 366.342 468.399 365.03C467.706 363.718 466.599 355.079 466.599 354.592C466.599 354.105 465.701 342.909 465.701 342.909C465.701 342.909 464.865 335.1 465.065 333.465C465.265 331.83 464.506 325.651 464.506 325.651C464.506 320.526 461.537 315.007 461.537 315.007L461.46 315.207L455.029 332.081C455.029 332.081 454.003 337.206 453.095 340.096C452.527 342.069 452.075 344.075 451.741 346.101L451.68 346.47C451.68 346.624 451.634 346.757 451.618 346.86L451.577 347.136C451.577 347.136 452.059 350.8 451.3 351.979C450.541 353.157 449.711 356.678 449.711 357.646C449.711 358.615 449.777 362.345 449.777 362.345C449.777 362.345 450.054 369.739 449.295 370.544C449.075 370.726 448.922 370.975 448.859 371.253C448.796 371.531 448.827 371.822 448.946 372.081C448.946 372.081 450.193 377.682 449.639 379.132C449.085 380.582 449.505 383.969 449.505 383.969C449.505 383.969 448.398 394.684 448.259 395.243C448.121 395.801 447.357 400.08 448.187 400.429C449.018 400.777 450.608 402.847 450.608 402.847C450.608 402.847 450.957 411.902 449.711 412.583C448.464 413.265 449.157 416.8 449.157 416.8C449.157 416.8 439.125 418.737 436.848 417.631C434.571 416.524 429.668 415.899 429.668 415.899L430.356 413.623C430.315 413.705 429.843 414.443 429.53 411.615C429.186 408.643 432.094 410.077 432.094 410.077C432.094 410.077 434.376 410.631 430.71 407.039C427.043 403.447 428.843 399.778 429.048 399.778C429.253 399.778 429.74 394.459 429.74 394.459C429.74 394.459 430.366 391.277 429.879 388.786C429.392 386.296 428.966 378.558 428.966 378.558C428.966 378.558 429.309 372.686 428.689 370.539C428.068 368.392 429.104 364.528 429.309 363.626C429.515 362.724 428.689 354.5 428.689 354.5C428.689 354.5 429.381 350.631 428.966 347.803C428.55 344.974 429.381 334.531 429.381 334.531L430.627 322.499C430.627 322.499 431.525 318.769 431.386 317.247C431.248 315.725 432.412 310.406 432.412 310.406C432.346 309.272 432.535 308.137 432.966 307.085C433.658 305.707 433.94 301.141 433.94 301.141L440.577 285.933L443.838 272.548L487.769 272.133C487.769 272.133 487.928 273.291 488.195 275.407C488.461 277.524 488.836 280.649 489.251 284.513C489.636 288.018 490.056 292.148 490.467 296.74C491.764 311.39 488.995 314.018 488.995 314.018Z" fill="#0B170B"/>
<path d="M484.917 192.984L474.66 203.909C474.66 203.909 461.521 198.651 462.901 196.858C463.414 196.161 463.352 193.968 463.044 191.544C462.532 187.716 461.506 183.309 461.506 183.309C461.506 183.309 484.471 179.574 482.533 183.443C481.825 184.857 481.948 186.517 482.389 188.055C482.96 189.823 483.814 191.488 484.917 192.984Z" fill="#FBBEBE"/>
<path opacity="0.1" d="M482.564 183.443C481.856 184.857 481.538 184.98 481.958 186.517C478.958 189.735 475.138 193.256 470.389 193.256C467.844 193.256 465.335 192.663 463.06 191.524C462.547 187.696 461.521 183.289 461.521 183.289C461.521 183.289 484.502 179.574 482.564 183.443Z" fill="black"/>
<path d="M486.856 176.392C486.856 180.756 485.121 184.941 482.033 188.026C478.944 191.112 474.756 192.846 470.388 192.846C466.021 192.846 461.832 191.112 458.744 188.026C455.656 184.941 453.921 180.756 453.921 176.392C453.921 176.315 453.921 176.238 453.921 176.156C454.022 171.839 455.816 167.735 458.918 164.729C462.02 161.722 466.181 160.055 470.502 160.086C474.823 160.117 478.959 161.844 482.018 164.894C485.076 167.945 486.812 172.074 486.851 176.392H486.856Z" fill="#FBBEBE"/>
<path opacity="0.1" d="M489.235 284.928C487.056 284.928 479.794 285.005 471.681 285.133H471.578L468.901 285.179H468.814C459.188 285.333 449.705 283.452 445.9 283.811C437.807 284.57 448.803 276.345 448.803 276.345C454.842 277.81 461.055 278.436 467.265 278.205L469.593 278.087C476.948 277.672 484.338 276.981 488.2 275.822C488.456 277.959 488.82 281.065 489.235 284.928Z" fill="black"/>
<path d="M489.235 284.513C487.056 284.513 479.794 284.59 471.681 284.718H471.578L468.901 284.764H468.814C459.188 284.918 449.705 283.037 445.9 283.396C437.807 284.155 448.803 275.93 448.803 275.93C454.842 277.395 461.054 278.023 467.265 277.795L469.593 277.672C476.948 277.257 484.338 276.566 488.2 275.407C488.456 277.544 488.82 280.65 489.235 284.513Z" fill="#E3A79F"/>
<path opacity="0.1" d="M465.963 197.55L453.234 203.494L443.408 279.389C443.408 279.389 449.218 276.76 452.542 278.42C455.865 280.081 466.101 278.559 466.101 278.559C466.101 278.559 473.573 278.144 474.676 278.974C475.779 279.804 488.79 275.515 488.79 275.515C488.79 275.515 491.144 270.263 489.343 269.432C487.543 268.602 489.897 260.45 489.897 260.45L488.79 205.702L486.579 198.651L480.63 195.064L474.538 199.902L471.635 200.317L465.963 197.55Z" fill="black"/>
<path d="M465.963 196.72L453.234 202.664L443.408 278.559C443.408 278.559 449.218 275.93 452.557 277.611C455.896 279.292 466.117 277.749 466.117 277.749C466.117 277.749 473.589 277.334 474.691 278.164C475.794 278.994 488.805 274.71 488.805 274.71C488.805 274.71 491.159 269.453 489.359 268.628C487.559 267.803 489.913 259.64 489.913 259.64L488.805 204.893L486.595 197.842L480.646 194.255L474.553 199.092L471.65 199.507L465.963 196.72Z" fill="#E7EFFD"/>
<path opacity="0.1" d="M465.753 200.235C465.753 200.235 469.42 204.585 469.343 205.487C469.266 206.389 469.132 208.526 469.132 208.526L466.404 214.137C466.404 214.137 464.865 221.116 464.865 222.571C464.865 224.027 462.435 236.617 462.435 236.617L459.527 255.971L455.86 281.341L459.599 287.767L464.024 284.037L469.907 238.831L471.148 229.914C471.148 229.914 472.466 213.876 472.466 212.215C472.466 210.555 471.702 206.205 471.702 206.205C471.702 206.205 472.604 202.054 476.317 201.08C480.03 200.107 476.04 200.875 476.04 200.875L473.897 199.148L472.045 199.897C472.045 199.897 466.86 198.308 465.753 200.235Z" fill="black"/>
<path d="M465.337 199.83C465.337 199.83 469.004 204.18 468.927 205.082C468.85 205.984 468.717 208.121 468.717 208.121L465.953 213.722C465.953 213.722 464.414 220.701 464.414 222.156C464.414 223.612 461.994 236.186 461.994 236.186L459.086 255.541L455.419 280.911L459.183 287.347L463.609 283.616L469.481 238.4L470.727 229.484C470.727 229.484 472.04 213.445 472.04 211.785C472.04 210.125 471.276 205.774 471.276 205.774C471.276 205.774 472.179 201.623 475.892 200.65C479.605 199.676 475.615 200.44 475.615 200.44L473.471 198.713L471.604 199.471C471.604 199.471 466.445 197.893 465.337 199.83Z" fill="#0B170B"/>
<path opacity="0.1" d="M462.917 192.548C462.917 192.548 462.363 192.964 462.224 195.731C462.086 198.498 460.173 204.713 460.173 204.713C460.173 204.713 467.353 199.738 470.943 200.291L462.917 192.548Z" fill="black"/>
<path d="M462.917 191.739C462.917 191.739 462.363 192.154 462.224 194.921C462.086 197.688 460.173 203.909 460.173 203.909C460.173 203.909 467.353 198.928 470.943 199.482L462.917 191.739Z" fill="#E7EFFD"/>
<path opacity="0.1" d="M482.563 190.36L471.219 200.312C471.219 200.312 480.768 205.979 481.989 207.363C483.21 208.746 484.481 193.814 484.481 193.814L482.563 190.36Z" fill="black"/>
<path d="M482.979 189.53L471.635 199.482C471.635 199.482 481.179 205.149 482.405 206.532C483.63 207.916 484.897 192.984 484.897 192.984L482.979 189.53Z" fill="#E7EFFD"/>
<path opacity="0.1" d="M463.327 192.548C463.327 192.548 462.08 191.928 460.906 193.727C460.043 194.9 458.868 195.809 457.516 196.351C457.516 196.351 444.926 198.354 444.444 200.015L438.561 200.363C438.561 200.363 436.484 200.64 436.279 204.975C436.074 209.31 434.966 209.745 434.966 209.745C434.966 209.745 432.556 214.07 432.756 216.279C432.956 218.487 430.889 219.599 430.889 219.599L439.536 242.064C439.536 242.064 439.813 251.324 438.223 254.711C436.633 258.098 433.653 273.096 433.653 273.096C433.653 273.096 434.9 272.82 434.833 273.65C434.766 274.48 433.294 283.534 433.294 283.534C433.294 283.534 432.879 287.121 432.187 288.372C431.494 289.622 431.428 296.114 431.428 296.114L430.32 300.819C430.32 300.819 432.946 306.691 436.987 305.861C441.028 305.031 448.269 289.34 448.269 289.34L452.885 272.43L456.475 255.705L457.501 244.37L459.162 219.261L461.583 202.674C461.583 202.674 464.301 193.748 463.327 192.548Z" fill="black"/>
<path d="M462.916 191.739C462.916 191.739 461.67 191.119 460.496 192.917C459.632 194.09 458.458 194.999 457.106 195.541C457.106 195.541 444.515 197.55 444.033 199.205L438.151 199.553C438.151 199.553 436.099 199.83 435.869 204.165C435.638 208.5 434.556 208.946 434.556 208.946C434.556 208.946 432.135 213.235 432.34 215.444C432.545 217.652 430.474 218.764 430.474 218.764L439.12 241.229C439.12 241.229 439.397 250.488 437.807 253.875C436.217 257.262 433.238 272.261 433.238 272.261C433.238 272.261 434.484 271.99 434.417 272.815C434.351 273.64 432.879 282.699 432.879 282.699C432.879 282.699 432.463 286.286 431.771 287.542C431.079 288.797 431.012 295.279 431.012 295.279L429.904 299.983C429.904 299.983 432.53 305.856 436.546 305.026C440.561 304.195 447.828 288.505 447.828 288.505L452.444 271.595L456.034 254.864L457.06 243.53L458.721 218.421L461.142 201.834C461.142 201.834 463.886 192.917 462.916 191.739Z" fill="#193619"/>
<path opacity="0.1" d="M418.504 245.241L414.489 248.008C414.489 248.008 408.334 248.203 403.975 247.122L401.739 246.133L401.293 245.938L401.755 246.081C404.062 246.768 405.857 246.753 407.288 246.276C412.965 244.37 412.34 235.003 412.119 232.881C412.119 232.671 412.083 232.533 412.073 232.477C412.081 232.495 412.092 232.512 412.104 232.528C412.182 232.655 412.269 232.777 412.365 232.892C412.442 232.984 412.529 233.076 412.617 233.163L414.622 237.165C414.622 237.165 414.622 237.222 414.622 237.334L418.504 245.241Z" fill="black"/>
<path d="M432.407 218.216L430.474 218.769L430.197 222.71C430.197 222.71 427.915 222.361 427.289 225.057C426.663 227.752 425.561 228.997 425.561 228.997C425.561 228.997 421.755 232.179 421.55 234.875L419.222 236.325C419.222 236.325 413.755 235.08 412.514 232.871C412.514 232.871 415.001 250.703 401.744 246.348C401.744 246.348 416.617 252.845 417.309 253.742C418.001 254.639 422.566 257.268 426.72 255.059C430.874 252.85 431.771 249.458 431.771 249.458C431.771 249.458 435.782 243.857 435.92 243.027C436.059 242.197 439.172 241.234 439.172 241.234L445.069 226.881L432.407 218.216Z" fill="#193619"/>
<path opacity="0.1" d="M480.974 198.651L482.979 189.53C482.979 189.53 483.882 192.502 484.779 193.194L487.754 195.474C487.754 195.474 490.728 196.858 491.764 196.858C492.8 196.858 498.406 198.308 499.098 199.066C499.79 199.825 502.56 199.277 502.56 199.277C502.56 199.277 504.842 200.035 506.847 200.522C508.852 201.009 509.822 204.319 509.411 205.646C509.244 206.299 509.245 206.984 509.414 207.636C509.584 208.289 509.916 208.887 510.381 209.376C511.211 210.207 511.627 212.902 511.627 212.902C512.643 213.236 513.486 213.955 513.976 214.906C514.668 216.443 514.489 219.748 514.489 219.748L504.18 234.26C504.18 234.26 504.319 239.861 503.903 241.106C503.488 242.351 505.355 263.499 505.355 263.499L507.498 299.881C507.498 299.881 504.662 302.299 504.042 302.576C503.421 302.853 502.796 289.719 502.796 289.253C502.796 288.787 486.785 265.313 486.785 265.313C486.785 265.313 484.641 261.859 484.641 261.095C484.641 260.332 482.636 253.353 482.636 253.353L479.589 239.876L480.974 198.651Z" fill="black"/>
<path d="M515.314 218.943C515.314 219.42 515.314 219.733 515.314 219.733L505.011 234.239C505.011 234.239 505.149 239.84 504.734 241.085C504.493 241.803 505.021 249.243 505.508 255.356C505.857 259.763 506.185 263.478 506.185 263.478L507.098 278.902L508.329 299.84C508.329 299.84 505.493 302.258 504.872 302.535C504.252 302.812 503.626 289.678 503.626 289.212C503.626 288.746 487.615 265.313 487.615 265.313C487.615 265.313 485.471 261.854 485.471 261.095C485.471 260.337 483.466 253.353 483.466 253.353L480.42 239.876L481.805 198.677L482.979 189.556C482.979 189.556 484.707 192.528 485.61 193.215C486.513 193.901 488.584 195.5 488.584 195.5C488.584 195.5 491.559 196.884 492.595 196.884C493.631 196.884 499.236 198.334 499.929 199.092C500.621 199.85 503.39 199.302 503.39 199.302C503.39 199.302 505.672 200.061 507.678 200.547C509.683 201.034 510.652 204.35 510.242 205.672C510.074 206.325 510.075 207.011 510.244 207.664C510.414 208.318 510.746 208.917 511.211 209.407C512.037 210.237 512.452 212.933 512.452 212.933C513.471 213.267 514.317 213.988 514.806 214.941C515.283 215.946 515.329 217.862 515.314 218.943Z" fill="#193619"/>
<path opacity="0.1" d="M430.75 403.119C431.094 403.119 445.623 403.672 445.346 406.019C445.069 408.366 430.75 403.119 430.75 403.119Z" fill="black"/>
<path opacity="0.1" d="M434.002 407.059C434.002 407.059 443.747 408.648 441.182 410.098C438.618 411.548 434.002 407.059 434.002 407.059Z" fill="black"/>
<path opacity="0.1" d="M470.25 401.617C470.25 401.617 486.441 403.001 484.02 404.794C481.6 406.588 475.856 406.87 475.579 406.941C475.302 407.013 470.25 401.617 470.25 401.617Z" fill="black"/>
<path opacity="0.1" d="M468.312 408.714C468.312 408.714 477.307 410.252 477.584 411.963C477.861 413.675 468.312 408.714 468.312 408.714Z" fill="black"/>
<path opacity="0.1" d="M473.297 367.106C473.297 367.106 481.502 369.043 482.015 370.354L473.297 367.106Z" fill="black"/>
<path opacity="0.1" d="M441.541 373.05C441.541 373.05 437.254 374.295 441.403 376.78C445.552 379.266 441.541 373.05 441.541 373.05Z" fill="black"/>
<path opacity="0.1" d="M460.567 306.624C461.049 306.624 468.588 304.134 471.219 305.241C473.102 305.943 475.092 306.318 477.102 306.348L460.567 306.624Z" fill="black"/>
<path opacity="0.1" d="M461.537 314.505L461.46 315.192L455.029 332.066C455.029 332.066 454.003 337.19 453.095 340.08C452.527 342.054 452.075 344.059 451.741 346.086L457.449 310.729L461.537 314.505Z" fill="black"/>
<path d="M471.578 284.718L468.901 284.764H468.814L467.245 277.795L469.573 277.672L471.578 284.718Z" fill="#0B170B"/>
<path d="M504.216 276.279L502.498 277.698L496.749 282.428C496.749 282.428 481.179 290.724 476.892 282.843C473.112 275.899 490.739 270.944 495.011 269.863L495.918 269.643L504.216 276.279Z" fill="#FBBEBE"/>
<path opacity="0.1" d="M437.735 208.331C437.735 208.331 440.782 209.715 441.474 211.646C442.166 213.578 437.735 208.331 437.735 208.331Z" fill="black"/>
<path opacity="0.1" d="M428.33 229.069C428.33 229.069 423.899 234.46 425.699 236.53C427.499 238.6 428.33 229.069 428.33 229.069Z" fill="black"/>
<path opacity="0.1" d="M507.468 211.37C507.468 211.37 503.319 211.785 503.18 215.382L507.468 211.37Z" fill="black"/>
<path opacity="0.1" d="M469.004 268.054C469.419 267.639 478.969 253.537 481.179 254.782L469.004 268.054Z" fill="black"/>
<path opacity="0.1" d="M486.856 176.392C486.859 179.102 486.19 181.771 484.907 184.16H484.784C483.759 183.94 483.2 182.725 482.4 181.962C481.908 181.498 481.284 181.2 480.615 181.108C479.946 181.016 479.264 181.135 478.666 181.449C478.06 181.811 477.568 182.335 477.243 182.961C476.919 183.588 476.776 184.292 476.83 184.995C476.317 182.782 476.471 180.43 475.953 178.211C475.435 175.992 473.902 173.748 471.773 173.712C470.86 173.712 469.794 174.05 469.132 173.363C468.732 172.953 468.65 172.303 468.353 171.8C466.814 169.351 462.224 170.591 460.342 171.847C458.46 173.102 456.27 175.111 453.926 176.187C454.027 171.87 455.822 167.766 458.924 164.759C462.026 161.753 466.186 160.086 470.507 160.116C474.829 160.147 478.965 161.874 482.023 164.925C485.082 167.975 486.817 172.105 486.856 176.422V176.392Z" fill="black"/>
<path d="M468.352 171.355C468.65 171.867 468.732 172.508 469.132 172.918C469.788 173.604 470.855 173.251 471.773 173.266C473.891 173.302 475.44 175.546 475.953 177.765C476.466 179.984 476.302 182.336 476.83 184.555C476.774 183.851 476.917 183.147 477.241 182.52C477.566 181.893 478.059 181.37 478.666 181.009C479.264 180.696 479.945 180.578 480.614 180.669C481.283 180.761 481.907 181.059 482.399 181.521C483.199 182.285 483.743 183.499 484.784 183.714C485.825 183.93 486.835 182.935 487.21 181.839C487.584 180.742 487.564 179.533 487.81 178.395C488.277 176.238 489.687 174.47 490.466 172.42C491.395 169.925 491.369 167.176 490.395 164.698C489.882 163.402 489.102 162.233 488.579 160.937C487.784 158.964 487.553 156.74 486.605 154.865C484.979 151.724 481.138 150.151 477.989 151.334C476.481 151.898 475.178 152.989 473.65 153.481C471.599 154.137 469.419 153.645 467.306 153.348C465.193 153.051 462.85 153.025 461.152 154.419C459.193 156.018 458.66 159.031 456.818 160.783C456.044 161.521 455.085 161.993 454.254 162.674C453.423 163.356 452.716 164.375 452.834 165.482C452.952 166.912 454.372 168.213 453.859 169.541C453.674 169.93 453.413 170.279 453.09 170.565C451.549 172.179 450.403 174.128 449.741 176.259C453.444 177.417 457.434 173.338 460.347 171.411C462.224 170.145 466.834 168.905 468.352 171.355Z" fill="#0B170B"/>
<path opacity="0.1" d="M504.216 276.279L502.498 277.698C500.959 275.172 494.744 270.124 494.744 270.124L495.01 269.863L495.918 269.643L504.216 276.279Z" fill="black"/>
<path d="M505.893 273.721C505.893 273.721 505.277 275.259 504.636 276.591C503.995 277.923 503.298 279.153 503.267 278.128C503.195 276.191 495.174 269.694 495.174 269.694L496.262 268.638L497.523 267.414L505.893 273.721Z" fill="#E7EFFD"/>
<path opacity="0.1" d="M506.154 263.488L507.067 278.912C504.913 275.576 499.016 267.014 495.226 267.291L504.426 256.714C504.808 256.29 505.159 255.84 505.477 255.366C505.826 259.773 506.154 263.488 506.154 263.488Z" fill="black"/>
<path opacity="0.1" d="M505.893 273.721C505.893 273.721 505.278 275.259 504.637 276.591C502.226 273.286 498.908 269.381 496.262 268.654L497.523 267.429L505.893 273.721Z" fill="black"/>
<path d="M512.796 217.801L515.288 219.738C515.288 219.738 519.437 219.804 519.853 223.263C520.268 226.722 524.073 228.305 524.073 228.305C524.073 228.305 526.909 231.139 526.909 232.456C526.909 233.773 529.053 236.12 529.053 236.325C529.053 236.53 531.105 240.747 530.853 241.51C530.602 242.274 533.064 245.61 532.305 246.829C531.68 247.947 531.125 249.102 530.643 250.288C530.643 250.288 527.391 256.509 525.735 257.683C524.078 258.856 516.463 268.746 516.463 268.746C516.463 268.746 508.298 278.144 508.298 281.044C508.298 281.044 500.344 267.772 495.641 268.116L504.867 257.544C504.867 257.544 506.457 255.817 506.529 254.782C506.601 253.747 510.955 248.977 513.032 248.766C513.032 248.766 513.375 245.933 512.478 245.866C511.58 245.799 510.816 243.581 510.816 243.581C510.816 243.581 504.729 236.407 504.662 231.831C504.595 227.255 512.796 217.801 512.796 217.801Z" fill="#193619"/>
<path opacity="0.1" d="M516.463 224.365C516.463 224.365 510.653 228.654 511.899 230.032C513.145 231.411 516.463 224.365 516.463 224.365Z" fill="black"/>
<path opacity="0.1" d="M516.74 242.064C516.74 242.064 527.51 238.605 528.638 242.064H516.74Z" fill="black"/>
<path opacity="0.1" d="M449.916 425.701C449.916 425.701 444.1 429.504 441.197 428.945C438.295 428.387 435.315 429.919 435.315 429.919C433.314 432.103 430.791 433.745 427.981 434.689C423.279 436.278 416.699 435.653 412.97 434.407C411.201 433.818 411.062 433.06 411.914 432.122C415.97 432.932 425.048 434.541 427.499 433.372C430.679 431.835 435.243 428.535 435.243 428.535C435.243 428.535 441.197 427.751 442.028 427.751C442.618 427.751 447.213 425.855 449.803 424.769L449.916 425.701Z" fill="black"/>
<path opacity="0.1" d="M485.112 433.495C485.076 433.731 485.056 433.88 485.056 433.88C485.056 433.88 483.671 436.918 475.994 438.025C468.317 439.132 468.301 435.463 468.301 435.463C468.301 435.463 468.332 435.069 468.383 434.474C470.819 435.402 476.148 436.432 485.112 433.495Z" fill="black"/>
<path opacity="0.1" d="M440.608 223.535C440.608 223.535 440.608 239.297 439.259 240.855C437.91 242.412 440.608 223.535 440.608 223.535Z" fill="black"/>
<path opacity="0.1" d="M502.975 228.618L504.98 234.255C504.98 234.255 505.775 228.72 502.975 228.618Z" fill="black"/>
<g opacity="0.1">
<path opacity="0.1" d="M454.054 168.198C454.567 166.902 453.239 165.636 453.064 164.237C452.887 164.629 452.811 165.059 452.844 165.487C452.931 166.538 453.705 167.511 453.911 168.48C453.966 168.39 454.015 168.296 454.054 168.198Z" fill="black"/>
<path opacity="0.1" d="M477.014 183.089C476.502 180.906 476.666 178.6 476.163 176.428C475.661 174.255 474.112 171.964 471.978 171.928C471.065 171.928 469.999 172.267 469.337 171.58C468.937 171.17 468.86 170.519 468.558 170.017C467.019 167.568 462.434 168.808 460.547 170.063C457.716 171.944 453.829 175.874 450.203 174.983C450.028 175.403 449.864 175.823 449.731 176.258C453.434 177.417 457.424 173.338 460.337 171.411C462.224 170.155 466.834 168.915 468.352 171.365C468.65 171.877 468.732 172.518 469.132 172.928C469.788 173.614 470.855 173.261 471.773 173.276C473.891 173.312 475.44 175.556 475.953 177.775C476.466 179.994 476.302 182.346 476.83 184.565C476.797 184.066 476.859 183.565 477.014 183.089Z" fill="black"/>
<path opacity="0.1" d="M487.43 180.496C487.051 181.593 486.066 182.597 484.999 182.372C483.933 182.146 483.415 180.942 482.62 180.179C482.128 179.716 481.504 179.419 480.835 179.327C480.166 179.235 479.485 179.354 478.886 179.666C478.309 180.009 477.834 180.5 477.511 181.089C477.188 181.677 477.029 182.341 477.05 183.012C477.326 182.168 477.905 181.456 478.676 181.014C479.275 180.701 479.956 180.583 480.625 180.674C481.294 180.766 481.918 181.064 482.41 181.526C483.21 182.29 483.753 183.504 484.794 183.719C485.835 183.935 486.846 182.941 487.22 181.844C487.419 181.197 487.546 180.53 487.6 179.856C487.556 180.072 487.499 180.286 487.43 180.496Z" fill="black"/>
<path opacity="0.1" d="M490.671 171.078C489.892 173.128 488.487 174.895 488.015 177.053C487.923 177.488 487.866 177.934 487.815 178.38C488.287 176.233 489.687 174.465 490.466 172.426C490.81 171.503 491.026 170.537 491.107 169.556C490.999 170.073 490.853 170.582 490.671 171.078Z" fill="black"/>
</g>
</g>
<defs>
<linearGradient id="paint0_linear" x1="462.742" y1="438.855" x2="462.742" y2="149.367" gradientUnits="userSpaceOnUse">
<stop stop-color="#808080" stop-opacity="0.25"/>
<stop offset="0.54" stop-color="#808080" stop-opacity="0.12"/>
<stop offset="1" stop-color="#808080" stop-opacity="0.1"/>
</linearGradient>
<clipPath id="clip0">
<rect width="590" height="444" fill="white"/>
</clipPath>
</defs>
</svg>
