<svg width="139" height="94" viewBox="0 0 139 94" fill="none" xmlns="http://www.w3.org/2000/svg">
<path d="M42.6693 81.6783C42.6693 84.7866 41.4767 86.4742 39.5234 87.389C32.1657 86.6785 25.1098 84.1075 19.0198 79.9179C19.1759 78.8612 19.4751 77.8306 19.9091 76.8545L25.4645 78.5821L20.5169 75.6704C21.186 74.5282 22.0409 73.5055 23.0465 72.6446L32.3799 75.5466L25.0677 71.2518C26.5734 70.4267 28.2399 69.9374 29.9527 69.8177C31.6655 69.698 33.3839 69.9507 34.9897 70.5584C36.5955 71.1661 38.0506 72.1143 39.2551 73.3379C40.4595 74.5616 41.3846 76.0315 41.9668 77.6467L41.9923 77.7195C42.0117 77.7741 42.0311 77.8287 42.0493 77.8845C42.1149 78.0778 42.1751 78.2732 42.2301 78.4705C42.2507 78.5409 42.2702 78.6113 42.2871 78.6828C42.3041 78.7544 42.3223 78.8187 42.3381 78.8867C42.3539 78.9546 42.3672 79.008 42.3793 79.0638C42.3878 79.1002 42.3963 79.1366 42.4036 79.173C42.417 79.2312 42.4291 79.2943 42.44 79.3489C42.457 79.4338 42.474 79.52 42.4885 79.6049C42.5031 79.6898 42.5189 79.782 42.5322 79.8706C42.5456 79.9592 42.5613 80.0671 42.5735 80.1666C42.5856 80.2661 42.5953 80.3438 42.6038 80.4323C42.6038 80.4602 42.6099 80.4869 42.6123 80.5148C42.6208 80.5925 42.6268 80.6701 42.6329 80.7478C42.6335 80.7579 42.6335 80.768 42.6329 80.7781C42.6402 80.8752 42.6463 80.9722 42.6511 81.0693C42.656 81.1663 42.6596 81.261 42.662 81.3532C42.6627 81.3625 42.6627 81.3718 42.662 81.3811C42.6681 81.4781 42.6693 81.5776 42.6693 81.6783Z" fill="#326A32"/>
<path opacity="0.1" d="M42.6694 81.6784C42.6694 84.7867 41.4768 86.4743 39.5235 87.3891C34.7654 86.9309 30.1154 85.6913 25.7606 83.7203L25.9595 83.588C26.8585 82.9923 27.7879 82.3833 28.8458 82.1807C29.7764 82.0023 30.736 82.1528 31.6811 82.0994C33.3264 81.9986 34.8752 81.2889 36.0257 80.1085C36.7015 79.4096 37.2389 78.5519 38.0457 78.0181C38.9217 77.443 40.033 77.3192 41.0715 77.4624C41.3732 77.5064 41.6722 77.5676 41.9669 77.6456L41.9924 77.7184C42.0118 77.773 42.0312 77.8276 42.0494 77.8834C42.1149 78.0767 42.1752 78.272 42.2302 78.4694C42.2508 78.5398 42.2702 78.6101 42.2872 78.6817C42.3042 78.7533 42.3224 78.8176 42.3382 78.8855C42.3539 78.9535 42.3673 79.0069 42.3794 79.0627C42.3879 79.0991 42.3964 79.1355 42.4037 79.1719C42.417 79.2301 42.4292 79.2932 42.4401 79.3478C42.4571 79.4327 42.474 79.5188 42.4886 79.6038C42.5032 79.6887 42.5189 79.7809 42.5323 79.8695C42.5456 79.958 42.5614 80.066 42.5735 80.1655C42.5857 80.265 42.5954 80.3426 42.6039 80.4312C42.6039 80.4591 42.6099 80.4858 42.6124 80.5137C42.6208 80.5913 42.6269 80.669 42.633 80.7466C42.6336 80.7567 42.6336 80.7669 42.633 80.777C42.6403 80.874 42.6463 80.9711 42.6512 81.0681C42.656 81.1652 42.6597 81.2598 42.6621 81.352C42.6627 81.3613 42.6627 81.3706 42.6621 81.3799C42.6682 81.4782 42.6694 81.5777 42.6694 81.6784Z" fill="black"/>
<path opacity="0.1" d="M49.0849 8.05461C48.8023 7.89083 48.4201 8.04733 48.226 8.31061C48.0319 8.57388 47.9833 8.91722 47.9287 9.2363C47.8208 9.95332 47.7419 10.7771 48.226 11.3182C47.435 8.91965 45.1601 7.0816 42.6451 6.81348" stroke="#326A32" stroke-width="3" stroke-miterlimit="10"/>
<path opacity="0.1" d="M36.2889 31.9516C36.107 31.8473 35.8619 31.9516 35.7369 32.1166C35.626 32.2968 35.5602 32.5012 35.5452 32.7123C35.4761 33.1733 35.4239 33.7023 35.7369 34.0469C35.4702 33.277 34.9928 32.5975 34.3591 32.0855C33.7253 31.5735 32.9605 31.2497 32.1518 31.1509" stroke="#326A32" stroke-width="3" stroke-miterlimit="10"/>
<path opacity="0.1" d="M93.6432 93.4892C103.158 93.4892 110.871 92.946 110.871 92.276C110.871 91.6059 103.158 91.0627 93.6432 91.0627C84.1285 91.0627 76.4153 91.6059 76.4153 92.276C76.4153 92.946 84.1285 93.4892 93.6432 93.4892Z" fill="#326A32"/>
<path opacity="0.1" d="M139 55.0929C138.997 59.7975 137.974 64.4454 136 68.7161C134.027 72.9867 131.15 76.7783 127.569 79.8293C123.988 82.8803 119.787 85.118 115.257 86.3879C110.727 87.6579 105.976 87.9299 101.33 87.1853H49.8032C47.813 87.4584 45.8065 87.5954 43.7977 87.5953C42.3556 87.5953 40.9308 87.5266 39.5235 87.3891C28.695 86.3377 18.6468 81.2897 11.3392 73.23C4.03156 65.1702 -0.0110752 54.677 2.27896e-05 43.7977C2.27896e-05 19.6083 19.6095 0 43.7977 0C63.2786 0 79.7858 12.7195 85.4746 30.3065C91.3428 25.3141 98.7991 22.5782 106.504 22.5904C124.448 22.5904 139 37.1419 139 55.0929Z" fill="#326A32"/>
<path opacity="0.1" d="M126.515 80.7004C122.988 83.4542 118.931 85.4512 114.598 86.567C110.265 87.6827 105.748 87.8932 101.33 87.1852H49.8031C47.8129 87.4583 45.8064 87.5953 43.7976 87.5952C42.3555 87.5952 40.9308 87.5265 39.5234 87.389C30.9899 86.552 22.8895 83.2298 16.2258 77.8339C9.56206 72.438 4.62787 65.2056 2.03455 57.0327C6.2299 48.0681 17.0083 41.689 29.6453 41.689C41.9596 41.689 52.5147 47.7478 56.9199 56.3533C59.0892 55.9588 61.2896 55.7611 63.4944 55.7625C76.2576 55.7625 87.1246 62.2739 91.2277 71.3731C94.6266 70.3429 98.1597 69.8232 101.711 69.8311C112.121 69.8359 121.27 74.1635 126.515 80.7004Z" fill="#326A32"/>
<path d="M110.863 17.8806H29.2738V70.1342H110.863V17.8806Z" fill="#E6E6E6"/>
<path d="M108.53 24.4346H31.6069V67.0429H108.53V24.4346Z" fill="white"/>
<path d="M110.828 17.8345H29.2389V21.3007H110.828V17.8345Z" fill="#326A32"/>
<path d="M31.8149 20.249C32.1697 20.249 32.4574 19.9614 32.4574 19.6065C32.4574 19.2517 32.1697 18.9641 31.8149 18.9641C31.4601 18.9641 31.1725 19.2517 31.1725 19.6065C31.1725 19.9614 31.4601 20.249 31.8149 20.249Z" fill="white"/>
<path d="M34.2534 20.249C34.6082 20.249 34.8958 19.9614 34.8958 19.6065C34.8958 19.2517 34.6082 18.9641 34.2534 18.9641C33.8986 18.9641 33.611 19.2517 33.611 19.6065C33.611 19.9614 33.8986 20.249 34.2534 20.249Z" fill="white"/>
<path d="M36.6919 20.249C37.0467 20.249 37.3343 19.9614 37.3343 19.6065C37.3343 19.2517 37.0467 18.9641 36.6919 18.9641C36.3371 18.9641 36.0495 19.2517 36.0495 19.6065C36.0495 19.9614 36.3371 20.249 36.6919 20.249Z" fill="white"/>
<path d="M56.1165 27.9392H41.0714V44.2618H56.1165V27.9392Z" fill="#E6E6E6"/>
<path d="M77.591 27.9392H62.5459V44.2618H77.591V27.9392Z" fill="#E6E6E6"/>
<path d="M99.0654 27.9392H84.0203V44.2618H99.0654V27.9392Z" fill="#E6E6E6"/>
<path d="M56.1165 47.2163H41.0714V63.5389H56.1165V47.2163Z" fill="#E6E6E6"/>
<path d="M77.591 47.2163H62.5459V63.5389H77.591V47.2163Z" fill="#E6E6E6"/>
<path d="M99.0654 47.2163H84.0203V63.5389H99.0654V47.2163Z" fill="#E6E6E6"/>
<path d="M46.9155 37.8088C48.3201 37.8088 49.4587 36.6702 49.4587 35.2656C49.4587 33.861 48.3201 32.7224 46.9155 32.7224C45.5109 32.7224 44.3723 33.861 44.3723 35.2656C44.3723 36.6702 45.5109 37.8088 46.9155 37.8088Z" fill="#FFB9B9"/>
<path d="M45.922 37.213C45.922 37.213 46.2399 38.723 46.2399 38.8819C46.2399 39.0409 47.75 39.7562 47.75 39.7562L49.101 39.5177L49.5779 38.0872C49.5779 38.0872 48.7831 36.8951 48.7831 36.4182L45.922 37.213Z" fill="#FFB9B9"/>
<path d="M44.7101 33.2168C44.7101 33.2168 45.5175 31.4673 47.0652 31.871C48.6128 32.2748 49.4875 32.8804 49.5548 33.4859C49.6221 34.0915 49.5212 34.9999 49.5212 34.9999C49.5212 34.9999 49.353 33.7551 48.2763 34.0243C47.1997 34.2934 45.5175 34.0915 45.5175 34.0915L45.2484 36.5139C45.2484 36.5139 44.9456 36.0765 44.6091 36.3457C44.2727 36.6149 43.6335 33.7551 44.7101 33.2168Z" fill="black"/>
<path d="M54.982 43.6505L54.3467 40.7889C54.0281 39.835 53.2341 39.041 53.2341 39.041L49.3147 37.6626H49.3137C49.3061 38.009 49.1893 38.3443 48.98 38.6204C48.7707 38.8966 48.4796 39.0997 48.1481 39.2008C46.9555 39.5973 46.1345 38.2609 46.1345 38.2609L42.8214 40.7889C42.8214 40.7889 41.7887 41.6638 41.8686 43.3329L41.7587 44.2617H55.2876L54.982 43.6505Z" fill="#326A32"/>
<path d="M68.3325 39.0762C70.2389 39.0762 71.7844 37.4357 71.7844 35.4119C71.7844 33.3881 70.2389 31.7476 68.3325 31.7476C66.426 31.7476 64.8806 33.3881 64.8806 35.4119C64.8806 37.4357 66.426 39.0762 68.3325 39.0762Z" fill="black"/>
<path d="M71.3953 40.9571C72.3982 40.9571 73.2112 40.1441 73.2112 39.1412C73.2112 38.1382 72.3982 37.3252 71.3953 37.3252C70.3923 37.3252 69.5793 38.1382 69.5793 39.1412C69.5793 40.1441 70.3923 40.9571 71.3953 40.9571Z" fill="black"/>
<path d="M70.1306 36.7092L71.1034 39.2385L68.6389 40.2763L68.4225 39.7858L67.666 38.0712L70.1306 36.7092Z" fill="#9F616A"/>
<path d="M68.1849 38.3629C69.3849 38.3629 70.3576 37.3902 70.3576 36.1902C70.3576 34.9903 69.3849 34.0176 68.1849 34.0176C66.985 34.0176 66.0123 34.9903 66.0123 36.1902C66.0123 37.3902 66.985 38.3629 68.1849 38.3629Z" fill="#9F616A"/>
<path d="M66.409 35.952C67.7746 35.0408 68.1828 34.8229 69.7481 35.1749L69.842 32.8914L65.7971 33.7399L66.409 35.952Z" fill="black"/>
<path d="M75.1889 41.1185L75.129 41.1255C75.1275 41.1233 75.1258 41.1213 75.124 41.1195C74.8863 40.8818 73.7516 40.4493 72.9056 40.1496H72.9046C72.3673 39.9588 71.9468 39.822 71.9468 39.822L70.924 38.7703C70.6663 39.0599 70.1219 39.2837 69.6045 39.4415C69.2085 39.5614 68.8056 39.6574 68.398 39.7291H68.397L68.1852 40.4053C68.1852 40.4053 65.7851 42.2222 65.5913 42.4159H65.5903V42.4179C65.5749 42.44 65.5684 42.4672 65.5723 42.4938V42.4988C65.4513 43.0787 65.389 43.6693 65.3866 44.2617H75.8381V43.6485C75.8381 42.8055 75.1889 41.1185 75.1889 41.1185Z" fill="#004900"/>
<path d="M94.408 44.2617H89.2401L88.9555 41.454L88.9385 41.2832L88.9036 40.9446L88.7607 39.5293L88.5819 41.0495L88.2044 44.2617H87.2655L87.3005 43.2619L87.3354 42.2481L87.3504 41.8395L87.5432 36.2822C87.5284 35.4015 87.807 34.5409 88.3352 33.8361C88.6285 33.4543 89.0069 33.1463 89.4402 32.9367C89.8736 32.727 90.3499 32.6215 90.8313 32.6285C91.3224 32.6269 91.8072 32.7391 92.2477 32.9562C92.6882 33.1733 93.0724 33.4895 93.3702 33.88C93.9161 34.5919 94.2083 35.466 94.2003 36.3631L94.2891 39.7271L94.408 44.2617Z" fill="black"/>
<path d="M90.8313 38.2711C92.0867 38.2711 93.1044 37.2533 93.1044 35.998C93.1044 34.7426 92.0867 33.7249 90.8313 33.7249C89.5759 33.7249 88.5582 34.7426 88.5582 35.998C88.5582 37.2533 89.5759 38.2711 90.8313 38.2711Z" fill="#FBBEBE"/>
<path d="M89.6947 37.6216C89.6947 37.6216 90.3442 39.8135 89.6947 40.463C89.0452 41.1124 88.8829 41.356 88.8829 41.356L90.7501 43.8726L93.9973 39.8947C93.9973 39.8947 91.7242 39.2452 92.2925 37.4592L89.6947 37.6216Z" fill="#FBBEBE"/>
<path d="M96.7072 44.2617H94.7894L94.7575 43.9331L94.7285 43.6295L95.6115 43.5186L96.6762 43.3857L96.6882 43.7263L96.7072 44.2617Z" fill="#FBBEBE"/>
<path d="M96.8388 43.7101C96.8388 43.7101 96.5141 41.6805 96.2705 40.8687C96.027 40.0569 95.7834 40.0569 95.7834 40.0569H95.7834L95.7834 40.0567C95.4967 39.77 94.8075 39.7191 94.2892 39.7271C93.9256 39.7311 93.6459 39.763 93.6459 39.763L90.7504 42.8174L89.2921 40.8787V40.8777C89.1608 40.8879 89.0307 40.9103 88.9036 40.9446C88.7942 40.9725 88.6867 41.0075 88.582 41.0495C88.1303 41.2425 87.7141 41.5095 87.3504 41.8396H87.3494C87.1397 42.0283 87.0158 42.1672 87.0158 42.1672C86.6946 42.8349 86.4526 43.5378 86.2947 44.2617H95.5736L95.5946 43.8442V43.8434L96.8388 43.7101Z" fill="#326A32"/>
<path d="M88.9236 35.6326C90.3917 34.8411 90.9947 34.8746 92.8203 35.6326L93.3074 34.4458C93.3071 34.2224 93.2183 34.0082 93.0602 33.8502C92.9022 33.6922 92.688 33.6033 92.4646 33.603H89.1981C88.9746 33.6033 88.7604 33.6922 88.6024 33.8502C88.4444 34.0082 88.3555 34.2224 88.3553 34.4458L88.9236 35.6326Z" fill="black"/>
<path d="M48.395 51.167C48.2741 51.1571 48.153 51.1842 48.0478 51.2446C47.9479 51.3297 47.8678 51.4355 47.8129 51.5547C47.5587 52.001 47.2146 52.3896 46.8024 52.696C46.5022 52.916 46.1205 53.1902 46.1719 53.5957C46.199 53.7296 46.2485 53.858 46.3182 53.9755C46.5952 54.5346 47.351 54.9667 47.2766 55.6046C47.5518 55.144 47.1838 54.9162 47.4589 54.4555C47.59 54.2361 47.8176 53.9885 48.0155 54.1263C48.0817 54.1724 48.1252 54.2551 48.1942 54.2956C48.3588 54.3922 48.5339 54.2075 48.6796 54.0768C49.1819 53.6258 49.8964 53.7439 50.5215 53.8844C50.8167 53.9508 51.1409 54.0378 51.3153 54.3199C51.5447 54.6908 51.0974 55.0913 50.9844 55.5106C50.9751 55.5464 50.9747 55.5838 50.9831 55.6197C50.9915 55.6557 51.0085 55.689 51.0326 55.717C51.0567 55.7449 51.0872 55.7666 51.1215 55.7802C51.1558 55.7938 51.1929 55.7989 51.2296 55.795C51.4172 55.7765 51.6394 55.7613 51.6505 55.679C51.8865 55.6874 52.1757 55.6607 52.2768 55.4149C52.3077 55.3177 52.324 55.2164 52.3253 55.1144C52.3624 54.7016 52.5376 54.325 52.6536 53.9321C52.7697 53.5392 52.8202 53.0788 52.6243 52.7304C52.5544 52.6145 52.468 52.5094 52.3677 52.4185C51.2561 51.3428 49.7947 51.1655 48.395 51.167Z" fill="black"/>
<path d="M47.5184 56.4102C47.5184 56.4102 47.7601 58.4247 46.8737 58.5859C45.9874 58.7471 47.6795 61.4868 47.6795 61.4868L51.7085 61.9703L50.7416 58.7471C50.7416 58.7471 50.0969 58.5053 50.4998 56.8937C50.9027 55.2821 47.5184 56.4102 47.5184 56.4102Z" fill="#9F616A"/>
<path d="M49.3315 57.7398C50.6666 57.7398 51.7489 56.6575 51.7489 55.3224C51.7489 53.9873 50.6666 52.905 49.3315 52.905C47.9964 52.905 46.9141 53.9873 46.9141 55.3224C46.9141 56.6575 47.9964 57.7398 49.3315 57.7398Z" fill="#9F616A"/>
<path d="M45.1706 63.5389C45.5981 61.8579 46.1884 59.5936 46.1884 59.5936C46.1884 59.5936 46.4181 59.6405 46.7797 59.6935C47.3079 59.7721 47.8401 59.8205 48.3738 59.8383C49.057 59.8573 49.7761 59.8123 50.3325 59.6195C50.5422 59.5522 50.7381 59.4477 50.9108 59.3109C50.9835 59.2524 51.0486 59.1849 51.1046 59.1102C52.0714 57.8207 52.4739 62.7358 52.4739 62.7358L52.5488 63.5389L45.1706 63.5389Z" fill="#326A32"/>
<path d="M52.8943 68.7326C52.8624 68.7326 52.8304 68.7336 52.7985 68.7356L52.8444 68.6497C52.8604 68.6766 52.8764 68.7046 52.8943 68.7326Z" fill="#FFB8B8"/>
<path d="M48.5129 51.7994C48.4154 51.7921 48.3178 51.8111 48.2302 51.8542C48.1509 51.9121 48.0856 51.987 48.0389 52.0733C47.824 52.3966 47.5438 52.6714 47.2164 52.88C46.972 53.0355 46.6613 53.2293 46.7031 53.5159C46.7258 53.612 46.7662 53.703 46.8222 53.7844C47.0485 54.1835 47.1386 54.6455 47.0788 55.1004L47.7508 54.1236C47.8575 53.9686 48.0428 53.7935 48.2039 53.8909C48.2578 53.9235 48.2932 53.982 48.3494 54.0106C48.4833 54.0789 48.6259 53.9484 48.7445 53.8559C49.1534 53.5372 49.735 53.6207 50.2439 53.72C50.4842 53.7669 50.7481 53.8284 50.8901 54.0278C51.1261 54.3591 50.8797 54.8378 51.0174 55.2206C51.056 55.1936 51.0887 55.1591 51.1137 55.1192C51.1387 55.0793 51.1554 55.0348 51.1629 54.9884C51.355 54.9943 51.5904 54.9754 51.6728 54.8017C51.6978 54.7337 51.7111 54.6618 51.7122 54.5893C51.7424 54.2975 51.8851 54.0314 51.9795 53.7537C52.074 53.476 52.1151 53.1505 51.9557 52.9043C51.8973 52.8209 51.8269 52.7466 51.7468 52.6839C50.8419 51.9236 49.6523 51.7982 48.5129 51.7994Z" fill="black"/>
<path d="M48.2839 59.6734C47.7326 59.0432 47.405 58.1243 47.39 58.0833V58.0823C47.39 58.0823 46.511 57.5789 46.2693 58.0623C46.0276 58.5458 43.7713 59.7543 43.5296 59.7543C43.5276 59.7552 43.5256 59.7559 43.5236 59.7563C43.4277 59.7883 42.2271 60.2248 41.9185 61.8498C41.8347 62.409 41.7899 62.9734 41.7846 63.5388H48.3558C48.4237 62.8267 48.4747 62.1605 48.4947 61.5851C48.5236 60.7831 48.4957 60.1598 48.3738 59.8382C48.3543 59.7782 48.3238 59.7223 48.2839 59.6734Z" fill="black"/>
<path d="M53.9342 60.127C53.9302 60.108 53.9272 60.092 53.9242 60.077C53.9135 60.0342 53.8952 59.9936 53.8703 59.9572C53.8697 59.9563 53.8694 59.9552 53.8693 59.9542C53.4038 59.2331 50.4104 58.2402 50.4104 58.2402L50.2985 58.6268C50.2985 58.6268 50.3125 59.0083 50.3325 59.6196C50.3525 60.1919 50.3764 60.965 50.3994 61.814C50.4154 62.3683 50.4294 62.9556 50.4424 63.5389H54.92C54.6691 62.3806 54.3397 61.2406 53.9342 60.127Z" fill="black"/>
<path d="M95.8284 63.5388L96.171 61.8648L96.4896 61.73L96.4916 61.731C96.5205 61.742 96.8671 61.8888 96.8671 62.4451C96.8671 62.557 96.8501 62.9595 96.8222 63.5388H95.8284Z" fill="#004900"/>
<path d="M92.2299 57.6917C93.7665 57.6917 95.0122 56.446 95.0122 54.9094C95.0122 53.3729 93.7665 52.1272 92.2299 52.1272C90.6933 52.1272 89.4477 53.3729 89.4477 54.9094C89.4477 56.446 90.6933 57.6917 92.2299 57.6917Z" fill="#FFB8B8"/>
<path d="M93.9688 56.5325L93.7369 61.2854L90.1431 59.1988L90.6068 56.5325H93.9688Z" fill="#FFB8B8"/>
<path d="M95.0123 61.5173L94.7766 63.5389H92.8898L90.8423 59.6045L90.2649 58.4969L89.9883 58.3161L90.3089 58.2432L90.5616 58.4259L93.3892 60.4745L93.8427 59.1131L93.8547 59.0782L93.9685 58.7356L95.0123 61.5173Z" fill="#326A32"/>
<path d="M90.5489 52.1852C90.5489 52.1852 90.8967 50.4463 92.8674 50.794L92.6356 50.91C92.6356 50.91 94.4904 50.6781 94.2586 51.7215C94.2586 51.7215 95.7656 52.6489 95.4178 53.6922C95.2133 54.2969 95.0583 54.9172 94.9541 55.547L94.6064 55.1993C94.6064 55.1993 94.2586 52.8807 92.1719 53.1126C90.6069 53.2865 89.9693 54.0255 89.8062 54.558C89.7312 54.8084 89.6354 55.0522 89.5198 55.2866L89.3896 55.3152C89.3896 55.3152 88.6941 52.7648 90.5489 52.1852Z" fill="black"/>
<path d="M96.4916 61.731L96.4896 61.73L95.0124 60.3576V59.4307L93.8718 58.5318L93.8548 59.0782L93.7369 62.7927L91.8402 60.1838L90.5617 58.4259L90.332 58.1113L90.3879 57.8167L89.6797 58.6187L87.1168 60.5414L86.8971 60.7062C86.645 60.9584 86.4126 61.2296 86.2019 61.5173C86.133 61.6201 85.8193 62.4392 85.4108 63.5388H96.8223C96.8502 62.9595 96.8672 62.557 96.8672 62.4451C96.8672 61.8888 96.5206 61.742 96.4916 61.731Z" fill="black"/>
<path d="M69.8396 51.8533C67.9542 51.8533 66.4259 53.5494 66.4259 55.6417V58.3001H67.2434L67.7168 57.3151L67.5984 58.3001H72.8535L73.2838 57.4047L73.1762 58.3001H73.7679V56.2128C73.7679 53.8051 72.0091 51.8533 69.8396 51.8533Z" fill="black"/>
<path d="M67.0845 63.5388H64.8641L64.8432 61.7279C64.8422 61.7089 64.8422 61.691 64.8422 61.672L65.2866 61.1716L65.2946 61.1626L66.9916 62.2373L67.0845 63.5388Z" fill="#D0CDE1"/>
<path d="M69.5375 57.9286C70.8796 57.9286 71.9677 56.8405 71.9677 55.4983C71.9677 54.1562 70.8796 53.0681 69.5375 53.0681C68.1953 53.0681 67.1072 54.1562 67.1072 55.4983C67.1072 56.8405 68.1953 57.9286 69.5375 57.9286Z" fill="#FBBEBE"/>
<path d="M68.1442 56.9565C68.1442 56.9565 68.857 60.6505 68.533 61.0393C68.209 61.4281 71.9677 60.3264 71.9677 60.3264C71.9677 60.3264 70.7364 57.799 71.3845 56.3733L68.1442 56.9565Z" fill="#FBBEBE"/>
<path d="M74.7374 59.4547H74.7364C74.6791 59.3336 74.5802 59.2372 74.4577 59.183C73.9813 58.9822 73.5708 58.8284 73.2332 58.7115C72.636 58.5066 71.9846 58.5268 71.4013 58.7685C71.3444 58.7915 71.2885 58.8164 71.2335 58.8444C71.2335 58.8444 68.8574 59.2969 68.5747 59.2399C68.5537 59.2359 68.5318 59.2329 68.5108 59.2309C68.4681 59.2248 68.4251 59.2211 68.3819 59.2199C67.829 59.1943 67.2806 59.3303 66.8038 59.6115C66.0237 60.0639 64.8671 60.866 64.8431 61.6471L64.8212 61.672L64.8431 63.5388H75.2727C75.2937 61.7499 75.3057 60.4055 75.3057 60.3146C75.3057 60.032 74.7374 59.4547 74.7374 59.4547Z" fill="#326A32"/>
<path d="M70.8099 52.8969C70.6457 52.6763 70.4328 52.4965 70.1878 52.3715C69.9428 52.2465 69.6723 52.1796 69.3973 52.176H69.3303C68.0381 52.176 66.9905 53.3453 66.9905 54.7878V54.7878H67.4235L67.4935 54.2555L67.596 54.7878H70.164L70.3792 54.3375L70.3254 54.7878H70.8306C71.0663 55.9585 70.7276 57.1293 69.8144 58.3001H70.675L71.1053 57.3995L70.9977 58.3001H72.6382L72.961 56.2287C72.961 54.6774 72.0596 53.362 70.8099 52.8969Z" fill="black"/>
<path d="M71.2816 53.1151C71.9878 53.1151 72.5602 52.5426 72.5602 51.8365C72.5602 51.1303 71.9878 50.5579 71.2816 50.5579C70.5755 50.5579 70.003 51.1303 70.003 51.8365C70.003 52.5426 70.5755 53.1151 71.2816 53.1151Z" fill="black"/>
<path d="M113.498 83.696C113.499 84.0123 113.466 84.3279 113.401 84.6374C113.389 84.6957 113.375 84.7527 113.362 84.8085C113.017 86.1904 112.046 87.201 110.886 87.2653C110.847 87.2653 110.808 87.2653 110.764 87.2653C109.538 87.2653 108.501 86.2074 108.158 84.7503C108.149 84.7114 108.14 84.6726 108.132 84.6289C108.066 84.3194 108.034 84.0038 108.035 83.6875C108.035 81.7135 109.256 80.1145 110.764 80.1145C112.272 80.1145 113.498 81.722 113.498 83.696Z" fill="black"/>
<path opacity="0.1" d="M113.498 83.696C113.499 84.0124 113.466 84.3279 113.401 84.6375C113.389 84.6957 113.375 84.7527 113.362 84.8085C113.321 84.8085 113.281 84.8085 113.241 84.8085C112.94 84.7924 112.642 84.7518 112.348 84.6872C112.087 84.7677 111.821 84.8285 111.552 84.8692C111.345 84.9003 111.137 84.9197 110.928 84.9274C110.858 84.9274 110.787 84.9274 110.717 84.9274C110.467 84.9275 110.218 84.9108 109.97 84.8777C109.569 84.8242 109.176 84.7265 108.797 84.5865C108.589 84.6556 108.378 84.7123 108.163 84.7564C108.154 84.7175 108.145 84.6787 108.137 84.635C108.071 84.3255 108.039 84.0099 108.04 83.6936C108.04 81.7196 109.261 80.1206 110.769 80.1206C112.277 80.1206 113.498 81.7221 113.498 83.696Z" fill="black"/>
<path d="M119.321 77.0401C119.322 76.1715 119.119 75.3148 118.727 74.5397L115.517 75.5382L118.335 73.8821C117.862 73.1991 117.243 72.6309 116.521 72.2195C115.799 71.8081 114.995 71.5641 114.166 71.5054C114.034 71.3053 113.89 71.114 113.733 70.9327L109.123 72.368L112.905 70.1441C112.181 69.5889 111.332 69.2206 110.432 69.0717C109.533 68.9229 108.61 68.9981 107.747 69.2906C106.883 69.5832 106.105 70.0841 105.481 70.7491C104.857 71.4141 104.406 72.2227 104.169 73.1032L108.118 77.6492L103.834 74.5506C102.749 75.3203 101.977 76.4542 101.658 77.7458C101.338 79.0373 101.494 80.4006 102.096 81.5871C102.697 82.7737 103.706 83.7045 104.936 84.2101C106.167 84.7156 107.538 84.7622 108.8 84.3414C109.942 84.761 111.189 84.7955 112.353 84.4396C113.163 84.6171 114.004 84.6107 114.812 84.4207C115.62 84.2307 116.375 83.862 117.022 83.3418C117.668 82.8215 118.19 82.1629 118.549 81.4144C118.908 80.6659 119.094 79.8465 119.094 79.0165C119.094 78.8952 119.094 78.7738 119.082 78.6525C119.241 78.1298 119.322 77.5865 119.321 77.0401Z" fill="#326A32"/>
<path opacity="0.1" d="M119.226 78.0692C117.53 77.7478 115.792 77.7257 114.089 78.0036C112.161 78.3227 110.191 79.024 108.305 78.512C107.199 78.2111 106.243 77.5147 105.162 77.1277C104.119 76.7638 102.995 76.6966 101.916 76.9336C101.505 77.9171 101.386 78.9983 101.573 80.0478C101.76 81.0973 102.245 82.0708 102.97 82.8521C103.695 83.6333 104.63 84.1892 105.663 84.4533C106.696 84.7175 107.783 84.6787 108.794 84.3416C109.936 84.7612 111.183 84.7957 112.346 84.4398C113.158 84.6184 113.999 84.6127 114.807 84.4232C115.616 84.2337 116.372 83.8652 117.02 83.3448C117.667 82.8244 118.19 82.1655 118.549 81.4164C118.908 80.6674 119.094 79.8474 119.094 79.0167C119.094 78.8954 119.094 78.774 119.082 78.6527C119.141 78.461 119.189 78.2662 119.226 78.0692Z" fill="black"/>
<path opacity="0.1" d="M98.1031 47.6364C97.9211 47.5309 97.6761 47.6364 97.5511 47.8014C97.4404 47.9813 97.3746 48.1852 97.3594 48.3959C97.2903 48.8581 97.2381 49.3871 97.5511 49.7305C97.2847 48.9605 96.8073 48.2808 96.1735 47.7688C95.5397 47.2568 94.7748 46.933 93.966 46.8345" stroke="#326A32" stroke-width="3" stroke-miterlimit="10"/>
<path d="M84.544 88.6837C84.6653 88.913 84.8934 89.0537 85.113 89.1787C86.6387 90.0534 88.2462 90.7771 89.9126 91.3394C89.9541 91.3635 90.0005 91.3779 90.0483 91.3816C90.0961 91.3853 90.1442 91.3782 90.1889 91.3608C90.2336 91.3435 90.2738 91.3163 90.3066 91.2813C90.3395 91.2463 90.364 91.2044 90.3784 91.1587C90.5701 90.8359 90.78 90.3094 90.7303 89.8836C90.888 89.788 91.0024 89.6348 91.0494 89.4565C91.115 89.2398 91.215 89.035 91.3454 88.8499C91.5723 88.5077 91.8464 88.1644 91.8828 87.7483C91.8797 87.5999 91.894 87.4517 91.9253 87.3067C91.9896 87.115 92.1607 86.9888 92.2893 86.8359C92.4895 86.5933 92.5853 86.2803 92.6763 85.9757C93.0548 84.7103 93.4334 83.4449 93.7488 82.1601C93.8507 81.744 93.9453 81.3266 94.0849 80.9226C94.2062 80.5684 94.3615 80.2287 94.5156 79.889C95.0667 78.6577 95.7078 77.4687 96.4337 76.3318C96.5472 76.7137 96.6845 77.0881 96.845 77.4528C96.9275 77.6408 97.016 77.8265 97.0997 78.0145C97.4164 78.723 97.3594 79.633 97.7488 80.299C97.9106 80.5724 98.0699 80.8454 98.2268 81.118C98.3159 81.2516 98.385 81.3975 98.4319 81.5511C98.4573 81.6578 98.4598 81.7695 98.478 81.8774C98.5605 82.3627 98.9548 82.7049 99.1732 83.138C99.3733 83.5335 99.4158 83.9872 99.5371 84.4228C99.8247 85.4298 100.531 86.3045 100.602 87.354C100.611 87.6372 100.604 87.9207 100.582 88.2032C100.564 88.6979 100.597 89.1931 100.68 89.6809C100.687 89.7302 100.7 89.7783 100.719 89.8241C100.097 90.7491 99.1399 91.3957 98.0497 91.627C97.8435 91.6682 97.6069 91.7119 97.4989 91.9012C97.3691 92.1268 97.5159 92.4374 97.7415 92.5587C97.9672 92.6801 98.2268 92.6679 98.4695 92.6461C100.21 92.5004 101.932 92.1826 103.61 91.6973C103.695 91.6798 103.772 91.6376 103.833 91.576C103.893 91.4873 103.919 91.3802 103.907 91.2739C103.906 90.8819 103.815 90.4954 103.64 90.1444L103.762 90.1019C103.83 89.6166 103.58 89.1471 103.385 88.697C103.048 87.912 102.864 87.064 102.597 86.2475C102.082 84.6703 101.251 83.1986 101.051 81.5487C100.997 81.0949 100.861 80.6339 100.832 80.1777C100.773 79.2484 100.71 78.3142 100.508 77.4091C100.338 76.6642 100.07 75.9532 99.9011 75.1998C99.7325 74.4464 99.6779 73.6542 99.9254 72.9335C99.9957 72.7272 100.09 72.5319 100.155 72.3269C100.397 71.5249 100.166 70.6563 99.9302 69.8507C99.8558 69.5959 99.7822 69.3419 99.7094 69.0888C99.6111 68.7551 99.5141 68.4203 99.4073 68.0891C99.4219 68.0757 99.4352 68.0624 99.4498 68.0466C99.6633 67.8039 99.6609 67.4327 99.8137 67.1427C99.889 66.9935 100.003 66.871 100.083 66.7254C100.234 66.4106 100.273 66.0535 100.193 65.7135C100.129 65.3738 100.001 65.0511 99.9035 64.7199C99.64 63.8109 99.6199 62.8487 99.8453 61.9295C99.9436 61.5376 100.088 61.153 100.109 60.749C100.116 60.4789 100.091 60.2089 100.035 59.9446C99.8465 58.9255 99.4777 57.8918 98.7291 57.2185C98.33 56.8545 97.7901 56.5354 97.7476 55.9822C97.6832 55.9574 97.6123 55.9548 97.5462 55.9749C97.512 55.849 97.4893 55.7203 97.4783 55.5903H97.4843C97.5214 55.5945 97.5589 55.5945 97.596 55.5903C97.6273 55.5883 97.6579 55.5796 97.6857 55.5649C97.7014 55.5555 97.7161 55.5445 97.7294 55.5321C97.7766 55.4837 97.8174 55.4295 97.8507 55.3707C97.9005 55.2882 97.9454 55.1997 97.983 55.139C98.0206 55.0784 98.0812 54.9813 98.1286 54.8964C98.2701 54.6537 98.4015 54.407 98.5229 54.1563V54.1466C98.535 54.1235 98.5459 54.0993 98.5568 54.0762L98.5714 54.0435L98.5932 53.9937C98.5932 53.9816 98.6041 53.9682 98.609 53.9561C98.6139 53.944 98.6223 53.9258 98.6284 53.91L98.6454 53.87C98.6515 53.8554 98.6563 53.8409 98.6624 53.8251C98.6684 53.8116 98.6736 53.7979 98.6782 53.7838C98.6842 53.7693 98.6891 53.7547 98.6939 53.7402C98.6988 53.7256 98.7036 53.7123 98.7097 53.6977C98.7158 53.6831 98.7182 53.6686 98.723 53.654L98.7376 53.6103C98.7376 53.5958 98.7449 53.5824 98.7497 53.5679L98.7619 53.523L98.7728 53.4805L98.7837 53.4344C98.7837 53.4211 98.7837 53.4077 98.7922 53.3932C98.8007 53.3786 98.7922 53.3616 98.8007 53.3459C98.8092 53.3301 98.8007 53.3192 98.8007 53.3058L98.808 53.2585V53.2185C98.808 53.2015 98.808 53.1857 98.808 53.1699C98.808 53.1542 98.808 53.1433 98.808 53.1299C98.808 53.1166 98.808 53.0972 98.808 53.0814V53.0535C98.808 53.0365 98.808 53.0207 98.808 53.0037C98.808 52.9867 98.808 52.9795 98.808 52.9673C98.808 52.9552 98.808 52.9334 98.808 52.9164C98.808 52.8994 98.808 52.8933 98.808 52.8824C98.8022 52.8349 98.7929 52.7878 98.7801 52.7417C98.6983 52.4591 98.5324 52.2081 98.3045 52.0222C98.084 51.8422 97.8389 51.6947 97.5765 51.5843C97.5127 51.5597 97.4542 51.523 97.4043 51.4763C97.3459 51.3915 97.2975 51.3003 97.2599 51.2045C97.1531 51.0177 96.9396 50.934 96.7394 50.8842C96.5392 50.8345 96.3245 50.8029 96.1571 50.6755C96.1421 50.6627 96.1248 50.6528 96.1061 50.6464C96.0804 50.6444 96.0547 50.6498 96.0321 50.6622L95.565 50.8697C95.5603 50.8407 95.5499 50.8129 95.5344 50.788C95.5189 50.763 95.4986 50.7414 95.4746 50.7244C95.4507 50.7073 95.4237 50.6952 95.395 50.6887C95.3664 50.6822 95.3367 50.6814 95.3078 50.6865C95.1926 50.7144 95.0878 50.7745 95.0057 50.86C94.9915 50.8456 94.9814 50.8276 94.9765 50.808C94.9715 50.7883 94.972 50.7677 94.9778 50.7483L94.6138 50.991C94.5689 51.0201 94.4864 51.0274 94.4925 50.9716C94.2901 51.1927 94.1145 51.4371 93.9696 51.6995C93.9243 51.7797 93.8861 51.8637 93.8556 51.9506C93.8556 51.9688 93.8446 51.987 93.8398 52.0052C93.8392 52.0089 93.8392 52.0125 93.8398 52.0162C93.8398 52.0319 93.8325 52.0489 93.8301 52.0659C93.8295 52.0707 93.8295 52.0756 93.8301 52.0805C93.8301 52.1011 93.8301 52.1229 93.8301 52.1435C93.8288 52.167 93.8288 52.1905 93.8301 52.2139C93.8339 52.2813 93.8552 52.3466 93.892 52.4032C93.9289 52.4598 93.9799 52.5058 94.04 52.5366C94.0865 52.5539 94.136 52.5617 94.1856 52.5597C94.2899 52.5473 94.3929 52.5262 94.4937 52.4966C94.5264 52.4886 94.5597 52.4829 94.5932 52.4796C94.609 52.4784 94.6248 52.4784 94.6405 52.4796C94.7039 52.4781 94.7659 52.4992 94.8152 52.5391L94.8225 52.5463C94.5575 52.737 94.3421 52.9884 94.1943 53.2795C94.0466 53.5706 93.9707 53.8929 93.9732 54.2194C93.9727 54.5406 94.0458 54.8577 94.1868 55.1463C94.1383 55.1731 94.0983 55.2131 94.0715 55.2616C94.0447 55.3101 94.0321 55.3652 94.0351 55.4205C94.0034 55.3275 93.9866 55.23 93.9854 55.1317C93.7864 55.0917 93.642 55.3246 93.5705 55.5248C93.4233 55.9773 93.3093 56.44 93.2295 56.9091C93.1677 57.2209 93.1082 57.5327 93.0451 57.8445C92.982 58.1563 92.9238 58.4912 92.8777 58.8151C92.7705 59.6561 92.8087 60.5093 92.9905 61.3374C92.9784 61.3641 92.9675 61.392 92.9566 61.4187C92.9202 61.5158 92.817 61.5983 92.8049 61.7014C92.7394 62.3189 93.13 62.8758 93.4989 63.3599C93.5291 63.4094 93.5707 63.451 93.6202 63.4812C93.6742 63.5036 93.7333 63.5112 93.7913 63.503C93.9383 63.4959 94.0849 63.4813 94.2304 63.4594C94.2389 63.5419 94.2486 63.6232 94.2584 63.702C94.3627 64.5731 94.541 65.4442 94.5398 66.3214C94.5386 67.1985 94.3724 68.0878 94.7085 68.8692C94.7643 69.0026 94.8722 69.1118 94.8832 69.2501H94.9038C94.6983 69.6688 94.5303 70.1049 94.4015 70.5531C94.2681 71.0797 94.2402 71.6329 94.0909 72.1546C93.9635 72.5974 93.7512 73.0039 93.5802 73.4358C93.3016 74.1374 93.1377 74.8793 93.0949 75.6329C93.0903 75.979 93.0203 76.3211 92.8886 76.6411C92.6924 77.025 92.5206 77.4209 92.3742 77.8265C92.1316 78.5471 91.7227 79.2302 91.6463 79.9933C91.6038 80.4252 91.6657 80.8862 91.4849 81.2769C91.4145 81.4298 91.3102 81.562 91.2277 81.7064C91.1072 81.9377 91.0132 82.1819 90.9474 82.4343L89.7463 86.4174C89.7009 86.6363 89.5998 86.8398 89.4527 87.0082C89.3411 87.115 89.1943 87.1732 89.0888 87.2836C88.9189 87.4559 88.8765 87.7082 88.8752 87.9654C88.7465 87.9887 88.6216 88.0295 88.504 88.0868C87.9961 88.3038 87.4494 88.4157 86.8971 88.4157C86.3447 88.4157 85.7981 88.3038 85.2901 88.0868C85.096 88.003 84.8752 87.9036 84.6835 87.9994C84.4591 88.1159 84.4227 88.4544 84.544 88.6837ZM94.1128 58.513C94.1847 58.1833 94.3199 57.8706 94.5107 57.5922C94.7825 57.1445 95.0688 56.7017 95.3284 56.2443L95.4024 56.1727C95.4231 56.2309 95.4425 56.294 95.4607 56.3486C95.5057 56.5041 95.5417 56.6621 95.5686 56.8218C95.607 57.0216 95.6184 57.2256 95.6026 57.4284L95.5856 57.4417C95.4875 57.5048 95.4083 57.5933 95.3563 57.6977C95.3223 57.8018 95.3223 57.914 95.3563 58.018L95.3454 58.0302L95.3575 58.0217C95.4 58.1891 95.4789 58.3614 95.4534 58.5312C95.4255 58.7363 95.2605 58.8855 95.1574 59.0614C94.9147 59.4848 94.9924 60.1278 94.5932 60.3875L94.5859 60.4044C94.5003 60.3842 94.4204 60.3446 94.3524 60.2887C94.2845 60.2327 94.2303 60.1619 94.194 60.0817C94.2256 59.5637 94.0315 59.0323 94.1128 58.513Z" fill="url(#paint0_linear)"/>
<path d="M104.066 91.2969C104.079 91.4021 104.052 91.5082 103.99 91.5942C103.925 91.6558 103.844 91.6979 103.757 91.7155C102.005 92.195 100.212 92.5086 98.4015 92.6521C98.1419 92.6715 97.8677 92.6861 97.6384 92.566C97.4091 92.4458 97.2563 92.1389 97.3958 91.9169C97.5086 91.73 97.7597 91.6864 97.9696 91.6463C99.1059 91.4247 100.113 90.7727 100.779 89.8265C100.859 89.6909 100.963 89.5709 101.085 89.4722C101.318 89.3133 101.628 89.3509 101.903 89.4055C102.388 89.505 103.032 89.6227 103.47 89.8605C103.908 90.0982 104.059 90.8322 104.066 91.2969Z" fill="black"/>
<path opacity="0.1" d="M104.066 91.2969C104.079 91.4021 104.052 91.5082 103.99 91.5942C103.925 91.6558 103.844 91.6979 103.757 91.7155C102.005 92.195 100.212 92.5086 98.4015 92.6521C98.1419 92.6715 97.8677 92.6861 97.6384 92.566C97.4091 92.4458 97.2563 92.1389 97.3958 91.9169C97.5086 91.73 97.7597 91.6864 97.9696 91.6463C99.1059 91.4247 100.113 90.7727 100.779 89.8265C100.859 89.6909 100.963 89.5709 101.085 89.4722C101.318 89.3133 101.628 89.3509 101.903 89.4055C102.388 89.505 103.032 89.6227 103.47 89.8605C103.908 90.0982 104.059 90.8322 104.066 91.2969Z" fill="black"/>
<path d="M89.9672 91.1791C89.9199 91.2743 89.8391 91.3486 89.7404 91.3878C89.6531 91.4025 89.5634 91.392 89.4819 91.3575C87.7518 90.8052 86.0775 90.0916 84.481 89.2258C84.2529 89.1045 84.0151 88.9638 83.8877 88.7406C83.7603 88.5173 83.7992 88.174 84.0333 88.0611C84.2299 87.9665 84.4604 88.0611 84.6618 88.1473C85.7359 88.5804 86.9361 88.5804 88.0103 88.1473C88.1511 88.0766 88.3037 88.0322 88.4604 88.0162C88.7407 88.0102 88.9821 88.2079 89.1883 88.4057C89.5426 88.7539 90.017 89.204 90.2548 89.6408C90.4926 90.0775 90.2135 90.7848 89.9672 91.1791Z" fill="black"/>
<path opacity="0.1" d="M89.9672 91.1791C89.9199 91.2743 89.8391 91.3486 89.7404 91.3878C89.6531 91.4025 89.5634 91.392 89.4819 91.3575C87.7518 90.8052 86.0775 90.0916 84.481 89.2258C84.2529 89.1045 84.0151 88.9638 83.8877 88.7406C83.7603 88.5173 83.7992 88.174 84.0333 88.0611C84.2299 87.9665 84.4604 88.0611 84.6618 88.1473C85.7359 88.5804 86.9361 88.5804 88.0103 88.1473C88.1511 88.0766 88.3037 88.0322 88.4604 88.0162C88.7407 88.0102 88.9821 88.2079 89.1883 88.4057C89.5426 88.7539 90.017 89.204 90.2548 89.6408C90.4926 90.0775 90.2135 90.7848 89.9672 91.1791Z" fill="black"/>
<path d="M99.2145 67.9457C99.3952 68.431 99.5469 68.9163 99.6998 69.4016L99.9303 70.1538C100.173 70.9485 100.416 71.805 100.164 72.5973C100.098 72.8023 99.9994 72.9952 99.9218 73.2039C99.6646 73.9148 99.724 74.7046 99.8963 75.4411C100.069 76.1775 100.348 76.8848 100.525 77.6249C100.739 78.5178 100.801 79.4447 100.862 80.3559C100.892 80.806 101.033 81.2609 101.091 81.7086C101.3 83.3356 102.165 84.7939 102.701 86.3444C102.979 87.1488 103.171 87.9847 103.524 88.7599C103.725 89.204 103.986 89.6638 103.916 90.1454C102.929 90.4949 101.836 90.4888 100.907 90.0096C100.848 89.9885 100.798 89.9503 100.761 89.8998C100.725 89.8493 100.705 89.7891 100.703 89.7269C100.618 89.2466 100.585 88.7584 100.606 88.271C100.629 87.9934 100.636 87.7147 100.627 87.4363C100.553 86.4014 99.8162 85.5388 99.5178 84.544C99.3964 84.1205 99.3406 83.668 99.132 83.2773C98.9039 82.8503 98.4938 82.5094 98.404 82.0338C98.3846 81.927 98.3822 81.8178 98.3567 81.7123C98.3069 81.5596 98.2345 81.4153 98.142 81.284L97.647 80.4723C97.2405 79.8148 97.3 78.917 96.9712 78.2182C96.8838 78.0325 96.7904 77.8542 96.7043 77.6649C96.538 77.3056 96.395 76.9361 96.276 76.5585C95.5205 77.6742 94.8513 78.8459 94.2742 80.0635C94.1072 80.3957 93.9574 80.7363 93.8253 81.0838C93.6797 81.4818 93.5826 81.8943 93.4747 82.3043C93.1471 83.5722 92.7467 84.8206 92.3573 86.0653C92.2626 86.3662 92.162 86.672 91.9545 86.9146C91.821 87.065 91.6439 87.1888 91.576 87.3793C91.5437 87.5217 91.529 87.6676 91.5323 87.8136C91.4935 88.2249 91.2083 88.5634 90.9718 88.9055C90.836 89.0891 90.7318 89.2942 90.6636 89.5121C90.6357 89.6098 90.5872 89.7003 90.5213 89.7777C90.4554 89.855 90.3738 89.9173 90.2818 89.9604C90.1898 90.0035 90.0897 90.0264 89.9881 90.0276C89.8866 90.0287 89.7859 90.0081 89.693 89.9671H89.6833C89.5871 89.9192 89.4946 89.864 89.4067 89.8021C89.177 89.6579 88.9591 89.4956 88.7552 89.3168C88.5747 89.1426 88.4122 88.9507 88.2699 88.7442C88.2455 88.709 88.2295 88.6686 88.2233 88.6262C88.2172 88.5837 88.2209 88.5405 88.2344 88.4998C88.2478 88.4591 88.2704 88.422 88.3006 88.3916C88.3308 88.3612 88.3676 88.3382 88.4082 88.3244C88.3827 87.9871 88.3755 87.6025 88.6181 87.3696C88.7309 87.2604 88.8838 87.2021 89.0003 87.0978C89.1519 86.9341 89.2574 86.7332 89.306 86.5155C89.7201 85.2116 90.1334 83.9078 90.5459 82.604C90.6149 82.3532 90.713 82.1113 90.8383 81.8833C90.9245 81.7402 91.0324 81.6104 91.1064 81.4599C91.2945 81.0741 91.2278 80.6204 91.2739 80.1933C91.3527 79.4399 91.7749 78.7678 92.0309 78.0568C92.1841 77.6553 92.3632 77.2642 92.5672 76.886C92.7043 76.5724 92.7773 76.2346 92.7819 75.8924C92.8269 75.1464 92.9975 74.4135 93.2866 73.7244C93.4637 73.3021 93.6858 72.8981 93.818 72.4602C93.9745 71.9458 94.0024 71.3998 94.1432 70.883C94.2783 70.4375 94.4541 70.0053 94.6685 69.5921C94.8444 69.2281 95.0252 68.8556 95.3151 68.573C95.7907 68.1095 96.4908 67.9579 97.1544 67.9372C97.818 67.9166 98.5533 68.0149 99.2145 67.9457Z" fill="black"/>
<path d="M95.1416 58.4972C95.9957 57.9925 96.8406 57.4716 97.6761 56.9345C97.4761 56.6649 97.3654 56.3396 97.3594 56.004C97.3594 55.9906 97.3594 55.9773 97.3594 55.9639C97.3473 55.6376 97.471 55.3573 97.0597 55.3998C96.6647 55.4507 96.2741 55.5319 95.8914 55.6424C95.7822 55.6703 94.8359 56.0185 94.7995 55.9833C95.0104 56.2336 95.1663 56.5254 95.2569 56.8399C95.3035 56.9933 95.3411 57.1492 95.3697 57.307C95.4522 57.7243 95.4559 58.2145 95.1416 58.4972Z" fill="#A0616A"/>
<path d="M93.9951 64.0937C94.1043 64.9527 94.2899 65.8129 94.2887 66.6767C94.2875 67.5405 94.114 68.4201 94.4646 69.1941C94.5229 69.3252 94.6345 69.4271 94.6466 69.5702C95.1319 69.654 95.6051 69.4271 96.0673 69.2633C96.4911 69.1148 96.9309 69.0162 97.3776 68.9697C97.7416 68.9333 98.1152 68.9309 98.4768 68.8617C98.8371 68.8053 99.1699 68.6353 99.4267 68.3764C99.6488 68.1338 99.6463 67.7698 99.8016 67.4847C99.8805 67.3379 99.9994 67.2178 100.083 67.0734C100.24 66.765 100.28 66.4107 100.197 66.0749C100.113 65.7433 100.012 65.4161 99.895 65.0946C99.6199 64.2008 99.5988 63.2481 99.8344 62.343C99.9363 61.956 100.084 61.5763 100.109 61.1771C100.116 60.9105 100.09 60.644 100.032 60.3836C99.8356 59.3791 99.451 58.3588 98.6721 57.6951C98.256 57.3396 97.693 57.0206 97.6494 56.4819C97.4698 56.4115 97.2769 56.5316 97.1228 56.6457L95.3927 57.9208C95.2901 57.9814 95.2061 58.0691 95.1501 58.1744C95.0421 58.4328 95.2908 58.7167 95.2508 58.9957C95.2217 59.1983 95.0494 59.3451 94.9426 59.5198C94.6879 59.936 94.7703 60.5705 94.3542 60.8265C94.3166 60.9041 94.2814 60.9842 94.2499 61.0691C94.1012 61.4931 94.0015 61.9328 93.9526 62.3794C93.8946 62.9504 93.9089 63.5263 93.9951 64.0937Z" fill="black"/>
<path opacity="0.1" d="M94.8044 55.9858C95.0153 56.2361 95.1711 56.5279 95.2617 56.8424C95.3995 56.8732 95.5403 56.8886 95.6815 56.8885C96.3876 56.8885 96.8608 56.0793 97.2114 55.5236C97.2005 55.1972 97.471 55.3598 97.0597 55.4023C96.6647 55.4532 96.2741 55.5344 95.8914 55.6449C95.7822 55.6728 94.8359 56.021 94.8044 55.9858Z" fill="black"/>
<path d="M95.6815 56.7221C96.7777 56.7221 97.6664 55.8335 97.6664 54.7373C97.6664 53.6411 96.7777 52.7524 95.6815 52.7524C94.5853 52.7524 93.6967 53.6411 93.6967 54.7373C93.6967 55.8335 94.5853 56.7221 95.6815 56.7221Z" fill="#A0616A"/>
<path d="M94.1632 56.1428L94.622 56.6455C94.7725 56.8103 95.028 56.8219 95.1928 56.6715L96.734 55.2646C96.8988 55.1142 96.9105 54.8587 96.76 54.6939L96.3012 54.1912C96.1508 54.0264 95.8952 54.0147 95.7304 54.1652L94.1892 55.572C94.0244 55.7224 94.0128 55.978 94.1632 56.1428Z" fill="black"/>
<path opacity="0.1" d="M94.1632 56.1428L94.622 56.6455C94.7725 56.8103 95.028 56.8219 95.1928 56.6715L96.734 55.2646C96.8988 55.1142 96.9105 54.8587 96.76 54.6939L96.3012 54.1912C96.1508 54.0264 95.8952 54.0147 95.7304 54.1652L94.1892 55.572C94.0244 55.7224 94.0128 55.978 94.1632 56.1428Z" fill="black"/>
<path d="M95.8052 55.2748C95.8964 55.2748 95.9702 55.2009 95.9702 55.1098C95.9702 55.0187 95.8964 54.9448 95.8052 54.9448C95.7141 54.9448 95.6402 55.0187 95.6402 55.1098C95.6402 55.2009 95.7141 55.2748 95.8052 55.2748Z" fill="white"/>
<path opacity="0.1" d="M93.9951 64.0939C95.5262 63.8683 96.9165 62.9486 97.9805 61.8082C98.1794 61.6206 98.3333 61.3904 98.4307 61.1348C98.4841 60.9213 98.5026 60.7004 98.4852 60.4809L98.4598 59.605C98.4489 59.2216 98.4331 58.8236 98.2475 58.4888C98.0618 58.1539 97.6481 57.9125 97.2914 58.052C96.3536 58.416 95.7433 59.2483 95.2071 60.1C95.0537 60.3654 94.8865 60.6225 94.706 60.8704C94.615 60.9856 94.4913 61.1033 94.3421 61.0875C94.3106 61.0847 94.2798 61.0765 94.2511 61.0633C94.1024 61.4873 94.0027 61.9269 93.9538 62.3736C93.8949 62.9464 93.9087 63.5245 93.9951 64.0939Z" fill="black"/>
<path d="M93.8581 58.9788C93.9341 58.6508 94.0752 58.3414 94.273 58.0689C94.8663 57.1407 95.5335 56.2345 95.8502 55.1777C95.388 55.2614 95.3152 56.0573 94.8468 56.0925L94.8832 55.5187C94.8832 55.4216 94.8832 55.3039 94.8044 55.253C94.7255 55.202 94.5848 55.2687 94.5326 55.3646C94.4805 55.4604 94.4695 55.5769 94.421 55.6752C94.3725 55.7734 94.2584 55.8608 94.1577 55.8171L94.1165 55.6266C94.0732 55.6176 94.0284 55.6185 93.9855 55.6293C93.9426 55.6402 93.9028 55.6606 93.869 55.6891C93.8352 55.7177 93.8083 55.7535 93.7905 55.794C93.7726 55.8345 93.7642 55.8785 93.7659 55.9227C93.7328 55.8312 93.7152 55.7348 93.7137 55.6375C93.5062 55.5987 93.3558 55.828 93.2818 56.0258C93.1282 56.471 93.0089 56.9273 92.9251 57.3907L92.7346 58.3139C92.6679 58.633 92.6024 58.9521 92.5587 59.2736C92.4444 60.127 92.4897 60.9942 92.6921 61.8311C92.9464 61.6901 93.193 61.5358 93.431 61.3689C93.6142 61.2136 93.8192 61.0376 93.8884 60.8011C94.0595 60.2042 93.7574 59.5793 93.8581 58.9788Z" fill="#A0616A"/>
<path d="M97.2914 57.8045C97.6481 57.6649 98.0618 57.9064 98.2475 58.2412C98.4331 58.5761 98.4489 58.9692 98.4598 59.3574L98.484 60.2358C98.5023 60.4552 98.4843 60.6762 98.4307 60.8897C98.333 61.1448 98.1797 61.3748 97.9818 61.5631C96.8049 62.8236 95.2314 63.8124 93.5086 63.8961C93.4482 63.9042 93.3868 63.8966 93.3302 63.8743C93.2813 63.8434 93.2398 63.8019 93.2089 63.7529C92.8243 63.2749 92.4179 62.7253 92.481 62.1163C92.4919 62.0144 92.6023 61.9319 92.6387 61.8373C92.8698 61.2858 93.2937 60.8373 93.8313 60.5755L93.9356 60.527C93.9758 60.6073 94.0333 60.6777 94.1041 60.7331C94.1748 60.7885 94.2569 60.8275 94.3445 60.8473C94.4901 60.8618 94.6151 60.7453 94.7085 60.6301C94.8889 60.3819 95.0562 60.1243 95.2095 59.8585C95.7434 58.9983 96.3548 58.1696 97.2914 57.8045Z" fill="black"/>
<path d="M97.169 56.0355C97.0003 55.9481 96.9736 55.7237 96.9566 55.5344C96.9377 55.314 96.9041 55.0952 96.8559 54.8793C96.8038 54.6366 96.7176 54.3867 96.5114 54.2581C96.439 54.2133 96.3564 54.1876 96.2713 54.1834C96.1863 54.1792 96.1015 54.1967 96.0251 54.2341C95.9486 54.2716 95.8829 54.3278 95.834 54.3976C95.7852 54.4673 95.7549 54.5483 95.7458 54.633C95.7482 54.6734 95.7362 54.7134 95.7119 54.7458C95.6956 54.7611 95.6755 54.7716 95.6536 54.7762C95.5584 54.798 95.4585 54.7834 95.3734 54.7354C95.2884 54.6874 95.2243 54.6093 95.1938 54.5165C95.1586 54.3952 95.1853 54.2387 95.0992 54.1392C95.013 54.0397 94.9111 54.0422 94.8274 53.9766C94.7767 53.9265 94.738 53.8655 94.7143 53.7983C94.6906 53.731 94.6824 53.6593 94.6903 53.5884C94.6903 53.4076 94.7146 53.1917 94.569 53.0801C94.3494 52.909 94.0194 53.1808 93.761 53.0801C93.6894 53.0453 93.63 52.9897 93.5904 52.9207C93.5508 52.8517 93.5329 52.7724 93.539 52.693C93.5539 52.5342 93.6081 52.3816 93.6967 52.249C93.8486 51.9889 94.0315 51.7481 94.2414 51.532C94.2414 51.5854 94.3251 51.5793 94.3712 51.5502L94.7546 51.3172C94.7482 51.3366 94.7477 51.3574 94.7531 51.377C94.7585 51.3967 94.7696 51.4143 94.785 51.4276C94.8721 51.3432 94.9808 51.2844 95.0992 51.2578C95.1587 51.2467 95.2201 51.2594 95.2703 51.2933C95.3204 51.3271 95.3553 51.3793 95.3673 51.4386L95.8526 51.2287C95.8723 51.2151 95.8962 51.209 95.92 51.2115C95.9437 51.2139 95.9659 51.2247 95.9824 51.242C96.1571 51.3633 96.3804 51.3985 96.589 51.4471C96.7977 51.4956 97.0197 51.5793 97.1313 51.7637C97.1713 51.8583 97.2222 51.9479 97.283 52.0306C97.3367 52.0778 97.3989 52.1145 97.4662 52.1386C97.7397 52.2461 97.9969 52.3911 98.2305 52.5693C98.465 52.7497 98.6382 52.9979 98.7267 53.2802C98.8578 53.7522 98.6685 54.2508 98.4489 54.6864C98.2814 55.0192 98.0934 55.3413 97.886 55.6509C97.8083 55.7722 97.7016 56.0015 97.5766 56.0719C97.4408 56.1097 97.2959 56.0968 97.169 56.0355Z" fill="black"/>
<path opacity="0.1" d="M93.7647 52.585C94.0231 52.6845 94.3531 52.4127 94.5727 52.585C94.7146 52.6966 94.694 52.9126 94.694 53.0934C94.686 53.1642 94.6942 53.236 94.718 53.3032C94.7417 53.3705 94.7804 53.4314 94.8311 53.4816C94.9148 53.5471 95.0337 53.5629 95.1029 53.6442C95.172 53.7254 95.1623 53.8953 95.1975 54.0215C95.228 54.1143 95.292 54.1923 95.3771 54.2404C95.4621 54.2884 95.5621 54.3029 95.6573 54.2811C95.6791 54.2765 95.6993 54.266 95.7155 54.2508C95.7399 54.2184 95.7519 54.1784 95.7495 54.1379C95.7585 54.0533 95.7889 53.9723 95.8377 53.9025C95.8865 53.8327 95.9523 53.7765 96.0287 53.7391C96.1052 53.7016 96.1899 53.6842 96.275 53.6884C96.36 53.6926 96.4426 53.7183 96.515 53.7631C96.7213 53.8917 96.8074 54.1464 96.8596 54.3842C96.9077 54.6001 96.9414 54.819 96.9603 55.0394C96.9773 55.2286 97.004 55.4531 97.1726 55.5404C97.3017 55.6035 97.4495 55.6165 97.5875 55.5768C97.7089 55.5065 97.8193 55.2735 97.8969 55.1559C98.1046 54.8443 98.2926 54.5202 98.4599 54.1853C98.5992 53.9263 98.6997 53.6484 98.7583 53.3603C98.8457 53.8067 98.6661 54.2702 98.4599 54.6815C98.2923 55.0143 98.1043 55.3364 97.8969 55.646C97.8193 55.7673 97.7125 55.9966 97.5875 56.067C97.4495 56.1067 97.3017 56.0937 97.1726 56.0306C97.004 55.9432 96.9773 55.7188 96.9603 55.5295C96.9414 55.3091 96.9077 55.0903 96.8596 54.8744C96.8074 54.6317 96.7213 54.3818 96.515 54.2532C96.4426 54.2084 96.36 54.1827 96.275 54.1785C96.1899 54.1743 96.1052 54.1917 96.0287 54.2292C95.9523 54.2667 95.8865 54.3229 95.8377 54.3927C95.7889 54.4624 95.7585 54.5434 95.7495 54.6281C95.7519 54.6685 95.7399 54.7085 95.7155 54.7409C95.6993 54.7562 95.6791 54.7667 95.6573 54.7713C95.5621 54.7931 95.4621 54.7785 95.3771 54.7305C95.292 54.6825 95.228 54.6044 95.1975 54.5116C95.1623 54.3903 95.189 54.2338 95.1029 54.1343C95.0167 54.0348 94.9148 54.0373 94.8311 53.9717C94.7804 53.9216 94.7417 53.8606 94.718 53.7934C94.6942 53.7261 94.686 53.6544 94.694 53.5835C94.694 53.4027 94.7183 53.1868 94.5727 53.0752C94.3531 52.9041 94.0231 53.1759 93.7647 53.0752C93.6931 53.0403 93.6337 52.9848 93.5941 52.9158C93.5545 52.8468 93.5366 52.7675 93.5426 52.6881C93.5469 52.6006 93.5675 52.5146 93.6033 52.4346C93.6381 52.5018 93.6951 52.5549 93.7647 52.585Z" fill="black"/>
<defs>
<linearGradient id="paint0_linear" x1="94.1928" y1="92.6606" x2="94.1928" y2="50.644" gradientUnits="userSpaceOnUse">
<stop stop-color="#808080" stop-opacity="0.25"/>
<stop offset="0.54" stop-color="#808080" stop-opacity="0.12"/>
<stop offset="1" stop-color="#808080" stop-opacity="0.1"/>
</linearGradient>
</defs>
</svg>
