<svg width="285" height="285" viewBox="0 0 285 285" fill="none" xmlns="http://www.w3.org/2000/svg">
<path d="M70.9572 196.216C69.9612 196.216 68.9952 196.084 68.0592 195.82C67.1352 195.544 66.3912 195.19 65.8272 194.758L66.8172 192.562C67.3572 192.958 67.9992 193.276 68.7432 193.516C69.4872 193.756 70.2312 193.876 70.9752 193.876C71.8032 193.876 72.4152 193.756 72.8112 193.516C73.2072 193.264 73.4052 192.934 73.4052 192.526C73.4052 192.226 73.2852 191.98 73.0452 191.788C72.8172 191.584 72.5172 191.422 72.1452 191.302C71.7852 191.182 71.2932 191.05 70.6692 190.906C69.7092 190.678 68.9232 190.45 68.3112 190.222C67.6992 189.994 67.1712 189.628 66.7272 189.124C66.2952 188.62 66.0792 187.948 66.0792 187.108C66.0792 186.376 66.2772 185.716 66.6732 185.128C67.0692 184.528 67.6632 184.054 68.4552 183.706C69.2592 183.358 70.2372 183.184 71.3892 183.184C72.1932 183.184 72.9792 183.28 73.7472 183.472C74.5152 183.664 75.1872 183.94 75.7632 184.3L74.8632 186.514C73.6992 185.854 72.5352 185.524 71.3712 185.524C70.5552 185.524 69.9492 185.656 69.5532 185.92C69.1692 186.184 68.9772 186.532 68.9772 186.964C68.9772 187.396 69.1992 187.72 69.6432 187.936C70.0992 188.14 70.7892 188.344 71.7132 188.548C72.6732 188.776 73.4592 189.004 74.0712 189.232C74.6832 189.46 75.2052 189.82 75.6372 190.312C76.0812 190.804 76.3032 191.47 76.3032 192.31C76.3032 193.03 76.0992 193.69 75.6912 194.29C75.2952 194.878 74.6952 195.346 73.8912 195.694C73.0872 196.042 72.1092 196.216 70.9572 196.216ZM82.7058 196.144C81.6858 196.144 80.7678 195.934 79.9518 195.514C79.1478 195.082 78.5178 194.488 78.0618 193.732C77.6058 192.976 77.3778 192.118 77.3778 191.158C77.3778 190.198 77.6058 189.34 78.0618 188.584C78.5178 187.828 79.1478 187.24 79.9518 186.82C80.7678 186.388 81.6858 186.172 82.7058 186.172C83.7258 186.172 84.6378 186.388 85.4418 186.82C86.2458 187.24 86.8758 187.828 87.3318 188.584C87.7878 189.34 88.0158 190.198 88.0158 191.158C88.0158 192.118 87.7878 192.976 87.3318 193.732C86.8758 194.488 86.2458 195.082 85.4418 195.514C84.6378 195.934 83.7258 196.144 82.7058 196.144ZM82.7058 193.84C83.4258 193.84 84.0138 193.6 84.4698 193.12C84.9378 192.628 85.1718 191.974 85.1718 191.158C85.1718 190.342 84.9378 189.694 84.4698 189.214C84.0138 188.722 83.4258 188.476 82.7058 188.476C81.9858 188.476 81.3918 188.722 80.9238 189.214C80.4558 189.694 80.2218 190.342 80.2218 191.158C80.2218 191.974 80.4558 192.628 80.9238 193.12C81.3918 193.6 81.9858 193.84 82.7058 193.84ZM91.5705 185.506C91.8705 185.638 92.1045 185.836 92.2725 186.1C92.4405 186.364 92.5245 186.676 92.5245 187.036C92.5245 187.552 92.3625 187.972 92.0385 188.296C91.7145 188.608 91.3005 188.764 90.7965 188.764C90.2925 188.764 89.8725 188.602 89.5365 188.278C89.2125 187.954 89.0505 187.54 89.0505 187.036C89.0505 186.796 89.0805 186.556 89.1405 186.316C89.2005 186.076 89.3325 185.716 89.5365 185.236L90.5805 182.644H92.3625L91.5705 185.506ZM97.6723 187.594C98.0083 187.126 98.4583 186.772 99.0223 186.532C99.5983 186.292 100.258 186.172 101.002 186.172V188.764C100.69 188.74 100.48 188.728 100.372 188.728C99.5683 188.728 98.9383 188.956 98.4823 189.412C98.0263 189.856 97.7983 190.528 97.7983 191.428V196H94.9903V186.316H97.6723V187.594ZM107.192 196.144C106.172 196.144 105.254 195.934 104.438 195.514C103.634 195.082 103.004 194.488 102.548 193.732C102.092 192.976 101.864 192.118 101.864 191.158C101.864 190.198 102.092 189.34 102.548 188.584C103.004 187.828 103.634 187.24 104.438 186.82C105.254 186.388 106.172 186.172 107.192 186.172C108.212 186.172 109.124 186.388 109.928 186.82C110.732 187.24 111.362 187.828 111.818 188.584C112.274 189.34 112.502 190.198 112.502 191.158C112.502 192.118 112.274 192.976 111.818 193.732C111.362 194.488 110.732 195.082 109.928 195.514C109.124 195.934 108.212 196.144 107.192 196.144ZM107.192 193.84C107.912 193.84 108.5 193.6 108.956 193.12C109.424 192.628 109.658 191.974 109.658 191.158C109.658 190.342 109.424 189.694 108.956 189.214C108.5 188.722 107.912 188.476 107.192 188.476C106.472 188.476 105.878 188.722 105.41 189.214C104.942 189.694 104.708 190.342 104.708 191.158C104.708 191.974 104.942 192.628 105.41 193.12C105.878 193.6 106.472 193.84 107.192 193.84ZM123.727 186.316L119.641 196H116.743L112.675 186.316H115.573L118.255 192.904L121.027 186.316H123.727ZM139.799 186.316V199.492H136.991V194.974C136.295 195.754 135.329 196.144 134.093 196.144C133.181 196.144 132.353 195.94 131.609 195.532C130.877 195.124 130.301 194.542 129.881 193.786C129.461 193.03 129.251 192.154 129.251 191.158C129.251 190.162 129.461 189.286 129.881 188.53C130.301 187.774 130.877 187.192 131.609 186.784C132.353 186.376 133.181 186.172 134.093 186.172C135.413 186.172 136.421 186.592 137.117 187.432V186.316H139.799ZM134.579 193.84C135.287 193.84 135.875 193.6 136.343 193.12C136.811 192.628 137.045 191.974 137.045 191.158C137.045 190.342 136.811 189.694 136.343 189.214C135.875 188.722 135.287 188.476 134.579 188.476C133.859 188.476 133.265 188.722 132.797 189.214C132.329 189.694 132.095 190.342 132.095 191.158C132.095 191.974 132.329 192.628 132.797 193.12C133.265 193.6 133.859 193.84 134.579 193.84ZM147.007 196.144C145.987 196.144 145.069 195.934 144.253 195.514C143.449 195.082 142.819 194.488 142.363 193.732C141.907 192.976 141.679 192.118 141.679 191.158C141.679 190.198 141.907 189.34 142.363 188.584C142.819 187.828 143.449 187.24 144.253 186.82C145.069 186.388 145.987 186.172 147.007 186.172C148.027 186.172 148.939 186.388 149.743 186.82C150.547 187.24 151.177 187.828 151.633 188.584C152.089 189.34 152.317 190.198 152.317 191.158C152.317 192.118 152.089 192.976 151.633 193.732C151.177 194.488 150.547 195.082 149.743 195.514C148.939 195.934 148.027 196.144 147.007 196.144ZM147.007 193.84C147.727 193.84 148.315 193.6 148.771 193.12C149.239 192.628 149.473 191.974 149.473 191.158C149.473 190.342 149.239 189.694 148.771 189.214C148.315 188.722 147.727 188.476 147.007 188.476C146.287 188.476 145.693 188.722 145.225 189.214C144.757 189.694 144.523 190.342 144.523 191.158C144.523 191.974 144.757 192.628 145.225 193.12C145.693 193.6 146.287 193.84 147.007 193.84ZM154.193 182.644H157.001V196H154.193V182.644ZM169.472 182.644V196H166.79V194.884C166.094 195.724 165.086 196.144 163.766 196.144C162.854 196.144 162.026 195.94 161.282 195.532C160.55 195.124 159.974 194.542 159.554 193.786C159.134 193.03 158.924 192.154 158.924 191.158C158.924 190.162 159.134 189.286 159.554 188.53C159.974 187.774 160.55 187.192 161.282 186.784C162.026 186.376 162.854 186.172 163.766 186.172C165.002 186.172 165.968 186.562 166.664 187.342V182.644H169.472ZM164.252 193.84C164.96 193.84 165.548 193.6 166.016 193.12C166.484 192.628 166.718 191.974 166.718 191.158C166.718 190.342 166.484 189.694 166.016 189.214C165.548 188.722 164.96 188.476 164.252 188.476C163.532 188.476 162.938 188.722 162.47 189.214C162.002 189.694 161.768 190.342 161.768 191.158C161.768 191.974 162.002 192.628 162.47 193.12C162.938 193.6 163.532 193.84 164.252 193.84ZM172.07 186.316H174.878V196H172.07V186.316ZM173.474 184.966C172.958 184.966 172.538 184.816 172.214 184.516C171.89 184.216 171.728 183.844 171.728 183.4C171.728 182.956 171.89 182.584 172.214 182.284C172.538 181.984 172.958 181.834 173.474 181.834C173.99 181.834 174.41 181.978 174.734 182.266C175.058 182.554 175.22 182.914 175.22 183.346C175.22 183.814 175.058 184.204 174.734 184.516C174.41 184.816 173.99 184.966 173.474 184.966ZM180.166 187.594C180.502 187.126 180.952 186.772 181.516 186.532C182.092 186.292 182.752 186.172 183.496 186.172V188.764C183.184 188.74 182.974 188.728 182.866 188.728C182.062 188.728 181.432 188.956 180.976 189.412C180.52 189.856 180.292 190.528 180.292 191.428V196H177.484V186.316H180.166V187.594ZM189.019 186.172C190.519 186.172 191.671 186.532 192.475 187.252C193.279 187.96 193.681 189.034 193.681 190.474V196H191.053V194.794C190.525 195.694 189.541 196.144 188.101 196.144C187.357 196.144 186.709 196.018 186.157 195.766C185.617 195.514 185.203 195.166 184.915 194.722C184.627 194.278 184.483 193.774 184.483 193.21C184.483 192.31 184.819 191.602 185.491 191.086C186.175 190.57 187.225 190.312 188.641 190.312H190.873C190.873 189.7 190.687 189.232 190.315 188.908C189.943 188.572 189.385 188.404 188.641 188.404C188.125 188.404 187.615 188.488 187.111 188.656C186.619 188.812 186.199 189.028 185.851 189.304L184.843 187.342C185.371 186.97 186.001 186.682 186.733 186.478C187.477 186.274 188.239 186.172 189.019 186.172ZM188.803 194.254C189.283 194.254 189.709 194.146 190.081 193.93C190.453 193.702 190.717 193.372 190.873 192.94V191.95H188.947C187.795 191.95 187.219 192.328 187.219 193.084C187.219 193.444 187.357 193.732 187.633 193.948C187.921 194.152 188.311 194.254 188.803 194.254ZM199.481 196.144C198.677 196.144 197.891 196.048 197.123 195.856C196.355 195.652 195.743 195.4 195.287 195.1L196.223 193.084C196.655 193.36 197.177 193.588 197.789 193.768C198.401 193.936 199.001 194.02 199.589 194.02C200.777 194.02 201.371 193.726 201.371 193.138C201.371 192.862 201.209 192.664 200.885 192.544C200.561 192.424 200.063 192.322 199.391 192.238C198.599 192.118 197.945 191.98 197.429 191.824C196.913 191.668 196.463 191.392 196.079 190.996C195.707 190.6 195.521 190.036 195.521 189.304C195.521 188.692 195.695 188.152 196.043 187.684C196.403 187.204 196.919 186.832 197.591 186.568C198.275 186.304 199.079 186.172 200.003 186.172C200.687 186.172 201.365 186.25 202.037 186.406C202.721 186.55 203.285 186.754 203.729 187.018L202.793 189.016C201.941 188.536 201.011 188.296 200.003 188.296C199.403 188.296 198.953 188.38 198.653 188.548C198.353 188.716 198.203 188.932 198.203 189.196C198.203 189.496 198.365 189.706 198.689 189.826C199.013 189.946 199.529 190.06 200.237 190.168C201.029 190.3 201.677 190.444 202.181 190.6C202.685 190.744 203.123 191.014 203.495 191.41C203.867 191.806 204.053 192.358 204.053 193.066C204.053 193.666 203.873 194.2 203.513 194.668C203.153 195.136 202.625 195.502 201.929 195.766C201.245 196.018 200.429 196.144 199.481 196.144ZM205.785 186.316H208.593V196H205.785V186.316ZM207.189 184.966C206.673 184.966 206.253 184.816 205.929 184.516C205.605 184.216 205.443 183.844 205.443 183.4C205.443 182.956 205.605 182.584 205.929 182.284C206.253 181.984 206.673 181.834 207.189 181.834C207.705 181.834 208.125 181.978 208.449 182.266C208.773 182.554 208.935 182.914 208.935 183.346C208.935 183.814 208.773 184.204 208.449 184.516C208.125 184.816 207.705 184.966 207.189 184.966ZM219.173 193.84V196H210.533V194.308L215.465 188.476H210.659V186.316H219.011V188.008L214.079 193.84H219.173Z" fill="black"/>
<path d="M44.6244 225L44.6104 217.86L41.0684 223.81H40.4244L36.8824 217.902V225H35.5384V215.2H36.6864L40.7744 222.088L44.8064 215.2H45.9544L45.9684 225H44.6244ZM48.7135 217.58H50.0575V225H48.7135V217.58ZM49.3855 216.152C49.1241 216.152 48.9048 216.068 48.7275 215.9C48.5595 215.732 48.4755 215.527 48.4755 215.284C48.4755 215.041 48.5595 214.836 48.7275 214.668C48.9048 214.491 49.1241 214.402 49.3855 214.402C49.6468 214.402 49.8615 214.486 50.0295 214.654C50.2068 214.813 50.2955 215.013 50.2955 215.256C50.2955 215.508 50.2068 215.723 50.0295 215.9C49.8615 216.068 49.6468 216.152 49.3855 216.152ZM51.6716 227.8C51.3449 227.8 51.0416 227.763 50.7616 227.688C50.4816 227.613 50.2483 227.501 50.0616 227.352L50.4956 226.316C50.7756 226.549 51.1396 226.666 51.5876 226.666C51.9423 226.666 52.2129 226.554 52.3996 226.33C52.5956 226.115 52.6936 225.793 52.6936 225.364V217.58H54.0376V225.336C54.0376 226.101 53.8323 226.703 53.4216 227.142C53.0109 227.581 52.4276 227.8 51.6716 227.8ZM53.3656 216.152C53.1043 216.152 52.8849 216.068 52.7076 215.9C52.5396 215.732 52.4556 215.527 52.4556 215.284C52.4556 215.041 52.5396 214.836 52.7076 214.668C52.8849 214.491 53.1043 214.402 53.3656 214.402C53.6269 214.402 53.8416 214.486 54.0096 214.654C54.1869 214.813 54.2756 215.013 54.2756 215.256C54.2756 215.508 54.1869 215.723 54.0096 215.9C53.8416 216.068 53.6269 216.152 53.3656 216.152ZM59.7801 225.084C59.0428 225.084 58.3801 224.921 57.7921 224.594C57.2041 224.267 56.7421 223.819 56.4061 223.25C56.0795 222.671 55.9161 222.018 55.9161 221.29C55.9161 220.562 56.0795 219.913 56.4061 219.344C56.7421 218.765 57.2041 218.317 57.7921 218C58.3801 217.673 59.0428 217.51 59.7801 217.51C60.5175 217.51 61.1755 217.673 61.7541 218C62.3421 218.317 62.7995 218.765 63.1261 219.344C63.4621 219.913 63.6301 220.562 63.6301 221.29C63.6301 222.018 63.4621 222.671 63.1261 223.25C62.7995 223.819 62.3421 224.267 61.7541 224.594C61.1755 224.921 60.5175 225.084 59.7801 225.084ZM59.7801 223.908C60.2561 223.908 60.6808 223.801 61.0541 223.586C61.4368 223.362 61.7355 223.054 61.9501 222.662C62.1648 222.261 62.2721 221.803 62.2721 221.29C62.2721 220.777 62.1648 220.324 61.9501 219.932C61.7355 219.531 61.4368 219.223 61.0541 219.008C60.6808 218.793 60.2561 218.686 59.7801 218.686C59.3041 218.686 58.8748 218.793 58.4921 219.008C58.1188 219.223 57.8201 219.531 57.5961 219.932C57.3815 220.324 57.2741 220.777 57.2741 221.29C57.2741 221.803 57.3815 222.261 57.5961 222.662C57.8201 223.054 58.1188 223.362 58.4921 223.586C58.8748 223.801 59.3041 223.908 59.7801 223.908ZM70.8815 223.894V225H64.6655V224.132L69.0475 218.686H64.7495V217.58H70.7695V218.462L66.3875 223.894H70.8815ZM78.568 225.084C77.9613 225.084 77.378 225.005 76.818 224.846C76.258 224.678 75.8193 224.468 75.502 224.216L76.062 223.152C76.3887 223.385 76.7853 223.572 77.252 223.712C77.7187 223.852 78.19 223.922 78.666 223.922C79.842 223.922 80.43 223.586 80.43 222.914C80.43 222.69 80.3507 222.513 80.192 222.382C80.0333 222.251 79.8327 222.158 79.59 222.102C79.3567 222.037 79.0207 221.967 78.582 221.892C77.9847 221.799 77.4947 221.691 77.112 221.57C76.7387 221.449 76.4167 221.243 76.146 220.954C75.8753 220.665 75.74 220.259 75.74 219.736C75.74 219.064 76.02 218.527 76.58 218.126C77.14 217.715 77.8913 217.51 78.834 217.51C79.3287 217.51 79.8233 217.571 80.318 217.692C80.8127 217.813 81.2187 217.977 81.536 218.182L80.962 219.246C80.3553 218.854 79.6413 218.658 78.82 218.658C78.2507 218.658 77.8167 218.751 77.518 218.938C77.2193 219.125 77.07 219.372 77.07 219.68C77.07 219.923 77.154 220.114 77.322 220.254C77.49 220.394 77.6953 220.497 77.938 220.562C78.19 220.627 78.54 220.702 78.988 220.786C79.5853 220.889 80.066 221.001 80.43 221.122C80.8033 221.234 81.1207 221.43 81.382 221.71C81.6433 221.99 81.774 222.382 81.774 222.886C81.774 223.558 81.4847 224.095 80.906 224.496C80.3367 224.888 79.5573 225.084 78.568 225.084ZM86.6317 225.084C85.8944 225.084 85.2317 224.921 84.6437 224.594C84.0557 224.267 83.5937 223.819 83.2577 223.25C82.931 222.671 82.7677 222.018 82.7677 221.29C82.7677 220.562 82.931 219.913 83.2577 219.344C83.5937 218.765 84.0557 218.317 84.6437 218C85.2317 217.673 85.8944 217.51 86.6317 217.51C87.369 217.51 88.027 217.673 88.6057 218C89.1937 218.317 89.651 218.765 89.9777 219.344C90.3137 219.913 90.4817 220.562 90.4817 221.29C90.4817 222.018 90.3137 222.671 89.9777 223.25C89.651 223.819 89.1937 224.267 88.6057 224.594C88.027 224.921 87.369 225.084 86.6317 225.084ZM86.6317 223.908C87.1077 223.908 87.5324 223.801 87.9057 223.586C88.2884 223.362 88.587 223.054 88.8017 222.662C89.0164 222.261 89.1237 221.803 89.1237 221.29C89.1237 220.777 89.0164 220.324 88.8017 219.932C88.587 219.531 88.2884 219.223 87.9057 219.008C87.5324 218.793 87.1077 218.686 86.6317 218.686C86.1557 218.686 85.7264 218.793 85.3437 219.008C84.9704 219.223 84.6717 219.531 84.4477 219.932C84.233 220.324 84.1257 220.777 84.1257 221.29C84.1257 221.803 84.233 222.261 84.4477 222.662C84.6717 223.054 84.9704 223.362 85.3437 223.586C85.7264 223.801 86.1557 223.908 86.6317 223.908ZM92.8203 216.698C93.007 216.763 93.1517 216.871 93.2543 217.02C93.357 217.169 93.4083 217.351 93.4083 217.566C93.4083 217.846 93.3197 218.075 93.1423 218.252C92.965 218.429 92.7457 218.518 92.4843 218.518C92.2137 218.518 91.9897 218.429 91.8123 218.252C91.635 218.065 91.5463 217.837 91.5463 217.566C91.5463 217.435 91.5603 217.305 91.5883 217.174C91.6257 217.034 91.6957 216.833 91.7983 216.572L92.4563 214.612H93.3383L92.8203 216.698ZM97.06 218.826C97.2934 218.397 97.6387 218.07 98.096 217.846C98.5534 217.622 99.1087 217.51 99.762 217.51V218.812C99.6874 218.803 99.5847 218.798 99.454 218.798C98.726 218.798 98.152 219.017 97.732 219.456C97.3214 219.885 97.116 220.501 97.116 221.304V225H95.772V217.58H97.06V218.826ZM104.528 225.084C103.791 225.084 103.128 224.921 102.54 224.594C101.952 224.267 101.49 223.819 101.154 223.25C100.828 222.671 100.664 222.018 100.664 221.29C100.664 220.562 100.828 219.913 101.154 219.344C101.49 218.765 101.952 218.317 102.54 218C103.128 217.673 103.791 217.51 104.528 217.51C105.266 217.51 105.924 217.673 106.502 218C107.09 218.317 107.548 218.765 107.874 219.344C108.21 219.913 108.378 220.562 108.378 221.29C108.378 222.018 108.21 222.671 107.874 223.25C107.548 223.819 107.09 224.267 106.502 224.594C105.924 224.921 105.266 225.084 104.528 225.084ZM104.528 223.908C105.004 223.908 105.429 223.801 105.802 223.586C106.185 223.362 106.484 223.054 106.698 222.662C106.913 222.261 107.02 221.803 107.02 221.29C107.02 220.777 106.913 220.324 106.698 219.932C106.484 219.531 106.185 219.223 105.802 219.008C105.429 218.793 105.004 218.686 104.528 218.686C104.052 218.686 103.623 218.793 103.24 219.008C102.867 219.223 102.568 219.531 102.344 219.932C102.13 220.324 102.022 220.777 102.022 221.29C102.022 221.803 102.13 222.261 102.344 222.662C102.568 223.054 102.867 223.362 103.24 223.586C103.623 223.801 104.052 223.908 104.528 223.908ZM116.598 217.58L113.35 225H111.978L108.73 217.58H110.13L112.678 223.53L115.282 217.58H116.598ZM128.612 217.58V227.716H127.268V223.88C126.96 224.272 126.582 224.571 126.134 224.776C125.695 224.981 125.21 225.084 124.678 225.084C123.959 225.084 123.315 224.925 122.746 224.608C122.177 224.291 121.729 223.847 121.402 223.278C121.085 222.699 120.926 222.037 120.926 221.29C120.926 220.543 121.085 219.885 121.402 219.316C121.729 218.747 122.177 218.303 122.746 217.986C123.315 217.669 123.959 217.51 124.678 217.51C125.229 217.51 125.733 217.617 126.19 217.832C126.647 218.037 127.025 218.345 127.324 218.756V217.58H128.612ZM124.79 223.908C125.257 223.908 125.681 223.801 126.064 223.586C126.447 223.362 126.745 223.054 126.96 222.662C127.175 222.261 127.282 221.803 127.282 221.29C127.282 220.777 127.17 220.324 126.946 219.932C126.731 219.54 126.433 219.237 126.05 219.022C125.677 218.798 125.257 218.686 124.79 218.686C124.314 218.686 123.885 218.793 123.502 219.008C123.129 219.223 122.83 219.531 122.606 219.932C122.391 220.324 122.284 220.777 122.284 221.29C122.284 221.803 122.391 222.261 122.606 222.662C122.83 223.054 123.129 223.362 123.502 223.586C123.885 223.801 124.314 223.908 124.79 223.908ZM134.333 225.084C133.596 225.084 132.933 224.921 132.345 224.594C131.757 224.267 131.295 223.819 130.959 223.25C130.632 222.671 130.469 222.018 130.469 221.29C130.469 220.562 130.632 219.913 130.959 219.344C131.295 218.765 131.757 218.317 132.345 218C132.933 217.673 133.596 217.51 134.333 217.51C135.07 217.51 135.728 217.673 136.307 218C136.895 218.317 137.352 218.765 137.679 219.344C138.015 219.913 138.183 220.562 138.183 221.29C138.183 222.018 138.015 222.671 137.679 223.25C137.352 223.819 136.895 224.267 136.307 224.594C135.728 224.921 135.07 225.084 134.333 225.084ZM134.333 223.908C134.809 223.908 135.234 223.801 135.607 223.586C135.99 223.362 136.288 223.054 136.503 222.662C136.718 222.261 136.825 221.803 136.825 221.29C136.825 220.777 136.718 220.324 136.503 219.932C136.288 219.531 135.99 219.223 135.607 219.008C135.234 218.793 134.809 218.686 134.333 218.686C133.857 218.686 133.428 218.793 133.045 219.008C132.672 219.223 132.373 219.531 132.149 219.932C131.934 220.324 131.827 220.777 131.827 221.29C131.827 221.803 131.934 222.261 132.149 222.662C132.373 223.054 132.672 223.362 133.045 223.586C133.428 223.801 133.857 223.908 134.333 223.908ZM140.042 214.612H141.386V225H140.042V214.612ZM150.952 214.612V225H149.664V223.824C149.365 224.235 148.987 224.547 148.53 224.762C148.072 224.977 147.568 225.084 147.018 225.084C146.299 225.084 145.655 224.925 145.086 224.608C144.516 224.291 144.068 223.847 143.742 223.278C143.424 222.699 143.266 222.037 143.266 221.29C143.266 220.543 143.424 219.885 143.742 219.316C144.068 218.747 144.516 218.303 145.086 217.986C145.655 217.669 146.299 217.51 147.018 217.51C147.55 217.51 148.04 217.613 148.488 217.818C148.936 218.014 149.309 218.308 149.608 218.7V214.612H150.952ZM147.13 223.908C147.596 223.908 148.021 223.801 148.404 223.586C148.786 223.362 149.085 223.054 149.3 222.662C149.514 222.261 149.622 221.803 149.622 221.29C149.622 220.777 149.514 220.324 149.3 219.932C149.085 219.531 148.786 219.223 148.404 219.008C148.021 218.793 147.596 218.686 147.13 218.686C146.654 218.686 146.224 218.793 145.842 219.008C145.468 219.223 145.17 219.531 144.946 219.932C144.731 220.324 144.624 220.777 144.624 221.29C144.624 221.803 144.731 222.261 144.946 222.662C145.17 223.054 145.468 223.362 145.842 223.586C146.224 223.801 146.654 223.908 147.13 223.908ZM153.495 217.58H154.839V225H153.495V217.58ZM154.167 216.152C153.905 216.152 153.686 216.068 153.509 215.9C153.341 215.732 153.257 215.527 153.257 215.284C153.257 215.041 153.341 214.836 153.509 214.668C153.686 214.491 153.905 214.402 154.167 214.402C154.428 214.402 154.643 214.486 154.811 214.654C154.988 214.813 155.077 215.013 155.077 215.256C155.077 215.508 154.988 215.723 154.811 215.9C154.643 216.068 154.428 216.152 154.167 216.152ZM158.693 218.826C158.926 218.397 159.272 218.07 159.729 217.846C160.186 217.622 160.742 217.51 161.395 217.51V218.812C161.32 218.803 161.218 218.798 161.087 218.798C160.359 218.798 159.785 219.017 159.365 219.456C158.954 219.885 158.749 220.501 158.749 221.304V225H157.405V217.58H158.693V218.826ZM163.051 217.58H164.395V225H163.051V217.58ZM163.723 216.152C163.462 216.152 163.243 216.068 163.065 215.9C162.897 215.732 162.813 215.527 162.813 215.284C162.813 215.041 162.897 214.836 163.065 214.668C163.243 214.491 163.462 214.402 163.723 214.402C163.985 214.402 164.199 214.486 164.367 214.654C164.545 214.813 164.633 215.013 164.633 215.256C164.633 215.508 164.545 215.723 164.367 215.9C164.199 216.068 163.985 216.152 163.723 216.152ZM169.09 225.084C168.483 225.084 167.9 225.005 167.34 224.846C166.78 224.678 166.341 224.468 166.024 224.216L166.584 223.152C166.91 223.385 167.307 223.572 167.774 223.712C168.24 223.852 168.712 223.922 169.188 223.922C170.364 223.922 170.952 223.586 170.952 222.914C170.952 222.69 170.872 222.513 170.714 222.382C170.555 222.251 170.354 222.158 170.112 222.102C169.878 222.037 169.542 221.967 169.104 221.892C168.506 221.799 168.016 221.691 167.634 221.57C167.26 221.449 166.938 221.243 166.668 220.954C166.397 220.665 166.262 220.259 166.262 219.736C166.262 219.064 166.542 218.527 167.102 218.126C167.662 217.715 168.413 217.51 169.356 217.51C169.85 217.51 170.345 217.571 170.84 217.692C171.334 217.813 171.74 217.977 172.058 218.182L171.484 219.246C170.877 218.854 170.163 218.658 169.342 218.658C168.772 218.658 168.338 218.751 168.04 218.938C167.741 219.125 167.592 219.372 167.592 219.68C167.592 219.923 167.676 220.114 167.844 220.254C168.012 220.394 168.217 220.497 168.46 220.562C168.712 220.627 169.062 220.702 169.51 220.786C170.107 220.889 170.588 221.001 170.952 221.122C171.325 221.234 171.642 221.43 171.904 221.71C172.165 221.99 172.296 222.382 172.296 222.886C172.296 223.558 172.006 224.095 171.428 224.496C170.858 224.888 170.079 225.084 169.09 225.084ZM177.937 217.51C178.88 217.51 179.627 217.785 180.177 218.336C180.737 218.877 181.017 219.675 181.017 220.73V225H179.673V220.884C179.673 220.165 179.501 219.624 179.155 219.26C178.81 218.896 178.315 218.714 177.671 218.714C176.943 218.714 176.369 218.929 175.949 219.358C175.529 219.778 175.319 220.385 175.319 221.178V225H173.975V214.612H175.319V218.63C175.599 218.275 175.963 218 176.411 217.804C176.869 217.608 177.377 217.51 177.937 217.51ZM183.504 217.58H184.848V225H183.504V217.58ZM184.176 216.152C183.915 216.152 183.696 216.068 183.518 215.9C183.35 215.732 183.266 215.527 183.266 215.284C183.266 215.041 183.35 214.836 183.518 214.668C183.696 214.491 183.915 214.402 184.176 214.402C184.438 214.402 184.652 214.486 184.82 214.654C184.998 214.813 185.086 215.013 185.086 215.256C185.086 215.508 184.998 215.723 184.82 215.9C184.652 216.068 184.438 216.152 184.176 216.152ZM200.456 217.51C201.39 217.51 202.127 217.781 202.668 218.322C203.219 218.863 203.494 219.666 203.494 220.73V225H202.15V220.884C202.15 220.165 201.982 219.624 201.646 219.26C201.32 218.896 200.848 218.714 200.232 218.714C199.551 218.714 199.01 218.929 198.608 219.358C198.207 219.778 198.006 220.385 198.006 221.178V225H196.662V220.884C196.662 220.165 196.494 219.624 196.158 219.26C195.832 218.896 195.36 218.714 194.744 218.714C194.063 218.714 193.522 218.929 193.12 219.358C192.719 219.778 192.518 220.385 192.518 221.178V225H191.174V217.58H192.462V218.686C192.733 218.303 193.088 218.014 193.526 217.818C193.965 217.613 194.464 217.51 195.024 217.51C195.603 217.51 196.116 217.627 196.564 217.86C197.012 218.093 197.358 218.434 197.6 218.882C197.88 218.453 198.268 218.117 198.762 217.874C199.266 217.631 199.831 217.51 200.456 217.51ZM212.883 217.58V225H211.609V223.88C211.339 224.263 210.979 224.561 210.531 224.776C210.093 224.981 209.612 225.084 209.089 225.084C208.1 225.084 207.321 224.813 206.751 224.272C206.182 223.721 205.897 222.914 205.897 221.85V217.58H207.241V221.696C207.241 222.415 207.414 222.961 207.759 223.334C208.105 223.698 208.599 223.88 209.243 223.88C209.953 223.88 210.513 223.665 210.923 223.236C211.334 222.807 211.539 222.2 211.539 221.416V217.58H212.883ZM224.724 217.51C225.657 217.51 226.395 217.781 226.936 218.322C227.487 218.863 227.762 219.666 227.762 220.73V225H226.418V220.884C226.418 220.165 226.25 219.624 225.914 219.26C225.587 218.896 225.116 218.714 224.5 218.714C223.819 218.714 223.277 218.929 222.876 219.358C222.475 219.778 222.274 220.385 222.274 221.178V225H220.93V220.884C220.93 220.165 220.762 219.624 220.426 219.26C220.099 218.896 219.628 218.714 219.012 218.714C218.331 218.714 217.789 218.929 217.388 219.358C216.987 219.778 216.786 220.385 216.786 221.178V225H215.442V217.58H216.73V218.686C217.001 218.303 217.355 218.014 217.794 217.818C218.233 217.613 218.732 217.51 219.292 217.51C219.871 217.51 220.384 217.627 220.832 217.86C221.28 218.093 221.625 218.434 221.868 218.882C222.148 218.453 222.535 218.117 223.03 217.874C223.534 217.631 224.099 217.51 224.724 217.51ZM233.119 221.542L231.579 222.97V225H230.235V214.612H231.579V221.276L235.625 217.58H237.249L234.127 220.646L237.557 225H235.905L233.119 221.542ZM238.766 217.58H240.11V225H238.766V217.58ZM239.438 216.152C239.177 216.152 238.958 216.068 238.78 215.9C238.612 215.732 238.528 215.527 238.528 215.284C238.528 215.041 238.612 214.836 238.78 214.668C238.958 214.491 239.177 214.402 239.438 214.402C239.7 214.402 239.914 214.486 240.082 214.654C240.26 214.813 240.348 215.013 240.348 215.256C240.348 215.508 240.26 215.723 240.082 215.9C239.914 216.068 239.7 216.152 239.438 216.152ZM246.638 217.51C247.581 217.51 248.328 217.785 248.878 218.336C249.438 218.877 249.718 219.675 249.718 220.73V225H248.374V220.884C248.374 220.165 248.202 219.624 247.856 219.26C247.511 218.896 247.016 218.714 246.372 218.714C245.644 218.714 245.07 218.929 244.65 219.358C244.23 219.778 244.02 220.385 244.02 221.178V225H242.676V217.58H243.964V218.7C244.235 218.317 244.599 218.023 245.056 217.818C245.523 217.613 246.05 217.51 246.638 217.51ZM35.0861 235.58L31.4881 243.742C31.1708 244.498 30.7974 245.03 30.3681 245.338C29.9481 245.646 29.4394 245.8 28.8421 245.8C28.4781 245.8 28.1234 245.739 27.7781 245.618C27.4421 245.506 27.1621 245.338 26.9381 245.114L27.5121 244.106C27.8948 244.47 28.3381 244.652 28.8421 244.652C29.1688 244.652 29.4394 244.563 29.6541 244.386C29.8781 244.218 30.0788 243.924 30.2561 243.504L30.4941 242.986L27.2181 235.58H28.6181L31.2081 241.516L33.7701 235.58H35.0861ZM39.3133 243.084C38.576 243.084 37.9133 242.921 37.3253 242.594C36.7373 242.267 36.2753 241.819 35.9393 241.25C35.6127 240.671 35.4493 240.018 35.4493 239.29C35.4493 238.562 35.6127 237.913 35.9393 237.344C36.2753 236.765 36.7373 236.317 37.3253 236C37.9133 235.673 38.576 235.51 39.3133 235.51C40.0507 235.51 40.7087 235.673 41.2873 236C41.8753 236.317 42.3327 236.765 42.6593 237.344C42.9953 237.913 43.1633 238.562 43.1633 239.29C43.1633 240.018 42.9953 240.671 42.6593 241.25C42.3327 241.819 41.8753 242.267 41.2873 242.594C40.7087 242.921 40.0507 243.084 39.3133 243.084ZM39.3133 241.908C39.7893 241.908 40.214 241.801 40.5873 241.586C40.97 241.362 41.2687 241.054 41.4833 240.662C41.698 240.261 41.8053 239.803 41.8053 239.29C41.8053 238.777 41.698 238.324 41.4833 237.932C41.2687 237.531 40.97 237.223 40.5873 237.008C40.214 236.793 39.7893 236.686 39.3133 236.686C38.8373 236.686 38.408 236.793 38.0253 237.008C37.652 237.223 37.3533 237.531 37.1293 237.932C36.9147 238.324 36.8073 238.777 36.8073 239.29C36.8073 239.803 36.9147 240.261 37.1293 240.662C37.3533 241.054 37.652 241.362 38.0253 241.586C38.408 241.801 38.8373 241.908 39.3133 241.908ZM47.906 239.542L46.366 240.97V243H45.022V232.612H46.366V239.276L50.412 235.58H52.036L48.914 238.646L52.344 243H50.692L47.906 239.542ZM53.5533 235.58H54.8973V243H53.5533V235.58ZM54.2253 234.152C53.964 234.152 53.7446 234.068 53.5673 233.9C53.3993 233.732 53.3153 233.527 53.3153 233.284C53.3153 233.041 53.3993 232.836 53.5673 232.668C53.7446 232.491 53.964 232.402 54.2253 232.402C54.4866 232.402 54.7013 232.486 54.8693 232.654C55.0466 232.813 55.1353 233.013 55.1353 233.256C55.1353 233.508 55.0466 233.723 54.8693 233.9C54.7013 234.068 54.4866 234.152 54.2253 234.152ZM64.4635 232.612V243H63.1755V241.824C62.8768 242.235 62.4988 242.547 62.0415 242.762C61.5841 242.977 61.0801 243.084 60.5295 243.084C59.8108 243.084 59.1668 242.925 58.5975 242.608C58.0281 242.291 57.5801 241.847 57.2535 241.278C56.9361 240.699 56.7775 240.037 56.7775 239.29C56.7775 238.543 56.9361 237.885 57.2535 237.316C57.5801 236.747 58.0281 236.303 58.5975 235.986C59.1668 235.669 59.8108 235.51 60.5295 235.51C61.0615 235.51 61.5515 235.613 61.9995 235.818C62.4475 236.014 62.8208 236.308 63.1195 236.7V232.612H64.4635ZM60.6415 241.908C61.1081 241.908 61.5328 241.801 61.9155 241.586C62.2981 241.362 62.5968 241.054 62.8115 240.662C63.0261 240.261 63.1335 239.803 63.1335 239.29C63.1335 238.777 63.0261 238.324 62.8115 237.932C62.5968 237.531 62.2981 237.223 61.9155 237.008C61.5328 236.793 61.1081 236.686 60.6415 236.686C60.1655 236.686 59.7361 236.793 59.3535 237.008C58.9801 237.223 58.6815 237.531 58.4575 237.932C58.2428 238.324 58.1355 238.777 58.1355 239.29C58.1355 239.803 58.2428 240.261 58.4575 240.662C58.6815 241.054 58.9801 241.362 59.3535 241.586C59.7361 241.801 60.1655 241.908 60.6415 241.908ZM69.7084 235.51C70.7351 235.51 71.5191 235.762 72.0604 236.266C72.6111 236.77 72.8864 237.521 72.8864 238.52V243H71.6124V242.02C71.3884 242.365 71.0664 242.631 70.6464 242.818C70.2358 242.995 69.7458 243.084 69.1764 243.084C68.3458 243.084 67.6784 242.883 67.1744 242.482C66.6798 242.081 66.4324 241.553 66.4324 240.9C66.4324 240.247 66.6704 239.724 67.1464 239.332C67.6224 238.931 68.3784 238.73 69.4144 238.73H71.5424V238.464C71.5424 237.885 71.3744 237.442 71.0384 237.134C70.7024 236.826 70.2078 236.672 69.5544 236.672C69.1158 236.672 68.6864 236.747 68.2664 236.896C67.8464 237.036 67.4918 237.227 67.2024 237.47L66.6424 236.462C67.0251 236.154 67.4824 235.921 68.0144 235.762C68.5464 235.594 69.1111 235.51 69.7084 235.51ZM69.4004 242.048C69.9138 242.048 70.3571 241.936 70.7304 241.712C71.1038 241.479 71.3744 241.152 71.5424 240.732V239.696H69.4704C68.3318 239.696 67.7624 240.079 67.7624 240.844C67.7624 241.217 67.9071 241.511 68.1964 241.726C68.4858 241.941 68.8871 242.048 69.4004 242.048ZM82.3114 243.084C81.574 243.084 80.9114 242.921 80.3234 242.594C79.7354 242.267 79.2734 241.819 78.9374 241.25C78.6107 240.671 78.4474 240.018 78.4474 239.29C78.4474 238.562 78.6107 237.913 78.9374 237.344C79.2734 236.765 79.7354 236.317 80.3234 236C80.9114 235.673 81.574 235.51 82.3114 235.51C83.0487 235.51 83.7067 235.673 84.2854 236C84.8734 236.317 85.3307 236.765 85.6574 237.344C85.9934 237.913 86.1614 238.562 86.1614 239.29C86.1614 240.018 85.9934 240.671 85.6574 241.25C85.3307 241.819 84.8734 242.267 84.2854 242.594C83.7067 242.921 83.0487 243.084 82.3114 243.084ZM82.3114 241.908C82.7874 241.908 83.212 241.801 83.5854 241.586C83.968 241.362 84.2667 241.054 84.4814 240.662C84.696 240.261 84.8034 239.803 84.8034 239.29C84.8034 238.777 84.696 238.324 84.4814 237.932C84.2667 237.531 83.968 237.223 83.5854 237.008C83.212 236.793 82.7874 236.686 82.3114 236.686C81.8354 236.686 81.406 236.793 81.0234 237.008C80.65 237.223 80.3514 237.531 80.1274 237.932C79.9127 238.324 79.8054 238.777 79.8054 239.29C79.8054 239.803 79.9127 240.261 80.1274 240.662C80.3514 241.054 80.65 241.362 81.0234 241.586C81.406 241.801 81.8354 241.908 82.3114 241.908ZM88.5 234.698C88.6867 234.763 88.8314 234.871 88.934 235.02C89.0367 235.169 89.088 235.351 89.088 235.566C89.088 235.846 88.9994 236.075 88.822 236.252C88.6447 236.429 88.4254 236.518 88.164 236.518C87.8934 236.518 87.6694 236.429 87.492 236.252C87.3147 236.065 87.226 235.837 87.226 235.566C87.226 235.435 87.24 235.305 87.268 235.174C87.3054 235.034 87.3754 234.833 87.478 234.572L88.136 232.612H89.018L88.5 234.698ZM96.5299 241.894V243H90.3139V242.132L94.6959 236.686H90.3979V235.58H96.4179V236.462L92.0359 241.894H96.5299ZM98.3287 235.58H99.6727V243H98.3287V235.58ZM99.0007 234.152C98.7394 234.152 98.52 234.068 98.3427 233.9C98.1747 233.732 98.0907 233.527 98.0907 233.284C98.0907 233.041 98.1747 232.836 98.3427 232.668C98.52 232.491 98.7394 232.402 99.0007 232.402C99.262 232.402 99.4767 232.486 99.6447 232.654C99.822 232.813 99.9107 233.013 99.9107 233.256C99.9107 233.508 99.822 233.723 99.6447 233.9C99.4767 234.068 99.262 234.152 99.0007 234.152ZM112.985 238.044H114.329V241.866C113.843 242.267 113.279 242.575 112.635 242.79C111.991 243.005 111.319 243.112 110.619 243.112C109.629 243.112 108.738 242.897 107.945 242.468C107.151 242.029 106.526 241.432 106.069 240.676C105.621 239.911 105.397 239.052 105.397 238.1C105.397 237.148 105.621 236.289 106.069 235.524C106.526 234.759 107.151 234.161 107.945 233.732C108.747 233.303 109.648 233.088 110.647 233.088C111.431 233.088 112.14 233.219 112.775 233.48C113.419 233.732 113.965 234.105 114.413 234.6L113.545 235.468C112.761 234.712 111.813 234.334 110.703 234.334C109.956 234.334 109.284 234.497 108.687 234.824C108.099 235.141 107.637 235.589 107.301 236.168C106.965 236.737 106.797 237.381 106.797 238.1C106.797 238.809 106.965 239.453 107.301 240.032C107.637 240.601 108.099 241.049 108.687 241.376C109.284 241.703 109.951 241.866 110.689 241.866C111.566 241.866 112.331 241.656 112.985 241.236V238.044ZM116.813 235.58H118.157V243H116.813V235.58ZM117.485 234.152C117.224 234.152 117.004 234.068 116.827 233.9C116.659 233.732 116.575 233.527 116.575 233.284C116.575 233.041 116.659 232.836 116.827 232.668C117.004 232.491 117.224 232.402 117.485 232.402C117.746 232.402 117.961 232.486 118.129 232.654C118.306 232.813 118.395 233.013 118.395 233.256C118.395 233.508 118.306 233.723 118.129 233.9C117.961 234.068 117.746 234.152 117.485 234.152ZM124.895 242.566C124.699 242.734 124.457 242.865 124.167 242.958C123.878 243.042 123.579 243.084 123.271 243.084C122.525 243.084 121.946 242.883 121.535 242.482C121.125 242.081 120.919 241.507 120.919 240.76V236.686H119.659V235.58H120.919V233.956H122.263V235.58H124.391V236.686H122.263V240.704C122.263 241.105 122.361 241.413 122.557 241.628C122.763 241.843 123.052 241.95 123.425 241.95C123.836 241.95 124.186 241.833 124.475 241.6L124.895 242.566ZM129.474 231.212H130.692L126.072 244.4H124.854L129.474 231.212ZM134.008 234.418H130.648V233.2H138.754V234.418H135.394V243H134.008V234.418ZM142.388 235.51C143.415 235.51 144.199 235.762 144.74 236.266C145.291 236.77 145.566 237.521 145.566 238.52V243H144.292V242.02C144.068 242.365 143.746 242.631 143.326 242.818C142.915 242.995 142.425 243.084 141.856 243.084C141.025 243.084 140.358 242.883 139.854 242.482C139.359 242.081 139.112 241.553 139.112 240.9C139.112 240.247 139.35 239.724 139.826 239.332C140.302 238.931 141.058 238.73 142.094 238.73H144.222V238.464C144.222 237.885 144.054 237.442 143.718 237.134C143.382 236.826 142.887 236.672 142.234 236.672C141.795 236.672 141.366 236.747 140.946 236.896C140.526 237.036 140.171 237.227 139.882 237.47L139.322 236.462C139.705 236.154 140.162 235.921 140.694 235.762C141.226 235.594 141.791 235.51 142.388 235.51ZM142.08 242.048C142.593 242.048 143.037 241.936 143.41 241.712C143.783 241.479 144.054 241.152 144.222 240.732V239.696H142.15C141.011 239.696 140.442 240.079 140.442 240.844C140.442 241.217 140.587 241.511 140.876 241.726C141.165 241.941 141.567 242.048 142.08 242.048ZM149.341 236.826C149.575 236.397 149.92 236.07 150.377 235.846C150.835 235.622 151.39 235.51 152.043 235.51V236.812C151.969 236.803 151.866 236.798 151.735 236.798C151.007 236.798 150.433 237.017 150.013 237.456C149.603 237.885 149.397 238.501 149.397 239.304V243H148.053V235.58H149.341V236.826ZM152.843 245.8C152.517 245.8 152.213 245.763 151.933 245.688C151.653 245.613 151.42 245.501 151.233 245.352L151.667 244.316C151.947 244.549 152.311 244.666 152.759 244.666C153.114 244.666 153.385 244.554 153.571 244.33C153.767 244.115 153.865 243.793 153.865 243.364V235.58H155.209V243.336C155.209 244.101 155.004 244.703 154.593 245.142C154.183 245.581 153.599 245.8 152.843 245.8ZM154.537 234.152C154.276 234.152 154.057 234.068 153.879 233.9C153.711 233.732 153.627 233.527 153.627 233.284C153.627 233.041 153.711 232.836 153.879 232.668C154.057 232.491 154.276 232.402 154.537 232.402C154.799 232.402 155.013 232.486 155.181 232.654C155.359 232.813 155.447 233.013 155.447 233.256C155.447 233.508 155.359 233.723 155.181 233.9C155.013 234.068 154.799 234.152 154.537 234.152ZM157.774 235.58H159.118V243H157.774V235.58ZM158.446 234.152C158.185 234.152 157.965 234.068 157.788 233.9C157.62 233.732 157.536 233.527 157.536 233.284C157.536 233.041 157.62 232.836 157.788 232.668C157.965 232.491 158.185 232.402 158.446 232.402C158.707 232.402 158.922 232.486 159.09 232.654C159.267 232.813 159.356 233.013 159.356 233.256C159.356 233.508 159.267 233.723 159.09 233.9C158.922 234.068 158.707 234.152 158.446 234.152ZM170.966 235.51C171.899 235.51 172.637 235.781 173.178 236.322C173.729 236.863 174.004 237.666 174.004 238.73V243H172.66V238.884C172.66 238.165 172.492 237.624 172.156 237.26C171.829 236.896 171.358 236.714 170.742 236.714C170.061 236.714 169.519 236.929 169.118 237.358C168.717 237.778 168.516 238.385 168.516 239.178V243H167.172V238.884C167.172 238.165 167.004 237.624 166.668 237.26C166.341 236.896 165.87 236.714 165.254 236.714C164.573 236.714 164.031 236.929 163.63 237.358C163.229 237.778 163.028 238.385 163.028 239.178V243H161.684V235.58H162.972V236.686C163.243 236.303 163.597 236.014 164.036 235.818C164.475 235.613 164.974 235.51 165.534 235.51C166.113 235.51 166.626 235.627 167.074 235.86C167.522 236.093 167.867 236.434 168.11 236.882C168.39 236.453 168.777 236.117 169.272 235.874C169.776 235.631 170.341 235.51 170.966 235.51ZM179.696 243.084C178.959 243.084 178.296 242.921 177.708 242.594C177.12 242.267 176.658 241.819 176.322 241.25C175.995 240.671 175.832 240.018 175.832 239.29C175.832 238.562 175.995 237.913 176.322 237.344C176.658 236.765 177.12 236.317 177.708 236C178.296 235.673 178.959 235.51 179.696 235.51C180.433 235.51 181.091 235.673 181.67 236C182.258 236.317 182.715 236.765 183.042 237.344C183.378 237.913 183.546 238.562 183.546 239.29C183.546 240.018 183.378 240.671 183.042 241.25C182.715 241.819 182.258 242.267 181.67 242.594C181.091 242.921 180.433 243.084 179.696 243.084ZM179.696 241.908C180.172 241.908 180.597 241.801 180.97 241.586C181.353 241.362 181.651 241.054 181.866 240.662C182.081 240.261 182.188 239.803 182.188 239.29C182.188 238.777 182.081 238.324 181.866 237.932C181.651 237.531 181.353 237.223 180.97 237.008C180.597 236.793 180.172 236.686 179.696 236.686C179.22 236.686 178.791 236.793 178.408 237.008C178.035 237.223 177.736 237.531 177.512 237.932C177.297 238.324 177.19 238.777 177.19 239.29C177.19 239.803 177.297 240.261 177.512 240.662C177.736 241.054 178.035 241.362 178.408 241.586C178.791 241.801 179.22 241.908 179.696 241.908ZM189.367 235.51C190.31 235.51 191.056 235.785 191.607 236.336C192.167 236.877 192.447 237.675 192.447 238.73V243H191.103V238.884C191.103 238.165 190.93 237.624 190.585 237.26C190.24 236.896 189.745 236.714 189.101 236.714C188.373 236.714 187.799 236.929 187.379 237.358C186.959 237.778 186.749 238.385 186.749 239.178V243H185.405V235.58H186.693V236.7C186.964 236.317 187.328 236.023 187.785 235.818C188.252 235.613 188.779 235.51 189.367 235.51ZM194.934 235.58H196.278V243H194.934V235.58ZM195.606 234.152C195.345 234.152 195.125 234.068 194.948 233.9C194.78 233.732 194.696 233.527 194.696 233.284C194.696 233.041 194.78 232.836 194.948 232.668C195.125 232.491 195.345 232.402 195.606 232.402C195.867 232.402 196.082 232.486 196.25 232.654C196.427 232.813 196.516 233.013 196.516 233.256C196.516 233.508 196.427 233.723 196.25 233.9C196.082 234.068 195.867 234.152 195.606 234.152ZM206.776 242.566C206.58 242.734 206.337 242.865 206.048 242.958C205.759 243.042 205.46 243.084 205.152 243.084C204.405 243.084 203.827 242.883 203.416 242.482C203.005 242.081 202.8 241.507 202.8 240.76V236.686H201.54V235.58H202.8V233.956H204.144V235.58H206.272V236.686H204.144V240.704C204.144 241.105 204.242 241.413 204.438 241.628C204.643 241.843 204.933 241.95 205.306 241.95C205.717 241.95 206.067 241.833 206.356 241.6L206.776 242.566ZM211.103 235.51C212.13 235.51 212.914 235.762 213.455 236.266C214.006 236.77 214.281 237.521 214.281 238.52V243H213.007V242.02C212.783 242.365 212.461 242.631 212.041 242.818C211.63 242.995 211.14 243.084 210.571 243.084C209.74 243.084 209.073 242.883 208.569 242.482C208.074 242.081 207.827 241.553 207.827 240.9C207.827 240.247 208.065 239.724 208.541 239.332C209.017 238.931 209.773 238.73 210.809 238.73H212.937V238.464C212.937 237.885 212.769 237.442 212.433 237.134C212.097 236.826 211.602 236.672 210.949 236.672C210.51 236.672 210.081 236.747 209.661 236.896C209.241 237.036 208.886 237.227 208.597 237.47L208.037 236.462C208.42 236.154 208.877 235.921 209.409 235.762C209.941 235.594 210.506 235.51 211.103 235.51ZM210.795 242.048C211.308 242.048 211.752 241.936 212.125 241.712C212.498 241.479 212.769 241.152 212.937 240.732V239.696H210.865C209.726 239.696 209.157 240.079 209.157 240.844C209.157 241.217 209.302 241.511 209.591 241.726C209.88 241.941 210.282 242.048 210.795 242.048ZM220.73 235.51C221.673 235.51 222.419 235.785 222.97 236.336C223.53 236.877 223.81 237.675 223.81 238.73V243H222.466V238.884C222.466 238.165 222.293 237.624 221.948 237.26C221.603 236.896 221.108 236.714 220.464 236.714C219.736 236.714 219.162 236.929 218.742 237.358C218.322 237.778 218.112 238.385 218.112 239.178V243H216.768V235.58H218.056V236.7C218.327 236.317 218.691 236.023 219.148 235.818C219.615 235.613 220.142 235.51 220.73 235.51ZM226.297 232.612H227.641V243H226.297V232.612ZM232.91 235.51C233.936 235.51 234.72 235.762 235.262 236.266C235.812 236.77 236.088 237.521 236.088 238.52V243H234.814V242.02C234.59 242.365 234.268 242.631 233.848 242.818C233.437 242.995 232.947 243.084 232.378 243.084C231.547 243.084 230.88 242.883 230.376 242.482C229.881 242.081 229.634 241.553 229.634 240.9C229.634 240.247 229.872 239.724 230.348 239.332C230.824 238.931 231.58 238.73 232.616 238.73H234.744V238.464C234.744 237.885 234.576 237.442 234.24 237.134C233.904 236.826 233.409 236.672 232.756 236.672C232.317 236.672 231.888 236.747 231.468 236.896C231.048 237.036 230.693 237.227 230.404 237.47L229.844 236.462C230.226 236.154 230.684 235.921 231.216 235.762C231.748 235.594 232.312 235.51 232.91 235.51ZM232.602 242.048C233.115 242.048 233.558 241.936 233.932 241.712C234.305 241.479 234.576 241.152 234.744 240.732V239.696H232.672C231.533 239.696 230.964 240.079 230.964 240.844C230.964 241.217 231.108 241.511 231.398 241.726C231.687 241.941 232.088 242.048 232.602 242.048ZM240.703 243.084C240.096 243.084 239.513 243.005 238.953 242.846C238.393 242.678 237.954 242.468 237.637 242.216L238.197 241.152C238.523 241.385 238.92 241.572 239.387 241.712C239.853 241.852 240.325 241.922 240.801 241.922C241.977 241.922 242.565 241.586 242.565 240.914C242.565 240.69 242.485 240.513 242.327 240.382C242.168 240.251 241.967 240.158 241.725 240.102C241.491 240.037 241.155 239.967 240.717 239.892C240.119 239.799 239.629 239.691 239.247 239.57C238.873 239.449 238.551 239.243 238.281 238.954C238.01 238.665 237.875 238.259 237.875 237.736C237.875 237.064 238.155 236.527 238.715 236.126C239.275 235.715 240.026 235.51 240.969 235.51C241.463 235.51 241.958 235.571 242.453 235.692C242.947 235.813 243.353 235.977 243.671 236.182L243.097 237.246C242.49 236.854 241.776 236.658 240.955 236.658C240.385 236.658 239.951 236.751 239.653 236.938C239.354 237.125 239.205 237.372 239.205 237.68C239.205 237.923 239.289 238.114 239.457 238.254C239.625 238.394 239.83 238.497 240.073 238.562C240.325 238.627 240.675 238.702 241.123 238.786C241.72 238.889 242.201 239.001 242.565 239.122C242.938 239.234 243.255 239.43 243.517 239.71C243.778 239.99 243.909 240.382 243.909 240.886C243.909 241.558 243.619 242.095 243.041 242.496C242.471 242.888 241.692 243.084 240.703 243.084ZM249.55 235.51C250.493 235.51 251.24 235.785 251.79 236.336C252.35 236.877 252.63 237.675 252.63 238.73V243H251.286V238.884C251.286 238.165 251.114 237.624 250.768 237.26C250.423 236.896 249.928 236.714 249.284 236.714C248.556 236.714 247.982 236.929 247.562 237.358C247.142 237.778 246.932 238.385 246.932 239.178V243H245.588V232.612H246.932V236.63C247.212 236.275 247.576 236 248.024 235.804C248.482 235.608 248.99 235.51 249.55 235.51ZM255.118 235.58H256.462V243H255.118V235.58ZM255.79 234.152C255.528 234.152 255.309 234.068 255.132 233.9C254.964 233.732 254.88 233.527 254.88 233.284C254.88 233.041 254.964 232.836 255.132 232.668C255.309 232.491 255.528 232.402 255.79 232.402C256.051 232.402 256.266 232.486 256.434 232.654C256.611 232.813 256.7 233.013 256.7 233.256C256.7 233.508 256.611 233.723 256.434 233.9C256.266 234.068 256.051 234.152 255.79 234.152ZM120.954 253.51C121.888 253.51 122.625 253.781 123.166 254.322C123.717 254.863 123.992 255.666 123.992 256.73V261H122.648V256.884C122.648 256.165 122.48 255.624 122.144 255.26C121.818 254.896 121.346 254.714 120.73 254.714C120.049 254.714 119.508 254.929 119.106 255.358C118.705 255.778 118.504 256.385 118.504 257.178V261H117.16V256.884C117.16 256.165 116.992 255.624 116.656 255.26C116.33 254.896 115.858 254.714 115.242 254.714C114.561 254.714 114.02 254.929 113.618 255.358C113.217 255.778 113.016 256.385 113.016 257.178V261H111.672V253.58H112.96V254.686C113.231 254.303 113.586 254.014 114.024 253.818C114.463 253.613 114.962 253.51 115.522 253.51C116.101 253.51 116.614 253.627 117.062 253.86C117.51 254.093 117.856 254.434 118.098 254.882C118.378 254.453 118.766 254.117 119.26 253.874C119.764 253.631 120.329 253.51 120.954 253.51ZM133.381 253.58V261H132.107V259.88C131.837 260.263 131.477 260.561 131.029 260.776C130.591 260.981 130.11 261.084 129.587 261.084C128.598 261.084 127.819 260.813 127.249 260.272C126.68 259.721 126.395 258.914 126.395 257.85V253.58H127.739V257.696C127.739 258.415 127.912 258.961 128.257 259.334C128.603 259.698 129.097 259.88 129.741 259.88C130.451 259.88 131.011 259.665 131.421 259.236C131.832 258.807 132.037 258.2 132.037 257.416V253.58H133.381ZM145.222 253.51C146.155 253.51 146.893 253.781 147.434 254.322C147.985 254.863 148.26 255.666 148.26 256.73V261H146.916V256.884C146.916 256.165 146.748 255.624 146.412 255.26C146.085 254.896 145.614 254.714 144.998 254.714C144.317 254.714 143.775 254.929 143.374 255.358C142.973 255.778 142.772 256.385 142.772 257.178V261H141.428V256.884C141.428 256.165 141.26 255.624 140.924 255.26C140.597 254.896 140.126 254.714 139.51 254.714C138.829 254.714 138.287 254.929 137.886 255.358C137.485 255.778 137.284 256.385 137.284 257.178V261H135.94V253.58H137.228V254.686C137.499 254.303 137.853 254.014 138.292 253.818C138.731 253.613 139.23 253.51 139.79 253.51C140.369 253.51 140.882 253.627 141.33 253.86C141.778 254.093 142.123 254.434 142.366 254.882C142.646 254.453 143.033 254.117 143.528 253.874C144.032 253.631 144.597 253.51 145.222 253.51ZM153.617 257.542L152.077 258.97V261H150.733V250.612H152.077V257.276L156.123 253.58H157.747L154.625 256.646L158.055 261H156.403L153.617 257.542ZM159.264 253.58H160.608V261H159.264V253.58ZM159.936 252.152C159.675 252.152 159.456 252.068 159.278 251.9C159.11 251.732 159.026 251.527 159.026 251.284C159.026 251.041 159.11 250.836 159.278 250.668C159.456 250.491 159.675 250.402 159.936 250.402C160.198 250.402 160.412 250.486 160.58 250.654C160.758 250.813 160.846 251.013 160.846 251.256C160.846 251.508 160.758 251.723 160.58 251.9C160.412 252.068 160.198 252.152 159.936 252.152ZM167.136 253.51C168.079 253.51 168.826 253.785 169.376 254.336C169.936 254.877 170.216 255.675 170.216 256.73V261H168.872V256.884C168.872 256.165 168.7 255.624 168.354 255.26C168.009 254.896 167.514 254.714 166.87 254.714C166.142 254.714 165.568 254.929 165.148 255.358C164.728 255.778 164.518 256.385 164.518 257.178V261H163.174V253.58H164.462V254.7C164.733 254.317 165.097 254.023 165.554 253.818C166.021 253.613 166.548 253.51 167.136 253.51ZM173.026 261.084C172.764 261.084 172.54 260.995 172.354 260.818C172.167 260.631 172.074 260.398 172.074 260.118C172.074 259.847 172.167 259.623 172.354 259.446C172.54 259.259 172.764 259.166 173.026 259.166C173.287 259.166 173.506 259.255 173.684 259.432C173.861 259.609 173.95 259.838 173.95 260.118C173.95 260.398 173.856 260.631 173.67 260.818C173.492 260.995 173.278 261.084 173.026 261.084Z" fill="black"/>
<path d="M189.254 125.414L143.139 104.395L166.885 52.4624L213 73.4819L189.254 125.414Z" fill="#F2F2F2"/>
<path d="M196.279 95.2442L161.369 79.3319C161.303 79.3019 161.252 79.2471 161.227 79.1795C161.201 79.1119 161.204 79.037 161.234 78.9714C161.264 78.9057 161.319 78.8547 161.387 78.8294C161.454 78.8042 161.529 78.8069 161.595 78.8368L196.506 94.7491C196.572 94.7791 196.623 94.8339 196.648 94.9016C196.673 94.9692 196.671 95.044 196.641 95.1097C196.611 95.1753 196.556 95.2264 196.488 95.2516C196.42 95.2769 196.345 95.2742 196.279 95.2442Z" fill="white"/>
<path d="M198.221 90.9986L163.31 75.0863C163.278 75.0715 163.248 75.0504 163.224 75.0242C163.2 74.9981 163.181 74.9674 163.168 74.9339C163.156 74.9004 163.15 74.8648 163.151 74.8291C163.152 74.7934 163.161 74.7583 163.175 74.7258C163.19 74.6933 163.211 74.664 163.238 74.6396C163.264 74.6153 163.295 74.5963 163.328 74.5838C163.362 74.5713 163.397 74.5656 163.433 74.5668C163.469 74.5681 163.504 74.5764 163.537 74.5912L198.447 90.5035C198.48 90.5184 198.509 90.5395 198.533 90.5656C198.558 90.5918 198.577 90.6225 198.589 90.6559C198.602 90.6894 198.608 90.725 198.606 90.7608C198.605 90.7965 198.597 90.8316 198.582 90.8641C198.567 90.8966 198.546 90.9259 198.52 90.9502C198.494 90.9746 198.463 90.9935 198.429 91.006C198.396 91.0185 198.36 91.0243 198.324 91.023C198.289 91.0218 198.253 91.0135 198.221 90.9986Z" fill="white"/>
<path d="M200.162 86.753L165.252 70.8407C165.219 70.8259 165.19 70.8048 165.165 70.7786C165.141 70.7525 165.122 70.7218 165.109 70.6883C165.097 70.6548 165.091 70.6192 165.092 70.5835C165.094 70.5478 165.102 70.5127 165.117 70.4802C165.132 70.4476 165.153 70.4184 165.179 70.394C165.205 70.3697 165.236 70.3507 165.27 70.3382C165.303 70.3257 165.339 70.3199 165.375 70.3212C165.41 70.3225 165.445 70.3308 165.478 70.3456L200.389 86.2579C200.454 86.288 200.505 86.3428 200.53 86.4104C200.556 86.4779 200.553 86.5527 200.523 86.6183C200.493 86.6838 200.438 86.7348 200.37 86.7601C200.303 86.7854 200.228 86.7828 200.162 86.753Z" fill="white"/>
<path d="M202.103 82.5072L167.193 66.5949C167.16 66.58 167.131 66.5589 167.106 66.5328C167.082 66.5066 167.063 66.4759 167.05 66.4424C167.038 66.409 167.032 66.3734 167.033 66.3376C167.035 66.3019 167.043 66.2668 167.058 66.2343C167.073 66.2018 167.094 66.1725 167.12 66.1482C167.146 66.1238 167.177 66.1049 167.21 66.0924C167.244 66.0799 167.28 66.0741 167.315 66.0754C167.351 66.0766 167.386 66.0849 167.419 66.0998L202.33 82.0121C202.362 82.0269 202.391 82.048 202.416 82.0742C202.44 82.1003 202.459 82.131 202.472 82.1645C202.484 82.198 202.49 82.2336 202.489 82.2693C202.487 82.305 202.479 82.3401 202.464 82.3726C202.449 82.4052 202.428 82.4344 202.402 82.4588C202.376 82.4831 202.345 82.5021 202.312 82.5146C202.278 82.5271 202.242 82.5329 202.207 82.5316C202.171 82.5303 202.136 82.522 202.103 82.5072Z" fill="white"/>
<path d="M194.525 99.0812L159.614 83.1688C159.582 83.154 159.553 83.1329 159.528 83.1067C159.504 83.0806 159.485 83.0499 159.472 83.0164C159.46 82.9829 159.454 82.9473 159.455 82.9116C159.457 82.8759 159.465 82.8408 159.48 82.8083C159.495 82.7758 159.516 82.7465 159.542 82.7222C159.568 82.6978 159.599 82.6788 159.632 82.6663C159.666 82.6539 159.702 82.6481 159.737 82.6493C159.773 82.6506 159.808 82.6589 159.841 82.6737L194.751 98.5861C194.817 98.616 194.868 98.6709 194.894 98.7385C194.919 98.8061 194.916 98.881 194.886 98.9466C194.856 99.0123 194.801 99.0633 194.733 99.0886C194.666 99.1138 194.591 99.1111 194.525 99.0812V99.0812Z" fill="white"/>
<path d="M200.355 76.2796L173.085 63.85C172.932 63.784 172.808 63.664 172.737 63.5129C172.667 63.3617 172.654 63.1899 172.702 63.0301C172.731 62.9432 172.779 62.8635 172.841 62.796C172.903 62.7285 172.979 62.6748 173.063 62.6384C173.147 62.602 173.238 62.5836 173.33 62.5845C173.422 62.5854 173.512 62.6055 173.596 62.6436L200.857 75.0693C201.013 75.1357 201.139 75.2574 201.211 75.411C201.283 75.5647 201.295 75.7394 201.246 75.9015C201.215 75.9873 201.167 76.0658 201.105 76.132C201.043 76.1983 200.967 76.2509 200.884 76.2865C200.8 76.322 200.709 76.3398 200.618 76.3386C200.527 76.3374 200.438 76.3173 200.355 76.2796Z" fill="white"/>
<path d="M95.4282 73.4819L141.544 52.4624L165.289 104.395L119.174 125.414L95.4282 73.4819Z" fill="#F2F2F2"/>
<path d="M112.149 95.2442L147.06 79.3319C147.092 79.3171 147.121 79.296 147.146 79.2698C147.17 79.2437 147.189 79.213 147.202 79.1795C147.214 79.146 147.22 79.1104 147.219 79.0747C147.217 79.039 147.209 79.0039 147.194 78.9714C147.179 78.9389 147.158 78.9096 147.132 78.8852C147.106 78.8609 147.075 78.8419 147.042 78.8294C147.008 78.8169 146.972 78.8112 146.937 78.8124C146.901 78.8137 146.866 78.822 146.833 78.8368L111.923 94.7491C111.89 94.764 111.861 94.7851 111.836 94.8112C111.812 94.8374 111.793 94.8681 111.78 94.9016C111.768 94.935 111.762 94.9707 111.763 95.0064C111.765 95.0421 111.773 95.0772 111.788 95.1097C111.803 95.1422 111.824 95.1715 111.85 95.1958C111.876 95.2202 111.907 95.2391 111.94 95.2516C111.974 95.2641 112.01 95.2699 112.045 95.2686C112.081 95.2674 112.116 95.2591 112.149 95.2442Z" fill="white"/>
<path d="M110.208 90.9986L145.118 75.0863C145.184 75.0563 145.235 75.0015 145.26 74.9339C145.286 74.8663 145.283 74.7914 145.253 74.7258C145.223 74.6601 145.168 74.6091 145.1 74.5838C145.032 74.5586 144.957 74.5613 144.892 74.5912L109.981 90.5035C109.949 90.5184 109.919 90.5395 109.895 90.5656C109.87 90.5918 109.851 90.6225 109.839 90.6559C109.826 90.6894 109.821 90.725 109.822 90.7607C109.823 90.7965 109.832 90.8316 109.846 90.8641C109.861 90.8966 109.882 90.9259 109.909 90.9502C109.935 90.9746 109.966 90.9935 109.999 91.006C110.033 91.0185 110.068 91.0243 110.104 91.023C110.14 91.0218 110.175 91.0135 110.208 90.9986H110.208Z" fill="white"/>
<path d="M108.266 86.753L143.177 70.8407C143.243 70.8107 143.294 70.7559 143.319 70.6883C143.344 70.6207 143.342 70.5458 143.312 70.4802C143.282 70.4145 143.227 70.3634 143.159 70.3382C143.091 70.313 143.016 70.3156 142.951 70.3456L108.04 86.2579C107.974 86.288 107.923 86.3428 107.898 86.4104C107.873 86.478 107.875 86.5528 107.905 86.6184C107.935 86.684 107.99 86.735 108.058 86.7603C108.126 86.7855 108.201 86.7829 108.266 86.753Z" fill="white"/>
<path d="M106.325 82.5072L141.236 66.5949C141.268 66.58 141.298 66.5589 141.322 66.5328C141.346 66.5066 141.365 66.4759 141.378 66.4424C141.39 66.409 141.396 66.3734 141.395 66.3376C141.394 66.3019 141.385 66.2668 141.371 66.2343C141.356 66.2018 141.335 66.1725 141.308 66.1482C141.282 66.1238 141.251 66.1049 141.218 66.0924C141.184 66.0799 141.149 66.0741 141.113 66.0754C141.077 66.0766 141.042 66.0849 141.009 66.0998L106.099 82.0121C106.033 82.0421 105.982 82.0969 105.957 82.1645C105.931 82.2321 105.934 82.307 105.964 82.3727C105.994 82.4383 106.049 82.4894 106.117 82.5146C106.184 82.5398 106.259 82.5372 106.325 82.5072H106.325Z" fill="white"/>
<path d="M113.903 99.0811L148.814 83.1688C148.88 83.1389 148.931 83.084 148.956 83.0164C148.981 82.9488 148.979 82.8739 148.949 82.8083C148.919 82.7426 148.864 82.6916 148.796 82.6663C148.728 82.6411 148.653 82.6438 148.588 82.6737L113.677 98.5861C113.644 98.6009 113.615 98.622 113.591 98.6481C113.566 98.6743 113.547 98.705 113.535 98.7385C113.522 98.7719 113.516 98.8076 113.518 98.8433C113.519 98.879 113.527 98.9141 113.542 98.9466C113.557 98.9791 113.578 99.0084 113.604 99.0327C113.631 99.0571 113.661 99.0761 113.695 99.0885C113.728 99.101 113.764 99.1068 113.8 99.1055C113.836 99.1043 113.871 99.096 113.903 99.0811H113.903Z" fill="white"/>
<path d="M108.074 76.2796L135.343 63.85C135.497 63.784 135.62 63.664 135.691 63.5129C135.762 63.3617 135.774 63.1899 135.726 63.0301C135.697 62.9432 135.65 62.8635 135.588 62.796C135.525 62.7285 135.45 62.6748 135.366 62.6384C135.281 62.602 135.19 62.5836 135.099 62.5845C135.007 62.5854 134.916 62.6055 134.833 62.6436L107.571 75.0693C107.415 75.1357 107.289 75.2574 107.217 75.411C107.145 75.5647 107.133 75.7394 107.183 75.9015C107.213 75.9873 107.261 76.0658 107.323 76.1321C107.386 76.1983 107.461 76.2509 107.545 76.2865C107.629 76.3221 107.719 76.3398 107.81 76.3386C107.901 76.3374 107.991 76.3173 108.074 76.2796Z" fill="white"/>
<path d="M78.6102 134.803C78.9014 130.3 81.4143 125.731 85.5976 124.023C84.1872 128.724 84.4874 133.771 86.4454 138.272C87.2067 140.005 88.2343 141.854 87.7233 143.676C87.4053 144.81 86.5165 145.716 85.4981 146.31C84.4796 146.904 83.3293 147.226 82.1932 147.542L81.9779 147.743C79.9063 143.732 78.3191 139.306 78.6102 134.803Z" fill="#F0F0F0"/>
<path d="M85.6446 124.105C83.3234 127.034 81.9856 130.619 81.8211 134.351C81.7714 135.153 81.8487 135.959 82.0502 136.737C82.2711 137.489 82.6896 138.169 83.2624 138.705C83.7864 139.215 84.3815 139.677 84.7721 140.306C84.9672 140.63 85.0914 140.993 85.1365 141.369C85.1815 141.745 85.1464 142.126 85.0335 142.488C84.7756 143.396 84.2063 144.158 83.6235 144.883C82.9765 145.689 82.2917 146.515 82.0576 147.546C82.0292 147.671 81.8367 147.62 81.8651 147.495C82.2724 145.701 83.9273 144.598 84.6505 142.962C84.988 142.198 85.097 141.328 84.6929 140.567C84.3395 139.901 83.7261 139.425 83.1911 138.913C82.6247 138.398 82.1931 137.753 81.9341 137.033C81.6935 136.267 81.5852 135.466 81.6139 134.664C81.6495 132.857 81.9694 131.067 82.562 129.359C83.2274 127.407 84.2225 125.582 85.5042 123.964C85.5836 123.864 85.7235 124.006 85.6446 124.105V124.105Z" fill="white"/>
<path d="M81.8035 133.146C81.1802 133.034 80.6173 132.703 80.2152 132.215C79.8132 131.726 79.5983 131.111 79.6088 130.478C79.6094 130.453 79.6201 130.428 79.6385 130.41C79.6569 130.392 79.6816 130.382 79.7075 130.381C79.7333 130.381 79.7582 130.391 79.777 130.409C79.7957 130.426 79.8069 130.451 79.808 130.476C79.7971 131.065 79.9974 131.639 80.3727 132.093C80.748 132.547 81.2736 132.852 81.8546 132.954C81.9808 132.976 81.929 133.168 81.8035 133.146L81.8035 133.146Z" fill="white"/>
<path d="M82.9627 138.481C84.0331 137.754 84.7896 136.65 85.0814 135.391C85.1102 135.266 85.3027 135.317 85.2739 135.442C84.9678 136.752 84.1782 137.898 83.0626 138.653C82.9562 138.725 82.8569 138.552 82.9627 138.481Z" fill="white"/>
<path d="M83.4233 127.584C83.6554 127.678 83.9071 127.712 84.156 127.685C84.4048 127.657 84.6429 127.569 84.8489 127.427C84.9543 127.353 85.0536 127.526 84.9489 127.599C84.7205 127.755 84.4574 127.852 84.1826 127.883C83.9078 127.914 83.6295 127.877 83.3722 127.776C83.3471 127.769 83.3259 127.752 83.3127 127.729C83.2996 127.707 83.2956 127.68 83.3015 127.654C83.3084 127.629 83.3251 127.607 83.3479 127.594C83.3707 127.581 83.3978 127.577 83.4233 127.584Z" fill="white"/>
<path d="M99.0866 131.237C99.0221 131.284 98.9575 131.332 98.893 131.381C98.0289 132.025 97.2186 132.737 96.47 133.512C96.4112 133.571 96.3525 133.632 96.2954 133.692C94.512 135.578 93.0946 137.777 92.1154 140.18C91.7266 141.136 91.4113 142.12 91.1721 143.124C90.8419 144.511 90.5943 146.04 89.8466 147.203C89.7699 147.325 89.6858 147.442 89.5946 147.554L82.2391 147.99C82.2219 147.982 82.2047 147.977 82.1874 147.969L81.8945 148C81.9032 147.948 81.9134 147.893 81.9221 147.84C81.9271 147.81 81.9336 147.779 81.9386 147.749C81.9424 147.728 81.9462 147.708 81.9485 147.689C81.9497 147.682 81.9511 147.676 81.9524 147.671C81.9547 147.652 81.9588 147.635 81.9611 147.618C82.0171 147.314 82.0754 147.009 82.1359 146.705C82.1358 146.703 82.1358 146.703 82.1373 146.701C82.6041 144.382 83.269 142.081 84.2625 139.954C84.2924 139.89 84.3221 139.824 84.3554 139.76C84.8086 138.804 85.3393 137.886 85.9422 137.016C86.2738 136.541 86.6294 136.082 87.0074 135.643C87.9865 134.51 89.1381 133.537 90.4199 132.761C92.9754 131.214 95.998 130.5 98.8678 131.182C98.9412 131.2 99.0131 131.218 99.0866 131.237Z" fill="#F0F0F0"/>
<path d="M99.0755 131.331C95.4559 132.274 92.226 134.332 89.8446 137.212C89.3209 137.823 88.897 138.513 88.5883 139.256C88.3111 139.989 88.2357 140.783 88.3697 141.555C88.4803 142.278 88.6772 143.004 88.6099 143.741C88.5698 144.118 88.4505 144.482 88.2596 144.809C88.0688 145.136 87.8108 145.42 87.5026 145.641C86.749 146.211 85.8351 146.477 84.9324 146.706C83.93 146.96 82.8849 147.208 82.0763 147.891C81.9783 147.973 81.8555 147.817 81.9534 147.734C83.3602 146.547 85.3468 146.661 86.9112 145.789C87.6412 145.382 88.2527 144.753 88.389 143.902C88.5082 143.158 88.3058 142.409 88.1875 141.679C88.0457 140.927 88.0902 140.152 88.3174 139.422C88.5871 138.666 88.9837 137.961 89.4903 137.338C90.6083 135.917 91.9432 134.68 93.446 133.673C95.1548 132.513 97.0496 131.655 99.0485 131.134C99.1722 131.101 99.1984 131.299 99.0755 131.331Z" fill="white"/>
<path d="M90.557 136.24C90.1272 135.776 89.8768 135.174 89.8505 134.542C89.8241 133.91 90.0236 133.289 90.4133 132.791C90.4925 132.69 90.6528 132.808 90.5735 132.909C90.2098 133.373 90.024 133.951 90.0497 134.539C90.0754 135.127 90.3109 135.687 90.7137 136.117C90.8011 136.211 90.6439 136.333 90.557 136.24H90.557Z" fill="white"/>
<path d="M88.2655 141.196C89.5587 141.259 90.8282 140.833 91.8206 140.003C91.9189 139.92 92.0417 140.077 91.9435 140.159C90.9091 141.021 89.5872 141.462 88.2416 141.394C88.1133 141.387 88.1379 141.19 88.2655 141.196Z" fill="white"/>
<path d="M95.2045 132.772C95.3333 132.987 95.5134 133.166 95.7286 133.294C95.9438 133.421 96.1874 133.494 96.4375 133.504C96.5658 133.509 96.5411 133.706 96.4136 133.701C96.1373 133.689 95.8684 133.608 95.6303 133.468C95.3922 133.327 95.1922 133.131 95.0478 132.895C95.0323 132.874 95.0254 132.848 95.0286 132.822C95.0317 132.796 95.0446 132.772 95.0647 132.756C95.0855 132.739 95.1119 132.732 95.1381 132.735C95.1643 132.739 95.1881 132.752 95.2045 132.772Z" fill="white"/>
<path d="M188.525 125.851H119.568V48.1963H188.525V125.851Z" fill="white"/>
<path d="M188.525 125.851H119.568V48.1963H188.525V125.851ZM119.939 125.481H188.154V48.5664H119.939L119.939 125.481Z" fill="#CACACA"/>
<path d="M180.147 84.556H127.945C127.897 84.556 127.849 84.5464 127.804 84.5278C127.759 84.5092 127.718 84.4819 127.683 84.4476C127.649 84.4132 127.622 84.3724 127.603 84.3275C127.584 84.2826 127.575 84.2344 127.575 84.1858C127.575 84.1372 127.584 84.0891 127.603 84.0442C127.622 83.9993 127.649 83.9585 127.683 83.9241C127.718 83.8897 127.759 83.8625 127.804 83.8439C127.849 83.8252 127.897 83.8157 127.945 83.8157H180.147C180.246 83.8157 180.34 83.8547 180.409 83.9241C180.479 83.9935 180.518 84.0877 180.518 84.1858C180.518 84.284 180.479 84.3781 180.409 84.4476C180.34 84.517 180.246 84.556 180.147 84.556Z" fill="#E4E4E4"/>
<path d="M180.147 78.2076H127.945C127.847 78.2076 127.753 78.1686 127.683 78.0992C127.614 78.0298 127.575 77.9356 127.575 77.8374C127.575 77.7393 127.614 77.6451 127.683 77.5757C127.753 77.5063 127.847 77.4673 127.945 77.4673H180.147C180.246 77.4673 180.34 77.5063 180.409 77.5757C180.479 77.6451 180.518 77.7393 180.518 77.8374C180.518 77.9356 180.479 78.0298 180.409 78.0992C180.34 78.1686 180.246 78.2076 180.147 78.2076Z" fill="#E4E4E4"/>
<path d="M180.147 71.859H127.945C127.897 71.859 127.849 71.8494 127.804 71.8308C127.759 71.8122 127.718 71.7849 127.683 71.7506C127.649 71.7162 127.622 71.6754 127.603 71.6305C127.584 71.5856 127.575 71.5374 127.575 71.4888C127.575 71.4402 127.584 71.3921 127.603 71.3472C127.622 71.3022 127.649 71.2614 127.683 71.2271C127.718 71.1927 127.759 71.1654 127.804 71.1468C127.849 71.1282 127.897 71.1187 127.945 71.1187H180.147C180.246 71.1187 180.34 71.1577 180.409 71.2271C180.479 71.2965 180.518 71.3906 180.518 71.4888C180.518 71.587 180.479 71.6811 180.409 71.7506C180.34 71.82 180.246 71.859 180.147 71.859Z" fill="#E4E4E4"/>
<path d="M180.147 65.5103H127.945C127.847 65.5103 127.753 65.4713 127.683 65.4019C127.614 65.3325 127.575 65.2383 127.575 65.1402C127.575 65.042 127.614 64.9479 127.683 64.8784C127.753 64.809 127.847 64.77 127.945 64.77H180.147C180.246 64.77 180.34 64.809 180.409 64.8784C180.479 64.9479 180.518 65.042 180.518 65.1402C180.518 65.2383 180.479 65.3325 180.409 65.4019C180.34 65.4713 180.246 65.5103 180.147 65.5103Z" fill="#E4E4E4"/>
<path d="M180.147 90.2933H127.945C127.847 90.2933 127.753 90.2543 127.683 90.1849C127.614 90.1154 127.575 90.0213 127.575 89.9231C127.575 89.825 127.614 89.7308 127.683 89.6614C127.753 89.592 127.847 89.553 127.945 89.553H180.147C180.246 89.553 180.34 89.592 180.409 89.6614C180.479 89.7308 180.518 89.825 180.518 89.9231C180.518 90.0213 180.479 90.1154 180.409 90.1849C180.34 90.2543 180.246 90.2933 180.147 90.2933Z" fill="#E4E4E4"/>
<path d="M180.147 118.776H127.945C127.847 118.776 127.753 118.737 127.683 118.667C127.614 118.598 127.575 118.504 127.575 118.406C127.575 118.307 127.614 118.213 127.683 118.144C127.753 118.074 127.847 118.035 127.945 118.035H180.147C180.246 118.035 180.34 118.074 180.409 118.144C180.479 118.213 180.518 118.307 180.518 118.406C180.518 118.504 180.479 118.598 180.409 118.667C180.34 118.737 180.246 118.776 180.147 118.776Z" fill="#E4E4E4"/>
<path d="M167.642 112.834H140.45C140.268 112.834 140.094 112.761 139.966 112.633C139.837 112.505 139.765 112.331 139.765 112.149V96.1791C139.765 95.9976 139.837 95.8236 139.966 95.6953C140.094 95.567 140.268 95.4948 140.45 95.4946H167.642C167.824 95.4948 167.998 95.567 168.127 95.6953C168.255 95.8236 168.328 95.9976 168.328 96.1791V112.149C168.328 112.331 168.255 112.505 168.127 112.633C167.998 112.761 167.824 112.834 167.642 112.834Z" fill="white"/>
<path d="M158.562 103.71C158.423 103.562 158.256 103.444 158.071 103.361C157.886 103.279 157.686 103.235 157.483 103.231C157.281 103.228 157.079 103.265 156.891 103.34C156.703 103.416 156.532 103.529 156.388 103.672L148.736 111.312C148.534 111.514 148.26 111.627 147.974 111.627C147.689 111.628 147.415 111.515 147.212 111.314L146.078 110.185C145.938 110.045 145.772 109.934 145.589 109.858C145.406 109.783 145.209 109.744 145.011 109.744C144.813 109.744 144.617 109.783 144.434 109.858C144.251 109.934 144.084 110.045 143.944 110.185L141.75 112.378H166.342V112.065L158.562 103.71Z" fill="#326A32"/>
<path d="M167.642 112.834H140.45C140.268 112.834 140.094 112.761 139.966 112.633C139.837 112.505 139.765 112.331 139.765 112.149V96.1791C139.765 95.9976 139.837 95.8236 139.966 95.6953C140.094 95.567 140.268 95.4948 140.45 95.4946H167.642C167.824 95.4948 167.998 95.567 168.127 95.6953C168.255 95.8236 168.328 95.9976 168.328 96.1791V112.149C168.328 112.331 168.255 112.505 168.127 112.633C167.998 112.761 167.824 112.834 167.642 112.834ZM140.45 95.9509C140.39 95.951 140.332 95.9751 140.289 96.0178C140.246 96.0606 140.222 96.1186 140.222 96.1791V112.149C140.222 112.21 140.246 112.268 140.289 112.311C140.332 112.353 140.39 112.377 140.45 112.377H167.642C167.703 112.377 167.761 112.353 167.804 112.311C167.847 112.268 167.871 112.21 167.871 112.149V96.1791C167.871 96.1186 167.847 96.0606 167.804 96.0178C167.761 95.975 167.703 95.951 167.642 95.9509L140.45 95.9509Z" fill="#004900"/>
<path d="M102.087 110.164C102.156 109.922 102.171 109.667 102.131 109.418C102.09 109.169 101.996 108.932 101.854 108.723C101.711 108.515 101.525 108.34 101.308 108.211C101.091 108.082 100.848 108.002 100.597 107.977L99.1721 102.013L96.9883 104.336L98.6761 109.643C98.6618 110.068 98.8039 110.483 99.0755 110.81C99.3471 111.136 99.7294 111.352 100.15 111.417C100.57 111.481 101 111.389 101.357 111.158C101.714 110.927 101.974 110.574 102.087 110.164Z" fill="#FFB6B6"/>
<path d="M98.2782 108.001C98.1751 107.967 98.0804 107.911 98.0003 107.838C97.9201 107.765 97.8563 107.676 97.8129 107.576L94.7919 100.199C94.0216 98.43 93.9209 96.442 94.5087 94.6047L96.4444 88.5509C96.4739 88.2253 96.5673 87.9087 96.7194 87.6192C96.8714 87.3297 97.0792 87.0729 97.3307 86.8637C97.5822 86.6544 97.8726 86.4967 98.1852 86.3995C98.4978 86.3023 98.8266 86.2677 99.1526 86.2975C99.4787 86.3272 99.7956 86.4209 100.085 86.5731C100.375 86.7253 100.632 86.933 100.841 87.1844C101.051 87.4358 101.208 87.7259 101.305 88.0382C101.402 88.3504 101.436 88.6787 101.406 89.0042L98.8391 98.7527L100.558 106.409C100.585 106.565 100.564 106.726 100.496 106.87C100.428 107.013 100.318 107.133 100.18 107.212L98.9058 107.939C98.7691 108.017 98.6119 108.051 98.455 108.038C98.3949 108.032 98.3355 108.02 98.2782 108.001Z" fill="#E4E4E4"/>
<path d="M109.023 145.802H111.13L112.132 137.688H109.022L109.023 145.802Z" fill="#FFB6B6"/>
<path d="M108.485 145.115L112.635 145.115H112.635C113.336 145.115 114.008 145.393 114.504 145.888C115 146.383 115.279 147.055 115.279 147.755V147.841L108.485 147.841L108.485 145.115Z" fill="black"/>
<path d="M97.1656 145.802H99.2723L100.275 137.688H97.165L97.1656 145.802Z" fill="#FFB6B6"/>
<path d="M96.6279 145.115L100.777 145.115H100.777C101.479 145.115 102.151 145.393 102.647 145.888C103.143 146.383 103.421 147.055 103.421 147.755V147.841L96.6281 147.841L96.6279 145.115Z" fill="black"/>
<path d="M110.292 104.877L97.9364 103.792C97.9364 103.792 96.7157 111.569 96.8876 114.657C97.0594 117.745 97.2313 122.55 97.2313 122.55L95.8564 143.483L101.184 142.796L101.871 125.467L104.105 116.03L106.683 128.04L108.402 143.483L113.042 142.968L111.495 124.266C111.495 124.266 112.87 107.451 110.292 104.877Z" fill="black"/>
<path d="M105.308 82.0566C107.206 82.0566 108.745 80.5202 108.745 78.625C108.745 76.7297 107.206 75.1934 105.308 75.1934C103.41 75.1934 101.871 76.7297 101.871 78.625C101.871 80.5202 103.41 82.0566 105.308 82.0566Z" fill="#FFB8B8"/>
<path d="M109.072 86.2874L106.617 84.3363C106.617 84.3363 103.958 82.2883 102.399 83.8025L101.699 84.8019C101.699 84.8019 97.7294 86.2874 97.7294 88.1748L97.9182 98.5284C97.9182 98.5284 96.5433 103.847 98.6056 104.191L110.618 105.161L110.463 95.2683L109.072 86.2874Z" fill="#E4E4E4"/>
<path d="M102.644 81.6275C102.644 81.6275 99.0354 79.0538 100.926 75.9654C102.237 73.8228 104.955 73.9924 106.496 74.2972C106.911 74.3738 107.302 74.55 107.634 74.8107C107.966 75.0714 108.229 75.4088 108.401 75.7938C108.659 76.3943 108.659 76.9949 107.628 76.9949C105.566 76.9949 106.597 78.5391 106.597 78.5391C106.597 78.5391 105.222 78.8822 105.566 80.0833C105.909 81.2844 102.644 81.6275 102.644 81.6275Z" fill="black"/>
<path d="M121.472 104.37C121.408 104.126 121.291 103.899 121.13 103.705C120.968 103.51 120.766 103.354 120.538 103.246C120.309 103.139 120.06 103.082 119.807 103.081C119.555 103.08 119.305 103.135 119.076 103.24L114.815 98.8247L114.115 101.933L118.268 105.65C118.472 106.023 118.805 106.308 119.206 106.452C119.606 106.596 120.045 106.588 120.44 106.431C120.835 106.273 121.158 105.976 121.348 105.596C121.538 105.216 121.582 104.78 121.472 104.37H121.472Z" fill="#FFB6B6"/>
<path d="M117.091 104.437C116.985 104.46 116.875 104.46 116.769 104.437C116.662 104.415 116.562 104.37 116.474 104.307L110.12 99.4825C108.556 98.3493 107.459 96.6877 107.031 94.8069L105.62 88.6102C105.479 88.3147 105.398 87.9945 105.382 87.6679C105.366 87.3413 105.414 87.0146 105.524 86.7067C105.634 86.3987 105.804 86.1154 106.024 85.8731C106.244 85.6308 106.51 85.4342 106.806 85.2945C107.102 85.1548 107.423 85.0748 107.75 85.059C108.077 85.0433 108.404 85.0921 108.713 85.2027C109.021 85.3133 109.304 85.4835 109.547 85.7036C109.789 85.9237 109.985 86.1893 110.125 86.4853L112.871 96.185L118.246 101.909C118.348 102.03 118.411 102.18 118.426 102.338C118.441 102.496 118.407 102.655 118.328 102.793L117.6 104.065C117.522 104.201 117.404 104.311 117.262 104.379C117.207 104.405 117.15 104.424 117.091 104.437Z" fill="#E4E4E4"/>
<path d="M204.376 36.1778H105.122C105.084 36.1777 105.047 36.1625 105.021 36.1355C104.994 36.1085 104.979 36.072 104.979 36.034C104.979 35.9959 104.994 35.9594 105.021 35.9324C105.047 35.9055 105.084 35.8903 105.122 35.8901H204.376C204.414 35.8903 204.45 35.9055 204.477 35.9324C204.504 35.9594 204.519 35.9959 204.519 36.034C204.519 36.072 204.504 36.1085 204.477 36.1355C204.45 36.1625 204.414 36.1777 204.376 36.1778Z" fill="#CACACA"/>
<path d="M108.365 34.1642C109.24 34.1642 109.949 33.4559 109.949 32.5821C109.949 31.7083 109.24 31 108.365 31C107.49 31 106.78 31.7083 106.78 32.5821C106.78 33.4559 107.49 34.1642 108.365 34.1642Z" fill="#004900"/>
<path d="M113.839 34.1642C114.714 34.1642 115.423 33.4559 115.423 32.5821C115.423 31.7083 114.714 31 113.839 31C112.963 31 112.254 31.7083 112.254 32.5821C112.254 33.4559 112.963 34.1642 113.839 34.1642Z" fill="#004900"/>
<path d="M119.313 34.1642C120.188 34.1642 120.897 33.4559 120.897 32.5821C120.897 31.7083 120.188 31 119.313 31C118.437 31 117.728 31.7083 117.728 32.5821C117.728 33.4559 118.437 34.1642 119.313 34.1642Z" fill="#004900"/>
<path d="M201.096 31.9676H197.207C197.13 31.9674 197.057 31.937 197.003 31.883C196.95 31.8291 196.919 31.7561 196.919 31.68C196.919 31.6039 196.95 31.5309 197.003 31.4769C197.057 31.423 197.13 31.3926 197.207 31.3923H201.096C201.172 31.3926 201.245 31.423 201.299 31.4769C201.353 31.5309 201.383 31.6039 201.383 31.68C201.383 31.7561 201.353 31.8291 201.299 31.883C201.245 31.937 201.172 31.9674 201.096 31.9676Z" fill="#004900"/>
<path d="M201.096 33.0465H197.207C197.13 33.0462 197.057 33.0158 197.003 32.9619C196.95 32.908 196.919 32.835 196.919 32.7588C196.919 32.6827 196.95 32.6097 197.003 32.5558C197.057 32.5019 197.13 32.4715 197.207 32.4712H201.096C201.172 32.4715 201.245 32.5019 201.299 32.5558C201.353 32.6097 201.383 32.6827 201.383 32.7588C201.383 32.835 201.353 32.908 201.299 32.9619C201.245 33.0158 201.172 33.0462 201.096 33.0465Z" fill="#004900"/>
<path d="M201.096 34.1251H197.207C197.13 34.1249 197.057 34.0944 197.003 34.0405C196.95 33.9866 196.919 33.9136 196.919 33.8375C196.919 33.7613 196.95 33.6883 197.003 33.6344C197.057 33.5805 197.13 33.5501 197.207 33.5498H201.096C201.172 33.5501 201.245 33.5805 201.299 33.6344C201.353 33.6883 201.383 33.7613 201.383 33.8375C201.383 33.9136 201.353 33.9866 201.299 34.0405C201.245 34.0944 201.172 34.1249 201.096 34.1251Z" fill="#004900"/>
<path d="M139.647 147.885H74.1719C74.1263 147.885 74.0826 147.867 74.0503 147.834C74.0181 147.802 74 147.759 74 147.713C74 147.668 74.0181 147.624 74.0503 147.592C74.0826 147.56 74.1263 147.542 74.1719 147.542H139.647C139.693 147.542 139.736 147.56 139.769 147.592C139.801 147.624 139.819 147.668 139.819 147.713C139.819 147.759 139.801 147.802 139.769 147.834C139.736 147.867 139.693 147.885 139.647 147.885Z" fill="#CACACA"/>
<path d="M174.46 58.7902H133.684C133.456 58.795 133.235 58.7164 133.062 58.5692C132.889 58.422 132.777 58.2164 132.745 57.9916C132.733 57.8676 132.746 57.7423 132.785 57.6238C132.823 57.5052 132.887 57.3961 132.97 57.3035C133.054 57.2109 133.156 57.1369 133.27 57.0862C133.384 57.0356 133.508 57.0094 133.633 57.0094H174.396C174.627 57.0033 174.852 57.0828 175.028 57.2324C175.204 57.3821 175.318 57.5914 175.348 57.82C175.359 57.9431 175.344 58.0672 175.305 58.1844C175.265 58.3016 175.202 58.4092 175.118 58.5005C175.034 58.5917 174.933 58.6646 174.819 58.7145C174.706 58.7644 174.584 58.7901 174.46 58.7902Z" fill="#326A32"/>
</svg>
