<svg width="139" height="117" viewBox="0 0 139 117" fill="none" xmlns="http://www.w3.org/2000/svg">
<path d="M115.254 94.4144L69.1392 73.3949L92.8846 21.4624L139 42.4819L115.254 94.4144Z" fill="#F2F2F2"/>
<path d="M122.279 64.2442L87.3688 48.3319C87.3031 48.3019 87.2519 48.2471 87.2267 48.1795C87.2014 48.1119 87.2041 48.037 87.2341 47.9714C87.2641 47.9057 87.319 47.8547 87.3867 47.8294C87.4545 47.8042 87.5294 47.8069 87.5952 47.8368L122.506 63.7491C122.572 63.7791 122.623 63.8339 122.648 63.9016C122.673 63.9692 122.671 64.044 122.641 64.1097C122.611 64.1753 122.556 64.2264 122.488 64.2516C122.42 64.2769 122.345 64.2742 122.279 64.2442Z" fill="white"/>
<path d="M124.221 59.9986L89.3102 44.0863C89.2777 44.0715 89.2484 44.0504 89.224 44.0242C89.1996 43.9981 89.1806 43.9674 89.1681 43.9339C89.1556 43.9004 89.1498 43.8648 89.1511 43.8291C89.1523 43.7934 89.1606 43.7583 89.1755 43.7258C89.1904 43.6933 89.2115 43.664 89.2377 43.6396C89.2639 43.6153 89.2946 43.5963 89.3281 43.5838C89.3617 43.5713 89.3973 43.5656 89.4331 43.5668C89.4689 43.5681 89.504 43.5764 89.5366 43.5912L124.447 59.5035C124.48 59.5184 124.509 59.5395 124.533 59.5656C124.558 59.5918 124.577 59.6225 124.589 59.6559C124.602 59.6894 124.608 59.725 124.606 59.7608C124.605 59.7965 124.597 59.8316 124.582 59.8641C124.567 59.8966 124.546 59.9259 124.52 59.9502C124.494 59.9746 124.463 59.9935 124.429 60.006C124.396 60.0185 124.36 60.0243 124.324 60.023C124.289 60.0218 124.253 60.0135 124.221 59.9986Z" fill="white"/>
<path d="M126.162 55.753L91.2516 39.8407C91.2191 39.8259 91.1898 39.8048 91.1654 39.7786C91.141 39.7525 91.122 39.7218 91.1095 39.6883C91.097 39.6548 91.0912 39.6192 91.0925 39.5835C91.0937 39.5478 91.102 39.5127 91.1169 39.4802C91.1318 39.4476 91.1529 39.4184 91.1791 39.394C91.2053 39.3697 91.236 39.3507 91.2696 39.3382C91.3031 39.3257 91.3387 39.3199 91.3745 39.3212C91.4103 39.3225 91.4455 39.3308 91.478 39.3456L126.389 55.2579C126.454 55.288 126.505 55.3428 126.53 55.4104C126.556 55.4779 126.553 55.5527 126.523 55.6183C126.493 55.6838 126.438 55.7348 126.37 55.7601C126.303 55.7854 126.228 55.7828 126.162 55.753Z" fill="white"/>
<path d="M128.103 51.5072L93.1926 35.5949C93.16 35.58 93.1307 35.5589 93.1063 35.5328C93.0819 35.5066 93.0629 35.4759 93.0504 35.4424C93.0379 35.409 93.0321 35.3734 93.0334 35.3376C93.0346 35.3019 93.043 35.2668 93.0578 35.2343C93.0727 35.2018 93.0938 35.1725 93.12 35.1482C93.1462 35.1238 93.1769 35.1049 93.2105 35.0924C93.244 35.0799 93.2797 35.0741 93.3154 35.0754C93.3512 35.0766 93.3864 35.0849 93.4189 35.0998L128.33 51.0121C128.362 51.0269 128.391 51.048 128.416 51.0742C128.44 51.1003 128.459 51.131 128.472 51.1645C128.484 51.198 128.49 51.2336 128.489 51.2693C128.487 51.305 128.479 51.3401 128.464 51.3726C128.449 51.4052 128.428 51.4344 128.402 51.4588C128.376 51.4831 128.345 51.5021 128.312 51.5146C128.278 51.5271 128.242 51.5329 128.207 51.5316C128.171 51.5303 128.136 51.522 128.103 51.5072Z" fill="white"/>
<path d="M120.525 68.0812L85.6144 52.1688C85.5819 52.154 85.5526 52.1329 85.5282 52.1067C85.5038 52.0806 85.4848 52.0499 85.4723 52.0164C85.4598 51.9829 85.454 51.9473 85.4553 51.9116C85.4565 51.8759 85.4648 51.8408 85.4797 51.8083C85.4946 51.7758 85.5157 51.7465 85.5419 51.7222C85.5681 51.6978 85.5988 51.6788 85.6323 51.6663C85.6659 51.6539 85.7016 51.6481 85.7373 51.6493C85.7731 51.6506 85.8083 51.6589 85.8408 51.6737L120.751 67.5861C120.817 67.616 120.868 67.6709 120.894 67.7385C120.919 67.8061 120.916 67.881 120.886 67.9466C120.856 68.0123 120.801 68.0633 120.733 68.0886C120.666 68.1138 120.591 68.1111 120.525 68.0812V68.0812Z" fill="white"/>
<path d="M126.355 45.2796L99.0852 32.85C98.9317 32.784 98.8079 32.664 98.7373 32.5129C98.6666 32.3617 98.654 32.1899 98.702 32.0301C98.7313 31.9432 98.7786 31.8635 98.8407 31.796C98.9029 31.7285 98.9785 31.6748 99.0627 31.6384C99.147 31.602 99.238 31.5836 99.3298 31.5845C99.4216 31.5854 99.5121 31.6055 99.5957 31.6436L126.857 44.0693C127.013 44.1357 127.139 44.2574 127.211 44.411C127.283 44.5647 127.295 44.7394 127.246 44.9015C127.215 44.9873 127.167 45.0658 127.105 45.132C127.043 45.1983 126.967 45.2509 126.884 45.2865C126.8 45.322 126.709 45.3398 126.618 45.3386C126.527 45.3374 126.438 45.3173 126.355 45.2796Z" fill="white"/>
<path d="M21.4282 42.4819L67.5436 21.4624L91.289 73.3949L45.1737 94.4144L21.4282 42.4819Z" fill="#F2F2F2"/>
<path d="M38.1489 64.2442L73.0595 48.3319C73.0921 48.3171 73.1214 48.296 73.1458 48.2698C73.1702 48.2437 73.1892 48.213 73.2017 48.1795C73.2142 48.146 73.22 48.1104 73.2187 48.0747C73.2174 48.039 73.2091 48.0039 73.1942 47.9714C73.1794 47.9389 73.1583 47.9096 73.1321 47.8852C73.1059 47.8609 73.0751 47.8419 73.0416 47.8294C73.0081 47.8169 72.9724 47.8112 72.9366 47.8124C72.9009 47.8137 72.8657 47.822 72.8331 47.8368L37.9225 63.7491C37.89 63.764 37.8607 63.7851 37.8363 63.8112C37.8119 63.8374 37.7929 63.8681 37.7804 63.9016C37.7679 63.935 37.7621 63.9707 37.7634 64.0064C37.7646 64.0421 37.7729 64.0772 37.7878 64.1097C37.8027 64.1422 37.8238 64.1715 37.85 64.1958C37.8762 64.2202 37.9069 64.2391 37.9405 64.2516C37.974 64.2641 38.0097 64.2699 38.0454 64.2686C38.0812 64.2674 38.1164 64.2591 38.1489 64.2442Z" fill="white"/>
<path d="M36.2075 59.9986L71.1181 44.0863C71.1839 44.0563 71.235 44.0015 71.2603 43.9339C71.2855 43.8663 71.2829 43.7914 71.2528 43.7258C71.2228 43.6601 71.1679 43.6091 71.1002 43.5838C71.0325 43.5586 70.9575 43.5613 70.8917 43.5912L35.9811 59.5035C35.9486 59.5184 35.9193 59.5395 35.8949 59.5656C35.8705 59.5918 35.8515 59.6225 35.839 59.6559C35.8265 59.6894 35.8207 59.725 35.8219 59.7607C35.8232 59.7965 35.8315 59.8316 35.8464 59.8641C35.8613 59.8966 35.8824 59.9259 35.9086 59.9502C35.9348 59.9746 35.9655 59.9935 35.999 60.006C36.0326 60.0185 36.0682 60.0243 36.104 60.023C36.1398 60.0218 36.175 60.0135 36.2075 59.9986H36.2075Z" fill="white"/>
<path d="M34.2663 55.753L69.1769 39.8407C69.2427 39.8107 69.2938 39.7559 69.3191 39.6883C69.3444 39.6207 69.3417 39.5458 69.3117 39.4802C69.2817 39.4145 69.2267 39.3634 69.159 39.3382C69.0913 39.313 69.0163 39.3156 68.9505 39.3456L34.04 55.2579C33.9743 55.288 33.9232 55.3428 33.898 55.4104C33.8728 55.478 33.8755 55.5528 33.9055 55.6184C33.9355 55.684 33.9903 55.735 34.058 55.7603C34.1256 55.7855 34.2006 55.7829 34.2663 55.753Z" fill="white"/>
<path d="M32.3252 51.5072L67.2358 35.5949C67.2683 35.58 67.2976 35.5589 67.322 35.5328C67.3464 35.5066 67.3654 35.4759 67.3779 35.4424C67.3905 35.409 67.3962 35.3734 67.395 35.3376C67.3937 35.3019 67.3854 35.2668 67.3705 35.2343C67.3557 35.2018 67.3345 35.1725 67.3083 35.1482C67.2821 35.1238 67.2514 35.1049 67.2179 35.0924C67.1843 35.0799 67.1487 35.0741 67.1129 35.0754C67.0771 35.0766 67.042 35.0849 67.0094 35.0998L32.0988 51.0121C32.0331 51.0421 31.9819 51.0969 31.9567 51.1645C31.9314 51.2321 31.934 51.307 31.9641 51.3727C31.9941 51.4383 32.049 51.4894 32.1167 51.5146C32.1844 51.5398 32.2594 51.5372 32.3252 51.5072H32.3252Z" fill="white"/>
<path d="M39.9033 68.0811L74.8139 52.1688C74.8797 52.1389 74.9308 52.084 74.9561 52.0164C74.9813 51.9488 74.9787 51.8739 74.9487 51.8083C74.9186 51.7426 74.8637 51.6916 74.796 51.6663C74.7283 51.6411 74.6533 51.6438 74.5875 51.6737L39.6769 67.5861C39.6444 67.6009 39.6151 67.622 39.5907 67.6481C39.5663 67.6743 39.5473 67.705 39.5348 67.7385C39.5223 67.7719 39.5165 67.8076 39.5178 67.8433C39.519 67.879 39.5273 67.9141 39.5422 67.9466C39.5571 67.9791 39.5782 68.0084 39.6044 68.0327C39.6306 68.0571 39.6613 68.0761 39.6948 68.0885C39.7284 68.101 39.764 68.1068 39.7998 68.1055C39.8356 68.1043 39.8707 68.096 39.9033 68.0811H39.9033Z" fill="white"/>
<path d="M34.0735 45.2796L61.3432 32.85C61.4966 32.784 61.6204 32.664 61.6911 32.5129C61.7617 32.3617 61.7743 32.1899 61.7263 32.0301C61.697 31.9432 61.6498 31.8635 61.5876 31.796C61.5255 31.7285 61.4498 31.6748 61.3656 31.6384C61.2813 31.602 61.1904 31.5836 61.0986 31.5845C61.0068 31.5854 60.9162 31.6055 60.8327 31.6436L33.5714 44.0693C33.4151 44.1357 33.289 44.2574 33.2172 44.411C33.1455 44.5647 33.1332 44.7394 33.1828 44.9015C33.2131 44.9873 33.2609 45.0658 33.3232 45.1321C33.3855 45.1983 33.461 45.2509 33.5448 45.2865C33.6285 45.3221 33.7188 45.3398 33.8099 45.3386C33.9009 45.3374 33.9907 45.3173 34.0735 45.2796Z" fill="white"/>
<path d="M4.61021 103.803C4.90136 99.2997 7.4143 94.731 11.5976 93.0234C10.1872 97.7241 10.4874 102.771 12.4454 107.272C13.2067 109.005 14.2343 110.854 13.7233 112.676C13.4053 113.81 12.5165 114.716 11.4981 115.31C10.4796 115.904 9.32927 116.226 8.19323 116.542L7.97786 116.743C5.90627 112.732 4.31905 108.306 4.61021 103.803Z" fill="#F0F0F0"/>
<path d="M11.6446 93.1055C9.32342 96.0345 7.98555 99.6192 7.82106 103.351C7.77137 104.153 7.8487 104.959 8.05022 105.737C8.27107 106.489 8.68961 107.169 9.26237 107.705C9.78635 108.215 10.3815 108.677 10.7721 109.306C10.9672 109.63 11.0914 109.993 11.1365 110.369C11.1815 110.745 11.1464 111.126 11.0335 111.488C10.7756 112.396 10.2063 113.158 9.62353 113.883C8.97652 114.689 8.2917 115.515 8.05759 116.546C8.02922 116.671 7.83675 116.62 7.86507 116.495C8.27239 114.701 9.92731 113.598 10.6505 111.962C10.988 111.198 11.097 110.328 10.6929 109.567C10.3395 108.901 9.72612 108.425 9.1911 107.913C8.62469 107.398 8.19311 106.753 7.93409 106.033C7.69352 105.267 7.58523 104.466 7.61387 103.664C7.6495 101.857 7.96944 100.067 8.56199 98.3593C9.22744 96.4066 10.2225 94.582 11.5042 92.9644C11.5836 92.8643 11.7235 93.006 11.6446 93.1055V93.1055Z" fill="white"/>
<path d="M7.80347 102.146C7.18019 102.034 6.61727 101.703 6.21524 101.215C5.81322 100.726 5.59826 100.111 5.60877 99.4783C5.60943 99.4525 5.62009 99.428 5.6385 99.4099C5.65692 99.3918 5.68165 99.3816 5.70748 99.3814C5.73332 99.3811 5.75823 99.3909 5.77699 99.4086C5.79574 99.4264 5.80685 99.4507 5.808 99.4765C5.79713 100.065 5.99742 100.639 6.37272 101.093C6.74802 101.547 7.2736 101.852 7.85461 101.954C7.98084 101.976 7.92898 102.168 7.80347 102.146L7.80347 102.146Z" fill="white"/>
<path d="M8.96265 107.481C10.0331 106.754 10.7896 105.65 11.0814 104.391C11.1102 104.266 11.3027 104.317 11.2739 104.442C10.9678 105.752 10.1782 106.898 9.06262 107.653C8.95624 107.725 8.85685 107.552 8.96265 107.481Z" fill="white"/>
<path d="M9.42331 96.5838C9.65538 96.6775 9.90714 96.7122 10.156 96.6848C10.4048 96.6574 10.6429 96.5687 10.8489 96.4266C10.9543 96.3535 11.0536 96.526 10.9489 96.5987C10.7205 96.7545 10.4574 96.8522 10.1826 96.8831C9.90775 96.914 9.62951 96.8772 9.37217 96.776C9.34711 96.7685 9.32586 96.7518 9.31273 96.7292C9.2996 96.7066 9.29558 96.6798 9.30148 96.6544C9.30838 96.629 9.32505 96.6073 9.34786 96.5941C9.37068 96.5809 9.39779 96.5772 9.42331 96.5838Z" fill="white"/>
<path d="M25.0866 100.237C25.0221 100.284 24.9575 100.332 24.893 100.381C24.0289 101.025 23.2186 101.737 22.47 102.512C22.4112 102.571 22.3525 102.632 22.2954 102.692C20.512 104.578 19.0946 106.777 18.1154 109.18C17.7266 110.136 17.4113 111.12 17.1721 112.124C16.8419 113.511 16.5943 115.04 15.8466 116.203C15.7699 116.325 15.6858 116.442 15.5946 116.554L8.23912 116.99C8.22191 116.982 8.20471 116.977 8.18742 116.969L7.89453 117C7.90325 116.948 7.91342 116.893 7.92213 116.84C7.92706 116.81 7.93362 116.779 7.93855 116.749C7.94236 116.728 7.94624 116.708 7.9485 116.689C7.94975 116.682 7.95107 116.676 7.95241 116.671C7.95467 116.652 7.95876 116.635 7.96112 116.618C8.01713 116.314 8.07538 116.009 8.13586 115.705C8.13576 115.703 8.13576 115.703 8.1373 115.701C8.60412 113.382 9.26899 111.081 10.2625 108.954C10.2924 108.89 10.3221 108.824 10.3554 108.76C10.8086 107.804 11.3393 106.886 11.9422 106.016C12.2738 105.541 12.6294 105.082 13.0074 104.643C13.9865 103.51 15.1381 102.537 16.4199 101.761C18.9754 100.214 21.998 99.4999 24.8678 100.182C24.9412 100.2 25.0131 100.218 25.0866 100.237Z" fill="#F0F0F0"/>
<path d="M25.0755 100.331C21.4559 101.274 18.226 103.332 15.8446 106.212C15.3209 106.823 14.897 107.513 14.5883 108.256C14.3111 108.989 14.2357 109.783 14.3697 110.555C14.4803 111.278 14.6772 112.004 14.6099 112.741C14.5698 113.118 14.4505 113.482 14.2596 113.809C14.0688 114.136 13.8108 114.42 13.5026 114.641C12.749 115.211 11.8351 115.477 10.9324 115.706C9.93004 115.96 8.88489 116.208 8.07628 116.891C7.97831 116.973 7.85553 116.817 7.95336 116.734C9.3602 115.547 11.3468 115.661 12.9112 114.789C13.6412 114.382 14.2527 113.753 14.389 112.902C14.5082 112.158 14.3058 111.409 14.1875 110.679C14.0457 109.927 14.0902 109.152 14.3174 108.422C14.5871 107.666 14.9837 106.961 15.4903 106.338C16.6083 104.917 17.9432 103.68 19.446 102.673C21.1548 101.513 23.0496 100.655 25.0485 100.134C25.1722 100.101 25.1984 100.299 25.0755 100.331Z" fill="white"/>
<path d="M16.557 105.24C16.1272 104.776 15.8768 104.174 15.8505 103.542C15.8241 102.91 16.0236 102.289 16.4133 101.791C16.4925 101.69 16.6528 101.808 16.5735 101.909C16.2098 102.373 16.024 102.951 16.0497 103.539C16.0754 104.127 16.3109 104.687 16.7137 105.117C16.8011 105.211 16.6439 105.333 16.557 105.24H16.557Z" fill="white"/>
<path d="M14.2655 110.196C15.5587 110.259 16.8282 109.833 17.8206 109.003C17.9189 108.92 18.0417 109.077 17.9435 109.159C16.9091 110.021 15.5872 110.462 14.2416 110.394C14.1133 110.387 14.1379 110.19 14.2655 110.196Z" fill="white"/>
<path d="M21.2045 101.772C21.3333 101.987 21.5134 102.166 21.7286 102.294C21.9438 102.421 22.1874 102.494 22.4375 102.504C22.5658 102.509 22.5411 102.706 22.4136 102.701C22.1373 102.689 21.8684 102.608 21.6303 102.468C21.3922 102.327 21.1922 102.131 21.0478 101.895C21.0323 101.874 21.0254 101.848 21.0286 101.822C21.0317 101.796 21.0446 101.772 21.0647 101.756C21.0855 101.739 21.1119 101.732 21.1381 101.735C21.1643 101.739 21.1881 101.752 21.2045 101.772Z" fill="white"/>
<path d="M114.525 94.8509H45.5684V17.1963H114.525V94.8509Z" fill="white"/>
<path d="M114.525 94.8509H45.5684V17.1963H114.525V94.8509ZM45.9391 94.4807H114.154V17.5664H45.9391L45.9391 94.4807Z" fill="#CACACA"/>
<path d="M106.147 53.556H53.9454C53.8968 53.556 53.8485 53.5464 53.8036 53.5278C53.7586 53.5092 53.7177 53.4819 53.6833 53.4476C53.6489 53.4132 53.6216 53.3724 53.6029 53.3275C53.5843 53.2826 53.5747 53.2344 53.5747 53.1858C53.5747 53.1372 53.5843 53.0891 53.6029 53.0442C53.6216 52.9993 53.6489 52.9585 53.6833 52.9241C53.7177 52.8897 53.7586 52.8625 53.8036 52.8439C53.8485 52.8252 53.8968 52.8157 53.9454 52.8157H106.147C106.246 52.8157 106.34 52.8547 106.409 52.9241C106.479 52.9935 106.518 53.0877 106.518 53.1858C106.518 53.284 106.479 53.3781 106.409 53.4476C106.34 53.517 106.246 53.556 106.147 53.556Z" fill="#E4E4E4"/>
<path d="M106.147 47.2076H53.9454C53.8471 47.2076 53.7528 47.1686 53.6833 47.0992C53.6138 47.0298 53.5747 46.9356 53.5747 46.8374C53.5747 46.7393 53.6138 46.6451 53.6833 46.5757C53.7528 46.5063 53.8471 46.4673 53.9454 46.4673H106.147C106.246 46.4673 106.34 46.5063 106.409 46.5757C106.479 46.6451 106.518 46.7393 106.518 46.8374C106.518 46.9356 106.479 47.0298 106.409 47.0992C106.34 47.1686 106.246 47.2076 106.147 47.2076Z" fill="#E4E4E4"/>
<path d="M106.147 40.859H53.9454C53.8968 40.859 53.8485 40.8494 53.8036 40.8308C53.7586 40.8122 53.7177 40.7849 53.6833 40.7506C53.6489 40.7162 53.6216 40.6754 53.6029 40.6305C53.5843 40.5856 53.5747 40.5374 53.5747 40.4888C53.5747 40.4402 53.5843 40.3921 53.6029 40.3472C53.6216 40.3022 53.6489 40.2614 53.6833 40.2271C53.7177 40.1927 53.7586 40.1654 53.8036 40.1468C53.8485 40.1282 53.8968 40.1187 53.9454 40.1187H106.147C106.246 40.1187 106.34 40.1577 106.409 40.2271C106.479 40.2965 106.518 40.3906 106.518 40.4888C106.518 40.587 106.479 40.6811 106.409 40.7506C106.34 40.82 106.246 40.859 106.147 40.859Z" fill="#E4E4E4"/>
<path d="M106.147 34.5103H53.9454C53.8471 34.5103 53.7528 34.4713 53.6833 34.4019C53.6138 34.3325 53.5747 34.2383 53.5747 34.1402C53.5747 34.042 53.6138 33.9479 53.6833 33.8784C53.7528 33.809 53.8471 33.77 53.9454 33.77H106.147C106.246 33.77 106.34 33.809 106.409 33.8784C106.479 33.9479 106.518 34.042 106.518 34.1402C106.518 34.2383 106.479 34.3325 106.409 34.4019C106.34 34.4713 106.246 34.5103 106.147 34.5103Z" fill="#E4E4E4"/>
<path d="M106.147 59.2933H53.9454C53.8471 59.2933 53.7528 59.2543 53.6833 59.1849C53.6138 59.1154 53.5747 59.0213 53.5747 58.9231C53.5747 58.825 53.6138 58.7308 53.6833 58.6614C53.7528 58.592 53.8471 58.553 53.9454 58.553H106.147C106.246 58.553 106.34 58.592 106.409 58.6614C106.479 58.7308 106.518 58.825 106.518 58.9231C106.518 59.0213 106.479 59.1154 106.409 59.1849C106.34 59.2543 106.246 59.2933 106.147 59.2933Z" fill="#E4E4E4"/>
<path d="M106.147 87.7757H53.9454C53.8471 87.7757 53.7528 87.7367 53.6833 87.6673C53.6138 87.5979 53.5747 87.5037 53.5747 87.4056C53.5747 87.3074 53.6138 87.2132 53.6833 87.1438C53.7528 87.0744 53.8471 87.0354 53.9454 87.0354H106.147C106.246 87.0354 106.34 87.0744 106.409 87.1438C106.479 87.2132 106.518 87.3074 106.518 87.4056C106.518 87.5037 106.479 87.5979 106.409 87.6673C106.34 87.7367 106.246 87.7757 106.147 87.7757Z" fill="#E4E4E4"/>
<path d="M93.6423 81.8338H66.4502C66.2684 81.8336 66.0942 81.7614 65.9656 81.6331C65.8371 81.5048 65.7648 81.3308 65.7646 81.1493V65.1791C65.7648 64.9976 65.8371 64.8236 65.9656 64.6953C66.0942 64.567 66.2684 64.4948 66.4502 64.4946H93.6423C93.824 64.4948 93.9983 64.567 94.1268 64.6953C94.2553 64.8236 94.3276 64.9976 94.3278 65.1791V81.1493C94.3276 81.3308 94.2553 81.5048 94.1268 81.6331C93.9983 81.7614 93.824 81.8336 93.6423 81.8338Z" fill="white"/>
<path d="M84.5616 72.7103C84.4232 72.5624 84.2564 72.4437 84.0711 72.3614C83.8859 72.2791 83.686 72.2348 83.4832 72.2312C83.2805 72.2276 83.0791 72.2647 82.891 72.3403C82.703 72.416 82.532 72.5286 82.3884 72.6715L74.7359 80.3122C74.5337 80.5135 74.2599 80.6268 73.9743 80.6273C73.6887 80.6277 73.4145 80.5152 73.2117 80.3144L72.0784 79.1851C71.9382 79.0451 71.7719 78.9341 71.5888 78.8584C71.4057 78.7826 71.2094 78.7436 71.0112 78.7436C70.813 78.7436 70.6167 78.7826 70.4336 78.8584C70.2505 78.9341 70.0842 79.0451 69.944 79.1851L67.7505 81.3776H92.3421V81.065L84.5616 72.7103Z" fill="#326A32"/>
<path d="M93.6423 81.8338H66.4502C66.2684 81.8336 66.0942 81.7614 65.9656 81.6331C65.8371 81.5048 65.7648 81.3308 65.7646 81.1493V65.1791C65.7648 64.9976 65.8371 64.8236 65.9656 64.6953C66.0942 64.567 66.2684 64.4948 66.4502 64.4946H93.6423C93.824 64.4948 93.9983 64.567 94.1268 64.6953C94.2553 64.8236 94.3276 64.9976 94.3278 65.1791V81.1493C94.3276 81.3308 94.2553 81.5048 94.1268 81.6331C93.9983 81.7614 93.824 81.8336 93.6423 81.8338ZM66.4502 64.9509C66.3896 64.951 66.3315 64.9751 66.2887 65.0178C66.2458 65.0606 66.2217 65.1186 66.2217 65.1791V81.1493C66.2217 81.2098 66.2458 81.2678 66.2887 81.3106C66.3315 81.3533 66.3896 81.3774 66.4502 81.3775H93.6423C93.7029 81.3774 93.761 81.3533 93.8038 81.3106C93.8466 81.2678 93.8707 81.2098 93.8708 81.1493V65.1791C93.8707 65.1186 93.8466 65.0606 93.8038 65.0178C93.761 64.975 93.7029 64.951 93.6423 64.9509L66.4502 64.9509Z" fill="#004900"/>
<path d="M28.0871 79.1644C28.1561 78.9218 28.1709 78.667 28.1305 78.418C28.0902 78.169 27.9956 77.9318 27.8535 77.7232C27.7114 77.5147 27.5253 77.3397 27.3082 77.2108C27.0911 77.0818 26.8483 77.0019 26.5969 76.9768L25.1721 71.0127L22.9883 73.336L24.6761 78.6435C24.6618 79.0679 24.8039 79.4828 25.0755 79.8096C25.3471 80.1364 25.7294 80.3524 26.1499 80.4166C26.5703 80.4808 26.9997 80.3888 27.3568 80.158C27.7138 79.9273 27.9737 79.5737 28.0871 79.1644Z" fill="#FFB6B6"/>
<path d="M24.2782 77.0011C24.1751 76.9669 24.0804 76.9113 24.0003 76.8382C23.9201 76.7649 23.8563 76.6757 23.8129 76.5763L20.7919 69.1987C20.0216 67.43 19.9209 65.442 20.5087 63.6047L22.4444 57.5509C22.4739 57.2253 22.5673 56.9087 22.7194 56.6192C22.8714 56.3297 23.0792 56.0729 23.3307 55.8637C23.5822 55.6544 23.8726 55.4967 24.1852 55.3995C24.4978 55.3023 24.8266 55.2677 25.1526 55.2975C25.4787 55.3272 25.7956 55.4209 26.0854 55.5731C26.3752 55.7253 26.632 55.933 26.8413 56.1844C27.0506 56.4358 27.2083 56.7259 27.3052 57.0382C27.4021 57.3504 27.4364 57.6787 27.4062 58.0042L24.8391 67.7527L26.5584 75.4089C26.5854 75.5653 26.5635 75.7262 26.4959 75.8698C26.4283 76.0133 26.3181 76.1327 26.1803 76.2118L24.9058 76.9388C24.7691 77.0168 24.6119 77.0512 24.455 77.0376C24.3949 77.0325 24.3355 77.0202 24.2782 77.0011Z" fill="#E4E4E4"/>
<path d="M35.023 114.802H37.1297L38.1321 106.688H35.0225L35.023 114.802Z" fill="#FFB6B6"/>
<path d="M34.4854 114.115L38.6345 114.115H38.6347C39.336 114.115 40.0085 114.393 40.5044 114.888C41.0002 115.383 41.2788 116.055 41.2789 116.755V116.841L34.4855 116.841L34.4854 114.115Z" fill="black"/>
<path d="M23.1656 114.802H25.2723L26.2747 106.688H23.165L23.1656 114.802Z" fill="#FFB6B6"/>
<path d="M22.6279 114.115L26.7771 114.115H26.7773C27.4785 114.115 28.1511 114.393 28.6469 114.888C29.1428 115.383 29.4214 116.055 29.4215 116.755V116.841L22.6281 116.841L22.6279 114.115Z" fill="black"/>
<path d="M36.2919 73.8769L23.9364 72.7915C23.9364 72.7915 22.7157 80.5686 22.8876 83.657C23.0594 86.7455 23.2313 91.5497 23.2313 91.5497L21.8564 112.483L27.1838 111.796L27.8712 94.4666L30.1053 85.0297L32.6831 97.0403L34.4016 112.483L39.0415 111.968L37.4949 93.2655C37.4949 93.2655 38.8697 76.4506 36.2919 73.8769Z" fill="black"/>
<path d="M31.3081 51.0566C33.2063 51.0566 34.7451 49.5202 34.7451 47.625C34.7451 45.7297 33.2063 44.1934 31.3081 44.1934C29.4099 44.1934 27.8711 45.7297 27.8711 47.625C27.8711 49.5202 29.4099 51.0566 31.3081 51.0566Z" fill="#FFB8B8"/>
<path d="M35.0716 55.2874L32.6168 53.3363C32.6168 53.3363 29.9584 51.2883 28.399 52.8025L27.6989 53.8019C27.6989 53.8019 23.7294 55.2874 23.7294 57.1748L23.9182 67.5284C23.9182 67.5284 22.5433 72.8474 24.6056 73.1906L36.6182 74.1613L36.4633 64.2683L35.0716 55.2874Z" fill="#E4E4E4"/>
<path d="M28.6442 50.6275C28.6442 50.6275 25.0354 48.0538 26.9257 44.9654C28.2371 42.8228 30.9546 42.9924 32.4961 43.2972C32.9114 43.3738 33.3018 43.55 33.6337 43.8107C33.9656 44.0714 34.229 44.4088 34.4012 44.7938C34.659 45.3943 34.659 45.9949 33.6279 45.9949C31.5657 45.9949 32.5968 47.5391 32.5968 47.5391C32.5968 47.5391 31.222 47.8822 31.5657 49.0833C31.9094 50.2844 28.6442 50.6275 28.6442 50.6275Z" fill="black"/>
<path d="M47.4719 73.3696C47.4079 73.1256 47.2911 72.8986 47.1297 72.7045C46.9683 72.5105 46.7662 72.3541 46.5378 72.2465C46.3093 72.1388 46.06 72.0825 45.8073 72.0814C45.5547 72.0804 45.3049 72.1347 45.0756 72.2405L40.815 67.8247L40.1152 70.9334L44.2684 74.6501C44.4719 75.023 44.8054 75.3084 45.2056 75.4522C45.6058 75.5961 46.0449 75.5884 46.4398 75.4305C46.8347 75.2727 47.1579 74.9757 47.3481 74.5959C47.5383 74.216 47.5824 73.7797 47.4719 73.3696H47.4719Z" fill="#FFB6B6"/>
<path d="M43.091 73.4369C42.9848 73.4596 42.875 73.4598 42.7687 73.4374C42.6624 73.415 42.562 73.3704 42.4741 73.3068L36.1196 68.4825C34.5564 67.3493 33.4587 65.6877 33.0307 63.8069L31.6196 57.6102C31.4791 57.3147 31.3984 56.9945 31.382 56.6679C31.3656 56.3413 31.4139 56.0146 31.5241 55.7067C31.6343 55.3987 31.8043 55.1154 32.0242 54.8731C32.2442 54.6308 32.5099 54.4342 32.806 54.2945C33.1022 54.1548 33.423 54.0748 33.7502 54.059C34.0774 54.0433 34.4044 54.0921 34.7127 54.2027C35.0209 54.3133 35.3043 54.4835 35.5466 54.7036C35.7889 54.9237 35.9853 55.1893 36.1247 55.4853L38.8708 65.185L44.2457 70.9092C44.3484 71.0303 44.4114 71.1799 44.4262 71.3379C44.4409 71.4959 44.4067 71.6546 44.3282 71.7926L43.6 73.065C43.5219 73.2015 43.4039 73.3109 43.2619 73.3787C43.2074 73.4047 43.1501 73.4243 43.091 73.4369Z" fill="#E4E4E4"/>
<path d="M130.376 5.1778H31.1221C31.084 5.17766 31.0474 5.16245 31.0205 5.13549C30.9936 5.10853 30.9785 5.07203 30.9785 5.03397C30.9785 4.99591 30.9936 4.9594 31.0205 4.93244C31.0474 4.90548 31.084 4.89027 31.1221 4.89014H130.376C130.414 4.89027 130.45 4.90548 130.477 4.93244C130.504 4.9594 130.519 4.99591 130.519 5.03397C130.519 5.07203 130.504 5.10853 130.477 5.13549C130.45 5.16245 130.414 5.17766 130.376 5.1778Z" fill="#CACACA"/>
<path d="M34.3649 3.16422C35.24 3.16422 35.9495 2.45588 35.9495 1.58211C35.9495 0.708334 35.24 0 34.3649 0C33.4897 0 32.7803 0.708334 32.7803 1.58211C32.7803 2.45588 33.4897 3.16422 34.3649 3.16422Z" fill="#004900"/>
<path d="M39.8385 3.16422C40.7137 3.16422 41.4231 2.45588 41.4231 1.58211C41.4231 0.708334 40.7137 0 39.8385 0C38.9634 0 38.2539 0.708334 38.2539 1.58211C38.2539 2.45588 38.9634 3.16422 39.8385 3.16422Z" fill="#004900"/>
<path d="M45.3126 3.16422C46.1878 3.16422 46.8972 2.45588 46.8972 1.58211C46.8972 0.708334 46.1878 0 45.3126 0C44.4375 0 43.728 0.708334 43.728 1.58211C43.728 2.45588 44.4375 3.16422 45.3126 3.16422Z" fill="#004900"/>
<path d="M127.096 0.967646H123.207C123.13 0.967383 123.057 0.93696 123.003 0.883043C122.95 0.829125 122.919 0.756109 122.919 0.679989C122.919 0.60387 122.95 0.530855 123.003 0.476937C123.057 0.42302 123.13 0.392597 123.207 0.392334H127.096C127.172 0.392597 127.245 0.42302 127.299 0.476937C127.353 0.530855 127.383 0.60387 127.383 0.679989C127.383 0.756109 127.353 0.829125 127.299 0.883043C127.245 0.93696 127.172 0.967383 127.096 0.967646Z" fill="#004900"/>
<path d="M127.096 2.0465H123.207C123.13 2.04624 123.057 2.01582 123.003 1.9619C122.95 1.90798 122.919 1.83497 122.919 1.75885C122.919 1.68273 122.95 1.60971 123.003 1.55579C123.057 1.50188 123.13 1.47145 123.207 1.47119H127.096C127.172 1.47145 127.245 1.50188 127.299 1.55579C127.353 1.60971 127.383 1.68273 127.383 1.75885C127.383 1.83497 127.353 1.90798 127.299 1.9619C127.245 2.01582 127.172 2.04624 127.096 2.0465Z" fill="#004900"/>
<path d="M127.096 3.12512H123.207C123.13 3.12485 123.057 3.09443 123.003 3.04051C122.95 2.9866 122.919 2.91358 122.919 2.83746C122.919 2.76134 122.95 2.68832 123.003 2.63441C123.057 2.58049 123.13 2.55007 123.207 2.5498H127.096C127.172 2.55007 127.245 2.58049 127.299 2.63441C127.353 2.68832 127.383 2.76134 127.383 2.83746C127.383 2.91358 127.353 2.9866 127.299 3.04051C127.245 3.09443 127.172 3.12485 127.096 3.12512Z" fill="#004900"/>
<path d="M65.647 116.885H0.171851C0.126273 116.885 0.0825621 116.867 0.0503338 116.834C0.0181055 116.802 0 116.759 0 116.713C0 116.668 0.0181055 116.624 0.0503338 116.592C0.0825621 116.56 0.126273 116.542 0.171851 116.542H65.647C65.6926 116.542 65.7363 116.56 65.7686 116.592C65.8008 116.624 65.8189 116.668 65.8189 116.713C65.8189 116.759 65.8008 116.802 65.7686 116.834C65.7363 116.867 65.6926 116.885 65.647 116.885Z" fill="#CACACA"/>
<path d="M100.46 27.7902H59.6836C59.4563 27.795 59.2352 27.7164 59.0623 27.5692C58.8893 27.422 58.7766 27.2164 58.7455 26.9916C58.7326 26.8676 58.746 26.7423 58.7847 26.6238C58.8234 26.5052 58.8867 26.3961 58.9703 26.3035C59.0539 26.2109 59.1561 26.1369 59.2702 26.0862C59.3843 26.0356 59.5078 26.0094 59.6326 26.0094H100.396C100.627 26.0033 100.852 26.0828 101.028 26.2324C101.204 26.3821 101.318 26.5914 101.348 26.82C101.359 26.9431 101.344 27.0672 101.305 27.1844C101.265 27.3016 101.202 27.4092 101.118 27.5005C101.034 27.5917 100.933 27.6646 100.819 27.7145C100.706 27.7644 100.584 27.7901 100.46 27.7902Z" fill="#326A32"/>
</svg>
