<svg width="285" height="285" viewBox="0 0 285 285" fill="none" xmlns="http://www.w3.org/2000/svg">
<path d="M74.8426 183.4H77.7586V196H74.8426V183.4ZM83.8089 196.144C83.0049 196.144 82.2189 196.048 81.4509 195.856C80.6829 195.652 80.0709 195.4 79.6149 195.1L80.5509 193.084C80.9829 193.36 81.5049 193.588 82.1169 193.768C82.7289 193.936 83.3289 194.02 83.9169 194.02C85.1049 194.02 85.6989 193.726 85.6989 193.138C85.6989 192.862 85.5369 192.664 85.2129 192.544C84.8889 192.424 84.3909 192.322 83.7189 192.238C82.9269 192.118 82.2729 191.98 81.7569 191.824C81.2409 191.668 80.7909 191.392 80.4069 190.996C80.0349 190.6 79.8489 190.036 79.8489 189.304C79.8489 188.692 80.0229 188.152 80.3709 187.684C80.7309 187.204 81.2469 186.832 81.9189 186.568C82.6029 186.304 83.4069 186.172 84.3309 186.172C85.0149 186.172 85.6929 186.25 86.3649 186.406C87.0489 186.55 87.6129 186.754 88.0569 187.018L87.1209 189.016C86.2689 188.536 85.3389 188.296 84.3309 188.296C83.7309 188.296 83.2809 188.38 82.9809 188.548C82.6809 188.716 82.5309 188.932 82.5309 189.196C82.5309 189.496 82.6929 189.706 83.0169 189.826C83.3409 189.946 83.8569 190.06 84.5649 190.168C85.3569 190.3 86.0049 190.444 86.5089 190.6C87.0129 190.744 87.4509 191.014 87.8229 191.41C88.1949 191.806 88.3809 192.358 88.3809 193.066C88.3809 193.666 88.2009 194.2 87.8409 194.668C87.4809 195.136 86.9529 195.502 86.2569 195.766C85.5729 196.018 84.7569 196.144 83.8089 196.144ZM95.9994 186.172C97.1994 186.172 98.1654 186.532 98.8974 187.252C99.6414 187.972 100.013 189.04 100.013 190.456V196H97.2054V190.888C97.2054 190.12 97.0374 189.55 96.7014 189.178C96.3654 188.794 95.8794 188.602 95.2434 188.602C94.5354 188.602 93.9714 188.824 93.5514 189.268C93.1314 189.7 92.9214 190.348 92.9214 191.212V196H90.1134V182.644H92.9214V187.324C93.2934 186.952 93.7434 186.67 94.2714 186.478C94.7994 186.274 95.3754 186.172 95.9994 186.172ZM113.38 186.172C114.28 186.172 115.096 186.382 115.828 186.802C116.572 187.21 117.154 187.792 117.574 188.548C117.994 189.292 118.204 190.162 118.204 191.158C118.204 192.154 117.994 193.03 117.574 193.786C117.154 194.53 116.572 195.112 115.828 195.532C115.096 195.94 114.28 196.144 113.38 196.144C112.048 196.144 111.034 195.724 110.338 194.884V196H107.656V182.644H110.464V187.342C111.172 186.562 112.144 186.172 113.38 186.172ZM112.894 193.84C113.614 193.84 114.202 193.6 114.658 193.12C115.126 192.628 115.36 191.974 115.36 191.158C115.36 190.342 115.126 189.694 114.658 189.214C114.202 188.722 113.614 188.476 112.894 188.476C112.174 188.476 111.58 188.722 111.112 189.214C110.656 189.694 110.428 190.342 110.428 191.158C110.428 191.974 110.656 192.628 111.112 193.12C111.58 193.6 112.174 193.84 112.894 193.84ZM124.692 196.144C123.672 196.144 122.754 195.934 121.938 195.514C121.134 195.082 120.504 194.488 120.048 193.732C119.592 192.976 119.364 192.118 119.364 191.158C119.364 190.198 119.592 189.34 120.048 188.584C120.504 187.828 121.134 187.24 121.938 186.82C122.754 186.388 123.672 186.172 124.692 186.172C125.712 186.172 126.624 186.388 127.428 186.82C128.232 187.24 128.862 187.828 129.318 188.584C129.774 189.34 130.002 190.198 130.002 191.158C130.002 192.118 129.774 192.976 129.318 193.732C128.862 194.488 128.232 195.082 127.428 195.514C126.624 195.934 125.712 196.144 124.692 196.144ZM124.692 193.84C125.412 193.84 126 193.6 126.456 193.12C126.924 192.628 127.158 191.974 127.158 191.158C127.158 190.342 126.924 189.694 126.456 189.214C126 188.722 125.412 188.476 124.692 188.476C123.972 188.476 123.378 188.722 122.91 189.214C122.442 189.694 122.208 190.342 122.208 191.158C122.208 191.974 122.442 192.628 122.91 193.12C123.378 193.6 123.972 193.84 124.692 193.84ZM135.137 196.144C134.333 196.144 133.547 196.048 132.779 195.856C132.011 195.652 131.399 195.4 130.943 195.1L131.879 193.084C132.311 193.36 132.833 193.588 133.445 193.768C134.057 193.936 134.657 194.02 135.245 194.02C136.433 194.02 137.027 193.726 137.027 193.138C137.027 192.862 136.865 192.664 136.541 192.544C136.217 192.424 135.719 192.322 135.047 192.238C134.255 192.118 133.601 191.98 133.085 191.824C132.569 191.668 132.119 191.392 131.735 190.996C131.363 190.6 131.177 190.036 131.177 189.304C131.177 188.692 131.351 188.152 131.699 187.684C132.059 187.204 132.575 186.832 133.247 186.568C133.931 186.304 134.735 186.172 135.659 186.172C136.343 186.172 137.021 186.25 137.693 186.406C138.377 186.55 138.941 186.754 139.385 187.018L138.449 189.016C137.597 188.536 136.667 188.296 135.659 188.296C135.059 188.296 134.609 188.38 134.309 188.548C134.009 188.716 133.859 188.932 133.859 189.196C133.859 189.496 134.021 189.706 134.345 189.826C134.669 189.946 135.185 190.06 135.893 190.168C136.685 190.3 137.333 190.444 137.837 190.6C138.341 190.744 138.779 191.014 139.151 191.41C139.523 191.806 139.709 192.358 139.709 193.066C139.709 193.666 139.529 194.2 139.169 194.668C138.809 195.136 138.281 195.502 137.585 195.766C136.901 196.018 136.085 196.144 135.137 196.144ZM147.328 186.172C148.528 186.172 149.494 186.532 150.226 187.252C150.97 187.972 151.342 189.04 151.342 190.456V196H148.534V190.888C148.534 190.12 148.366 189.55 148.03 189.178C147.694 188.794 147.208 188.602 146.572 188.602C145.864 188.602 145.3 188.824 144.88 189.268C144.46 189.7 144.25 190.348 144.25 191.212V196H141.442V182.644H144.25V187.324C144.622 186.952 145.072 186.67 145.6 186.478C146.128 186.274 146.704 186.172 147.328 186.172ZM153.887 182.644H156.695V196H153.887V182.644ZM163.207 186.172C164.707 186.172 165.859 186.532 166.663 187.252C167.467 187.96 167.869 189.034 167.869 190.474V196H165.241V194.794C164.713 195.694 163.729 196.144 162.289 196.144C161.545 196.144 160.897 196.018 160.345 195.766C159.805 195.514 159.391 195.166 159.103 194.722C158.815 194.278 158.671 193.774 158.671 193.21C158.671 192.31 159.007 191.602 159.679 191.086C160.363 190.57 161.413 190.312 162.829 190.312H165.061C165.061 189.7 164.875 189.232 164.503 188.908C164.131 188.572 163.573 188.404 162.829 188.404C162.313 188.404 161.803 188.488 161.299 188.656C160.807 188.812 160.387 189.028 160.039 189.304L159.031 187.342C159.559 186.97 160.189 186.682 160.921 186.478C161.665 186.274 162.427 186.172 163.207 186.172ZM162.991 194.254C163.471 194.254 163.897 194.146 164.269 193.93C164.641 193.702 164.905 193.372 165.061 192.94V191.95H163.135C161.983 191.95 161.407 192.328 161.407 193.084C161.407 193.444 161.545 193.732 161.821 193.948C162.109 194.152 162.499 194.254 162.991 194.254ZM176.296 186.172C177.496 186.172 178.462 186.532 179.194 187.252C179.938 187.972 180.31 189.04 180.31 190.456V196H177.502V190.888C177.502 190.12 177.334 189.55 176.998 189.178C176.662 188.794 176.176 188.602 175.54 188.602C174.832 188.602 174.268 188.824 173.848 189.268C173.428 189.7 173.218 190.348 173.218 191.212V196H170.41V186.316H173.092V187.45C173.464 187.042 173.926 186.73 174.478 186.514C175.03 186.286 175.636 186.172 176.296 186.172ZM186.762 186.172C188.262 186.172 189.414 186.532 190.218 187.252C191.022 187.96 191.424 189.034 191.424 190.474V196H188.796V194.794C188.268 195.694 187.284 196.144 185.844 196.144C185.1 196.144 184.452 196.018 183.9 195.766C183.36 195.514 182.946 195.166 182.658 194.722C182.37 194.278 182.226 193.774 182.226 193.21C182.226 192.31 182.562 191.602 183.234 191.086C183.918 190.57 184.968 190.312 186.384 190.312H188.616C188.616 189.7 188.43 189.232 188.058 188.908C187.686 188.572 187.128 188.404 186.384 188.404C185.868 188.404 185.358 188.488 184.854 188.656C184.362 188.812 183.942 189.028 183.594 189.304L182.586 187.342C183.114 186.97 183.744 186.682 184.476 186.478C185.22 186.274 185.982 186.172 186.762 186.172ZM186.546 194.254C187.026 194.254 187.452 194.146 187.824 193.93C188.196 193.702 188.46 193.372 188.616 192.94V191.95H186.69C185.538 191.95 184.962 192.328 184.962 193.084C184.962 193.444 185.1 193.732 185.376 193.948C185.664 194.152 186.054 194.254 186.546 194.254ZM203.934 182.644V196H201.252V194.884C200.556 195.724 199.548 196.144 198.228 196.144C197.316 196.144 196.488 195.94 195.744 195.532C195.012 195.124 194.436 194.542 194.016 193.786C193.596 193.03 193.386 192.154 193.386 191.158C193.386 190.162 193.596 189.286 194.016 188.53C194.436 187.774 195.012 187.192 195.744 186.784C196.488 186.376 197.316 186.172 198.228 186.172C199.464 186.172 200.43 186.562 201.126 187.342V182.644H203.934ZM198.714 193.84C199.422 193.84 200.01 193.6 200.478 193.12C200.946 192.628 201.18 191.974 201.18 191.158C201.18 190.342 200.946 189.694 200.478 189.214C200.01 188.722 199.422 188.476 198.714 188.476C197.994 188.476 197.4 188.722 196.932 189.214C196.464 189.694 196.23 190.342 196.23 191.158C196.23 191.974 196.464 192.628 196.932 193.12C197.4 193.6 197.994 193.84 198.714 193.84ZM206.533 186.316H209.341V196H206.533V186.316ZM207.937 184.966C207.421 184.966 207.001 184.816 206.677 184.516C206.353 184.216 206.191 183.844 206.191 183.4C206.191 182.956 206.353 182.584 206.677 182.284C207.001 181.984 207.421 181.834 207.937 181.834C208.453 181.834 208.873 181.978 209.197 182.266C209.521 182.554 209.683 182.914 209.683 183.346C209.683 183.814 209.521 184.204 209.197 184.516C208.873 184.816 208.453 184.966 207.937 184.966Z" fill="black"/>
<path d="M64.3478 222.55H59.1398L58.0618 225H56.6198L61.0578 215.2H62.4438L66.8958 225H65.4258L64.3478 222.55ZM63.8578 221.43L61.7438 216.628L59.6298 221.43H63.8578ZM68.1617 214.612H69.5057V225H68.1617V214.612ZM75.2499 225.084C74.5125 225.084 73.8499 224.921 73.2619 224.594C72.6739 224.267 72.2119 223.819 71.8759 223.25C71.5492 222.671 71.3859 222.018 71.3859 221.29C71.3859 220.562 71.5492 219.913 71.8759 219.344C72.2119 218.765 72.6739 218.317 73.2619 218C73.8499 217.673 74.5125 217.51 75.2499 217.51C75.9872 217.51 76.6452 217.673 77.2239 218C77.8119 218.317 78.2692 218.765 78.5959 219.344C78.9319 219.913 79.0999 220.562 79.0999 221.29C79.0999 222.018 78.9319 222.671 78.5959 223.25C78.2692 223.819 77.8119 224.267 77.2239 224.594C76.6452 224.921 75.9872 225.084 75.2499 225.084ZM75.2499 223.908C75.7259 223.908 76.1505 223.801 76.5239 223.586C76.9065 223.362 77.2052 223.054 77.4199 222.662C77.6345 222.261 77.7419 221.803 77.7419 221.29C77.7419 220.777 77.6345 220.324 77.4199 219.932C77.2052 219.531 76.9065 219.223 76.5239 219.008C76.1505 218.793 75.7259 218.686 75.2499 218.686C74.7739 218.686 74.3445 218.793 73.9619 219.008C73.5885 219.223 73.2899 219.531 73.0659 219.932C72.8512 220.324 72.7439 220.777 72.7439 221.29C72.7439 221.803 72.8512 222.261 73.0659 222.662C73.2899 223.054 73.5885 223.362 73.9619 223.586C74.3445 223.801 74.7739 223.908 75.2499 223.908ZM87.9586 217.58V227.716H86.6146V223.88C86.3066 224.272 85.9286 224.571 85.4806 224.776C85.0419 224.981 84.5566 225.084 84.0246 225.084C83.3059 225.084 82.6619 224.925 82.0926 224.608C81.5232 224.291 81.0752 223.847 80.7486 223.278C80.4312 222.699 80.2726 222.037 80.2726 221.29C80.2726 220.543 80.4312 219.885 80.7486 219.316C81.0752 218.747 81.5232 218.303 82.0926 217.986C82.6619 217.669 83.3059 217.51 84.0246 217.51C84.5752 217.51 85.0792 217.617 85.5366 217.832C85.9939 218.037 86.3719 218.345 86.6706 218.756V217.58H87.9586ZM84.1366 223.908C84.6032 223.908 85.0279 223.801 85.4106 223.586C85.7932 223.362 86.0919 223.054 86.3066 222.662C86.5212 222.261 86.6286 221.803 86.6286 221.29C86.6286 220.777 86.5166 220.324 86.2926 219.932C86.0779 219.54 85.7792 219.237 85.3966 219.022C85.0232 218.798 84.6032 218.686 84.1366 218.686C83.6606 218.686 83.2312 218.793 82.8486 219.008C82.4752 219.223 82.1766 219.531 81.9526 219.932C81.7379 220.324 81.6306 220.777 81.6306 221.29C81.6306 221.803 81.7379 222.261 81.9526 222.662C82.1766 223.054 82.4752 223.362 82.8486 223.586C83.2312 223.801 83.6606 223.908 84.1366 223.908ZM93.2035 217.51C94.2302 217.51 95.0142 217.762 95.5555 218.266C96.1062 218.77 96.3815 219.521 96.3815 220.52V225H95.1075V224.02C94.8835 224.365 94.5615 224.631 94.1415 224.818C93.7309 224.995 93.2409 225.084 92.6715 225.084C91.8409 225.084 91.1735 224.883 90.6695 224.482C90.1749 224.081 89.9275 223.553 89.9275 222.9C89.9275 222.247 90.1655 221.724 90.6415 221.332C91.1175 220.931 91.8735 220.73 92.9095 220.73H95.0375V220.464C95.0375 219.885 94.8695 219.442 94.5335 219.134C94.1975 218.826 93.7029 218.672 93.0495 218.672C92.6109 218.672 92.1815 218.747 91.7615 218.896C91.3415 219.036 90.9869 219.227 90.6975 219.47L90.1375 218.462C90.5202 218.154 90.9775 217.921 91.5095 217.762C92.0415 217.594 92.6062 217.51 93.2035 217.51ZM92.8955 224.048C93.4089 224.048 93.8522 223.936 94.2255 223.712C94.5989 223.479 94.8695 223.152 95.0375 222.732V221.696H92.9655C91.8269 221.696 91.2575 222.079 91.2575 222.844C91.2575 223.217 91.4022 223.511 91.6915 223.726C91.9809 223.941 92.3822 224.048 92.8955 224.048ZM105.862 225.084C105.106 225.084 104.43 224.921 103.832 224.594C103.244 224.267 102.782 223.819 102.446 223.25C102.11 222.671 101.942 222.018 101.942 221.29C101.942 220.562 102.11 219.913 102.446 219.344C102.782 218.765 103.244 218.317 103.832 218C104.43 217.673 105.106 217.51 105.862 217.51C106.534 217.51 107.132 217.645 107.654 217.916C108.186 218.187 108.597 218.579 108.886 219.092L107.864 219.75C107.631 219.395 107.342 219.129 106.996 218.952C106.651 218.775 106.268 218.686 105.848 218.686C105.363 218.686 104.924 218.793 104.532 219.008C104.15 219.223 103.846 219.531 103.622 219.932C103.408 220.324 103.3 220.777 103.3 221.29C103.3 221.813 103.408 222.275 103.622 222.676C103.846 223.068 104.15 223.371 104.532 223.586C104.924 223.801 105.363 223.908 105.848 223.908C106.268 223.908 106.651 223.819 106.996 223.642C107.342 223.465 107.631 223.199 107.864 222.844L108.886 223.488C108.597 224.001 108.186 224.398 107.654 224.678C107.132 224.949 106.534 225.084 105.862 225.084ZM114.493 217.51C115.436 217.51 116.182 217.785 116.733 218.336C117.293 218.877 117.573 219.675 117.573 220.73V225H116.229V220.884C116.229 220.165 116.056 219.624 115.711 219.26C115.366 218.896 114.871 218.714 114.227 218.714C113.499 218.714 112.925 218.929 112.505 219.358C112.085 219.778 111.875 220.385 111.875 221.178V225H110.531V214.612H111.875V218.63C112.155 218.275 112.519 218 112.967 217.804C113.424 217.608 113.933 217.51 114.493 217.51ZM120.06 217.58H121.404V225H120.06V217.58ZM120.732 216.152C120.471 216.152 120.251 216.068 120.074 215.9C119.906 215.732 119.822 215.527 119.822 215.284C119.822 215.041 119.906 214.836 120.074 214.668C120.251 214.491 120.471 214.402 120.732 214.402C120.993 214.402 121.208 214.486 121.376 214.654C121.553 214.813 121.642 215.013 121.642 215.256C121.642 215.508 121.553 215.723 121.376 215.9C121.208 216.068 120.993 216.152 120.732 216.152ZM130.97 217.58V227.716H129.626V223.88C129.318 224.272 128.94 224.571 128.492 224.776C128.054 224.981 127.568 225.084 127.036 225.084C126.318 225.084 125.674 224.925 125.104 224.608C124.535 224.291 124.087 223.847 123.76 223.278C123.443 222.699 123.284 222.037 123.284 221.29C123.284 220.543 123.443 219.885 123.76 219.316C124.087 218.747 124.535 218.303 125.104 217.986C125.674 217.669 126.318 217.51 127.036 217.51C127.587 217.51 128.091 217.617 128.548 217.832C129.006 218.037 129.384 218.345 129.682 218.756V217.58H130.97ZM127.148 223.908C127.615 223.908 128.04 223.801 128.422 223.586C128.805 223.362 129.104 223.054 129.318 222.662C129.533 222.261 129.64 221.803 129.64 221.29C129.64 220.777 129.528 220.324 129.304 219.932C129.09 219.54 128.791 219.237 128.408 219.022C128.035 218.798 127.615 218.686 127.148 218.686C126.672 218.686 126.243 218.793 125.86 219.008C125.487 219.223 125.188 219.531 124.964 219.932C124.75 220.324 124.642 220.777 124.642 221.29C124.642 221.803 124.75 222.261 124.964 222.662C125.188 223.054 125.487 223.362 125.86 223.586C126.243 223.801 126.672 223.908 127.148 223.908ZM133.513 217.58H134.857V225H133.513V217.58ZM134.185 216.152C133.924 216.152 133.705 216.068 133.527 215.9C133.359 215.732 133.275 215.527 133.275 215.284C133.275 215.041 133.359 214.836 133.527 214.668C133.705 214.491 133.924 214.402 134.185 214.402C134.447 214.402 134.661 214.486 134.829 214.654C135.007 214.813 135.095 215.013 135.095 215.256C135.095 215.508 135.007 215.723 134.829 215.9C134.661 216.068 134.447 216.152 134.185 216.152ZM141.357 217.51C142.076 217.51 142.72 217.669 143.289 217.986C143.859 218.303 144.302 218.747 144.619 219.316C144.946 219.885 145.109 220.543 145.109 221.29C145.109 222.037 144.946 222.699 144.619 223.278C144.302 223.847 143.859 224.291 143.289 224.608C142.72 224.925 142.076 225.084 141.357 225.084C140.807 225.084 140.303 224.977 139.845 224.762C139.388 224.547 139.01 224.235 138.711 223.824V225H137.423V214.612H138.767V218.7C139.066 218.308 139.439 218.014 139.887 217.818C140.335 217.613 140.825 217.51 141.357 217.51ZM141.245 223.908C141.721 223.908 142.146 223.801 142.519 223.586C142.902 223.362 143.201 223.054 143.415 222.662C143.639 222.261 143.751 221.803 143.751 221.29C143.751 220.777 143.639 220.324 143.415 219.932C143.201 219.531 142.902 219.223 142.519 219.008C142.146 218.793 141.721 218.686 141.245 218.686C140.779 218.686 140.354 218.793 139.971 219.008C139.589 219.223 139.29 219.531 139.075 219.932C138.861 220.324 138.753 220.777 138.753 221.29C138.753 221.803 138.861 222.261 139.075 222.662C139.29 223.054 139.589 223.362 139.971 223.586C140.354 223.801 140.779 223.908 141.245 223.908ZM150.726 217.58H152.07V225H150.726V217.58ZM151.398 216.152C151.137 216.152 150.917 216.068 150.74 215.9C150.572 215.732 150.488 215.527 150.488 215.284C150.488 215.041 150.572 214.836 150.74 214.668C150.917 214.491 151.137 214.402 151.398 214.402C151.659 214.402 151.874 214.486 152.042 214.654C152.219 214.813 152.308 215.013 152.308 215.256C152.308 215.508 152.219 215.723 152.042 215.9C151.874 216.068 151.659 216.152 151.398 216.152ZM156.764 225.084C156.158 225.084 155.574 225.005 155.014 224.846C154.454 224.678 154.016 224.468 153.698 224.216L154.258 223.152C154.585 223.385 154.982 223.572 155.448 223.712C155.915 223.852 156.386 223.922 156.862 223.922C158.038 223.922 158.626 223.586 158.626 222.914C158.626 222.69 158.547 222.513 158.388 222.382C158.23 222.251 158.029 222.158 157.786 222.102C157.553 222.037 157.217 221.967 156.778 221.892C156.181 221.799 155.691 221.691 155.308 221.57C154.935 221.449 154.613 221.243 154.342 220.954C154.072 220.665 153.936 220.259 153.936 219.736C153.936 219.064 154.216 218.527 154.776 218.126C155.336 217.715 156.088 217.51 157.03 217.51C157.525 217.51 158.02 217.571 158.514 217.692C159.009 217.813 159.415 217.977 159.732 218.182L159.158 219.246C158.552 218.854 157.838 218.658 157.016 218.658C156.447 218.658 156.013 218.751 155.714 218.938C155.416 219.125 155.266 219.372 155.266 219.68C155.266 219.923 155.35 220.114 155.518 220.254C155.686 220.394 155.892 220.497 156.134 220.562C156.386 220.627 156.736 220.702 157.184 220.786C157.782 220.889 158.262 221.001 158.626 221.122C159 221.234 159.317 221.43 159.578 221.71C159.84 221.99 159.97 222.382 159.97 222.886C159.97 223.558 159.681 224.095 159.102 224.496C158.533 224.888 157.754 225.084 156.764 225.084ZM165.612 217.51C166.555 217.51 167.301 217.785 167.852 218.336C168.412 218.877 168.692 219.675 168.692 220.73V225H167.348V220.884C167.348 220.165 167.175 219.624 166.83 219.26C166.485 218.896 165.99 218.714 165.346 218.714C164.618 218.714 164.044 218.929 163.624 219.358C163.204 219.778 162.994 220.385 162.994 221.178V225H161.65V214.612H162.994V218.63C163.274 218.275 163.638 218 164.086 217.804C164.543 217.608 165.052 217.51 165.612 217.51ZM177.823 221.542L176.283 222.97V225H174.939V214.612H176.283V221.276L180.329 217.58H181.953L178.831 220.646L182.261 225H180.609L177.823 221.542ZM189.958 221.332C189.958 221.435 189.948 221.57 189.93 221.738H183.91C183.994 222.391 184.278 222.919 184.764 223.32C185.258 223.712 185.87 223.908 186.598 223.908C187.484 223.908 188.198 223.609 188.74 223.012L189.482 223.88C189.146 224.272 188.726 224.571 188.222 224.776C187.727 224.981 187.172 225.084 186.556 225.084C185.772 225.084 185.076 224.925 184.47 224.608C183.863 224.281 183.392 223.829 183.056 223.25C182.729 222.671 182.566 222.018 182.566 221.29C182.566 220.571 182.724 219.923 183.042 219.344C183.368 218.765 183.812 218.317 184.372 218C184.941 217.673 185.58 217.51 186.29 217.51C186.999 217.51 187.629 217.673 188.18 218C188.74 218.317 189.174 218.765 189.482 219.344C189.799 219.923 189.958 220.585 189.958 221.332ZM186.29 218.644C185.646 218.644 185.104 218.84 184.666 219.232C184.236 219.624 183.984 220.137 183.91 220.772H188.67C188.595 220.147 188.338 219.638 187.9 219.246C187.47 218.845 186.934 218.644 186.29 218.644ZM191.824 214.612H193.168V225H191.824V214.612ZM195.734 217.58H197.078V225H195.734V217.58ZM196.406 216.152C196.145 216.152 195.925 216.068 195.748 215.9C195.58 215.732 195.496 215.527 195.496 215.284C195.496 215.041 195.58 214.836 195.748 214.668C195.925 214.491 196.145 214.402 196.406 214.402C196.667 214.402 196.882 214.486 197.05 214.654C197.227 214.813 197.316 215.013 197.316 215.256C197.316 215.508 197.227 215.723 197.05 215.9C196.882 216.068 196.667 216.152 196.406 216.152ZM201.772 225.084C201.165 225.084 200.582 225.005 200.022 224.846C199.462 224.678 199.023 224.468 198.706 224.216L199.266 223.152C199.593 223.385 199.989 223.572 200.456 223.712C200.923 223.852 201.394 223.922 201.87 223.922C203.046 223.922 203.634 223.586 203.634 222.914C203.634 222.69 203.555 222.513 203.396 222.382C203.237 222.251 203.037 222.158 202.794 222.102C202.561 222.037 202.225 221.967 201.786 221.892C201.189 221.799 200.699 221.691 200.316 221.57C199.943 221.449 199.621 221.243 199.35 220.954C199.079 220.665 198.944 220.259 198.944 219.736C198.944 219.064 199.224 218.527 199.784 218.126C200.344 217.715 201.095 217.51 202.038 217.51C202.533 217.51 203.027 217.571 203.522 217.692C204.017 217.813 204.423 217.977 204.74 218.182L204.166 219.246C203.559 218.854 202.845 218.658 202.024 218.658C201.455 218.658 201.021 218.751 200.722 218.938C200.423 219.125 200.274 219.372 200.274 219.68C200.274 219.923 200.358 220.114 200.526 220.254C200.694 220.394 200.899 220.497 201.142 220.562C201.394 220.627 201.744 220.702 202.192 220.786C202.789 220.889 203.27 221.001 203.634 221.122C204.007 221.234 204.325 221.43 204.586 221.71C204.847 221.99 204.978 222.382 204.978 222.886C204.978 223.558 204.689 224.095 204.11 224.496C203.541 224.888 202.761 225.084 201.772 225.084ZM210.62 217.51C211.562 217.51 212.309 217.785 212.86 218.336C213.42 218.877 213.7 219.675 213.7 220.73V225H212.356V220.884C212.356 220.165 212.183 219.624 211.838 219.26C211.492 218.896 210.998 218.714 210.354 218.714C209.626 218.714 209.052 218.929 208.632 219.358C208.212 219.778 208.002 220.385 208.002 221.178V225H206.658V214.612H208.002V218.63C208.282 218.275 208.646 218 209.094 217.804C209.551 217.608 210.06 217.51 210.62 217.51ZM216.187 217.58H217.531V225H216.187V217.58ZM216.859 216.152C216.598 216.152 216.378 216.068 216.201 215.9C216.033 215.732 215.949 215.527 215.949 215.284C215.949 215.041 216.033 214.836 216.201 214.668C216.378 214.491 216.598 214.402 216.859 214.402C217.12 214.402 217.335 214.486 217.503 214.654C217.68 214.813 217.769 215.013 217.769 215.256C217.769 215.508 217.68 215.723 217.503 215.9C217.335 216.068 217.12 216.152 216.859 216.152ZM224.031 217.51C224.75 217.51 225.394 217.669 225.963 217.986C226.533 218.303 226.976 218.747 227.293 219.316C227.62 219.885 227.783 220.543 227.783 221.29C227.783 222.037 227.62 222.699 227.293 223.278C226.976 223.847 226.533 224.291 225.963 224.608C225.394 224.925 224.75 225.084 224.031 225.084C223.481 225.084 222.977 224.977 222.519 224.762C222.062 224.547 221.684 224.235 221.385 223.824V225H220.097V214.612H221.441V218.7C221.74 218.308 222.113 218.014 222.561 217.818C223.009 217.613 223.499 217.51 224.031 217.51ZM223.919 223.908C224.395 223.908 224.82 223.801 225.193 223.586C225.576 223.362 225.875 223.054 226.089 222.662C226.313 222.261 226.425 221.803 226.425 221.29C226.425 220.777 226.313 220.324 226.089 219.932C225.875 219.531 225.576 219.223 225.193 219.008C224.82 218.793 224.395 218.686 223.919 218.686C223.453 218.686 223.028 218.793 222.645 219.008C222.263 219.223 221.964 219.531 221.749 219.932C221.535 220.324 221.427 220.777 221.427 221.29C221.427 221.803 221.535 222.261 221.749 222.662C221.964 223.054 222.263 223.362 222.645 223.586C223.028 223.801 223.453 223.908 223.919 223.908ZM60.2655 243.084C59.5281 243.084 58.8655 242.921 58.2775 242.594C57.6895 242.267 57.2275 241.819 56.8915 241.25C56.5648 240.671 56.4015 240.018 56.4015 239.29C56.4015 238.562 56.5648 237.913 56.8915 237.344C57.2275 236.765 57.6895 236.317 58.2775 236C58.8655 235.673 59.5281 235.51 60.2655 235.51C61.0028 235.51 61.6608 235.673 62.2395 236C62.8275 236.317 63.2848 236.765 63.6115 237.344C63.9475 237.913 64.1155 238.562 64.1155 239.29C64.1155 240.018 63.9475 240.671 63.6115 241.25C63.2848 241.819 62.8275 242.267 62.2395 242.594C61.6608 242.921 61.0028 243.084 60.2655 243.084ZM60.2655 241.908C60.7415 241.908 61.1661 241.801 61.5395 241.586C61.9221 241.362 62.2208 241.054 62.4355 240.662C62.6501 240.261 62.7575 239.803 62.7575 239.29C62.7575 238.777 62.6501 238.324 62.4355 237.932C62.2208 237.531 61.9221 237.223 61.5395 237.008C61.1661 236.793 60.7415 236.686 60.2655 236.686C59.7895 236.686 59.3601 236.793 58.9775 237.008C58.6041 237.223 58.3055 237.531 58.0815 237.932C57.8668 238.324 57.7595 238.777 57.7595 239.29C57.7595 239.803 57.8668 240.261 58.0815 240.662C58.3055 241.054 58.6041 241.362 58.9775 241.586C59.3601 241.801 59.7895 241.908 60.2655 241.908ZM65.9742 232.612H67.3182V243H65.9742V232.612ZM76.9824 235.58V241.992C76.9824 243.289 76.6604 244.246 76.0164 244.862C75.3724 245.487 74.411 245.8 73.1324 245.8C72.4324 245.8 71.765 245.702 71.1304 245.506C70.4957 245.319 69.9824 245.049 69.5904 244.694L70.2344 243.658C70.5797 243.957 71.0044 244.19 71.5084 244.358C72.0217 244.535 72.549 244.624 73.0904 244.624C73.9584 244.624 74.5977 244.419 75.0084 244.008C75.4284 243.597 75.6384 242.972 75.6384 242.132V241.544C75.321 241.927 74.929 242.216 74.4624 242.412C74.005 242.599 73.5057 242.692 72.9644 242.692C72.255 242.692 71.611 242.543 71.0324 242.244C70.463 241.936 70.015 241.511 69.6884 240.97C69.3617 240.419 69.1984 239.794 69.1984 239.094C69.1984 238.394 69.3617 237.773 69.6884 237.232C70.015 236.681 70.463 236.257 71.0324 235.958C71.611 235.659 72.255 235.51 72.9644 235.51C73.5244 235.51 74.0424 235.613 74.5184 235.818C75.0037 236.023 75.4004 236.327 75.7084 236.728V235.58H76.9824ZM73.1184 241.516C73.6037 241.516 74.0377 241.413 74.4204 241.208C74.8124 241.003 75.1157 240.718 75.3304 240.354C75.5544 239.981 75.6664 239.561 75.6664 239.094C75.6664 238.375 75.4284 237.797 74.9524 237.358C74.4764 236.91 73.865 236.686 73.1184 236.686C72.3624 236.686 71.7464 236.91 71.2704 237.358C70.7944 237.797 70.5564 238.375 70.5564 239.094C70.5564 239.561 70.6637 239.981 70.8784 240.354C71.1024 240.718 71.4057 241.003 71.7884 241.208C72.1804 241.413 72.6237 241.516 73.1184 241.516ZM83.5124 235.51C84.455 235.51 85.2017 235.785 85.7524 236.336C86.3124 236.877 86.5924 237.675 86.5924 238.73V243H85.2484V238.884C85.2484 238.165 85.0757 237.624 84.7304 237.26C84.385 236.896 83.8904 236.714 83.2464 236.714C82.5184 236.714 81.9444 236.929 81.5244 237.358C81.1044 237.778 80.8944 238.385 80.8944 239.178V243H79.5504V235.58H80.8384V236.7C81.109 236.317 81.473 236.023 81.9304 235.818C82.397 235.613 82.9244 235.51 83.5124 235.51ZM89.0797 235.58H90.4237V243H89.0797V235.58ZM89.7517 234.152C89.4903 234.152 89.271 234.068 89.0937 233.9C88.9257 233.732 88.8417 233.527 88.8417 233.284C88.8417 233.041 88.9257 232.836 89.0937 232.668C89.271 232.491 89.4903 232.402 89.7517 232.402C90.013 232.402 90.2277 232.486 90.3957 232.654C90.573 232.813 90.6617 233.013 90.6617 233.256C90.6617 233.508 90.573 233.723 90.3957 233.9C90.2277 234.068 90.013 234.152 89.7517 234.152ZM96.9518 235.51C97.8945 235.51 98.6412 235.785 99.1918 236.336C99.7518 236.877 100.032 237.675 100.032 238.73V243H98.6878V238.884C98.6878 238.165 98.5152 237.624 98.1698 237.26C97.8245 236.896 97.3298 236.714 96.6858 236.714C95.9578 236.714 95.3838 236.929 94.9638 237.358C94.5438 237.778 94.3338 238.385 94.3338 239.178V243H92.9898V235.58H94.2778V236.7C94.5485 236.317 94.9125 236.023 95.3698 235.818C95.8365 235.613 96.3638 235.51 96.9518 235.51ZM109.658 235.58V241.992C109.658 243.289 109.336 244.246 108.692 244.862C108.048 245.487 107.087 245.8 105.808 245.8C105.108 245.8 104.441 245.702 103.806 245.506C103.171 245.319 102.658 245.049 102.266 244.694L102.91 243.658C103.255 243.957 103.68 244.19 104.184 244.358C104.697 244.535 105.225 244.624 105.766 244.624C106.634 244.624 107.273 244.419 107.684 244.008C108.104 243.597 108.314 242.972 108.314 242.132V241.544C107.997 241.927 107.605 242.216 107.138 242.412C106.681 242.599 106.181 242.692 105.64 242.692C104.931 242.692 104.287 242.543 103.708 242.244C103.139 241.936 102.691 241.511 102.364 240.97C102.037 240.419 101.874 239.794 101.874 239.094C101.874 238.394 102.037 237.773 102.364 237.232C102.691 236.681 103.139 236.257 103.708 235.958C104.287 235.659 104.931 235.51 105.64 235.51C106.2 235.51 106.718 235.613 107.194 235.818C107.679 236.023 108.076 236.327 108.384 236.728V235.58H109.658ZM105.794 241.516C106.279 241.516 106.713 241.413 107.096 241.208C107.488 241.003 107.791 240.718 108.006 240.354C108.23 239.981 108.342 239.561 108.342 239.094C108.342 238.375 108.104 237.797 107.628 237.358C107.152 236.91 106.541 236.686 105.794 236.686C105.038 236.686 104.422 236.91 103.946 237.358C103.47 237.797 103.232 238.375 103.232 239.094C103.232 239.561 103.339 239.981 103.554 240.354C103.778 240.718 104.081 241.003 104.464 241.208C104.856 241.413 105.299 241.516 105.794 241.516ZM112.226 235.58H113.57V243H112.226V235.58ZM112.898 234.152C112.637 234.152 112.417 234.068 112.24 233.9C112.072 233.732 111.988 233.527 111.988 233.284C111.988 233.041 112.072 232.836 112.24 232.668C112.417 232.491 112.637 232.402 112.898 232.402C113.159 232.402 113.374 232.486 113.542 232.654C113.719 232.813 113.808 233.013 113.808 233.256C113.808 233.508 113.719 233.723 113.542 233.9C113.374 234.068 113.159 234.152 112.898 234.152ZM121.638 241.894V243H115.422V242.132L119.804 236.686H115.506V235.58H121.526V236.462L117.144 241.894H121.638ZM130.328 232.612V243H129.04V241.824C128.741 242.235 128.363 242.547 127.906 242.762C127.448 242.977 126.944 243.084 126.394 243.084C125.675 243.084 125.031 242.925 124.462 242.608C123.892 242.291 123.444 241.847 123.118 241.278C122.8 240.699 122.642 240.037 122.642 239.29C122.642 238.543 122.8 237.885 123.118 237.316C123.444 236.747 123.892 236.303 124.462 235.986C125.031 235.669 125.675 235.51 126.394 235.51C126.926 235.51 127.416 235.613 127.864 235.818C128.312 236.014 128.685 236.308 128.984 236.7V232.612H130.328ZM126.506 241.908C126.972 241.908 127.397 241.801 127.78 241.586C128.162 241.362 128.461 241.054 128.676 240.662C128.89 240.261 128.998 239.803 128.998 239.29C128.998 238.777 128.89 238.324 128.676 237.932C128.461 237.531 128.162 237.223 127.78 237.008C127.397 236.793 126.972 236.686 126.506 236.686C126.03 236.686 125.6 236.793 125.218 237.008C124.844 237.223 124.546 237.531 124.322 237.932C124.107 238.324 124 238.777 124 239.29C124 239.803 124.107 240.261 124.322 240.662C124.546 241.054 124.844 241.362 125.218 241.586C125.6 241.801 126.03 241.908 126.506 241.908ZM135.573 235.51C136.599 235.51 137.383 235.762 137.925 236.266C138.475 236.77 138.751 237.521 138.751 238.52V243H137.477V242.02C137.253 242.365 136.931 242.631 136.511 242.818C136.1 242.995 135.61 243.084 135.041 243.084C134.21 243.084 133.543 242.883 133.039 242.482C132.544 242.081 132.297 241.553 132.297 240.9C132.297 240.247 132.535 239.724 133.011 239.332C133.487 238.931 134.243 238.73 135.279 238.73H137.407V238.464C137.407 237.885 137.239 237.442 136.903 237.134C136.567 236.826 136.072 236.672 135.419 236.672C134.98 236.672 134.551 236.747 134.131 236.896C133.711 237.036 133.356 237.227 133.067 237.47L132.507 236.462C132.889 236.154 133.347 235.921 133.879 235.762C134.411 235.594 134.975 235.51 135.573 235.51ZM135.265 242.048C135.778 242.048 136.221 241.936 136.595 241.712C136.968 241.479 137.239 241.152 137.407 240.732V239.696H135.335C134.196 239.696 133.627 240.079 133.627 240.844C133.627 241.217 133.771 241.511 134.061 241.726C134.35 241.941 134.751 242.048 135.265 242.048ZM145.2 235.51C146.143 235.51 146.889 235.785 147.44 236.336C148 236.877 148.28 237.675 148.28 238.73V243H146.936V238.884C146.936 238.165 146.763 237.624 146.418 237.26C146.073 236.896 145.578 236.714 144.934 236.714C144.206 236.714 143.632 236.929 143.212 237.358C142.792 237.778 142.582 238.385 142.582 239.178V243H141.238V235.58H142.526V236.7C142.797 236.317 143.161 236.023 143.618 235.818C144.085 235.613 144.612 235.51 145.2 235.51ZM156.655 243.084C156.048 243.084 155.465 243.005 154.905 242.846C154.345 242.678 153.906 242.468 153.589 242.216L154.149 241.152C154.476 241.385 154.872 241.572 155.339 241.712C155.806 241.852 156.277 241.922 156.753 241.922C157.929 241.922 158.517 241.586 158.517 240.914C158.517 240.69 158.438 240.513 158.279 240.382C158.12 240.251 157.92 240.158 157.677 240.102C157.444 240.037 157.108 239.967 156.669 239.892C156.072 239.799 155.582 239.691 155.199 239.57C154.826 239.449 154.504 239.243 154.233 238.954C153.962 238.665 153.827 238.259 153.827 237.736C153.827 237.064 154.107 236.527 154.667 236.126C155.227 235.715 155.978 235.51 156.921 235.51C157.416 235.51 157.91 235.571 158.405 235.692C158.9 235.813 159.306 235.977 159.623 236.182L159.049 237.246C158.442 236.854 157.728 236.658 156.907 236.658C156.338 236.658 155.904 236.751 155.605 236.938C155.306 237.125 155.157 237.372 155.157 237.68C155.157 237.923 155.241 238.114 155.409 238.254C155.577 238.394 155.782 238.497 156.025 238.562C156.277 238.627 156.627 238.702 157.075 238.786C157.672 238.889 158.153 239.001 158.517 239.122C158.89 239.234 159.208 239.43 159.469 239.71C159.73 239.99 159.861 240.382 159.861 240.886C159.861 241.558 159.572 242.095 158.993 242.496C158.424 242.888 157.644 243.084 156.655 243.084ZM164.719 243.084C163.981 243.084 163.319 242.921 162.731 242.594C162.143 242.267 161.681 241.819 161.345 241.25C161.018 240.671 160.855 240.018 160.855 239.29C160.855 238.562 161.018 237.913 161.345 237.344C161.681 236.765 162.143 236.317 162.731 236C163.319 235.673 163.981 235.51 164.719 235.51C165.456 235.51 166.114 235.673 166.693 236C167.281 236.317 167.738 236.765 168.065 237.344C168.401 237.913 168.569 238.562 168.569 239.29C168.569 240.018 168.401 240.671 168.065 241.25C167.738 241.819 167.281 242.267 166.693 242.594C166.114 242.921 165.456 243.084 164.719 243.084ZM164.719 241.908C165.195 241.908 165.619 241.801 165.993 241.586C166.375 241.362 166.674 241.054 166.889 240.662C167.103 240.261 167.211 239.803 167.211 239.29C167.211 238.777 167.103 238.324 166.889 237.932C166.674 237.531 166.375 237.223 165.993 237.008C165.619 236.793 165.195 236.686 164.719 236.686C164.243 236.686 163.813 236.793 163.431 237.008C163.057 237.223 162.759 237.531 162.535 237.932C162.32 238.324 162.213 238.777 162.213 239.29C162.213 239.803 162.32 240.261 162.535 240.662C162.759 241.054 163.057 241.362 163.431 241.586C163.813 241.801 164.243 241.908 164.719 241.908ZM170.736 232.528C170.997 232.528 171.212 232.621 171.38 232.808C171.557 232.985 171.646 233.209 171.646 233.48C171.646 233.62 171.632 233.76 171.604 233.9C171.576 234.031 171.515 234.222 171.422 234.474L170.75 236.434H169.868L170.386 234.348C170.209 234.283 170.064 234.175 169.952 234.026C169.849 233.867 169.798 233.685 169.798 233.48C169.798 233.2 169.887 232.971 170.064 232.794C170.241 232.617 170.465 232.528 170.736 232.528ZM177.534 235.51C178.477 235.51 179.223 235.785 179.774 236.336C180.334 236.877 180.614 237.675 180.614 238.73V243H179.27V238.884C179.27 238.165 179.097 237.624 178.752 237.26C178.407 236.896 177.912 236.714 177.268 236.714C176.54 236.714 175.966 236.929 175.546 237.358C175.126 237.778 174.916 238.385 174.916 239.178V243H173.572V235.58H174.86V236.7C175.131 236.317 175.495 236.023 175.952 235.818C176.419 235.613 176.946 235.51 177.534 235.51ZM190.24 235.58V241.992C190.24 243.289 189.918 244.246 189.274 244.862C188.63 245.487 187.669 245.8 186.39 245.8C185.69 245.8 185.023 245.702 184.388 245.506C183.753 245.319 183.24 245.049 182.848 244.694L183.492 243.658C183.837 243.957 184.262 244.19 184.766 244.358C185.279 244.535 185.807 244.624 186.348 244.624C187.216 244.624 187.855 244.419 188.266 244.008C188.686 243.597 188.896 242.972 188.896 242.132V241.544C188.579 241.927 188.187 242.216 187.72 242.412C187.263 242.599 186.763 242.692 186.222 242.692C185.513 242.692 184.869 242.543 184.29 242.244C183.721 241.936 183.273 241.511 182.946 240.97C182.619 240.419 182.456 239.794 182.456 239.094C182.456 238.394 182.619 237.773 182.946 237.232C183.273 236.681 183.721 236.257 184.29 235.958C184.869 235.659 185.513 235.51 186.222 235.51C186.782 235.51 187.3 235.613 187.776 235.818C188.261 236.023 188.658 236.327 188.966 236.728V235.58H190.24ZM186.376 241.516C186.861 241.516 187.295 241.413 187.678 241.208C188.07 241.003 188.373 240.718 188.588 240.354C188.812 239.981 188.924 239.561 188.924 239.094C188.924 238.375 188.686 237.797 188.21 237.358C187.734 236.91 187.123 236.686 186.376 236.686C185.62 236.686 185.004 236.91 184.528 237.358C184.052 237.797 183.814 238.375 183.814 239.094C183.814 239.561 183.921 239.981 184.136 240.354C184.36 240.718 184.663 241.003 185.046 241.208C185.438 241.413 185.881 241.516 186.376 241.516ZM196.568 235.58H197.912V243H196.568V235.58ZM197.24 234.152C196.979 234.152 196.759 234.068 196.582 233.9C196.414 233.732 196.33 233.527 196.33 233.284C196.33 233.041 196.414 232.836 196.582 232.668C196.759 232.491 196.979 232.402 197.24 232.402C197.501 232.402 197.716 232.486 197.884 232.654C198.061 232.813 198.15 233.013 198.15 233.256C198.15 233.508 198.061 233.723 197.884 233.9C197.716 234.068 197.501 234.152 197.24 234.152ZM202.606 243.084C201.999 243.084 201.416 243.005 200.856 242.846C200.296 242.678 199.857 242.468 199.54 242.216L200.1 241.152C200.427 241.385 200.823 241.572 201.29 241.712C201.757 241.852 202.228 241.922 202.704 241.922C203.88 241.922 204.468 241.586 204.468 240.914C204.468 240.69 204.389 240.513 204.23 240.382C204.071 240.251 203.871 240.158 203.628 240.102C203.395 240.037 203.059 239.967 202.62 239.892C202.023 239.799 201.533 239.691 201.15 239.57C200.777 239.449 200.455 239.243 200.184 238.954C199.913 238.665 199.778 238.259 199.778 237.736C199.778 237.064 200.058 236.527 200.618 236.126C201.178 235.715 201.929 235.51 202.872 235.51C203.367 235.51 203.861 235.571 204.356 235.692C204.851 235.813 205.257 235.977 205.574 236.182L205 237.246C204.393 236.854 203.679 236.658 202.858 236.658C202.289 236.658 201.855 236.751 201.556 236.938C201.257 237.125 201.108 237.372 201.108 237.68C201.108 237.923 201.192 238.114 201.36 238.254C201.528 238.394 201.733 238.497 201.976 238.562C202.228 238.627 202.578 238.702 203.026 238.786C203.623 238.889 204.104 239.001 204.468 239.122C204.841 239.234 205.159 239.43 205.42 239.71C205.681 239.99 205.812 240.382 205.812 240.886C205.812 241.558 205.523 242.095 204.944 242.496C204.375 242.888 203.595 243.084 202.606 243.084ZM211.454 235.51C212.396 235.51 213.143 235.785 213.694 236.336C214.254 236.877 214.534 237.675 214.534 238.73V243H213.19V238.884C213.19 238.165 213.017 237.624 212.672 237.26C212.326 236.896 211.832 236.714 211.188 236.714C210.46 236.714 209.886 236.929 209.466 237.358C209.046 237.778 208.836 238.385 208.836 239.178V243H207.492V232.612H208.836V236.63C209.116 236.275 209.48 236 209.928 235.804C210.385 235.608 210.894 235.51 211.454 235.51ZM220.983 235.51C221.926 235.51 222.672 235.785 223.223 236.336C223.783 236.877 224.063 237.675 224.063 238.73V243H222.719V238.884C222.719 238.165 222.546 237.624 222.201 237.26C221.856 236.896 221.361 236.714 220.717 236.714C219.989 236.714 219.415 236.929 218.995 237.358C218.575 237.778 218.365 238.385 218.365 239.178V243H217.021V235.58H218.309V236.7C218.58 236.317 218.944 236.023 219.401 235.818C219.868 235.613 220.395 235.51 220.983 235.51ZM226.55 235.58H227.894V243H226.55V235.58ZM227.222 234.152C226.961 234.152 226.742 234.068 226.564 233.9C226.396 233.732 226.312 233.527 226.312 233.284C226.312 233.041 226.396 232.836 226.564 232.668C226.742 232.491 226.961 232.402 227.222 232.402C227.484 232.402 227.698 232.486 227.866 232.654C228.044 232.813 228.132 233.013 228.132 233.256C228.132 233.508 228.044 233.723 227.866 233.9C227.698 234.068 227.484 234.152 227.222 234.152ZM111.177 253.51C111.895 253.51 112.539 253.669 113.109 253.986C113.678 254.303 114.121 254.747 114.439 255.316C114.765 255.885 114.929 256.543 114.929 257.29C114.929 258.037 114.765 258.699 114.439 259.278C114.121 259.847 113.678 260.291 113.109 260.608C112.539 260.925 111.895 261.084 111.177 261.084C110.626 261.084 110.122 260.977 109.665 260.762C109.207 260.547 108.829 260.235 108.531 259.824V261H107.243V250.612H108.587V254.7C108.885 254.308 109.259 254.014 109.707 253.818C110.155 253.613 110.645 253.51 111.177 253.51ZM111.065 259.908C111.541 259.908 111.965 259.801 112.339 259.586C112.721 259.362 113.02 259.054 113.235 258.662C113.459 258.261 113.571 257.803 113.571 257.29C113.571 256.777 113.459 256.324 113.235 255.932C113.02 255.531 112.721 255.223 112.339 255.008C111.965 254.793 111.541 254.686 111.065 254.686C110.598 254.686 110.173 254.793 109.791 255.008C109.408 255.223 109.109 255.531 108.895 255.932C108.68 256.324 108.573 256.777 108.573 257.29C108.573 257.803 108.68 258.261 108.895 258.662C109.109 259.054 109.408 259.362 109.791 259.586C110.173 259.801 110.598 259.908 111.065 259.908ZM119.964 261.084C119.226 261.084 118.564 260.921 117.976 260.594C117.388 260.267 116.926 259.819 116.59 259.25C116.263 258.671 116.1 258.018 116.1 257.29C116.1 256.562 116.263 255.913 116.59 255.344C116.926 254.765 117.388 254.317 117.976 254C118.564 253.673 119.226 253.51 119.964 253.51C120.701 253.51 121.359 253.673 121.938 254C122.526 254.317 122.983 254.765 123.31 255.344C123.646 255.913 123.814 256.562 123.814 257.29C123.814 258.018 123.646 258.671 123.31 259.25C122.983 259.819 122.526 260.267 121.938 260.594C121.359 260.921 120.701 261.084 119.964 261.084ZM119.964 259.908C120.44 259.908 120.864 259.801 121.238 259.586C121.62 259.362 121.919 259.054 122.134 258.662C122.348 258.261 122.456 257.803 122.456 257.29C122.456 256.777 122.348 256.324 122.134 255.932C121.919 255.531 121.62 255.223 121.238 255.008C120.864 254.793 120.44 254.686 119.964 254.686C119.488 254.686 119.058 254.793 118.676 255.008C118.302 255.223 118.004 255.531 117.78 255.932C117.565 256.324 117.458 256.777 117.458 257.29C117.458 257.803 117.565 258.261 117.78 258.662C118.004 259.054 118.302 259.362 118.676 259.586C119.058 259.801 119.488 259.908 119.964 259.908ZM127.8 261.084C127.194 261.084 126.61 261.005 126.05 260.846C125.49 260.678 125.052 260.468 124.734 260.216L125.294 259.152C125.621 259.385 126.018 259.572 126.484 259.712C126.951 259.852 127.422 259.922 127.898 259.922C129.074 259.922 129.662 259.586 129.662 258.914C129.662 258.69 129.583 258.513 129.424 258.382C129.266 258.251 129.065 258.158 128.822 258.102C128.589 258.037 128.253 257.967 127.814 257.892C127.217 257.799 126.727 257.691 126.344 257.57C125.971 257.449 125.649 257.243 125.378 256.954C125.108 256.665 124.972 256.259 124.972 255.736C124.972 255.064 125.252 254.527 125.812 254.126C126.372 253.715 127.124 253.51 128.066 253.51C128.561 253.51 129.056 253.571 129.55 253.692C130.045 253.813 130.451 253.977 130.768 254.182L130.194 255.246C129.588 254.854 128.874 254.658 128.052 254.658C127.483 254.658 127.049 254.751 126.75 254.938C126.452 255.125 126.302 255.372 126.302 255.68C126.302 255.923 126.386 256.114 126.554 256.254C126.722 256.394 126.928 256.497 127.17 256.562C127.422 256.627 127.772 256.702 128.22 256.786C128.818 256.889 129.298 257.001 129.662 257.122C130.036 257.234 130.353 257.43 130.614 257.71C130.876 257.99 131.006 258.382 131.006 258.886C131.006 259.558 130.717 260.095 130.138 260.496C129.569 260.888 128.79 261.084 127.8 261.084ZM136.648 253.51C137.591 253.51 138.337 253.785 138.888 254.336C139.448 254.877 139.728 255.675 139.728 256.73V261H138.384V256.884C138.384 256.165 138.211 255.624 137.866 255.26C137.521 254.896 137.026 254.714 136.382 254.714C135.654 254.714 135.08 254.929 134.66 255.358C134.24 255.778 134.03 256.385 134.03 257.178V261H132.686V250.612H134.03V254.63C134.31 254.275 134.674 254 135.122 253.804C135.579 253.608 136.088 253.51 136.648 253.51ZM142.215 250.612H143.559V261H142.215V250.612ZM148.828 253.51C149.854 253.51 150.638 253.762 151.18 254.266C151.73 254.77 152.006 255.521 152.006 256.52V261H150.732V260.02C150.508 260.365 150.186 260.631 149.766 260.818C149.355 260.995 148.865 261.084 148.296 261.084C147.465 261.084 146.798 260.883 146.294 260.482C145.799 260.081 145.552 259.553 145.552 258.9C145.552 258.247 145.79 257.724 146.266 257.332C146.742 256.931 147.498 256.73 148.534 256.73H150.662V256.464C150.662 255.885 150.494 255.442 150.158 255.134C149.822 254.826 149.327 254.672 148.674 254.672C148.235 254.672 147.806 254.747 147.386 254.896C146.966 255.036 146.611 255.227 146.322 255.47L145.762 254.462C146.144 254.154 146.602 253.921 147.134 253.762C147.666 253.594 148.23 253.51 148.828 253.51ZM148.52 260.048C149.033 260.048 149.476 259.936 149.85 259.712C150.223 259.479 150.494 259.152 150.662 258.732V257.696H148.59C147.451 257.696 146.882 258.079 146.882 258.844C146.882 259.217 147.026 259.511 147.316 259.726C147.605 259.941 148.006 260.048 148.52 260.048ZM160.922 253.58L157.324 261.742C157.007 262.498 156.633 263.03 156.204 263.338C155.784 263.646 155.275 263.8 154.678 263.8C154.314 263.8 153.959 263.739 153.614 263.618C153.278 263.506 152.998 263.338 152.774 263.114L153.348 262.106C153.731 262.47 154.174 262.652 154.678 262.652C155.005 262.652 155.275 262.563 155.49 262.386C155.714 262.218 155.915 261.924 156.092 261.504L156.33 260.986L153.054 253.58H154.454L157.044 259.516L159.606 253.58H160.922ZM164.209 261.084C163.602 261.084 163.019 261.005 162.459 260.846C161.899 260.678 161.46 260.468 161.143 260.216L161.703 259.152C162.029 259.385 162.426 259.572 162.893 259.712C163.359 259.852 163.831 259.922 164.307 259.922C165.483 259.922 166.071 259.586 166.071 258.914C166.071 258.69 165.991 258.513 165.833 258.382C165.674 258.251 165.473 258.158 165.231 258.102C164.997 258.037 164.661 257.967 164.223 257.892C163.625 257.799 163.135 257.691 162.753 257.57C162.379 257.449 162.057 257.243 161.787 256.954C161.516 256.665 161.381 256.259 161.381 255.736C161.381 255.064 161.661 254.527 162.221 254.126C162.781 253.715 163.532 253.51 164.475 253.51C164.969 253.51 165.464 253.571 165.959 253.692C166.453 253.813 166.859 253.977 167.177 254.182L166.603 255.246C165.996 254.854 165.282 254.658 164.461 254.658C163.891 254.658 163.457 254.751 163.159 254.938C162.86 255.125 162.711 255.372 162.711 255.68C162.711 255.923 162.795 256.114 162.963 256.254C163.131 256.394 163.336 256.497 163.579 256.562C163.831 256.627 164.181 256.702 164.629 256.786C165.226 256.889 165.707 257.001 166.071 257.122C166.444 257.234 166.761 257.43 167.023 257.71C167.284 257.99 167.415 258.382 167.415 258.886C167.415 259.558 167.125 260.095 166.547 260.496C165.977 260.888 165.198 261.084 164.209 261.084ZM169.094 253.58H170.438V261H169.094V253.58ZM169.766 252.152C169.505 252.152 169.286 252.068 169.108 251.9C168.94 251.732 168.856 251.527 168.856 251.284C168.856 251.041 168.94 250.836 169.108 250.668C169.286 250.491 169.505 250.402 169.766 250.402C170.028 250.402 170.242 250.486 170.41 250.654C170.588 250.813 170.676 251.013 170.676 251.256C170.676 251.508 170.588 251.723 170.41 251.9C170.242 252.068 170.028 252.152 169.766 252.152ZM178.506 259.894V261H172.29V260.132L176.672 254.686H172.374V253.58H178.394V254.462L174.012 259.894H178.506Z" fill="black"/>
<path d="M148.429 91.8142V91.9776C148.428 93.4787 147.832 94.9182 146.77 95.9795C145.709 97.0407 144.269 97.6368 142.768 97.6366H78.8745C77.3737 97.6364 75.9344 97.0402 74.8732 95.9789C73.812 94.9177 73.2157 93.4784 73.2156 91.9776V91.8142H148.429Z" fill="#F2F2F2"/>
<path d="M86.5787 64.8754C81.9614 66.0158 77.8164 62.4635 77.0927 59.168L77.4142 59.1105C81.3059 58.2503 85.6502 61.0322 86.5787 64.8754Z" fill="#326A32"/>
<path d="M198.188 125.906C196.852 125.33 196.549 123.229 197.667 122.298C198.785 121.367 200.796 122.046 201.121 123.463L199.875 114.552C199.589 112.504 199.36 110.214 200.598 108.556C201.757 107.005 204.022 106.507 205.841 107.175C207.659 107.843 209.003 109.51 209.573 111.361C210.143 113.212 210.008 115.224 209.511 117.096C209.013 118.968 208.167 120.727 207.312 122.465C206.435 124.246 205.372 126.176 203.498 126.831C201.709 127.457 198.188 125.906 198.188 125.906Z" fill="#F2F2F2"/>
<path d="M204.04 107.006C204.859 109.561 205.248 112.234 205.193 114.916C205.142 117.587 204.662 120.231 203.773 122.75C203.266 124.178 202.625 125.555 201.856 126.862C201.823 126.924 201.815 126.996 201.834 127.063C201.853 127.13 201.897 127.188 201.958 127.223C202.018 127.258 202.09 127.269 202.158 127.252C202.226 127.235 202.284 127.193 202.322 127.134C203.701 124.778 204.681 122.209 205.222 119.533C205.771 116.844 205.881 114.084 205.547 111.36C205.36 109.833 205.029 108.328 204.559 106.863C204.454 106.534 203.933 106.675 204.04 107.006Z" fill="white"/>
<path d="M197.396 122.626L201.66 127.107C201.9 127.359 202.28 126.977 202.041 126.726L197.777 122.245C197.538 121.993 197.157 122.375 197.396 122.626Z" fill="white"/>
<path d="M193.774 105.707C193.622 105.707 193.475 105.652 193.36 105.553C190.727 103.838 188.383 101.716 186.417 99.2657C186.296 99.1515 186.226 98.9948 186.219 98.8291C186.213 98.6633 186.272 98.5017 186.383 98.3788L187.676 96.9514L187.942 97.1926L186.649 98.6199C186.6 98.6741 186.575 98.7457 186.578 98.8187C186.582 98.8918 186.615 98.9604 186.669 99.0095L186.688 99.0294C188.635 101.458 190.956 103.561 193.566 105.258L193.589 105.276C193.643 105.325 193.715 105.351 193.788 105.347C193.861 105.343 193.93 105.311 193.979 105.257L196.501 102.472C196.548 102.42 196.573 102.352 196.572 102.282C196.571 102.212 196.543 102.146 196.495 102.095C195.911 101.777 195.34 101.43 194.8 101.063L195.001 100.766C195.539 101.13 196.106 101.475 196.688 101.791L196.722 101.816C196.784 101.872 196.834 101.939 196.87 102.015C196.906 102.09 196.926 102.172 196.93 102.255C196.935 102.338 196.922 102.422 196.894 102.5C196.866 102.579 196.823 102.651 196.767 102.713L194.245 105.498C194.189 105.56 194.122 105.61 194.046 105.646C193.971 105.682 193.889 105.702 193.806 105.706C193.795 105.706 193.784 105.707 193.774 105.707Z" fill="#004900"/>
<path d="M190.994 101.018C191.786 101.735 192.599 102.128 192.811 101.894C192.839 101.855 192.856 101.809 192.862 101.761C192.868 101.713 192.861 101.665 192.844 101.62C192.758 101.355 192.62 101.111 192.44 100.9C191.736 100.398 191.051 99.8579 190.387 99.2778C190.178 99.2096 190.019 99.2114 189.941 99.2976C189.93 99.3099 189.921 99.3238 189.915 99.3389C189.782 99.6101 190.243 100.337 190.994 101.018Z" fill="#326A32"/>
<path d="M186.22 95.2442C186.227 95.4077 186.298 95.562 186.418 95.6734C187.482 96.9882 188.651 98.2141 189.915 99.3389C190.839 100.164 191.818 100.926 192.844 101.62C193.014 101.736 193.187 101.85 193.361 101.961C193.475 102.061 193.622 102.116 193.774 102.115C193.785 102.115 193.795 102.114 193.806 102.114C193.89 102.11 193.972 102.089 194.047 102.054C194.123 102.018 194.19 101.967 194.246 101.905L196.768 99.1216C196.881 98.9965 196.94 98.8317 196.931 98.6633C196.923 98.4949 196.848 98.3368 196.723 98.2236L196.689 98.1985C193.936 96.7115 191.583 94.5817 189.83 91.99L189.803 91.9577C189.678 91.8446 189.513 91.7858 189.345 91.7943C189.176 91.8027 189.018 91.8776 188.905 92.0026L186.384 94.7862C186.328 94.848 186.284 94.9203 186.256 94.9989C186.228 95.0775 186.216 95.1608 186.22 95.2442ZM186.579 95.2262C186.578 95.1903 186.583 95.1544 186.595 95.1205C186.607 95.0866 186.625 95.0554 186.65 95.0287L189.171 92.2432C189.195 92.2162 189.225 92.1943 189.258 92.1789C189.291 92.1635 189.327 92.1548 189.363 92.1534C189.429 92.1494 189.494 92.1699 189.546 92.2109C191.325 94.8347 193.708 96.9929 196.495 98.5038C196.543 98.5538 196.571 98.6204 196.572 98.69C196.574 98.7597 196.548 98.8273 196.502 98.8791L193.979 101.665C193.955 101.692 193.925 101.714 193.893 101.729C193.86 101.745 193.824 101.753 193.788 101.754C193.715 101.758 193.644 101.733 193.589 101.684L193.566 101.666C193.185 101.422 192.81 101.167 192.439 100.9C191.735 100.398 191.051 99.8579 190.387 99.2778C189.045 98.1073 187.807 96.8226 186.687 95.4382L186.669 95.4184C186.615 95.3685 186.583 95.2996 186.579 95.2262V95.2262Z" fill="#004900"/>
<path d="M192.811 98.3031C193.022 98.07 192.55 97.2994 191.758 96.5819C190.966 95.8644 190.152 95.4717 189.941 95.7047C189.73 95.9378 190.201 96.7084 190.994 97.4259C191.786 98.1434 192.6 98.5361 192.811 98.3031Z" fill="#326A32"/>
<path d="M176.966 125.013L174.765 125.013L173.717 116.52L176.967 116.52L176.966 125.013Z" fill="#FFB8B8"/>
<path d="M177.528 127.147L170.429 127.147V127.057C170.429 126.694 170.5 126.335 170.639 126C170.778 125.664 170.981 125.36 171.238 125.103C171.495 124.847 171.799 124.643 172.134 124.504C172.47 124.365 172.829 124.294 173.192 124.294H173.192L177.528 124.294L177.528 127.147Z" fill="black"/>
<path d="M183.431 125.013L181.23 125.013L180.182 116.52L183.432 116.52L183.431 125.013Z" fill="#FFB8B8"/>
<path d="M183.993 127.147L176.894 127.147V127.057C176.894 126.694 176.965 126.335 177.104 126C177.243 125.664 177.447 125.36 177.703 125.103C177.96 124.847 178.264 124.643 178.6 124.504C178.935 124.365 179.294 124.294 179.657 124.294H179.657L183.993 124.294L183.993 127.147Z" fill="black"/>
<path d="M184.909 90.6915L184.383 121.885C184.382 121.984 184.36 122.082 184.319 122.172C184.278 122.261 184.218 122.342 184.145 122.408C184.071 122.474 183.985 122.524 183.891 122.555C183.798 122.586 183.698 122.598 183.6 122.589L181.024 122.355C180.855 122.339 180.696 122.264 180.577 122.144C180.458 122.023 180.385 121.864 180.372 121.695L178.864 102.237C178.86 102.191 178.84 102.148 178.806 102.118C178.772 102.087 178.727 102.07 178.681 102.071C178.636 102.072 178.592 102.09 178.559 102.122C178.526 102.155 178.507 102.198 178.505 102.244L177.752 122.147C177.745 122.333 177.666 122.509 177.532 122.637C177.398 122.766 177.22 122.838 177.034 122.838H174.271C174.088 122.838 173.912 122.769 173.778 122.643C173.645 122.518 173.565 122.346 173.554 122.164L171.619 90.5119L183.113 87.6384L184.909 90.6915Z" fill="black"/>
<path d="M176.573 61.4008C179.009 61.4008 180.984 59.4259 180.984 56.9898C180.984 54.5537 179.009 52.5789 176.573 52.5789C174.136 52.5789 172.162 54.5537 172.162 56.9898C172.162 59.4259 174.136 61.4008 176.573 61.4008Z" fill="#FFB8B8"/>
<path d="M171.226 91.6194C171.15 91.5456 171.089 91.4574 171.047 91.3598C171.005 91.2622 170.982 91.1573 170.981 91.051L170.684 69.7798C170.666 68.6977 170.991 67.6378 171.613 66.7524C172.236 65.8669 173.122 65.2014 174.147 64.8515C174.56 62.9767 176.759 62.7418 178.041 62.7699C178.361 62.7768 178.675 62.8607 178.956 63.0146C179.236 63.1685 179.476 63.3879 179.654 63.654L180.573 65.0327L182.599 66.2202C183.536 66.7674 184.276 67.5983 184.71 68.593C185.145 69.5877 185.253 70.6948 185.018 71.7546L184.706 73.1732C183.608 78.1945 183.712 83.4043 185.011 88.3775L185.638 90.7704C185.671 90.895 185.674 91.0257 185.645 91.1514C185.617 91.2772 185.56 91.3944 185.477 91.4933C185.395 91.5922 185.29 91.6699 185.171 91.72C185.052 91.7701 184.923 91.791 184.795 91.7811L184.066 91.725C183.877 91.7107 183.698 91.6301 183.563 91.4975C183.427 91.3649 183.342 91.1886 183.324 90.9998L183.203 89.7935C183.201 89.7714 183.19 89.7508 183.174 89.7359C183.157 89.7209 183.136 89.7127 183.114 89.7127C183.091 89.7127 183.07 89.7209 183.053 89.7359C183.037 89.7508 183.027 89.7714 183.024 89.7935L182.908 90.9614C182.888 91.1587 182.796 91.3419 182.65 91.476C182.504 91.6102 182.314 91.686 182.116 91.6891L171.802 91.8478C171.797 91.8478 171.793 91.848 171.789 91.848C171.579 91.8484 171.377 91.7663 171.226 91.6194Z" fill="#004900"/>
<path d="M176.917 59.5325C176.935 60.156 177.368 60.5167 177.9 60.8433C178.431 61.1699 179.053 61.3116 179.661 61.4482C179.743 61.4916 179.835 61.5132 179.927 61.5109C180.02 61.5087 180.11 61.4826 180.19 61.4352C180.269 61.3878 180.335 61.3208 180.381 61.2405C180.427 61.1602 180.452 61.0694 180.452 60.9768L181.011 58.8535C181.208 58.1752 181.352 57.4824 181.44 56.7815C181.575 55.4329 181.255 53.9822 180.314 53.0072C179.373 52.0321 177.74 51.6857 176.612 52.437C175.274 50.7273 169.155 54.5046 170.664 55.6935C170.933 55.905 171.343 55.6374 171.684 55.6114C172.025 55.5855 172.407 55.6454 172.623 55.9099C172.906 56.2555 172.783 56.7703 172.9 57.2014C172.948 57.353 173.026 57.4937 173.128 57.6152C173.231 57.7366 173.357 57.8366 173.499 57.9092C173.64 57.9817 173.795 58.0256 173.954 58.0381C174.112 58.0507 174.272 58.0317 174.423 57.9823C174.705 57.8434 174.97 57.673 175.213 57.4743C175.475 57.3002 175.805 57.1715 176.099 57.2813C176.487 57.4261 176.625 57.901 176.66 58.3135C176.719 58.725 176.805 59.1322 176.917 59.5325Z" fill="black"/>
<path opacity="0.2" d="M175.887 71.3542L175.169 80.1542L171.397 89.3134L176.965 80.3338L175.887 71.3542Z" fill="black"/>
<path d="M170.516 92.7244C170.721 92.5591 170.889 92.3507 171.005 92.1138C171.122 91.877 171.185 91.6174 171.19 91.3534C171.196 91.0895 171.143 90.8275 171.037 90.5861C170.93 90.3446 170.772 90.1295 170.573 89.9558L172.975 84.0049L169.706 84.665L167.926 90.2149C167.656 90.5684 167.526 91.0084 167.559 91.4517C167.592 91.8949 167.787 92.3106 168.106 92.6199C168.425 92.9293 168.847 93.1108 169.291 93.13C169.735 93.1493 170.171 93.005 170.516 92.7244V92.7244Z" fill="#FFB8B8"/>
<path d="M170.34 90.0997L168.49 89.4328C168.299 89.3631 168.142 89.2245 168.048 89.0444C167.955 88.8642 167.932 88.6556 167.984 88.4595L171.037 77.2855L171.502 67.1866C171.516 66.8817 171.591 66.5828 171.721 66.307C171.852 66.0312 172.036 65.7841 172.263 65.5802C172.49 65.3762 172.755 65.2194 173.043 65.1188C173.332 65.0183 173.637 64.976 173.941 64.9945C174.246 65.0129 174.544 65.0918 174.818 65.2264C175.092 65.361 175.336 65.5487 175.537 65.7786C175.737 66.0085 175.89 66.276 175.986 66.5655C176.083 66.8551 176.121 67.1609 176.098 67.4652L175.267 78.5232L171.377 89.6073C171.318 89.7748 171.206 89.9182 171.057 90.0155C170.909 90.1129 170.732 90.1587 170.555 90.146C170.482 90.1404 170.41 90.1248 170.34 90.0997Z" fill="#004900"/>
<path d="M189.411 93.308C189.537 93.0762 189.611 92.8195 189.627 92.5559C189.644 92.2924 189.602 92.0285 189.505 91.7829C189.409 91.5372 189.259 91.3157 189.068 91.134C188.876 90.9523 188.647 90.8148 188.397 90.7312L188.321 84.314L185.559 86.1826L186.054 91.99C185.942 92.4201 185.991 92.8764 186.192 93.2727C186.394 93.6689 186.733 93.9775 187.147 94.14C187.561 94.3024 188.02 94.3075 188.437 94.1541C188.854 94.0008 189.201 93.6998 189.411 93.308L189.411 93.308Z" fill="#FFB8B8"/>
<path d="M188.238 90.9534L186.273 91.0509C186.07 91.06 185.872 90.9928 185.716 90.8627C185.56 90.7325 185.459 90.5487 185.432 90.3475L183.943 78.86L180.482 69.3615C180.377 69.0748 180.331 68.7702 180.345 68.4654C180.36 68.1606 180.434 67.8616 180.565 67.586C180.696 67.3103 180.88 67.0634 181.107 66.8596C181.335 66.6559 181.6 66.4993 181.888 66.3989C182.176 66.2986 182.482 66.2566 182.786 66.2753C183.091 66.294 183.388 66.3731 183.662 66.508C183.936 66.6428 184.18 66.8307 184.381 67.0607C184.581 67.2908 184.734 67.5584 184.83 67.848L188.323 78.3726L189.005 90.0996C189.015 90.2768 188.966 90.4525 188.867 90.5995C188.767 90.7465 188.622 90.8568 188.454 90.9133C188.384 90.9364 188.311 90.9499 188.238 90.9534Z" fill="#004900"/>
<path d="M211.82 127.238H143.396C143.348 127.238 143.303 127.219 143.269 127.186C143.235 127.152 143.216 127.106 143.216 127.059C143.216 127.011 143.235 126.965 143.269 126.932C143.303 126.898 143.348 126.879 143.396 126.879H211.82C211.868 126.879 211.914 126.898 211.947 126.932C211.981 126.965 212 127.011 212 127.059C212 127.106 211.981 127.152 211.947 127.186C211.914 127.219 211.868 127.238 211.82 127.238Z" fill="#004900"/>
<path d="M131.047 88.4648C130.016 88.4648 129.195 88.1581 128.609 87.553C127.283 86.1854 127.366 83.5493 127.433 81.4311C127.452 80.8149 127.471 80.2328 127.452 79.7453L127.452 79.7379C127.457 78.7853 127.837 77.873 128.511 77.1992C129.184 76.5254 130.096 76.1446 131.049 76.1394H139.6C140.63 76.1394 141.45 76.4457 142.036 77.05C143.361 78.4165 143.279 81.052 143.213 83.1696C143.194 83.7871 143.176 84.3705 143.195 84.8589C143.192 85.8129 142.812 86.727 142.138 87.4023C141.464 88.0776 140.551 88.4595 139.596 88.4648H131.047ZM127.811 79.7354C127.83 80.2346 127.812 80.8213 127.792 81.4424C127.727 83.4928 127.647 86.0447 128.867 87.303C129.39 87.8431 130.104 88.1057 131.047 88.1057H139.596C140.454 88.1011 141.275 87.7582 141.882 87.1515C142.489 86.5448 142.831 85.7232 142.836 84.8653C142.817 84.3718 142.835 83.7824 142.854 83.1584C142.918 81.1085 142.998 78.5573 141.778 77.3001C141.255 76.7608 140.542 76.4986 139.6 76.4986H131.049C130.192 76.5034 129.372 76.8459 128.765 77.4518C128.159 78.0578 127.816 78.8783 127.811 79.7354Z" fill="#004900"/>
<path d="M84.6896 65.2059C83.1902 65.1969 81.7234 64.7672 80.4559 63.9659C78.5992 62.8121 77.1972 60.9643 76.7972 59.1438L76.7571 58.9613L77.2588 58.8715C81.2086 57.9997 85.6761 60.8089 86.6332 64.7686L86.6751 64.9423L86.5017 64.9851C85.9088 65.1319 85.3004 65.206 84.6896 65.2059ZM77.1914 59.2485C77.6224 60.9185 78.9304 62.595 80.6455 63.6608C82.3038 64.7221 84.3134 65.0874 86.2391 64.6778C85.2377 60.9887 81.0448 58.4 77.3329 59.223L77.1914 59.2485Z" fill="#004900"/>
<path d="M79.7071 85.6151C78.5321 85.6151 77.5775 85.0893 77.017 84.1302C76.7029 83.5721 76.5378 82.9426 76.5376 82.3023C76.5374 81.6619 76.7021 81.0323 77.0159 80.4741C77.5853 79.4985 78.5627 78.9693 79.7697 78.9878H91.1637C92.3666 78.9724 93.3447 79.4993 93.9145 80.476C94.2283 81.0341 94.3931 81.6636 94.393 82.3038C94.393 82.9441 94.2281 83.5735 93.9141 84.1316C93.3446 85.106 92.3668 85.6264 91.161 85.6147H79.7668C79.7468 85.615 79.7269 85.6151 79.7071 85.6151ZM79.7137 79.3465C78.6659 79.3465 77.8194 79.8099 77.3261 80.6551C77.0434 81.158 76.895 81.7253 76.8952 82.3022C76.8954 82.8791 77.0442 83.4462 77.3272 83.9489C77.8288 84.8076 78.6926 85.2723 79.7641 85.2555H91.1637C92.2363 85.2726 93.1027 84.808 93.604 83.9503C93.8868 83.4476 94.0354 82.8805 94.0354 82.3037C94.0354 81.7269 93.887 81.1598 93.6042 80.657C93.1026 79.7971 92.236 79.3341 91.1662 79.347H79.7659C79.7485 79.3467 79.731 79.3465 79.7137 79.3465H79.7137Z" fill="#004900"/>
<path d="M133.971 80.4102H130.38C130.141 80.4102 129.913 80.3156 129.745 80.1472C129.576 79.9788 129.482 79.7504 129.482 79.5122C129.482 79.2741 129.576 79.0457 129.745 78.8773C129.913 78.7089 130.141 78.6143 130.38 78.6143H133.971C134.21 78.6143 134.438 78.7089 134.606 78.8773C134.775 79.0457 134.869 79.2741 134.869 79.5122C134.869 79.7504 134.775 79.9788 134.606 80.1472C134.438 80.3156 134.21 80.4102 133.971 80.4102Z" fill="#326A32"/>
<path d="M133.971 83.2835H130.38C130.141 83.2835 129.913 83.1889 129.745 83.0205C129.576 82.8521 129.482 82.6237 129.482 82.3855C129.482 82.1474 129.576 81.919 129.745 81.7506C129.913 81.5822 130.141 81.4875 130.38 81.4875H133.971C134.21 81.4875 134.438 81.5822 134.606 81.7506C134.775 81.919 134.869 82.1474 134.869 82.3855C134.869 82.6237 134.775 82.8521 134.606 83.0205C134.438 83.1889 134.21 83.2835 133.971 83.2835Z" fill="#326A32"/>
<path d="M133.971 86.1572H130.38C130.141 86.1572 129.913 86.0626 129.745 85.8942C129.576 85.7258 129.482 85.4974 129.482 85.2593C129.482 85.0211 129.576 84.7927 129.745 84.6243C129.913 84.4559 130.141 84.3613 130.38 84.3613H133.971C134.21 84.3613 134.438 84.4559 134.606 84.6243C134.775 84.7927 134.869 85.0211 134.869 85.2593C134.869 85.4974 134.775 85.7258 134.606 85.8942C134.438 86.0626 134.21 86.1572 133.971 86.1572Z" fill="#326A32"/>
<path d="M140.257 80.4102H136.665C136.427 80.4102 136.198 80.3156 136.03 80.1472C135.862 79.9788 135.767 79.7504 135.767 79.5122C135.767 79.2741 135.862 79.0457 136.03 78.8773C136.198 78.7089 136.427 78.6143 136.665 78.6143H140.257C140.495 78.6143 140.723 78.7089 140.892 78.8773C141.06 79.0457 141.155 79.2741 141.155 79.5122C141.155 79.7504 141.06 79.9788 140.892 80.1472C140.723 80.3156 140.495 80.4102 140.257 80.4102Z" fill="#326A32"/>
<path d="M140.257 83.2835H136.665C136.427 83.2835 136.198 83.1889 136.03 83.0205C135.862 82.8521 135.767 82.6237 135.767 82.3855C135.767 82.1474 135.862 81.919 136.03 81.7506C136.198 81.5822 136.427 81.4875 136.665 81.4875H140.257C140.495 81.4875 140.723 81.5822 140.892 81.7506C141.06 81.919 141.155 82.1474 141.155 82.3855C141.155 82.6237 141.06 82.8521 140.892 83.0205C140.723 83.1889 140.495 83.2835 140.257 83.2835Z" fill="#326A32"/>
<path d="M140.257 86.1572H136.665C136.427 86.1572 136.198 86.0626 136.03 85.8942C135.862 85.7258 135.767 85.4974 135.767 85.2593C135.767 85.0211 135.862 84.7927 136.03 84.6243C136.198 84.4559 136.427 84.3613 136.665 84.3613H140.257C140.495 84.3613 140.723 84.4559 140.892 84.6243C141.06 84.7927 141.155 85.0211 141.155 85.2593C141.155 85.4974 141.06 85.7258 140.892 85.8942C140.723 86.0626 140.495 86.1572 140.257 86.1572Z" fill="#326A32"/>
<path d="M148.429 67.6484H73.2156V68.0076H148.429V67.6484Z" fill="#004900"/>
<path d="M142.502 97.7406H78.9265C77.3553 97.7388 75.8489 97.1139 74.7378 96.0028C73.6267 94.8918 73.0018 93.3854 73 91.8141V60.9243C73.0018 59.3531 73.6267 57.8467 74.7378 56.7356C75.8489 55.6245 77.3553 54.9996 78.9265 54.9978H142.502C144.073 54.9996 145.58 55.6245 146.691 56.7356C147.802 57.8467 148.427 59.3531 148.428 60.9243V91.8141C148.427 93.3854 147.802 94.8918 146.691 96.0028C145.58 97.1139 144.073 97.7388 142.502 97.7406ZM78.9265 55.357C77.4505 55.3587 76.0354 55.9458 74.9917 56.9895C73.948 58.0332 73.3609 59.4483 73.3592 60.9243V91.8141C73.3609 93.2901 73.948 94.7052 74.9917 95.7489C76.0354 96.7927 77.4505 97.3797 78.9265 97.3814H142.502C143.978 97.3798 145.393 96.7927 146.437 95.7489C147.481 94.7052 148.068 93.2901 148.069 91.8141V60.9243C148.068 59.4483 147.481 58.0332 146.437 56.9895C145.393 55.9458 143.978 55.3587 142.502 55.357H78.9265Z" fill="#004900"/>
</svg>
