<svg width="285" height="285" viewBox="0 0 285 285" fill="none" xmlns="http://www.w3.org/2000/svg">
<path d="M68.895 196L66.465 192.49H66.321H63.783V196H60.867V183.4H66.321C67.437 183.4 68.403 183.586 69.219 183.958C70.047 184.33 70.683 184.858 71.127 185.542C71.571 186.226 71.793 187.036 71.793 187.972C71.793 188.908 71.565 189.718 71.109 190.402C70.665 191.074 70.029 191.59 69.201 191.95L72.027 196H68.895ZM68.841 187.972C68.841 187.264 68.613 186.724 68.157 186.352C67.701 185.968 67.035 185.776 66.159 185.776H63.783V190.168H66.159C67.035 190.168 67.701 189.976 68.157 189.592C68.613 189.208 68.841 188.668 68.841 187.972ZM78.5134 196.144C77.4934 196.144 76.5754 195.934 75.7594 195.514C74.9554 195.082 74.3254 194.488 73.8694 193.732C73.4134 192.976 73.1854 192.118 73.1854 191.158C73.1854 190.198 73.4134 189.34 73.8694 188.584C74.3254 187.828 74.9554 187.24 75.7594 186.82C76.5754 186.388 77.4934 186.172 78.5134 186.172C79.5334 186.172 80.4454 186.388 81.2494 186.82C82.0534 187.24 82.6834 187.828 83.1394 188.584C83.5954 189.34 83.8234 190.198 83.8234 191.158C83.8234 192.118 83.5954 192.976 83.1394 193.732C82.6834 194.488 82.0534 195.082 81.2494 195.514C80.4454 195.934 79.5334 196.144 78.5134 196.144ZM78.5134 193.84C79.2334 193.84 79.8214 193.6 80.2774 193.12C80.7454 192.628 80.9794 191.974 80.9794 191.158C80.9794 190.342 80.7454 189.694 80.2774 189.214C79.8214 188.722 79.2334 188.476 78.5134 188.476C77.7934 188.476 77.1994 188.722 76.7314 189.214C76.2634 189.694 76.0294 190.342 76.0294 191.158C76.0294 191.974 76.2634 192.628 76.7314 193.12C77.1994 193.6 77.7934 193.84 78.5134 193.84ZM86.7979 182.5C87.3019 182.5 87.7159 182.662 88.0399 182.986C88.3639 183.298 88.5259 183.712 88.5259 184.228C88.5259 184.468 88.4959 184.708 88.4359 184.948C88.3759 185.188 88.2499 185.548 88.0579 186.028L87.0139 188.62H85.2319L86.0059 185.776C85.7059 185.644 85.4719 185.446 85.3039 185.182C85.1359 184.918 85.0519 184.6 85.0519 184.228C85.0519 183.712 85.2139 183.298 85.5379 182.986C85.8739 182.662 86.2939 182.5 86.7979 182.5ZM100.287 186.316L95.9129 196.594C95.4689 197.71 94.9169 198.496 94.2569 198.952C93.6089 199.408 92.8229 199.636 91.8989 199.636C91.3949 199.636 90.8969 199.558 90.4049 199.402C89.9129 199.246 89.5109 199.03 89.1989 198.754L90.2249 196.756C90.4409 196.948 90.6869 197.098 90.9629 197.206C91.2509 197.314 91.5329 197.368 91.8089 197.368C92.1929 197.368 92.5049 197.272 92.7449 197.08C92.9849 196.9 93.2009 196.594 93.3929 196.162L93.4289 196.072L89.2349 186.316H92.1329L94.8509 192.886L97.5869 186.316H100.287ZM107.044 196L104.92 193.03L102.724 196H99.6638L103.39 191.122L99.7898 186.316H102.94L104.992 189.142L107.098 186.316H110.086L106.486 191.05L110.23 196H107.044ZM115.323 186.172C116.823 186.172 117.975 186.532 118.779 187.252C119.583 187.96 119.985 189.034 119.985 190.474V196H117.357V194.794C116.829 195.694 115.845 196.144 114.405 196.144C113.661 196.144 113.013 196.018 112.461 195.766C111.921 195.514 111.507 195.166 111.219 194.722C110.931 194.278 110.787 193.774 110.787 193.21C110.787 192.31 111.123 191.602 111.795 191.086C112.479 190.57 113.529 190.312 114.945 190.312H117.177C117.177 189.7 116.991 189.232 116.619 188.908C116.247 188.572 115.689 188.404 114.945 188.404C114.429 188.404 113.919 188.488 113.415 188.656C112.923 188.812 112.503 189.028 112.155 189.304L111.147 187.342C111.675 186.97 112.305 186.682 113.037 186.478C113.781 186.274 114.543 186.172 115.323 186.172ZM115.107 194.254C115.587 194.254 116.013 194.146 116.385 193.93C116.757 193.702 117.021 193.372 117.177 192.94V191.95H115.251C114.099 191.95 113.523 192.328 113.523 193.084C113.523 193.444 113.661 193.732 113.937 193.948C114.225 194.152 114.615 194.254 115.107 194.254ZM128.772 195.532C128.496 195.736 128.154 195.892 127.746 196C127.35 196.096 126.93 196.144 126.486 196.144C125.334 196.144 124.44 195.85 123.804 195.262C123.18 194.674 122.868 193.81 122.868 192.67V188.692H121.374V186.532H122.868V184.174H125.676V186.532H128.088V188.692H125.676V192.634C125.676 193.042 125.778 193.36 125.982 193.588C126.198 193.804 126.498 193.912 126.882 193.912C127.326 193.912 127.704 193.792 128.016 193.552L128.772 195.532ZM136.384 195.532C136.108 195.736 135.766 195.892 135.358 196C134.962 196.096 134.542 196.144 134.098 196.144C132.946 196.144 132.052 195.85 131.416 195.262C130.792 194.674 130.48 193.81 130.48 192.67V188.692H128.986V186.532H130.48V184.174H133.288V186.532H135.7V188.692H133.288V192.634C133.288 193.042 133.39 193.36 133.594 193.588C133.81 193.804 134.11 193.912 134.494 193.912C134.938 193.912 135.316 193.792 135.628 193.552L136.384 195.532ZM141.866 186.172C143.366 186.172 144.518 186.532 145.322 187.252C146.126 187.96 146.528 189.034 146.528 190.474V196H143.9V194.794C143.372 195.694 142.388 196.144 140.948 196.144C140.204 196.144 139.556 196.018 139.004 195.766C138.464 195.514 138.05 195.166 137.762 194.722C137.474 194.278 137.33 193.774 137.33 193.21C137.33 192.31 137.666 191.602 138.338 191.086C139.022 190.57 140.072 190.312 141.488 190.312H143.72C143.72 189.7 143.534 189.232 143.162 188.908C142.79 188.572 142.232 188.404 141.488 188.404C140.972 188.404 140.462 188.488 139.958 188.656C139.466 188.812 139.046 189.028 138.698 189.304L137.69 187.342C138.218 186.97 138.848 186.682 139.58 186.478C140.324 186.274 141.086 186.172 141.866 186.172ZM141.65 194.254C142.13 194.254 142.556 194.146 142.928 193.93C143.3 193.702 143.564 193.372 143.72 192.94V191.95H141.794C140.642 191.95 140.066 192.328 140.066 193.084C140.066 193.444 140.204 193.732 140.48 193.948C140.768 194.152 141.158 194.254 141.65 194.254ZM154.955 186.172C156.155 186.172 157.121 186.532 157.853 187.252C158.597 187.972 158.969 189.04 158.969 190.456V196H156.161V190.888C156.161 190.12 155.993 189.55 155.657 189.178C155.321 188.794 154.835 188.602 154.199 188.602C153.491 188.602 152.927 188.824 152.507 189.268C152.087 189.7 151.877 190.348 151.877 191.212V196H149.069V186.316H151.751V187.45C152.123 187.042 152.585 186.73 153.137 186.514C153.689 186.286 154.295 186.172 154.955 186.172ZM171.22 196.144C170.2 196.144 169.282 195.934 168.466 195.514C167.662 195.082 167.032 194.488 166.576 193.732C166.12 192.976 165.892 192.118 165.892 191.158C165.892 190.198 166.12 189.34 166.576 188.584C167.032 187.828 167.662 187.24 168.466 186.82C169.282 186.388 170.2 186.172 171.22 186.172C172.24 186.172 173.152 186.388 173.956 186.82C174.76 187.24 175.39 187.828 175.846 188.584C176.302 189.34 176.53 190.198 176.53 191.158C176.53 192.118 176.302 192.976 175.846 193.732C175.39 194.488 174.76 195.082 173.956 195.514C173.152 195.934 172.24 196.144 171.22 196.144ZM171.22 193.84C171.94 193.84 172.528 193.6 172.984 193.12C173.452 192.628 173.686 191.974 173.686 191.158C173.686 190.342 173.452 189.694 172.984 189.214C172.528 188.722 171.94 188.476 171.22 188.476C170.5 188.476 169.906 188.722 169.438 189.214C168.97 189.694 168.736 190.342 168.736 191.158C168.736 191.974 168.97 192.628 169.438 193.12C169.906 193.6 170.5 193.84 171.22 193.84ZM179.505 182.5C180.009 182.5 180.423 182.662 180.747 182.986C181.071 183.298 181.233 183.712 181.233 184.228C181.233 184.468 181.203 184.708 181.143 184.948C181.083 185.188 180.957 185.548 180.765 186.028L179.721 188.62H177.939L178.713 185.776C178.413 185.644 178.179 185.446 178.011 185.182C177.843 184.918 177.759 184.6 177.759 184.228C177.759 183.712 177.921 183.298 178.245 182.986C178.581 182.662 179.001 182.5 179.505 182.5ZM189.487 195.532C189.211 195.736 188.869 195.892 188.461 196C188.065 196.096 187.645 196.144 187.201 196.144C186.049 196.144 185.155 195.85 184.519 195.262C183.895 194.674 183.583 193.81 183.583 192.67V188.692H182.089V186.532H183.583V184.174H186.391V186.532H188.803V188.692H186.391V192.634C186.391 193.042 186.493 193.36 186.697 193.588C186.913 193.804 187.213 193.912 187.597 193.912C188.041 193.912 188.419 193.792 188.731 193.552L189.487 195.532ZM194.97 186.172C196.47 186.172 197.622 186.532 198.426 187.252C199.23 187.96 199.632 189.034 199.632 190.474V196H197.004V194.794C196.476 195.694 195.492 196.144 194.052 196.144C193.308 196.144 192.66 196.018 192.108 195.766C191.568 195.514 191.154 195.166 190.866 194.722C190.578 194.278 190.434 193.774 190.434 193.21C190.434 192.31 190.77 191.602 191.442 191.086C192.126 190.57 193.176 190.312 194.592 190.312H196.824C196.824 189.7 196.638 189.232 196.266 188.908C195.894 188.572 195.336 188.404 194.592 188.404C194.076 188.404 193.566 188.488 193.062 188.656C192.57 188.812 192.15 189.028 191.802 189.304L190.794 187.342C191.322 186.97 191.952 186.682 192.684 186.478C193.428 186.274 194.19 186.172 194.97 186.172ZM194.754 194.254C195.234 194.254 195.66 194.146 196.032 193.93C196.404 193.702 196.668 193.372 196.824 192.94V191.95H194.898C193.746 191.95 193.17 192.328 193.17 193.084C193.17 193.444 193.308 193.732 193.584 193.948C193.872 194.152 194.262 194.254 194.754 194.254ZM205.431 196.144C204.627 196.144 203.841 196.048 203.073 195.856C202.305 195.652 201.693 195.4 201.237 195.1L202.173 193.084C202.605 193.36 203.127 193.588 203.739 193.768C204.351 193.936 204.951 194.02 205.539 194.02C206.727 194.02 207.321 193.726 207.321 193.138C207.321 192.862 207.159 192.664 206.835 192.544C206.511 192.424 206.013 192.322 205.341 192.238C204.549 192.118 203.895 191.98 203.379 191.824C202.863 191.668 202.413 191.392 202.029 190.996C201.657 190.6 201.471 190.036 201.471 189.304C201.471 188.692 201.645 188.152 201.993 187.684C202.353 187.204 202.869 186.832 203.541 186.568C204.225 186.304 205.029 186.172 205.953 186.172C206.637 186.172 207.315 186.25 207.987 186.406C208.671 186.55 209.235 186.754 209.679 187.018L208.743 189.016C207.891 188.536 206.961 188.296 205.953 188.296C205.353 188.296 204.903 188.38 204.603 188.548C204.303 188.716 204.153 188.932 204.153 189.196C204.153 189.496 204.315 189.706 204.639 189.826C204.963 189.946 205.479 190.06 206.187 190.168C206.979 190.3 207.627 190.444 208.131 190.6C208.635 190.744 209.073 191.014 209.445 191.41C209.817 191.806 210.003 192.358 210.003 193.066C210.003 193.666 209.823 194.2 209.463 194.668C209.103 195.136 208.575 195.502 207.879 195.766C207.195 196.018 206.379 196.144 205.431 196.144ZM211.735 186.316H214.543V196H211.735V186.316ZM213.139 184.966C212.623 184.966 212.203 184.816 211.879 184.516C211.555 184.216 211.393 183.844 211.393 183.4C211.393 182.956 211.555 182.584 211.879 182.284C212.203 181.984 212.623 181.834 213.139 181.834C213.655 181.834 214.075 181.978 214.399 182.266C214.723 182.554 214.885 182.914 214.885 183.346C214.885 183.814 214.723 184.204 214.399 184.516C214.075 184.816 213.655 184.966 213.139 184.966ZM225.124 193.84V196H216.484V194.308L221.416 188.476H216.61V186.316H224.962V188.008L220.03 193.84H225.124Z" fill="black"/>
<path d="M30.0109 222.55H24.8029L23.7249 225H22.2829L26.7209 215.2H28.1069L32.5589 225H31.0889L30.0109 222.55ZM29.5209 221.43L27.4069 216.628L25.2929 221.43H29.5209ZM40.008 217.58L36.76 225H35.388L32.14 217.58H33.54L36.088 223.53L38.692 217.58H40.008ZM47.7189 217.58L44.4709 225H43.0989L39.8509 217.58H41.2509L43.7989 223.53L46.4029 217.58H47.7189ZM51.4428 217.51C52.4695 217.51 53.2535 217.762 53.7948 218.266C54.3455 218.77 54.6208 219.521 54.6208 220.52V225H53.3468V224.02C53.1228 224.365 52.8008 224.631 52.3808 224.818C51.9701 224.995 51.4801 225.084 50.9108 225.084C50.0801 225.084 49.4128 224.883 48.9088 224.482C48.4141 224.081 48.1668 223.553 48.1668 222.9C48.1668 222.247 48.4048 221.724 48.8808 221.332C49.3568 220.931 50.1128 220.73 51.1488 220.73H53.2768V220.464C53.2768 219.885 53.1088 219.442 52.7728 219.134C52.4368 218.826 51.9421 218.672 51.2888 218.672C50.8501 218.672 50.4208 218.747 50.0008 218.896C49.5808 219.036 49.2261 219.227 48.9368 219.47L48.3768 218.462C48.7595 218.154 49.2168 217.921 49.7488 217.762C50.2808 217.594 50.8455 217.51 51.4428 217.51ZM51.1348 224.048C51.6481 224.048 52.0915 223.936 52.4648 223.712C52.8381 223.479 53.1088 223.152 53.2768 222.732V221.696H51.2048C50.0661 221.696 49.4968 222.079 49.4968 222.844C49.4968 223.217 49.6415 223.511 49.9308 223.726C50.2201 223.941 50.6215 224.048 51.1348 224.048ZM57.108 214.612H58.452V225H57.108V214.612ZM64.1961 225.084C63.4588 225.084 62.7961 224.921 62.2081 224.594C61.6201 224.267 61.1581 223.819 60.8221 223.25C60.4955 222.671 60.3321 222.018 60.3321 221.29C60.3321 220.562 60.4955 219.913 60.8221 219.344C61.1581 218.765 61.6201 218.317 62.2081 218C62.7961 217.673 63.4588 217.51 64.1961 217.51C64.9335 217.51 65.5915 217.673 66.1701 218C66.7581 218.317 67.2155 218.765 67.5421 219.344C67.8781 219.913 68.0461 220.562 68.0461 221.29C68.0461 222.018 67.8781 222.671 67.5421 223.25C67.2155 223.819 66.7581 224.267 66.1701 224.594C65.5915 224.921 64.9335 225.084 64.1961 225.084ZM64.1961 223.908C64.6721 223.908 65.0968 223.801 65.4701 223.586C65.8528 223.362 66.1515 223.054 66.3661 222.662C66.5808 222.261 66.6881 221.803 66.6881 221.29C66.6881 220.777 66.5808 220.324 66.3661 219.932C66.1515 219.531 65.8528 219.223 65.4701 219.008C65.0968 218.793 64.6721 218.686 64.1961 218.686C63.7201 218.686 63.2908 218.793 62.9081 219.008C62.5348 219.223 62.2361 219.531 62.0121 219.932C61.7975 220.324 61.6901 220.777 61.6901 221.29C61.6901 221.803 61.7975 222.261 62.0121 222.662C62.2361 223.054 62.5348 223.362 62.9081 223.586C63.2908 223.801 63.7201 223.908 64.1961 223.908ZM77.5986 217.51C78.3173 217.51 78.9613 217.669 79.5306 217.986C80.1 218.303 80.5433 218.747 80.8606 219.316C81.1873 219.885 81.3506 220.543 81.3506 221.29C81.3506 222.037 81.1873 222.699 80.8606 223.278C80.5433 223.847 80.1 224.291 79.5306 224.608C78.9613 224.925 78.3173 225.084 77.5986 225.084C77.0666 225.084 76.5766 224.981 76.1286 224.776C75.69 224.571 75.3166 224.272 75.0086 223.88V227.716H73.6646V217.58H74.9526V218.756C75.2513 218.345 75.6293 218.037 76.0866 217.832C76.544 217.617 77.048 217.51 77.5986 217.51ZM77.4866 223.908C77.9626 223.908 78.3873 223.801 78.7606 223.586C79.1433 223.362 79.442 223.054 79.6566 222.662C79.8806 222.261 79.9926 221.803 79.9926 221.29C79.9926 220.777 79.8806 220.324 79.6566 219.932C79.442 219.531 79.1433 219.223 78.7606 219.008C78.3873 218.793 77.9626 218.686 77.4866 218.686C77.02 218.686 76.5953 218.798 76.2126 219.022C75.8393 219.237 75.5406 219.54 75.3166 219.932C75.102 220.324 74.9946 220.777 74.9946 221.29C74.9946 221.803 75.102 222.261 75.3166 222.662C75.5313 223.054 75.83 223.362 76.2126 223.586C76.5953 223.801 77.02 223.908 77.4866 223.908ZM83.2076 214.612H84.5516V225H83.2076V214.612ZM89.8198 217.51C90.8464 217.51 91.6304 217.762 92.1718 218.266C92.7224 218.77 92.9978 219.521 92.9978 220.52V225H91.7238V224.02C91.4998 224.365 91.1778 224.631 90.7578 224.818C90.3471 224.995 89.8571 225.084 89.2878 225.084C88.4571 225.084 87.7898 224.883 87.2858 224.482C86.7911 224.081 86.5438 223.553 86.5438 222.9C86.5438 222.247 86.7818 221.724 87.2578 221.332C87.7338 220.931 88.4898 220.73 89.5258 220.73H91.6538V220.464C91.6538 219.885 91.4858 219.442 91.1498 219.134C90.8138 218.826 90.3191 218.672 89.6658 218.672C89.2271 218.672 88.7978 218.747 88.3778 218.896C87.9578 219.036 87.6031 219.227 87.3138 219.47L86.7538 218.462C87.1364 218.154 87.5938 217.921 88.1258 217.762C88.6578 217.594 89.2224 217.51 89.8198 217.51ZM89.5118 224.048C90.0251 224.048 90.4684 223.936 90.8418 223.712C91.2151 223.479 91.4858 223.152 91.6538 222.732V221.696H89.5818C88.4431 221.696 87.8738 222.079 87.8738 222.844C87.8738 223.217 88.0184 223.511 88.3078 223.726C88.5971 223.941 88.9984 224.048 89.5118 224.048ZM99.6569 224.566C99.4609 224.734 99.2183 224.865 98.9289 224.958C98.6396 225.042 98.3409 225.084 98.0329 225.084C97.2863 225.084 96.7076 224.883 96.2969 224.482C95.8863 224.081 95.6809 223.507 95.6809 222.76V218.686H94.4209V217.58H95.6809V215.956H97.0249V217.58H99.1529V218.686H97.0249V222.704C97.0249 223.105 97.1229 223.413 97.3189 223.628C97.5243 223.843 97.8136 223.95 98.1869 223.95C98.5976 223.95 98.9476 223.833 99.2369 223.6L99.6569 224.566ZM103.998 215.634C103.195 215.634 102.794 216.068 102.794 216.936V217.58H104.95V218.686H102.822V225H101.478V218.686H100.218V217.58H101.478V216.922C101.478 216.185 101.692 215.601 102.122 215.172C102.551 214.743 103.153 214.528 103.928 214.528C104.226 214.528 104.506 214.565 104.768 214.64C105.029 214.715 105.253 214.822 105.44 214.962L105.034 215.984C104.726 215.751 104.38 215.634 103.998 215.634ZM109.286 225.084C108.549 225.084 107.886 224.921 107.298 224.594C106.71 224.267 106.248 223.819 105.912 223.25C105.585 222.671 105.422 222.018 105.422 221.29C105.422 220.562 105.585 219.913 105.912 219.344C106.248 218.765 106.71 218.317 107.298 218C107.886 217.673 108.549 217.51 109.286 217.51C110.023 217.51 110.681 217.673 111.26 218C111.848 218.317 112.305 218.765 112.632 219.344C112.968 219.913 113.136 220.562 113.136 221.29C113.136 222.018 112.968 222.671 112.632 223.25C112.305 223.819 111.848 224.267 111.26 224.594C110.681 224.921 110.023 225.084 109.286 225.084ZM109.286 223.908C109.762 223.908 110.187 223.801 110.56 223.586C110.943 223.362 111.241 223.054 111.456 222.662C111.671 222.261 111.778 221.803 111.778 221.29C111.778 220.777 111.671 220.324 111.456 219.932C111.241 219.531 110.943 219.223 110.56 219.008C110.187 218.793 109.762 218.686 109.286 218.686C108.81 218.686 108.381 218.793 107.998 219.008C107.625 219.223 107.326 219.531 107.102 219.932C106.887 220.324 106.78 220.777 106.78 221.29C106.78 221.803 106.887 222.261 107.102 222.662C107.326 223.054 107.625 223.362 107.998 223.586C108.381 223.801 108.81 223.908 109.286 223.908ZM116.283 218.826C116.516 218.397 116.861 218.07 117.319 217.846C117.776 217.622 118.331 217.51 118.985 217.51V218.812C118.91 218.803 118.807 218.798 118.677 218.798C117.949 218.798 117.375 219.017 116.955 219.456C116.544 219.885 116.339 220.501 116.339 221.304V225H114.995V217.58H116.283V218.826ZM129.923 217.51C130.857 217.51 131.594 217.781 132.135 218.322C132.686 218.863 132.961 219.666 132.961 220.73V225H131.617V220.884C131.617 220.165 131.449 219.624 131.113 219.26C130.787 218.896 130.315 218.714 129.699 218.714C129.018 218.714 128.477 218.929 128.075 219.358C127.674 219.778 127.473 220.385 127.473 221.178V225H126.129V220.884C126.129 220.165 125.961 219.624 125.625 219.26C125.299 218.896 124.827 218.714 124.211 218.714C123.53 218.714 122.989 218.929 122.587 219.358C122.186 219.778 121.985 220.385 121.985 221.178V225H120.641V217.58H121.929V218.686C122.2 218.303 122.555 218.014 122.993 217.818C123.432 217.613 123.931 217.51 124.491 217.51C125.07 217.51 125.583 217.627 126.031 217.86C126.479 218.093 126.825 218.434 127.067 218.882C127.347 218.453 127.735 218.117 128.229 217.874C128.733 217.631 129.298 217.51 129.923 217.51ZM138.136 217.51C139.163 217.51 139.947 217.762 140.488 218.266C141.039 218.77 141.314 219.521 141.314 220.52V225H140.04V224.02C139.816 224.365 139.494 224.631 139.074 224.818C138.663 224.995 138.173 225.084 137.604 225.084C136.773 225.084 136.106 224.883 135.602 224.482C135.107 224.081 134.86 223.553 134.86 222.9C134.86 222.247 135.098 221.724 135.574 221.332C136.05 220.931 136.806 220.73 137.842 220.73H139.97V220.464C139.97 219.885 139.802 219.442 139.466 219.134C139.13 218.826 138.635 218.672 137.982 218.672C137.543 218.672 137.114 218.747 136.694 218.896C136.274 219.036 135.919 219.227 135.63 219.47L135.07 218.462C135.453 218.154 135.91 217.921 136.442 217.762C136.974 217.594 137.539 217.51 138.136 217.51ZM137.828 224.048C138.341 224.048 138.785 223.936 139.158 223.712C139.531 223.479 139.802 223.152 139.97 222.732V221.696H137.898C136.759 221.696 136.19 222.079 136.19 222.844C136.19 223.217 136.335 223.511 136.624 223.726C136.913 223.941 137.315 224.048 137.828 224.048ZM150.842 214.612V225H149.554V223.824C149.256 224.235 148.878 224.547 148.42 224.762C147.963 224.977 147.459 225.084 146.908 225.084C146.19 225.084 145.546 224.925 144.976 224.608C144.407 224.291 143.959 223.847 143.632 223.278C143.315 222.699 143.156 222.037 143.156 221.29C143.156 220.543 143.315 219.885 143.632 219.316C143.959 218.747 144.407 218.303 144.976 217.986C145.546 217.669 146.19 217.51 146.908 217.51C147.44 217.51 147.93 217.613 148.378 217.818C148.826 218.014 149.2 218.308 149.498 218.7V214.612H150.842ZM147.02 223.908C147.487 223.908 147.912 223.801 148.294 223.586C148.677 223.362 148.976 223.054 149.19 222.662C149.405 222.261 149.512 221.803 149.512 221.29C149.512 220.777 149.405 220.324 149.19 219.932C148.976 219.531 148.677 219.223 148.294 219.008C147.912 218.793 147.487 218.686 147.02 218.686C146.544 218.686 146.115 218.793 145.732 219.008C145.359 219.223 145.06 219.531 144.836 219.932C144.622 220.324 144.514 220.777 144.514 221.29C144.514 221.803 144.622 222.261 144.836 222.662C145.06 223.054 145.359 223.362 145.732 223.586C146.115 223.801 146.544 223.908 147.02 223.908ZM156.087 217.51C157.114 217.51 157.898 217.762 158.439 218.266C158.99 218.77 159.265 219.521 159.265 220.52V225H157.991V224.02C157.767 224.365 157.445 224.631 157.025 224.818C156.615 224.995 156.125 225.084 155.555 225.084C154.725 225.084 154.057 224.883 153.553 224.482C153.059 224.081 152.811 223.553 152.811 222.9C152.811 222.247 153.049 221.724 153.525 221.332C154.001 220.931 154.757 220.73 155.793 220.73H157.921V220.464C157.921 219.885 157.753 219.442 157.417 219.134C157.081 218.826 156.587 218.672 155.933 218.672C155.495 218.672 155.065 218.747 154.645 218.896C154.225 219.036 153.871 219.227 153.581 219.47L153.021 218.462C153.404 218.154 153.861 217.921 154.393 217.762C154.925 217.594 155.49 217.51 156.087 217.51ZM155.779 224.048C156.293 224.048 156.736 223.936 157.109 223.712C157.483 223.479 157.753 223.152 157.921 222.732V221.696H155.849C154.711 221.696 154.141 222.079 154.141 222.844C154.141 223.217 154.286 223.511 154.575 223.726C154.865 223.941 155.266 224.048 155.779 224.048ZM165.715 217.51C166.657 217.51 167.404 217.785 167.955 218.336C168.515 218.877 168.795 219.675 168.795 220.73V225H167.451V220.884C167.451 220.165 167.278 219.624 166.933 219.26C166.587 218.896 166.093 218.714 165.449 218.714C164.721 218.714 164.147 218.929 163.727 219.358C163.307 219.778 163.097 220.385 163.097 221.178V225H161.753V217.58H163.041V218.7C163.311 218.317 163.675 218.023 164.133 217.818C164.599 217.613 165.127 217.51 165.715 217.51ZM182.028 220.044H183.372V223.866C182.886 224.267 182.322 224.575 181.678 224.79C181.034 225.005 180.362 225.112 179.662 225.112C178.672 225.112 177.781 224.897 176.988 224.468C176.194 224.029 175.569 223.432 175.112 222.676C174.664 221.911 174.44 221.052 174.44 220.1C174.44 219.148 174.664 218.289 175.112 217.524C175.569 216.759 176.194 216.161 176.988 215.732C177.79 215.303 178.691 215.088 179.69 215.088C180.474 215.088 181.183 215.219 181.818 215.48C182.462 215.732 183.008 216.105 183.456 216.6L182.588 217.468C181.804 216.712 180.856 216.334 179.746 216.334C178.999 216.334 178.327 216.497 177.73 216.824C177.142 217.141 176.68 217.589 176.344 218.168C176.008 218.737 175.84 219.381 175.84 220.1C175.84 220.809 176.008 221.453 176.344 222.032C176.68 222.601 177.142 223.049 177.73 223.376C178.327 223.703 178.994 223.866 179.732 223.866C180.609 223.866 181.374 223.656 182.028 223.236V220.044ZM185.856 217.58H187.2V225H185.856V217.58ZM186.528 216.152C186.267 216.152 186.047 216.068 185.87 215.9C185.702 215.732 185.618 215.527 185.618 215.284C185.618 215.041 185.702 214.836 185.87 214.668C186.047 214.491 186.267 214.402 186.528 214.402C186.789 214.402 187.004 214.486 187.172 214.654C187.349 214.813 187.438 215.013 187.438 215.256C187.438 215.508 187.349 215.723 187.172 215.9C187.004 216.068 186.789 216.152 186.528 216.152ZM193.938 224.566C193.742 224.734 193.5 224.865 193.21 224.958C192.921 225.042 192.622 225.084 192.314 225.084C191.568 225.084 190.989 224.883 190.578 224.482C190.168 224.081 189.962 223.507 189.962 222.76V218.686H188.702V217.58H189.962V215.956H191.306V217.58H193.434V218.686H191.306V222.704C191.306 223.105 191.404 223.413 191.6 223.628C191.806 223.843 192.095 223.95 192.468 223.95C192.879 223.95 193.229 223.833 193.518 223.6L193.938 224.566ZM198.517 213.212H199.735L195.115 226.4H193.897L198.517 213.212ZM203.051 216.418H199.691V215.2H207.797V216.418H204.437V225H203.051V216.418ZM211.431 217.51C212.458 217.51 213.242 217.762 213.783 218.266C214.334 218.77 214.609 219.521 214.609 220.52V225H213.335V224.02C213.111 224.365 212.789 224.631 212.369 224.818C211.958 224.995 211.468 225.084 210.899 225.084C210.068 225.084 209.401 224.883 208.897 224.482C208.402 224.081 208.155 223.553 208.155 222.9C208.155 222.247 208.393 221.724 208.869 221.332C209.345 220.931 210.101 220.73 211.137 220.73H213.265V220.464C213.265 219.885 213.097 219.442 212.761 219.134C212.425 218.826 211.93 218.672 211.277 218.672C210.838 218.672 210.409 218.747 209.989 218.896C209.569 219.036 209.214 219.227 208.925 219.47L208.365 218.462C208.748 218.154 209.205 217.921 209.737 217.762C210.269 217.594 210.834 217.51 211.431 217.51ZM211.123 224.048C211.636 224.048 212.08 223.936 212.453 223.712C212.826 223.479 213.097 223.152 213.265 222.732V221.696H211.193C210.054 221.696 209.485 222.079 209.485 222.844C209.485 223.217 209.63 223.511 209.919 223.726C210.208 223.941 210.61 224.048 211.123 224.048ZM218.384 218.826C218.618 218.397 218.963 218.07 219.42 217.846C219.878 217.622 220.433 217.51 221.086 217.51V218.812C221.012 218.803 220.909 218.798 220.778 218.798C220.05 218.798 219.476 219.017 219.056 219.456C218.646 219.885 218.44 220.501 218.44 221.304V225H217.096V217.58H218.384V218.826ZM221.886 227.8C221.56 227.8 221.256 227.763 220.976 227.688C220.696 227.613 220.463 227.501 220.276 227.352L220.71 226.316C220.99 226.549 221.354 226.666 221.802 226.666C222.157 226.666 222.428 226.554 222.614 226.33C222.81 226.115 222.908 225.793 222.908 225.364V217.58H224.252V225.336C224.252 226.101 224.047 226.703 223.636 227.142C223.226 227.581 222.642 227.8 221.886 227.8ZM223.58 216.152C223.319 216.152 223.1 216.068 222.922 215.9C222.754 215.732 222.67 215.527 222.67 215.284C222.67 215.041 222.754 214.836 222.922 214.668C223.1 214.491 223.319 214.402 223.58 214.402C223.842 214.402 224.056 214.486 224.224 214.654C224.402 214.813 224.49 215.013 224.49 215.256C224.49 215.508 224.402 215.723 224.224 215.9C224.056 216.068 223.842 216.152 223.58 216.152ZM226.817 217.58H228.161V225H226.817V217.58ZM227.489 216.152C227.228 216.152 227.008 216.068 226.831 215.9C226.663 215.732 226.579 215.527 226.579 215.284C226.579 215.041 226.663 214.836 226.831 214.668C227.008 214.491 227.228 214.402 227.489 214.402C227.75 214.402 227.965 214.486 228.133 214.654C228.31 214.813 228.399 215.013 228.399 215.256C228.399 215.508 228.31 215.723 228.133 215.9C227.965 216.068 227.75 216.152 227.489 216.152ZM240.009 217.51C240.942 217.51 241.68 217.781 242.221 218.322C242.772 218.863 243.047 219.666 243.047 220.73V225H241.703V220.884C241.703 220.165 241.535 219.624 241.199 219.26C240.872 218.896 240.401 218.714 239.785 218.714C239.104 218.714 238.562 218.929 238.161 219.358C237.76 219.778 237.559 220.385 237.559 221.178V225H236.215V220.884C236.215 220.165 236.047 219.624 235.711 219.26C235.384 218.896 234.913 218.714 234.297 218.714C233.616 218.714 233.074 218.929 232.673 219.358C232.272 219.778 232.071 220.385 232.071 221.178V225H230.727V217.58H232.015V218.686C232.286 218.303 232.64 218.014 233.079 217.818C233.518 217.613 234.017 217.51 234.577 217.51C235.156 217.51 235.669 217.627 236.117 217.86C236.565 218.093 236.91 218.434 237.153 218.882C237.433 218.453 237.82 218.117 238.315 217.874C238.819 217.631 239.384 217.51 240.009 217.51ZM248.739 225.084C248.002 225.084 247.339 224.921 246.751 224.594C246.163 224.267 245.701 223.819 245.365 223.25C245.038 222.671 244.875 222.018 244.875 221.29C244.875 220.562 245.038 219.913 245.365 219.344C245.701 218.765 246.163 218.317 246.751 218C247.339 217.673 248.002 217.51 248.739 217.51C249.476 217.51 250.134 217.673 250.713 218C251.301 218.317 251.758 218.765 252.085 219.344C252.421 219.913 252.589 220.562 252.589 221.29C252.589 222.018 252.421 222.671 252.085 223.25C251.758 223.819 251.301 224.267 250.713 224.594C250.134 224.921 249.476 225.084 248.739 225.084ZM248.739 223.908C249.215 223.908 249.64 223.801 250.013 223.586C250.396 223.362 250.694 223.054 250.909 222.662C251.124 222.261 251.231 221.803 251.231 221.29C251.231 220.777 251.124 220.324 250.909 219.932C250.694 219.531 250.396 219.223 250.013 219.008C249.64 218.793 249.215 218.686 248.739 218.686C248.263 218.686 247.834 218.793 247.451 219.008C247.078 219.223 246.779 219.531 246.555 219.932C246.34 220.324 246.233 220.777 246.233 221.29C246.233 221.803 246.34 222.261 246.555 222.662C246.779 223.054 247.078 223.362 247.451 223.586C247.834 223.801 248.263 223.908 248.739 223.908ZM258.41 217.51C259.352 217.51 260.099 217.785 260.65 218.336C261.21 218.877 261.49 219.675 261.49 220.73V225H260.146V220.884C260.146 220.165 259.973 219.624 259.628 219.26C259.282 218.896 258.788 218.714 258.144 218.714C257.416 218.714 256.842 218.929 256.422 219.358C256.002 219.778 255.792 220.385 255.792 221.178V225H254.448V217.58H255.736V218.7C256.006 218.317 256.37 218.023 256.828 217.818C257.294 217.613 257.822 217.51 258.41 217.51ZM40.3156 235.58L36.7176 243.742C36.4003 244.498 36.0269 245.03 35.5976 245.338C35.1776 245.646 34.6689 245.8 34.0716 245.8C33.7076 245.8 33.3529 245.739 33.0076 245.618C32.6716 245.506 32.3916 245.338 32.1676 245.114L32.7416 244.106C33.1243 244.47 33.5676 244.652 34.0716 244.652C34.3983 244.652 34.6689 244.563 34.8836 244.386C35.1076 244.218 35.3083 243.924 35.4856 243.504L35.7236 242.986L32.4476 235.58H33.8476L36.4376 241.516L38.9996 235.58H40.3156ZM44.5428 243.084C43.8055 243.084 43.1428 242.921 42.5548 242.594C41.9668 242.267 41.5048 241.819 41.1688 241.25C40.8422 240.671 40.6788 240.018 40.6788 239.29C40.6788 238.562 40.8422 237.913 41.1688 237.344C41.5048 236.765 41.9668 236.317 42.5548 236C43.1428 235.673 43.8055 235.51 44.5428 235.51C45.2802 235.51 45.9382 235.673 46.5168 236C47.1048 236.317 47.5622 236.765 47.8888 237.344C48.2248 237.913 48.3928 238.562 48.3928 239.29C48.3928 240.018 48.2248 240.671 47.8888 241.25C47.5622 241.819 47.1048 242.267 46.5168 242.594C45.9382 242.921 45.2802 243.084 44.5428 243.084ZM44.5428 241.908C45.0188 241.908 45.4435 241.801 45.8168 241.586C46.1995 241.362 46.4982 241.054 46.7128 240.662C46.9275 240.261 47.0348 239.803 47.0348 239.29C47.0348 238.777 46.9275 238.324 46.7128 237.932C46.4982 237.531 46.1995 237.223 45.8168 237.008C45.4435 236.793 45.0188 236.686 44.5428 236.686C44.0668 236.686 43.6375 236.793 43.2548 237.008C42.8815 237.223 42.5828 237.531 42.3588 237.932C42.1442 238.324 42.0368 238.777 42.0368 239.29C42.0368 239.803 42.1442 240.261 42.3588 240.662C42.5828 241.054 42.8815 241.362 43.2548 241.586C43.6375 241.801 44.0668 241.908 44.5428 241.908ZM53.1355 239.542L51.5955 240.97V243H50.2515V232.612H51.5955V239.276L55.6415 235.58H57.2655L54.1435 238.646L57.5735 243H55.9215L53.1355 239.542ZM58.7828 235.58H60.1268V243H58.7828V235.58ZM59.4548 234.152C59.1935 234.152 58.9741 234.068 58.7968 233.9C58.6288 233.732 58.5448 233.527 58.5448 233.284C58.5448 233.041 58.6288 232.836 58.7968 232.668C58.9741 232.491 59.1935 232.402 59.4548 232.402C59.7161 232.402 59.9308 232.486 60.0988 232.654C60.2761 232.813 60.3648 233.013 60.3648 233.256C60.3648 233.508 60.2761 233.723 60.0988 233.9C59.9308 234.068 59.7161 234.152 59.4548 234.152ZM69.6929 232.612V243H68.4049V241.824C68.1063 242.235 67.7283 242.547 67.2709 242.762C66.8136 242.977 66.3096 243.084 65.7589 243.084C65.0403 243.084 64.3963 242.925 63.8269 242.608C63.2576 242.291 62.8096 241.847 62.4829 241.278C62.1656 240.699 62.0069 240.037 62.0069 239.29C62.0069 238.543 62.1656 237.885 62.4829 237.316C62.8096 236.747 63.2576 236.303 63.8269 235.986C64.3963 235.669 65.0403 235.51 65.7589 235.51C66.2909 235.51 66.7809 235.613 67.2289 235.818C67.6769 236.014 68.0503 236.308 68.3489 236.7V232.612H69.6929ZM65.8709 241.908C66.3376 241.908 66.7623 241.801 67.1449 241.586C67.5276 241.362 67.8263 241.054 68.0409 240.662C68.2556 240.261 68.3629 239.803 68.3629 239.29C68.3629 238.777 68.2556 238.324 68.0409 237.932C67.8263 237.531 67.5276 237.223 67.1449 237.008C66.7623 236.793 66.3376 236.686 65.8709 236.686C65.3949 236.686 64.9656 236.793 64.5829 237.008C64.2096 237.223 63.9109 237.531 63.6869 237.932C63.4723 238.324 63.3649 238.777 63.3649 239.29C63.3649 239.803 63.4723 240.261 63.6869 240.662C63.9109 241.054 64.2096 241.362 64.5829 241.586C64.9656 241.801 65.3949 241.908 65.8709 241.908ZM74.9379 235.51C75.9646 235.51 76.7486 235.762 77.2899 236.266C77.8406 236.77 78.1159 237.521 78.1159 238.52V243H76.8419V242.02C76.6179 242.365 76.2959 242.631 75.8759 242.818C75.4652 242.995 74.9752 243.084 74.4059 243.084C73.5752 243.084 72.9079 242.883 72.4039 242.482C71.9092 242.081 71.6619 241.553 71.6619 240.9C71.6619 240.247 71.8999 239.724 72.3759 239.332C72.8519 238.931 73.6079 238.73 74.6439 238.73H76.7719V238.464C76.7719 237.885 76.6039 237.442 76.2679 237.134C75.9319 236.826 75.4372 236.672 74.7839 236.672C74.3452 236.672 73.9159 236.747 73.4959 236.896C73.0759 237.036 72.7212 237.227 72.4319 237.47L71.8719 236.462C72.2546 236.154 72.7119 235.921 73.2439 235.762C73.7759 235.594 74.3406 235.51 74.9379 235.51ZM74.6299 242.048C75.1432 242.048 75.5866 241.936 75.9599 241.712C76.3332 241.479 76.6039 241.152 76.7719 240.732V239.696H74.6999C73.5612 239.696 72.9919 240.079 72.9919 240.844C72.9919 241.217 73.1366 241.511 73.4259 241.726C73.7152 241.941 74.1166 242.048 74.6299 242.048ZM93.6449 243L93.6309 235.86L90.0889 241.81H89.4449L85.9029 235.902V243H84.5589V233.2H85.7069L89.7949 240.088L93.8269 233.2H94.9749L94.9889 243H93.6449ZM97.734 235.58H99.078V243H97.734V235.58ZM98.406 234.152C98.1446 234.152 97.9253 234.068 97.748 233.9C97.58 233.732 97.496 233.527 97.496 233.284C97.496 233.041 97.58 232.836 97.748 232.668C97.9253 232.491 98.1446 232.402 98.406 232.402C98.6673 232.402 98.882 232.486 99.05 232.654C99.2273 232.813 99.316 233.013 99.316 233.256C99.316 233.508 99.2273 233.723 99.05 233.9C98.882 234.068 98.6673 234.152 98.406 234.152ZM100.692 245.8C100.365 245.8 100.062 245.763 99.7821 245.688C99.5021 245.613 99.2688 245.501 99.0821 245.352L99.5161 244.316C99.7961 244.549 100.16 244.666 100.608 244.666C100.963 244.666 101.233 244.554 101.42 244.33C101.616 244.115 101.714 243.793 101.714 243.364V235.58H103.058V243.336C103.058 244.101 102.853 244.703 102.442 245.142C102.031 245.581 101.448 245.8 100.692 245.8ZM102.386 234.152C102.125 234.152 101.905 234.068 101.728 233.9C101.56 233.732 101.476 233.527 101.476 233.284C101.476 233.041 101.56 232.836 101.728 232.668C101.905 232.491 102.125 232.402 102.386 232.402C102.647 232.402 102.862 232.486 103.03 232.654C103.207 232.813 103.296 233.013 103.296 233.256C103.296 233.508 103.207 233.723 103.03 233.9C102.862 234.068 102.647 234.152 102.386 234.152ZM108.801 243.084C108.063 243.084 107.401 242.921 106.813 242.594C106.225 242.267 105.763 241.819 105.427 241.25C105.1 240.671 104.937 240.018 104.937 239.29C104.937 238.562 105.1 237.913 105.427 237.344C105.763 236.765 106.225 236.317 106.813 236C107.401 235.673 108.063 235.51 108.801 235.51C109.538 235.51 110.196 235.673 110.775 236C111.363 236.317 111.82 236.765 112.147 237.344C112.483 237.913 112.651 238.562 112.651 239.29C112.651 240.018 112.483 240.671 112.147 241.25C111.82 241.819 111.363 242.267 110.775 242.594C110.196 242.921 109.538 243.084 108.801 243.084ZM108.801 241.908C109.277 241.908 109.701 241.801 110.075 241.586C110.457 241.362 110.756 241.054 110.971 240.662C111.185 240.261 111.293 239.803 111.293 239.29C111.293 238.777 111.185 238.324 110.971 237.932C110.756 237.531 110.457 237.223 110.075 237.008C109.701 236.793 109.277 236.686 108.801 236.686C108.325 236.686 107.895 236.793 107.513 237.008C107.139 237.223 106.841 237.531 106.617 237.932C106.402 238.324 106.295 238.777 106.295 239.29C106.295 239.803 106.402 240.261 106.617 240.662C106.841 241.054 107.139 241.362 107.513 241.586C107.895 241.801 108.325 241.908 108.801 241.908ZM119.902 241.894V243H113.686V242.132L118.068 236.686H113.77V235.58H119.79V236.462L115.408 241.894H119.902ZM127.589 243.084C126.982 243.084 126.399 243.005 125.839 242.846C125.279 242.678 124.84 242.468 124.523 242.216L125.083 241.152C125.409 241.385 125.806 241.572 126.273 241.712C126.739 241.852 127.211 241.922 127.687 241.922C128.863 241.922 129.451 241.586 129.451 240.914C129.451 240.69 129.371 240.513 129.213 240.382C129.054 240.251 128.853 240.158 128.611 240.102C128.377 240.037 128.041 239.967 127.603 239.892C127.005 239.799 126.515 239.691 126.133 239.57C125.759 239.449 125.437 239.243 125.167 238.954C124.896 238.665 124.761 238.259 124.761 237.736C124.761 237.064 125.041 236.527 125.601 236.126C126.161 235.715 126.912 235.51 127.855 235.51C128.349 235.51 128.844 235.571 129.339 235.692C129.833 235.813 130.239 235.977 130.557 236.182L129.983 237.246C129.376 236.854 128.662 236.658 127.841 236.658C127.271 236.658 126.837 236.751 126.539 236.938C126.24 237.125 126.091 237.372 126.091 237.68C126.091 237.923 126.175 238.114 126.343 238.254C126.511 238.394 126.716 238.497 126.959 238.562C127.211 238.627 127.561 238.702 128.009 238.786C128.606 238.889 129.087 239.001 129.451 239.122C129.824 239.234 130.141 239.43 130.403 239.71C130.664 239.99 130.795 240.382 130.795 240.886C130.795 241.558 130.505 242.095 129.927 242.496C129.357 242.888 128.578 243.084 127.589 243.084ZM132.474 235.58H133.818V243H132.474V235.58ZM133.146 234.152C132.885 234.152 132.666 234.068 132.488 233.9C132.32 233.732 132.236 233.527 132.236 233.284C132.236 233.041 132.32 232.836 132.488 232.668C132.666 232.491 132.885 232.402 133.146 232.402C133.408 232.402 133.622 232.486 133.79 232.654C133.968 232.813 134.056 233.013 134.056 233.256C134.056 233.508 133.968 233.723 133.79 233.9C133.622 234.068 133.408 234.152 133.146 234.152ZM139.1 233.634C138.298 233.634 137.896 234.068 137.896 234.936V235.58H140.052V236.686H137.924V243H136.58V236.686H135.32V235.58H136.58V234.922C136.58 234.185 136.795 233.601 137.224 233.172C137.654 232.743 138.256 232.528 139.03 232.528C139.329 232.528 139.609 232.565 139.87 232.64C140.132 232.715 140.356 232.822 140.542 232.962L140.136 233.984C139.828 233.751 139.483 233.634 139.1 233.634ZM143.885 235.51C144.912 235.51 145.696 235.762 146.237 236.266C146.788 236.77 147.063 237.521 147.063 238.52V243H145.789V242.02C145.565 242.365 145.243 242.631 144.823 242.818C144.413 242.995 143.923 243.084 143.353 243.084C142.523 243.084 141.855 242.883 141.351 242.482C140.857 242.081 140.609 241.553 140.609 240.9C140.609 240.247 140.847 239.724 141.323 239.332C141.799 238.931 142.555 238.73 143.591 238.73H145.719V238.464C145.719 237.885 145.551 237.442 145.215 237.134C144.879 236.826 144.385 236.672 143.731 236.672C143.293 236.672 142.863 236.747 142.443 236.896C142.023 237.036 141.669 237.227 141.379 237.47L140.819 236.462C141.202 236.154 141.659 235.921 142.191 235.762C142.723 235.594 143.288 235.51 143.885 235.51ZM143.577 242.048C144.091 242.048 144.534 241.936 144.907 241.712C145.281 241.479 145.551 241.152 145.719 240.732V239.696H143.647C142.509 239.696 141.939 240.079 141.939 240.844C141.939 241.217 142.084 241.511 142.373 241.726C142.663 241.941 143.064 242.048 143.577 242.048ZM153.722 242.566C153.526 242.734 153.284 242.865 152.994 242.958C152.705 243.042 152.406 243.084 152.098 243.084C151.352 243.084 150.773 242.883 150.362 242.482C149.952 242.081 149.746 241.507 149.746 240.76V236.686H148.486V235.58H149.746V233.956H151.09V235.58H153.218V236.686H151.09V240.704C151.09 241.105 151.188 241.413 151.384 241.628C151.59 241.843 151.879 241.95 152.252 241.95C152.663 241.95 153.013 241.833 153.302 241.6L153.722 242.566ZM155.347 235.58H156.691V243H155.347V235.58ZM156.019 234.152C155.758 234.152 155.539 234.068 155.361 233.9C155.193 233.732 155.109 233.527 155.109 233.284C155.109 233.041 155.193 232.836 155.361 232.668C155.539 232.491 155.758 232.402 156.019 232.402C156.281 232.402 156.495 232.486 156.663 232.654C156.841 232.813 156.929 233.013 156.929 233.256C156.929 233.508 156.841 233.723 156.663 233.9C156.495 234.068 156.281 234.152 156.019 234.152ZM166.257 232.612V243H164.969V241.824C164.671 242.235 164.293 242.547 163.835 242.762C163.378 242.977 162.874 243.084 162.323 243.084C161.605 243.084 160.961 242.925 160.391 242.608C159.822 242.291 159.374 241.847 159.047 241.278C158.73 240.699 158.571 240.037 158.571 239.29C158.571 238.543 158.73 237.885 159.047 237.316C159.374 236.747 159.822 236.303 160.391 235.986C160.961 235.669 161.605 235.51 162.323 235.51C162.855 235.51 163.345 235.613 163.793 235.818C164.241 236.014 164.615 236.308 164.913 236.7V232.612H166.257ZM162.435 241.908C162.902 241.908 163.327 241.801 163.709 241.586C164.092 241.362 164.391 241.054 164.605 240.662C164.82 240.261 164.927 239.803 164.927 239.29C164.927 238.777 164.82 238.324 164.605 237.932C164.391 237.531 164.092 237.223 163.709 237.008C163.327 236.793 162.902 236.686 162.435 236.686C161.959 236.686 161.53 236.793 161.147 237.008C160.774 237.223 160.475 237.531 160.251 237.932C160.037 238.324 159.929 238.777 159.929 239.29C159.929 239.803 160.037 240.261 160.251 240.662C160.475 241.054 160.774 241.362 161.147 241.586C161.53 241.801 161.959 241.908 162.435 241.908ZM171.502 235.51C172.529 235.51 173.313 235.762 173.854 236.266C174.405 236.77 174.68 237.521 174.68 238.52V243H173.406V242.02C173.182 242.365 172.86 242.631 172.44 242.818C172.03 242.995 171.54 243.084 170.97 243.084C170.14 243.084 169.472 242.883 168.968 242.482C168.474 242.081 168.226 241.553 168.226 240.9C168.226 240.247 168.464 239.724 168.94 239.332C169.416 238.931 170.172 238.73 171.208 238.73H173.336V238.464C173.336 237.885 173.168 237.442 172.832 237.134C172.496 236.826 172.002 236.672 171.348 236.672C170.91 236.672 170.48 236.747 170.06 236.896C169.64 237.036 169.286 237.227 168.996 237.47L168.436 236.462C168.819 236.154 169.276 235.921 169.808 235.762C170.34 235.594 170.905 235.51 171.502 235.51ZM171.194 242.048C171.708 242.048 172.151 241.936 172.524 241.712C172.898 241.479 173.168 241.152 173.336 240.732V239.696H171.264C170.126 239.696 169.556 240.079 169.556 240.844C169.556 241.217 169.701 241.511 169.99 241.726C170.28 241.941 170.681 242.048 171.194 242.048ZM182.215 236.826C182.449 236.397 182.794 236.07 183.251 235.846C183.709 235.622 184.264 235.51 184.917 235.51V236.812C184.843 236.803 184.74 236.798 184.609 236.798C183.881 236.798 183.307 237.017 182.887 237.456C182.477 237.885 182.271 238.501 182.271 239.304V243H180.927V235.58H182.215V236.826ZM189.683 243.084C188.946 243.084 188.283 242.921 187.695 242.594C187.107 242.267 186.645 241.819 186.309 241.25C185.983 240.671 185.819 240.018 185.819 239.29C185.819 238.562 185.983 237.913 186.309 237.344C186.645 236.765 187.107 236.317 187.695 236C188.283 235.673 188.946 235.51 189.683 235.51C190.421 235.51 191.079 235.673 191.657 236C192.245 236.317 192.703 236.765 193.029 237.344C193.365 237.913 193.533 238.562 193.533 239.29C193.533 240.018 193.365 240.671 193.029 241.25C192.703 241.819 192.245 242.267 191.657 242.594C191.079 242.921 190.421 243.084 189.683 243.084ZM189.683 241.908C190.159 241.908 190.584 241.801 190.957 241.586C191.34 241.362 191.639 241.054 191.853 240.662C192.068 240.261 192.175 239.803 192.175 239.29C192.175 238.777 192.068 238.324 191.853 237.932C191.639 237.531 191.34 237.223 190.957 237.008C190.584 236.793 190.159 236.686 189.683 236.686C189.207 236.686 188.778 236.793 188.395 237.008C188.022 237.223 187.723 237.531 187.499 237.932C187.285 238.324 187.177 238.777 187.177 239.29C187.177 239.803 187.285 240.261 187.499 240.662C187.723 241.054 188.022 241.362 188.395 241.586C188.778 241.801 189.207 241.908 189.683 241.908ZM195.701 232.528C195.962 232.528 196.177 232.621 196.345 232.808C196.522 232.985 196.611 233.209 196.611 233.48C196.611 233.62 196.597 233.76 196.569 233.9C196.541 234.031 196.48 234.222 196.387 234.474L195.715 236.434H194.833L195.351 234.348C195.173 234.283 195.029 234.175 194.917 234.026C194.814 233.867 194.763 233.685 194.763 233.48C194.763 233.2 194.851 232.971 195.029 232.794C195.206 232.617 195.43 232.528 195.701 232.528ZM205.335 235.58L201.737 243.742C201.42 244.498 201.046 245.03 200.617 245.338C200.197 245.646 199.688 245.8 199.091 245.8C198.727 245.8 198.372 245.739 198.027 245.618C197.691 245.506 197.411 245.338 197.187 245.114L197.761 244.106C198.144 244.47 198.587 244.652 199.091 244.652C199.418 244.652 199.688 244.563 199.903 244.386C200.127 244.218 200.328 243.924 200.505 243.504L200.743 242.986L197.467 235.58H198.867L201.457 241.516L204.019 235.58H205.335ZM210.551 235.51C211.494 235.51 212.241 235.785 212.791 236.336C213.351 236.877 213.631 237.675 213.631 238.73V243H212.287V238.884C212.287 238.165 212.115 237.624 211.769 237.26C211.424 236.896 210.929 236.714 210.285 236.714C209.557 236.714 208.983 236.929 208.563 237.358C208.143 237.778 207.933 238.385 207.933 239.178V243H206.589V232.612H207.933V236.63C208.213 236.275 208.577 236 209.025 235.804C209.483 235.608 209.991 235.51 210.551 235.51ZM218.821 235.51C219.847 235.51 220.631 235.762 221.173 236.266C221.723 236.77 221.999 237.521 221.999 238.52V243H220.725V242.02C220.501 242.365 220.179 242.631 219.759 242.818C219.348 242.995 218.858 243.084 218.289 243.084C217.458 243.084 216.791 242.883 216.287 242.482C215.792 242.081 215.545 241.553 215.545 240.9C215.545 240.247 215.783 239.724 216.259 239.332C216.735 238.931 217.491 238.73 218.527 238.73H220.655V238.464C220.655 237.885 220.487 237.442 220.151 237.134C219.815 236.826 219.32 236.672 218.667 236.672C218.228 236.672 217.799 236.747 217.379 236.896C216.959 237.036 216.604 237.227 216.315 237.47L215.755 236.462C216.137 236.154 216.595 235.921 217.127 235.762C217.659 235.594 218.223 235.51 218.821 235.51ZM218.513 242.048C219.026 242.048 219.469 241.936 219.843 241.712C220.216 241.479 220.487 241.152 220.655 240.732V239.696H218.583C217.444 239.696 216.875 240.079 216.875 240.844C216.875 241.217 217.019 241.511 217.309 241.726C217.598 241.941 217.999 242.048 218.513 242.048ZM228.658 242.566C228.462 242.734 228.219 242.865 227.93 242.958C227.641 243.042 227.342 243.084 227.034 243.084C226.287 243.084 225.709 242.883 225.298 242.482C224.887 242.081 224.682 241.507 224.682 240.76V236.686H223.422V235.58H224.682V233.956H226.026V235.58H228.154V236.686H226.026V240.704C226.026 241.105 226.124 241.413 226.32 241.628C226.525 241.843 226.815 241.95 227.188 241.95C227.599 241.95 227.949 241.833 228.238 241.6L228.658 242.566ZM234.277 242.566C234.081 242.734 233.838 242.865 233.549 242.958C233.26 243.042 232.961 243.084 232.653 243.084C231.906 243.084 231.328 242.883 230.917 242.482C230.506 242.081 230.301 241.507 230.301 240.76V236.686H229.041V235.58H230.301V233.956H231.645V235.58H233.773V236.686H231.645V240.704C231.645 241.105 231.743 241.413 231.939 241.628C232.144 241.843 232.434 241.95 232.807 241.95C233.218 241.95 233.568 241.833 233.857 241.6L234.277 242.566ZM238.604 235.51C239.631 235.51 240.415 235.762 240.956 236.266C241.507 236.77 241.782 237.521 241.782 238.52V243H240.508V242.02C240.284 242.365 239.962 242.631 239.542 242.818C239.131 242.995 238.641 243.084 238.072 243.084C237.241 243.084 236.574 242.883 236.07 242.482C235.575 242.081 235.328 241.553 235.328 240.9C235.328 240.247 235.566 239.724 236.042 239.332C236.518 238.931 237.274 238.73 238.31 238.73H240.438V238.464C240.438 237.885 240.27 237.442 239.934 237.134C239.598 236.826 239.103 236.672 238.45 236.672C238.011 236.672 237.582 236.747 237.162 236.896C236.742 237.036 236.387 237.227 236.098 237.47L235.538 236.462C235.921 236.154 236.378 235.921 236.91 235.762C237.442 235.594 238.007 235.51 238.604 235.51ZM238.296 242.048C238.809 242.048 239.253 241.936 239.626 241.712C239.999 241.479 240.27 241.152 240.438 240.732V239.696H238.366C237.227 239.696 236.658 240.079 236.658 240.844C236.658 241.217 236.803 241.511 237.092 241.726C237.381 241.941 237.783 242.048 238.296 242.048ZM248.231 235.51C249.174 235.51 249.92 235.785 250.471 236.336C251.031 236.877 251.311 237.675 251.311 238.73V243H249.967V238.884C249.967 238.165 249.794 237.624 249.449 237.26C249.104 236.896 248.609 236.714 247.965 236.714C247.237 236.714 246.663 236.929 246.243 237.358C245.823 237.778 245.613 238.385 245.613 239.178V243H244.269V235.58H245.557V236.7C245.828 236.317 246.192 236.023 246.649 235.818C247.116 235.613 247.643 235.51 248.231 235.51ZM123.115 261.084C122.378 261.084 121.715 260.921 121.127 260.594C120.539 260.267 120.077 259.819 119.741 259.25C119.414 258.671 119.251 258.018 119.251 257.29C119.251 256.562 119.414 255.913 119.741 255.344C120.077 254.765 120.539 254.317 121.127 254C121.715 253.673 122.378 253.51 123.115 253.51C123.852 253.51 124.51 253.673 125.089 254C125.677 254.317 126.134 254.765 126.461 255.344C126.797 255.913 126.965 256.562 126.965 257.29C126.965 258.018 126.797 258.671 126.461 259.25C126.134 259.819 125.677 260.267 125.089 260.594C124.51 260.921 123.852 261.084 123.115 261.084ZM123.115 259.908C123.591 259.908 124.016 259.801 124.389 259.586C124.772 259.362 125.07 259.054 125.285 258.662C125.5 258.261 125.607 257.803 125.607 257.29C125.607 256.777 125.5 256.324 125.285 255.932C125.07 255.531 124.772 255.223 124.389 255.008C124.016 254.793 123.591 254.686 123.115 254.686C122.639 254.686 122.21 254.793 121.827 255.008C121.454 255.223 121.155 255.531 120.931 255.932C120.716 256.324 120.609 256.777 120.609 257.29C120.609 257.803 120.716 258.261 120.931 258.662C121.155 259.054 121.454 259.362 121.827 259.586C122.21 259.801 122.639 259.908 123.115 259.908ZM129.132 250.528C129.394 250.528 129.608 250.621 129.776 250.808C129.954 250.985 130.042 251.209 130.042 251.48C130.042 251.62 130.028 251.76 130 251.9C129.972 252.031 129.912 252.222 129.818 252.474L129.146 254.434H128.264L128.782 252.348C128.605 252.283 128.46 252.175 128.348 252.026C128.246 251.867 128.194 251.685 128.194 251.48C128.194 251.2 128.283 250.971 128.46 250.794C128.638 250.617 128.862 250.528 129.132 250.528ZM136.181 260.566C135.985 260.734 135.743 260.865 135.453 260.958C135.164 261.042 134.865 261.084 134.557 261.084C133.811 261.084 133.232 260.883 132.821 260.482C132.411 260.081 132.205 259.507 132.205 258.76V254.686H130.945V253.58H132.205V251.956H133.549V253.58H135.677V254.686H133.549V258.704C133.549 259.105 133.647 259.413 133.843 259.628C134.049 259.843 134.338 259.95 134.711 259.95C135.122 259.95 135.472 259.833 135.761 259.6L136.181 260.566ZM140.508 253.51C141.535 253.51 142.319 253.762 142.86 254.266C143.411 254.77 143.686 255.521 143.686 256.52V261H142.412V260.02C142.188 260.365 141.866 260.631 141.446 260.818C141.036 260.995 140.546 261.084 139.976 261.084C139.146 261.084 138.478 260.883 137.974 260.482C137.48 260.081 137.232 259.553 137.232 258.9C137.232 258.247 137.47 257.724 137.946 257.332C138.422 256.931 139.178 256.73 140.214 256.73H142.342V256.464C142.342 255.885 142.174 255.442 141.838 255.134C141.502 254.826 141.008 254.672 140.354 254.672C139.916 254.672 139.486 254.747 139.066 254.896C138.646 255.036 138.292 255.227 138.002 255.47L137.442 254.462C137.825 254.154 138.282 253.921 138.814 253.762C139.346 253.594 139.911 253.51 140.508 253.51ZM140.2 260.048C140.714 260.048 141.157 259.936 141.53 259.712C141.904 259.479 142.174 259.152 142.342 258.732V257.696H140.27C139.132 257.696 138.562 258.079 138.562 258.844C138.562 259.217 138.707 259.511 138.996 259.726C139.286 259.941 139.687 260.048 140.2 260.048ZM148.301 261.084C147.695 261.084 147.111 261.005 146.551 260.846C145.991 260.678 145.553 260.468 145.235 260.216L145.795 259.152C146.122 259.385 146.519 259.572 146.985 259.712C147.452 259.852 147.923 259.922 148.399 259.922C149.575 259.922 150.163 259.586 150.163 258.914C150.163 258.69 150.084 258.513 149.925 258.382C149.767 258.251 149.566 258.158 149.323 258.102C149.09 258.037 148.754 257.967 148.315 257.892C147.718 257.799 147.228 257.691 146.845 257.57C146.472 257.449 146.15 257.243 145.879 256.954C145.609 256.665 145.473 256.259 145.473 255.736C145.473 255.064 145.753 254.527 146.313 254.126C146.873 253.715 147.625 253.51 148.567 253.51C149.062 253.51 149.557 253.571 150.051 253.692C150.546 253.813 150.952 253.977 151.269 254.182L150.695 255.246C150.089 254.854 149.375 254.658 148.553 254.658C147.984 254.658 147.55 254.751 147.251 254.938C146.953 255.125 146.803 255.372 146.803 255.68C146.803 255.923 146.887 256.114 147.055 256.254C147.223 256.394 147.429 256.497 147.671 256.562C147.923 256.627 148.273 256.702 148.721 256.786C149.319 256.889 149.799 257.001 150.163 257.122C150.537 257.234 150.854 257.43 151.115 257.71C151.377 257.99 151.507 258.382 151.507 258.886C151.507 259.558 151.218 260.095 150.639 260.496C150.07 260.888 149.291 261.084 148.301 261.084ZM153.187 253.58H154.531V261H153.187V253.58ZM153.859 252.152C153.598 252.152 153.378 252.068 153.201 251.9C153.033 251.732 152.949 251.527 152.949 251.284C152.949 251.041 153.033 250.836 153.201 250.668C153.378 250.491 153.598 250.402 153.859 250.402C154.12 250.402 154.335 250.486 154.503 250.654C154.68 250.813 154.769 251.013 154.769 251.256C154.769 251.508 154.68 251.723 154.503 251.9C154.335 252.068 154.12 252.152 153.859 252.152ZM162.599 259.894V261H156.383V260.132L160.765 254.686H156.467V253.58H162.487V254.462L158.105 259.894H162.599ZM164.761 261.084C164.5 261.084 164.276 260.995 164.089 260.818C163.902 260.631 163.809 260.398 163.809 260.118C163.809 259.847 163.902 259.623 164.089 259.446C164.276 259.259 164.5 259.166 164.761 259.166C165.022 259.166 165.242 259.255 165.419 259.432C165.596 259.609 165.685 259.838 165.685 260.118C165.685 260.398 165.592 260.631 165.405 260.818C165.228 260.995 165.013 261.084 164.761 261.084Z" fill="black"/>
<path d="M93.2461 128.687L89.0118 125.998C88.8173 123.638 88.7565 121.268 88.8298 118.9L91.0263 119.46L88.8583 118.083C88.978 115.156 89.2432 113.226 89.2432 113.226C89.2432 113.226 97.8045 118.769 103.265 126.283L102.334 132.638L104.554 128.194C105.122 129.1 105.632 130.041 106.082 131.011C110.58 140.808 111.018 150.215 107.058 152.022C103.099 153.828 96.2419 147.351 91.7432 137.554C90.3486 134.517 89.5787 131.025 89.1798 127.652L93.2461 128.687Z" fill="#F0F0F0"/>
<path d="M84.5496 138.144L79.5305 138.024C78.1398 136.103 76.859 134.106 75.694 132.041L77.8644 131.388L75.2946 131.327C73.8795 128.76 73.1055 126.97 73.1055 126.97C73.1055 126.97 83.3089 127.305 91.8793 130.923L94.3774 136.843L93.9739 131.895C94.93 132.378 95.8548 132.92 96.7426 133.519C105.674 139.588 110.926 147.415 108.473 151.002C106.02 154.589 96.792 152.577 87.8608 146.508C85.092 144.627 82.6223 142.034 80.5317 139.352L84.5496 138.144Z" fill="#F0F0F0"/>
<path d="M156.084 64.1993L152.151 63.738L150.763 75.731L147.219 92.2923C146.726 92.5315 146.324 92.923 146.072 93.4084C145.821 93.8938 145.733 94.4473 145.822 94.9864C145.912 95.5255 146.173 96.0213 146.568 96.4002C146.963 96.7791 147.47 97.0207 148.014 97.0891C148.558 97.1574 149.11 97.0489 149.586 96.7796C150.063 96.5104 150.44 96.0947 150.661 95.5947C150.882 95.0946 150.935 94.5368 150.812 94.0043C150.689 93.4718 150.397 92.993 149.98 92.6394L153.539 82.8806L156.084 64.1993Z" fill="#FFB6B6"/>
<path d="M161.798 149.698H158.557L157.016 137.238L161.798 137.239L161.798 149.698Z" fill="#FFB6B6"/>
<path d="M162.624 152.829L152.175 152.829V152.697C152.175 151.622 152.604 150.591 153.366 149.831C154.129 149.07 155.164 148.643 156.242 148.643H156.242L162.624 148.643L162.624 152.829Z" fill="black"/>
<path d="M186.667 147.936L183.486 148.549L179.601 136.606L184.297 135.703L186.667 147.936Z" fill="#FFB6B6"/>
<path d="M188.074 150.854L177.815 152.829L177.79 152.7C177.585 151.644 177.81 150.551 178.414 149.66C179.018 148.77 179.953 148.155 181.012 147.951L181.012 147.951L187.278 146.744L188.074 150.854Z" fill="black"/>
<path d="M156.717 44.5455L158.6 48.1465L172.701 45.046L171.157 38.0642C169.934 32.5378 165.032 28.5467 159.488 29.7656C153.944 30.9844 151.357 36.3859 152.58 41.9123L154.853 48.9703L157.152 48.4648L156.717 44.5455Z" fill="black"/>
<path d="M151.687 84.2644C151.687 84.2644 150.299 91.1834 152.15 101.331C154.001 111.479 154.464 115.861 154.464 115.861C154.464 115.861 153.076 117.476 154.001 118.398C154.926 119.321 154.001 121.166 154.001 121.166L156.083 143.537L163.256 142.384L162.33 121.396C162.33 121.396 163.256 119.551 162.793 119.09C162.33 118.629 163.256 115.861 163.256 115.861L164.412 93.951L171.585 117.937C171.585 117.937 170.891 118.859 171.585 119.551C172.279 120.243 173.667 123.703 173.667 123.703L178.294 139.847L185.698 138.463L181.533 120.013C181.533 120.013 181.996 118.859 181.302 118.168C181.1 117.956 180.952 117.698 180.871 117.417C180.791 117.136 180.78 116.839 180.839 116.553C180.839 116.553 181.533 115.861 180.608 114.939C179.683 114.016 179.22 110.326 179.22 110.326C179.22 110.326 178.526 85.6482 176.212 84.2644C173.898 82.8806 151.687 84.2644 151.687 84.2644Z" fill="black"/>
<path d="M162.15 46.1035C165.728 46.1035 168.628 43.2122 168.628 39.6457C168.628 36.0792 165.728 33.188 162.15 33.188C158.572 33.188 155.672 36.0792 155.672 39.6457C155.672 43.2122 158.572 46.1035 162.15 46.1035Z" fill="#FFB6B6"/>
<path d="M171.278 47.9119C171.278 47.9119 175.98 47.3629 177.369 48.7467L175.98 76.6533C175.98 76.6533 176.906 77.3452 176.443 78.9597C176.175 80.0193 176.175 81.1289 176.443 82.1885C176.443 82.1885 177.831 83.803 177.137 84.4949C176.443 85.1868 151.456 84.7255 151.456 84.7255C151.456 84.7255 150.53 83.1111 151.918 82.1885C153.307 81.266 152.613 78.729 152.613 78.729C152.613 78.729 152.15 78.0371 153.307 76.884C154.463 75.7308 155.389 66.2748 155.389 66.2748L152.381 54.7431C152.381 54.7431 155.409 51.3366 158.869 51.0795L171.278 47.9119Z" fill="#004900"/>
<path d="M155.965 54.9019L152.381 54.7432C152.381 54.7432 150.299 58.8946 150.067 62.5847L148.793 76.3508L157.008 77.5759L155.965 54.9019Z" fill="#004900"/>
<path d="M156.599 39.9661L154.192 36.8798C154.05 36.23 154.172 35.5506 154.531 34.9901C154.89 34.4297 155.458 34.0336 156.109 33.8887L165.199 31.8899C165.851 31.7484 166.533 31.8699 167.095 32.2278C167.657 32.5858 168.055 33.151 168.2 33.8L168.205 33.8223L167.554 37.5492L167.44 37.5288C161.798 36.5261 160.191 36.8788 156.691 39.8872L156.599 39.9661Z" fill="black"/>
<path d="M180.811 89.2785L180.377 71.1184L179.915 58.2029L174.362 58.8948L177.344 89.7641C177.027 90.1611 176.836 90.6439 176.797 91.1499C176.758 91.656 176.872 92.1621 177.124 92.6029C177.377 93.0437 177.756 93.3988 178.213 93.6224C178.67 93.846 179.184 93.9278 179.689 93.8571C180.193 93.7865 180.664 93.5667 181.042 93.2262C181.419 92.8857 181.686 92.4402 181.807 91.9471C181.928 91.454 181.897 90.9362 181.72 90.4604C181.542 89.9847 181.226 89.573 180.811 89.2785Z" fill="#FFB6B6"/>
<path d="M173.319 49.1362L177.37 48.7468C177.37 48.7468 178.064 48.7468 178.758 51.0532C179.452 53.3595 183.268 77.7347 183.268 77.7347L174.825 78.4986L173.319 49.1362Z" fill="#004900"/>
<path d="M148.152 77.9516H147.611V63.1678C147.611 62.0441 147.389 60.9315 146.957 59.8934C146.526 58.8553 145.894 57.912 145.097 57.1175C144.3 56.3229 143.353 55.6927 142.312 55.2627C141.271 54.8326 140.154 54.6113 139.027 54.6113H107.606C106.479 54.6113 105.363 54.8326 104.322 55.2626C103.28 55.6926 102.334 56.3229 101.537 57.1174C100.74 57.912 100.108 58.8552 99.6762 59.8933C99.2448 60.9315 99.0228 62.0441 99.0228 63.1678V144.273C99.0228 146.542 99.9271 148.718 101.537 150.323C103.147 151.928 105.33 152.829 107.606 152.829H139.027C141.304 152.829 143.487 151.928 145.097 150.323C146.706 148.719 147.611 146.542 147.611 144.273V88.4749H148.152V77.9516Z" fill="#353535"/>
<path d="M139.374 56.8377H135.273C135.461 57.2986 135.533 57.7987 135.482 58.294C135.431 58.7892 135.259 59.2643 134.98 59.6775C134.702 60.0907 134.326 60.4293 133.885 60.6634C133.444 60.8975 132.952 61.02 132.453 61.02H114.452C113.953 61.02 113.461 60.8975 113.02 60.6634C112.58 60.4293 112.203 60.0907 111.925 59.6775C111.646 59.2643 111.474 58.7892 111.423 58.294C111.372 57.7987 111.444 57.2986 111.633 56.8376H107.802C106.102 56.8376 104.471 57.5109 103.269 58.7092C102.067 59.9075 101.392 61.5328 101.392 63.2275V144.214C101.392 145.053 101.558 145.884 101.88 146.659C102.202 147.434 102.674 148.139 103.269 148.732C103.864 149.325 104.571 149.796 105.349 150.117C106.127 150.438 106.96 150.603 107.802 150.603H139.374C140.216 150.603 141.049 150.438 141.827 150.117C142.605 149.796 143.311 149.325 143.907 148.732C144.502 148.139 144.974 147.434 145.296 146.659C145.618 145.884 145.784 145.053 145.784 144.214V63.2275C145.784 62.3884 145.618 61.5575 145.296 60.7822C144.974 60.007 144.502 59.3026 143.907 58.7092C143.311 58.1158 142.605 57.6452 141.827 57.3241C141.049 57.0029 140.216 56.8377 139.374 56.8377Z" fill="white"/>
<path d="M118.519 86.2697L119.392 89.2843L130.548 89.0881L130.45 83.5646C130.373 79.1926 127.273 75.4218 122.888 75.499C118.502 75.5761 115.713 79.2722 115.79 83.6442L116.428 89.3364L118.247 89.3044L118.519 86.2697Z" fill="black"/>
<path d="M123.387 88.3779C126.151 88.3779 128.392 86.1439 128.392 83.3882C128.392 80.6324 126.151 78.3984 123.387 78.3984C120.622 78.3984 118.381 80.6324 118.381 83.3882C118.381 86.1439 120.622 88.3779 123.387 88.3779Z" fill="#FFB6B6"/>
<path d="M133.35 91.1691L133.237 93.2678C130.834 95.7588 127.557 97.225 124.094 97.3588C120.63 97.4925 117.249 96.2833 114.66 93.9851C114.545 93.8836 114.431 93.7775 114.32 93.6691C115.014 92.9819 116.93 91.2844 119.056 91.1276L128.644 90.5256C128.644 90.5256 132.277 90.1012 133.35 91.1691Z" fill="#E4E4E4"/>
<path d="M128.867 79.8845C128.86 79.5024 128.74 79.1309 128.522 78.8167C128.499 78.7844 128.476 78.7544 128.453 78.7244C128.267 78.4885 128.029 78.2984 127.758 78.1692C127.487 78.04 127.189 77.975 126.888 77.9795L123.291 78.044L119.695 78.1063C119.18 78.1166 118.69 78.3298 118.332 78.6994C117.975 79.069 117.778 79.5647 117.787 80.0782L118.643 81.7964L119.135 82.7835L119.216 82.7374C122.328 80.9938 123.601 80.9708 127.719 82.5921L127.802 82.6244L128.129 81.7918L128.869 79.9029L128.867 79.8845Z" fill="black"/>
<path d="M134.16 92.2093C133.134 93.5178 131.874 94.6264 130.444 95.4797L130.22 91.4713L133.35 91.1692C133.35 91.1692 133.725 91.1692 134.16 92.2093Z" fill="#E4E4E4"/>
<path d="M123.576 97.5946C120.232 97.5984 117.004 96.3749 114.507 94.1577C114.389 94.0543 114.273 93.9454 114.159 93.834C112.815 92.5687 111.746 91.042 111.018 89.3483C110.289 87.6546 109.917 85.83 109.925 83.9873C109.925 80.3784 111.363 76.9173 113.923 74.3654C116.483 71.8135 119.955 70.3799 123.576 70.3799C127.196 70.3799 130.668 71.8135 133.228 74.3654C135.788 76.9173 137.226 80.3784 137.226 83.9873C137.237 87.0194 136.222 89.9666 134.343 92.3513C133.067 93.9847 131.434 95.3061 129.568 96.2148C127.702 97.1234 125.652 97.5954 123.576 97.5946ZM123.576 70.8411C120.079 70.8451 116.727 72.2314 114.255 74.6959C111.782 77.1604 110.392 80.5019 110.388 83.9873C110.381 85.768 110.74 87.5312 111.444 89.1678C112.148 90.8045 113.181 92.2797 114.48 93.5021C114.591 93.61 114.701 93.7133 114.814 93.812C116.163 95.0044 117.743 95.9088 119.456 96.4693C121.169 97.0298 122.979 97.2347 124.775 97.0712C126.57 96.9078 128.313 96.3794 129.896 95.5188C131.479 94.6582 132.868 93.4836 133.978 92.0673C135.793 89.7636 136.774 86.9164 136.763 83.9873C136.759 80.5019 135.369 77.1604 132.896 74.6959C130.424 72.2314 127.072 70.8451 123.576 70.8411Z" fill="#353535"/>
<path d="M135.847 116.46H111.799C111.559 116.46 111.322 116.413 111.1 116.321C110.879 116.23 110.678 116.096 110.508 115.927C110.338 115.758 110.204 115.557 110.112 115.336C110.02 115.115 109.973 114.879 109.973 114.64C109.973 114.401 110.02 114.164 110.112 113.943C110.204 113.722 110.338 113.522 110.508 113.353C110.678 113.184 110.879 113.05 111.1 112.958C111.322 112.867 111.559 112.82 111.799 112.82H135.847C136.087 112.82 136.324 112.867 136.546 112.958C136.767 113.05 136.968 113.184 137.138 113.353C137.308 113.522 137.442 113.722 137.534 113.943C137.626 114.164 137.673 114.401 137.673 114.64C137.673 114.879 137.626 115.115 137.534 115.336C137.442 115.557 137.308 115.758 137.138 115.927C136.968 116.096 136.767 116.23 136.546 116.321C136.324 116.413 136.087 116.46 135.847 116.46Z" fill="#326A32"/>
<path d="M135.847 122.226H111.799C111.315 122.226 110.85 122.034 110.508 121.693C110.166 121.351 109.973 120.888 109.973 120.406C109.973 119.923 110.166 119.46 110.508 119.119C110.85 118.777 111.315 118.585 111.799 118.585H135.847C136.331 118.585 136.796 118.777 137.138 119.119C137.48 119.46 137.673 119.923 137.673 120.406C137.673 120.888 137.48 121.351 137.138 121.693C136.796 122.034 136.331 122.226 135.847 122.226Z" fill="#326A32"/>
<path d="M129.992 110.624H117.652C117.168 110.624 116.704 110.432 116.361 110.091C116.019 109.75 115.826 109.287 115.826 108.804C115.826 108.321 116.019 107.858 116.361 107.517C116.704 107.176 117.168 106.984 117.652 106.984H129.992C130.476 106.984 130.94 107.176 131.283 107.517C131.625 107.858 131.817 108.321 131.817 108.804C131.817 109.287 131.625 109.75 131.283 110.091C130.94 110.432 130.476 110.624 129.992 110.624Z" fill="#326A32"/>
<path d="M212.051 153H73.2314C73.17 153 73.1112 152.976 73.0678 152.932C73.0244 152.889 73 152.83 73 152.769C73 152.708 73.0244 152.649 73.0678 152.606C73.1112 152.563 73.17 152.539 73.2314 152.539H212.051C212.112 152.539 212.171 152.563 212.214 152.606C212.258 152.649 212.282 152.708 212.282 152.769C212.282 152.83 212.258 152.889 212.214 152.932C212.171 152.976 212.112 153 212.051 153Z" fill="#CACACA"/>
</svg>
