<svg width="24" height="24" viewBox="0 0 24 24" fill="none" xmlns="http://www.w3.org/2000/svg">
<circle cx="12" cy="12" r="12" fill="#ECECEC"/>
<path d="M8.76538 16.0833L6.16663 18.125V7.33333C6.16663 7.17862 6.22808 7.03025 6.33748 6.92085C6.44688 6.81146 6.59525 6.75 6.74996 6.75H17.25C17.4047 6.75 17.553 6.81146 17.6624 6.92085C17.7718 7.03025 17.8333 7.17862 17.8333 7.33333V15.5C17.8333 15.6547 17.7718 15.8031 17.6624 15.9125C17.553 16.0219 17.4047 16.0833 17.25 16.0833H8.76538ZM8.36171 14.9167H16.6666V7.91667H7.33329V15.7246L8.36171 14.9167ZM11.4166 10.8333H12.5833V12H11.4166V10.8333ZM9.08329 10.8333H10.25V12H9.08329V10.8333ZM13.75 10.8333H14.9166V12H13.75V10.8333Z" fill="#326A32"/>
</svg>
