<svg width="487" height="336" viewBox="0 0 487 336" fill="none" xmlns="http://www.w3.org/2000/svg">
<g clip-path="url(#clip0)">
<path d="M48.0053 311.291C48.215 319.125 49.5267 326.891 51.9017 334.36C51.9544 334.533 52.0128 334.704 52.0697 334.877H66.6093C66.5941 334.722 66.5783 334.548 66.563 334.36C65.5936 323.208 71.1319 256.145 77.8148 244.538C77.2293 245.48 46.8779 275.857 48.0053 311.291Z" fill="#E6E6E6"/>
<path d="M49.0963 334.359C49.2179 334.533 49.3443 334.706 49.4738 334.877H60.3818C60.2992 334.729 60.2033 334.556 60.0922 334.359C58.2904 331.106 52.957 321.376 48.0063 311.291C42.6882 300.452 37.8049 289.202 38.2162 285.131C38.0888 286.049 34.4071 314.043 49.0963 334.359Z" fill="#E6E6E6"/>
<path d="M225.9 322.894C226.007 326.874 226.673 330.82 227.88 334.614C227.907 334.702 227.936 334.789 227.965 334.877H235.352C235.345 334.798 235.337 334.71 235.329 334.614C234.836 328.948 237.65 294.876 241.045 288.979C240.748 289.458 225.328 304.891 225.9 322.894Z" fill="#E6E6E6"/>
<path d="M226.455 334.614C226.516 334.702 226.581 334.79 226.646 334.877H232.188C232.146 334.802 232.098 334.714 232.041 334.614C231.126 332.961 228.416 328.018 225.901 322.894C223.199 317.387 220.718 311.672 220.927 309.603C220.862 310.069 218.992 324.292 226.455 334.614Z" fill="#E6E6E6"/>
<path d="M182.167 95.9719L163.364 109.354L175.064 110.608L191.361 96.8096L182.167 95.9719Z" fill="#214521"/>
<path d="M108.603 324.466L119.912 324.466L125.292 280.818L108.601 280.819L108.603 324.466Z" fill="#9F616A"/>
<path d="M105.718 320.772L127.99 320.771H127.991C131.755 320.771 135.365 322.267 138.027 324.931C140.689 327.594 142.184 331.206 142.184 334.973V335.434L105.718 335.436L105.718 320.772Z" fill="#0B170B"/>
<path d="M101.492 168.567C101.492 168.567 96.5909 174.111 104.707 195.721L103.277 314.214L129.578 313.701L135.36 255.901L145.886 171.554L101.492 168.567Z" fill="#0B170B"/>
<path d="M75.2333 149.862C73.6793 149.858 72.1882 149.248 71.0764 148.162C69.9646 147.075 69.3195 145.598 69.2782 144.044L68.0439 97.5022L89.1632 57.4117C89.6427 56.5089 90.3444 55.7433 91.2019 55.1874C92.0594 54.6315 93.0444 54.3035 94.0638 54.2345L110.159 53.2006L108.769 147.017L75.7567 149.84C75.5815 149.855 75.407 149.862 75.2333 149.862Z" fill="#326A32"/>
<path d="M154.906 184.95L154.618 184.906C120.972 179.771 95.5816 174.849 95.3291 174.8L95.0137 174.738L103.834 153.273C103.764 151.03 101.855 88.0429 105.51 69.9461C109.048 52.4273 125.726 49.5563 127.627 49.2862L129.535 42.9595L153.644 55.5124L157.849 69.9926L158.703 109.679L154.906 184.95Z" fill="#214521"/>
<path d="M121.774 124.867C106.241 124.867 93.604 107.968 93.604 87.1959C93.604 66.4242 106.241 49.5252 121.774 49.5252C137.308 49.5252 149.945 66.4242 149.945 87.1959C149.945 107.968 137.308 124.867 121.774 124.867ZM121.774 53.2132C108.274 53.2132 97.2899 68.4578 97.2899 87.1959C97.2899 105.934 108.274 121.179 121.774 121.179C135.275 121.179 146.259 105.934 146.259 87.1959C146.259 68.4578 135.275 53.2132 121.774 53.2132Z" fill="#326A32"/>
<path d="M169.427 103.265C168.342 103.265 167.268 103.49 166.273 103.925C165.278 104.36 164.384 104.997 163.647 105.795H123.123L108.28 108.956L110.717 127.764L163.52 116.402C164.394 117.39 165.502 118.143 166.742 118.592C167.982 119.041 169.314 119.173 170.618 118.975C171.922 118.776 173.155 118.254 174.205 117.456C175.255 116.658 176.089 115.61 176.63 114.406C177.171 113.203 177.403 111.883 177.303 110.567C177.203 109.252 176.776 107.982 176.059 106.874C175.343 105.766 174.361 104.855 173.202 104.225C172.044 103.595 170.746 103.265 169.427 103.265Z" fill="#9F616A"/>
<path d="M166.452 40.2943C174.079 32.6627 174.079 20.2894 166.452 12.6579C158.825 5.02627 146.459 5.02628 138.832 12.6579C131.205 20.2895 131.205 32.6627 138.832 40.2943C146.459 47.9259 158.825 47.9259 166.452 40.2943Z" fill="#9F616A"/>
<path d="M134.273 10.8533L133.326 8.94655L138.091 6.57809C138.091 6.57809 143.346 -1.97846 152.856 0.426118C162.367 2.8307 166.645 4.26979 166.645 4.26979L171.398 6.66231L169.012 9.03677L173.291 10.4759L170.433 11.897L173.759 13.8098L171.968 23.6155C171.968 23.6155 168.994 16.1782 163.278 19.0203C157.561 21.8625 147.103 17.5512 147.103 17.5512L138.018 35.1439C138.018 35.1439 136.144 28.9768 132.803 30.6212C132.803 30.6212 124.265 17.0173 134.273 10.8533Z" fill="#0B170B"/>
<path d="M303.974 131.162L303.139 115.496L294.714 108.647L289.833 123.153L262.536 159.583C261.245 159.789 260.041 160.362 259.065 161.232C258.09 162.102 257.383 163.234 257.031 164.493C256.678 165.753 256.693 167.087 257.074 168.338C257.455 169.589 258.186 170.704 259.181 171.553C260.176 172.401 261.392 172.946 262.687 173.124C263.982 173.302 265.301 173.105 266.487 172.557C267.674 172.008 268.679 171.131 269.383 170.029C270.087 168.927 270.46 167.646 270.46 166.339C270.46 166.246 270.45 166.157 270.446 166.066L303.974 131.162Z" fill="#FFB7B7"/>
<path d="M320.197 328.598L313.742 328.597L310.67 303.683L320.198 303.684L320.197 328.598Z" fill="#FFB7B7"/>
<path d="M321.843 334.859L301.028 334.858V334.595C301.028 332.445 301.882 330.383 303.401 328.863C304.921 327.343 306.981 326.488 309.13 326.488H309.131L321.844 326.489L321.843 334.859Z" fill="#0B170B"/>
<path d="M350.21 328.598L343.755 328.597L340.684 303.683L350.212 303.684L350.21 328.598Z" fill="#FFB7B7"/>
<path d="M351.857 334.859L331.042 334.858V334.595C331.042 332.445 331.896 330.383 333.415 328.863C334.934 327.343 336.995 326.488 339.144 326.488H339.144L351.857 326.489L351.857 334.859Z" fill="#0B170B"/>
<path d="M343.387 65.7189C346.12 54.4275 348.436 41.692 343.282 31.2925C339.705 24.0768 326.475 21.6469 318.891 24.2464C311.307 26.846 305.824 33.8987 303.412 41.5884C301 49.278 301.281 57.5643 302.332 65.5582C316.28 65.2901 330.228 65.022 343.387 65.7189Z" fill="#0B170B"/>
<path d="M327.651 63.7215C335.533 59.4102 338.43 49.5217 334.121 41.6349C329.813 33.748 319.93 30.8495 312.048 35.1609C304.166 39.4722 301.269 49.3607 305.578 57.2475C309.886 65.1343 319.769 68.0328 327.651 63.7215Z" fill="#FFB8B8"/>
<path d="M339.733 46.0887C339.785 43.3496 339.286 40.628 338.266 38.0857C337.245 35.5434 335.725 33.2322 333.794 31.2895C331.864 29.3468 329.563 27.8122 327.028 26.7768C324.493 25.7415 321.776 25.2266 319.038 25.2627C316.3 25.2988 313.598 25.8852 311.091 26.9871C308.584 28.0889 306.324 29.6836 304.446 31.6766C302.567 33.6696 301.108 36.02 300.155 38.5884C299.202 41.1567 298.775 43.8905 298.899 46.6273C312.821 46.6569 326.742 46.6865 339.733 46.0887Z" fill="#0B170B"/>
<path d="M293.73 147.493C293.73 147.493 291.084 185.96 292.52 197.694C293.956 209.428 309.596 312.015 309.596 312.015L321.393 311.994L324.895 191.102L338.846 313.169L351.046 311.899L357.966 192.496C357.966 192.496 356.881 147.794 348.06 143.311L293.73 147.493Z" fill="#0B170B"/>
<path d="M312.235 185.624C303.57 185.621 295.03 183.552 287.324 179.588L287.155 179.502L293.676 136.208L293.253 84.6108C293.241 83.1945 293.512 81.7902 294.048 80.4797C294.585 79.1691 295.377 77.9787 296.378 76.9777C297.38 75.9768 298.57 75.1854 299.881 74.6497C301.191 74.1141 302.595 73.8449 304.01 73.8579L339 74.1792C340.549 74.1934 342.079 74.5265 343.494 75.1576C344.909 75.7888 346.179 76.7046 347.225 77.848C348.271 78.9914 349.071 80.3379 349.574 81.8039C350.078 83.2698 350.275 84.8238 350.152 86.3691L346.878 127.733L357.706 161.307L355.824 163.811C350.75 170.583 344.169 176.08 336.604 179.867C329.038 183.653 320.694 185.624 312.235 185.624Z" fill="#214521"/>
<path d="M289.737 118.372L293.403 80.9374L294.582 79.2596C295.389 78.1105 296.415 77.1322 297.601 76.3809C298.787 75.6296 300.11 75.1201 301.493 74.8816C302.877 74.6431 304.293 74.6804 305.662 74.9912C307.031 75.302 308.326 75.8803 309.471 76.6929L310.48 77.4099L309.484 115.347L289.737 118.372Z" fill="#214521"/>
<path d="M439.975 301.264C449.453 298.644 453.498 313.046 444.043 315.75C434.565 318.369 430.521 303.967 439.975 301.264Z" fill="#214521"/>
<path d="M387.421 319.8C396.9 317.181 400.944 331.583 391.49 334.286C382.012 336.906 377.967 322.504 387.421 319.8Z" fill="#214521"/>
<path d="M366.152 167.902L366.298 167.86L390.713 234.183L393.931 233.278L369.342 166.479C369.289 165.45 368.885 164.47 368.198 163.701C367.511 162.933 366.583 162.423 365.566 162.255C353.356 160.323 348.407 171.168 348.407 171.168L348.456 171.24L373.417 239.047L376.636 238.142L352.409 172.33C359.785 165.031 366.152 167.902 366.152 167.902Z" fill="#214521"/>
<path d="M394.133 323.531C390.65 323.501 387.267 322.359 384.478 320.271C381.688 318.183 379.638 315.258 378.626 311.923C373.966 296.662 362.972 260.098 361.515 250.175C359.618 237.255 370.306 233.581 370.544 233.502C370.832 233.405 375.129 232.202 381.076 230.536C391.185 227.705 406.462 223.427 407.024 223.175C409.391 222.351 411.903 222.026 414.401 222.219C416.9 222.412 419.332 223.119 421.545 224.297C423.825 225.497 425.838 227.149 427.46 229.152C429.083 231.155 430.282 233.467 430.983 235.948L446.709 291.929C447.679 295.361 447.407 299.025 445.941 302.276C444.474 305.526 441.907 308.154 438.693 309.696C426.559 315.529 408.763 323.31 394.372 323.53C394.293 323.531 394.213 323.531 394.133 323.531Z" fill="#326A32"/>
<path d="M363.556 165.608L355.651 119.403L354.768 103.809L341.988 107.998L352.767 168.5C352.332 169.677 352.229 170.952 352.469 172.184C352.709 173.416 353.283 174.559 354.128 175.486C354.973 176.414 356.057 177.091 357.261 177.444C358.465 177.797 359.743 177.812 360.955 177.487C362.167 177.162 363.266 176.51 364.133 175.602C364.999 174.694 365.599 173.565 365.868 172.339C366.136 171.113 366.063 169.836 365.655 168.649C365.247 167.462 364.521 166.41 363.556 165.608V165.608Z" fill="#FFB7B7"/>
<path d="M357.813 116.505L337.865 115.419L333.179 77.7597L333.635 77.3638C334.758 76.3889 336.063 75.6456 337.474 75.1766C338.885 74.7075 340.375 74.5219 341.858 74.6305C343.341 74.739 344.787 75.1395 346.115 75.8091C347.443 76.4786 348.626 77.4039 349.595 78.532L350.518 79.6058L350.531 79.6737L357.813 116.505Z" fill="#214521"/>
<path d="M439.043 300.461L418.655 231.415L370.713 244.972L370.426 243.958L419.37 230.118L419.517 230.617L440.053 300.163L439.043 300.461Z" fill="#214521"/>
<path d="M76.755 144.912L74.584 97.5461L96.8213 54.0515L97.7585 54.5314L75.6492 97.7769L77.807 144.863L76.755 144.912Z" fill="#214521"/>
<path d="M485.48 335.931H0.526551C0.386901 335.931 0.25297 335.875 0.154223 335.776C0.0554753 335.677 0 335.543 0 335.404C0 335.264 0.0554753 335.13 0.154223 335.031C0.25297 334.932 0.386901 334.877 0.526551 334.877H485.48C485.619 334.877 485.753 334.932 485.852 335.031C485.951 335.13 486.006 335.264 486.006 335.404C486.006 335.543 485.951 335.677 485.852 335.776C485.753 335.875 485.619 335.931 485.48 335.931Z" fill="#CCCCCC"/>
<path d="M110.976 131.29L106.342 117.497L105.221 71.5184L107.196 64.9949C107.906 62.6469 109.084 60.4667 110.657 58.5849C112.23 56.7031 114.166 55.1584 116.35 54.0434C118.534 52.9284 120.92 52.266 123.366 52.096C125.812 51.9259 128.267 52.2517 130.584 53.0538C132.902 53.856 135.033 55.1179 136.851 56.764C138.669 58.4101 140.136 60.4065 141.164 62.6335C142.193 64.8606 142.761 67.2724 142.836 69.7246C142.91 72.1767 142.489 74.6187 141.598 76.9041L131.014 104.041L131.552 105.085L154.481 104.9L162.626 119.569L110.976 131.29Z" fill="#214521"/>
<path d="M257.044 229.445L257.028 229.448L231.614 234.539L209.752 243.348C209.47 243.462 209.167 243.519 208.863 243.516C208.558 243.513 208.257 243.45 207.977 243.331C207.696 243.211 207.442 243.038 207.229 242.82C207.016 242.602 206.847 242.345 206.733 242.062C206.707 241.996 206.683 241.928 206.662 241.859L190.692 188.35C190.524 187.795 190.57 187.198 190.821 186.676C191.072 186.154 191.51 185.746 192.048 185.532L214.31 176.561L214.326 176.558L239.74 171.467L261.601 162.658C262.172 162.428 262.811 162.435 263.377 162.676C263.943 162.917 264.391 163.373 264.62 163.944C264.647 164.011 264.671 164.079 264.691 164.147L280.662 217.657C280.83 218.211 280.784 218.808 280.533 219.33C280.281 219.852 279.844 220.26 279.306 220.475L257.044 229.445Z" fill="#E5E5E5"/>
<path d="M229.773 193.502C223.945 191.444 217.922 189.641 211.871 188.144L211.568 188.069L214.64 198.362L230.291 193.685L229.773 193.502ZM214.879 197.917L212.089 188.567C217.848 190.001 223.578 191.712 229.137 193.657L214.879 197.917ZM260.311 207.415C257.598 205.88 254.846 204.411 252.056 203.006C251.286 202.618 250.514 202.236 249.74 201.859C245.014 199.559 240.216 197.462 235.346 195.568L235.289 195.546L215.559 201.442L220.947 219.494L260.676 207.622L260.311 207.415ZM221.187 219.05L216.003 201.682L235.274 195.923C239.971 197.75 244.613 199.775 249.202 201.996C249.999 202.381 250.793 202.772 251.584 203.169C254.348 204.554 257.076 206.004 259.77 207.52L221.187 219.05ZM260.311 207.415C257.598 205.88 254.846 204.411 252.056 203.006C251.286 202.618 250.514 202.236 249.74 201.859C245.014 199.559 240.216 197.462 235.346 195.568L235.289 195.546L215.559 201.442L220.947 219.494L260.676 207.622L260.311 207.415ZM221.187 219.05L216.003 201.682L235.274 195.923C239.971 197.75 244.613 199.775 249.202 201.996C249.999 202.381 250.793 202.772 251.584 203.169C254.348 204.554 257.076 206.004 259.77 207.52L221.187 219.05ZM229.773 193.502C223.945 191.444 217.922 189.641 211.871 188.144L211.568 188.069L214.64 198.362L230.291 193.685L229.773 193.502ZM214.879 197.917L212.089 188.567C217.848 190.001 223.578 191.712 229.137 193.657L214.879 197.917ZM229.773 193.502C223.945 191.444 217.922 189.641 211.871 188.144L211.568 188.069L214.64 198.362L230.291 193.685L229.773 193.502ZM214.879 197.917L212.089 188.567C217.848 190.001 223.578 191.712 229.137 193.657L214.879 197.917ZM260.311 207.415C257.598 205.88 254.846 204.411 252.056 203.006C251.286 202.618 250.514 202.236 249.74 201.859C245.014 199.559 240.216 197.462 235.346 195.568L235.289 195.546L215.559 201.442L220.947 219.494L260.676 207.622L260.311 207.415ZM221.187 219.05L216.003 201.682L235.274 195.923C239.971 197.75 244.613 199.775 249.202 201.996C249.999 202.381 250.793 202.772 251.584 203.169C254.348 204.554 257.076 206.004 259.77 207.52L221.187 219.05ZM204.938 227.633L205.04 227.975L218.548 223.938L220.029 228.901L206.521 232.937L206.623 233.28L220.473 229.141L218.788 223.494L204.938 227.633ZM224.471 231.301L225.506 234.769L225.838 234.635L224.915 231.541L277.587 215.802L277.485 215.459L224.471 231.301ZM274.982 207.075L274.88 206.733L221.866 222.574L223.552 228.221L276.565 212.379L276.463 212.037L223.791 227.777L222.31 222.814L274.982 207.075ZM235.61 191.722C227.537 188.618 219.244 186.121 210.8 184.249L209.766 180.784L209.433 180.918L210.475 184.41L210.825 184.621C219.237 186.49 227.497 188.982 235.539 192.077L235.596 192.099L267.653 182.52L267.551 182.178L235.61 191.722ZM211.117 199.041L197.609 203.078L197.711 203.42L211.561 199.281L206.44 182.124L206.108 182.258L211.117 199.041ZM268.573 185.6L240.391 194.021L240.85 194.214C245.172 196.034 249.483 198.046 253.783 200.25C254.394 200.563 255.005 200.88 255.615 201.201C258.65 202.797 261.662 204.48 264.651 206.253L264.982 206.335L273.961 203.652L273.859 203.31L264.902 205.987C261.945 204.231 258.961 202.56 255.949 200.974C255.347 200.656 254.744 200.342 254.14 200.032C249.931 197.869 245.7 195.884 241.445 194.079L268.675 185.942L268.573 185.6ZM207.542 236.36L207.645 236.702L221.153 232.665L222.18 236.108L222.513 235.974L221.393 232.221L207.542 236.36ZM198.63 206.5L198.732 206.842L212.241 202.806L217.425 220.174L203.916 224.211L204.018 224.553L217.869 220.414L212.481 202.361L198.63 206.5ZM229.773 193.502C223.945 191.444 217.922 189.641 211.871 188.144L211.568 188.069L214.64 198.362L230.291 193.685L229.773 193.502ZM214.879 197.917L212.089 188.567C217.848 190.001 223.578 191.712 229.137 193.657L214.879 197.917ZM260.311 207.415C257.598 205.88 254.846 204.411 252.056 203.006C251.286 202.618 250.514 202.236 249.74 201.859C245.014 199.559 240.216 197.462 235.346 195.568L235.289 195.546L215.559 201.442L220.947 219.494L260.676 207.622L260.311 207.415ZM221.187 219.05L216.003 201.682L235.274 195.923C239.971 197.75 244.613 199.775 249.202 201.996C249.999 202.381 250.793 202.772 251.584 203.169C254.348 204.554 257.076 206.004 259.77 207.52L221.187 219.05ZM229.773 193.502C223.945 191.444 217.922 189.641 211.871 188.144L211.568 188.069L214.64 198.362L230.291 193.685L229.773 193.502ZM214.879 197.917L212.089 188.567C217.848 190.001 223.578 191.712 229.137 193.657L214.879 197.917ZM260.311 207.415C257.598 205.88 254.846 204.411 252.056 203.006C251.286 202.618 250.514 202.236 249.74 201.859C245.014 199.559 240.216 197.462 235.346 195.568L235.289 195.546L215.559 201.442L220.947 219.494L260.676 207.622L260.311 207.415ZM221.187 219.05L216.003 201.682L235.274 195.923C239.971 197.75 244.613 199.775 249.202 201.996C249.999 202.381 250.793 202.772 251.584 203.169C254.348 204.554 257.076 206.004 259.77 207.52L221.187 219.05Z" fill="white"/>
<path d="M234.311 195.114C235.605 199.448 230.644 211.445 230.644 211.445C230.644 211.445 219.92 204.134 218.627 199.801C218.006 197.72 218.236 195.477 219.268 193.566C220.299 191.655 222.047 190.232 224.127 189.611C226.207 188.989 228.448 189.22 230.358 190.252C232.268 191.284 233.69 193.033 234.311 195.114H234.311Z" fill="#326A32"/>
<path d="M229.952 196.045C230.164 196.754 230.161 197.511 229.943 198.218C229.725 198.926 229.302 199.553 228.728 200.02C228.154 200.487 227.455 200.774 226.718 200.843C225.981 200.913 225.241 200.762 224.59 200.41C223.938 200.058 223.406 199.521 223.06 198.867C222.714 198.212 222.57 197.47 222.646 196.733C222.721 195.997 223.014 195.299 223.486 194.729C223.957 194.158 224.588 193.741 225.297 193.529C225.768 193.388 226.261 193.341 226.75 193.392C227.239 193.442 227.713 193.588 228.146 193.821C228.578 194.055 228.96 194.372 229.27 194.753C229.58 195.135 229.812 195.574 229.952 196.045Z" fill="white"/>
<path d="M231.703 217.201C232.921 217.201 233.909 216.212 233.909 214.993C233.909 213.774 232.921 212.786 231.703 212.786C230.484 212.786 229.497 213.774 229.497 214.993C229.497 216.212 230.484 217.201 231.703 217.201Z" fill="#326A32"/>
<path d="M255.776 185.968L240.443 190.55C240.424 190.556 240.405 190.56 240.385 190.562L243.885 175.827C243.906 175.736 243.951 175.651 244.015 175.583C244.079 175.514 244.16 175.464 244.25 175.437C244.34 175.41 244.435 175.408 244.527 175.43C244.618 175.452 244.701 175.498 244.769 175.563L252.153 182.543L252.507 182.877L255.776 185.968Z" fill="white"/>
<path opacity="0.2" d="M255.776 185.968L250.541 187.532L251.996 183.03L252.101 182.705L252.153 182.543L252.507 182.877L255.776 185.968Z" fill="black"/>
<path d="M264.313 183.417L251.052 187.38L252.507 182.877L252.611 182.553L254.507 176.685C254.544 176.593 254.6 176.509 254.672 176.44C254.743 176.371 254.828 176.318 254.921 176.284C255.014 176.25 255.113 176.236 255.212 176.243C255.311 176.25 255.408 176.277 255.495 176.324C255.518 176.338 255.54 176.353 255.561 176.37L264.313 183.417Z" fill="white"/>
</g>
<defs>
<clipPath id="clip0">
<rect width="486.006" height="335.931" fill="white"/>
</clipPath>
</defs>
</svg>
