<svg width="139" height="76" viewBox="0 0 139 76" fill="none" xmlns="http://www.w3.org/2000/svg">
<path d="M75.4285 39.8142V39.9776C75.4283 41.4787 74.8317 42.9182 73.7701 43.9795C72.7085 45.0407 71.2689 45.6368 69.7678 45.6366H5.87447C4.37368 45.6364 2.9344 45.0402 1.87318 43.9789C0.811966 42.9177 0.215719 41.4784 0.215576 39.9776V39.8142H75.4285Z" fill="#F2F2F2"/>
<path d="M13.5787 12.8754C8.96141 14.0158 4.81643 10.4635 4.09271 7.16801L4.41418 7.11054C8.30593 6.2503 12.6502 9.03217 13.5787 12.8754Z" fill="#326A32"/>
<path d="M125.188 73.9063C123.852 73.3297 123.549 71.229 124.667 70.2981C125.785 69.3673 127.796 70.0457 128.121 71.4634L126.875 62.5524C126.589 60.5037 126.36 58.2135 127.598 56.5564C128.757 55.0046 131.022 54.5074 132.841 55.1754C134.659 55.8434 136.003 57.5098 136.573 59.3611C137.143 61.2124 137.008 63.2242 136.511 65.0962C136.013 66.9683 135.167 68.7267 134.312 70.4647C133.435 72.2456 132.372 74.1755 130.498 74.8311C128.709 75.4573 125.188 73.9063 125.188 73.9063Z" fill="#F2F2F2"/>
<path d="M131.04 55.0063C131.859 57.5611 132.248 60.234 132.193 62.9162C132.142 65.5865 131.662 68.2313 130.773 70.7496C130.266 72.1783 129.625 73.5554 128.856 74.8621C128.823 74.9237 128.815 74.9957 128.834 75.063C128.853 75.1303 128.897 75.1876 128.958 75.2229C129.018 75.2582 129.09 75.2686 129.158 75.2521C129.226 75.2355 129.284 75.1932 129.322 75.1341C130.701 72.7775 131.681 70.2091 132.222 67.5329C132.771 64.844 132.881 62.084 132.547 59.36C132.36 57.8334 132.029 56.3278 131.559 54.8631C131.454 54.5343 130.933 54.6749 131.04 55.0063Z" fill="white"/>
<path d="M124.396 70.626L128.66 75.1071C128.9 75.3588 129.28 74.9774 129.041 74.7262L124.777 70.2451C124.538 69.9934 124.157 70.3748 124.396 70.626Z" fill="white"/>
<path d="M120.774 53.7066C120.622 53.7069 120.475 53.6523 120.36 53.5529C117.727 51.8384 115.383 49.7162 113.417 47.2657C113.296 47.1515 113.226 46.9948 113.219 46.8291C113.213 46.6633 113.272 46.5017 113.383 46.3788L114.676 44.9514L114.942 45.1926L113.649 46.6199C113.6 46.6741 113.575 46.7457 113.578 46.8187C113.582 46.8918 113.615 46.9604 113.669 47.0095L113.688 47.0294C115.635 49.4581 117.956 51.5607 120.566 53.2581L120.589 53.276C120.643 53.3251 120.715 53.3507 120.788 53.3471C120.861 53.3434 120.93 53.311 120.979 53.2567L123.501 50.4717C123.548 50.4199 123.573 50.3522 123.572 50.2824C123.571 50.2125 123.543 50.1456 123.495 50.0953C122.911 49.7769 122.34 49.4297 121.8 49.0633L122.001 48.766C122.539 49.1303 123.106 49.4752 123.688 49.7912L123.722 49.8159C123.784 49.8719 123.834 49.9395 123.87 50.0148C123.906 50.0902 123.926 50.1719 123.93 50.2552C123.935 50.3384 123.922 50.4217 123.894 50.5003C123.866 50.5788 123.823 50.651 123.767 50.7128L121.245 53.4979C121.189 53.5599 121.122 53.6102 121.046 53.6459C120.971 53.6816 120.889 53.7019 120.806 53.7058C120.795 53.7063 120.784 53.7066 120.774 53.7066Z" fill="#004900"/>
<path d="M117.994 49.0181C118.786 49.7346 119.599 50.1279 119.811 49.8945C119.839 49.8549 119.856 49.8091 119.862 49.7611C119.868 49.7132 119.861 49.6646 119.844 49.6197C119.758 49.3553 119.62 49.1106 119.44 48.8995C118.736 48.3985 118.051 47.8579 117.387 47.2778C117.178 47.2096 117.019 47.2114 116.941 47.2976C116.93 47.3099 116.921 47.3238 116.915 47.3389C116.782 47.6101 117.243 48.3374 117.994 49.0181Z" fill="#326A32"/>
<path d="M113.22 43.2442C113.227 43.4077 113.298 43.562 113.418 43.6734C114.482 44.9882 115.651 46.2141 116.915 47.3389C117.839 48.1635 118.818 48.9255 119.844 49.6197C120.014 49.7364 120.187 49.8496 120.361 49.9609C120.475 50.061 120.622 50.1159 120.774 50.1154C120.785 50.1154 120.795 50.1136 120.806 50.1136C120.89 50.1097 120.972 50.0893 121.047 50.0535C121.123 50.0178 121.19 49.9674 121.246 49.9052L123.768 47.1216C123.881 46.9965 123.94 46.8317 123.931 46.6633C123.923 46.4949 123.848 46.3368 123.723 46.2236L123.689 46.1985C120.936 44.7115 118.583 42.5817 116.83 39.99L116.803 39.9577C116.678 39.8446 116.513 39.7858 116.345 39.7943C116.176 39.8027 116.018 39.8776 115.905 40.0026L113.384 42.7862C113.328 42.848 113.284 42.9203 113.256 42.9989C113.228 43.0775 113.216 43.1608 113.22 43.2442ZM113.579 43.2262C113.578 43.1903 113.583 43.1544 113.595 43.1205C113.607 43.0866 113.625 43.0554 113.65 43.0287L116.171 40.2432C116.195 40.2162 116.225 40.1943 116.258 40.1789C116.291 40.1635 116.327 40.1548 116.363 40.1534C116.429 40.1494 116.494 40.1699 116.546 40.2109C118.325 42.8347 120.708 44.9929 123.495 46.5038C123.543 46.5538 123.571 46.6204 123.572 46.69C123.574 46.7597 123.548 46.8273 123.502 46.8791L120.979 49.6646C120.955 49.6917 120.925 49.7137 120.893 49.7291C120.86 49.7445 120.824 49.7531 120.788 49.7544C120.715 49.7579 120.644 49.7328 120.589 49.6844L120.566 49.6664C120.185 49.4222 119.81 49.1665 119.439 48.8995C118.735 48.3985 118.051 47.8579 117.387 47.2778C116.045 46.1073 114.807 44.8226 113.687 43.4382L113.669 43.4184C113.615 43.3685 113.583 43.2996 113.579 43.2262V43.2262Z" fill="#004900"/>
<path d="M119.811 46.3031C120.022 46.07 119.55 45.2994 118.758 44.5819C117.966 43.8644 117.152 43.4717 116.941 43.7047C116.73 43.9378 117.201 44.7084 117.994 45.4259C118.786 46.1434 119.6 46.5361 119.811 46.3031Z" fill="#326A32"/>
<path d="M103.966 73.013L101.765 73.0128L100.717 64.5203L103.967 64.5204L103.966 73.013Z" fill="#FFB8B8"/>
<path d="M104.528 75.1472L97.4286 75.147V75.0572C97.4286 74.6943 97.5 74.335 97.6389 73.9997C97.7778 73.6645 97.9813 73.3598 98.2379 73.1032C98.4945 72.8467 98.7991 72.6431 99.1344 72.5043C99.4697 72.3654 99.829 72.2939 100.192 72.2939H100.192L104.528 72.2941L104.528 75.1472Z" fill="black"/>
<path d="M110.431 73.013L108.23 73.0128L107.182 64.5203L110.432 64.5204L110.431 73.013Z" fill="#FFB8B8"/>
<path d="M110.993 75.1472L103.894 75.147V75.0572C103.894 74.6943 103.965 74.335 104.104 73.9997C104.243 73.6645 104.447 73.3598 104.703 73.1032C104.96 72.8467 105.264 72.6431 105.6 72.5043C105.935 72.3654 106.294 72.2939 106.657 72.2939H106.657L110.993 72.2941L110.993 75.1472Z" fill="black"/>
<path d="M111.909 38.6915L111.383 69.8855C111.382 69.9842 111.36 70.0816 111.319 70.1715C111.278 70.2614 111.218 70.3419 111.145 70.4079C111.071 70.4739 110.985 70.524 110.891 70.5551C110.798 70.5863 110.698 70.5977 110.6 70.5888L108.024 70.3545C107.855 70.3392 107.696 70.2645 107.577 70.1437C107.458 70.0229 107.385 69.8638 107.372 69.6946L105.864 50.2368C105.86 50.191 105.84 50.1484 105.806 50.1176C105.772 50.0868 105.727 50.0702 105.681 50.0711C105.636 50.072 105.592 50.0904 105.559 50.1225C105.526 50.1546 105.507 50.198 105.505 50.2438L104.752 70.1472C104.745 70.3329 104.666 70.5086 104.532 70.6375C104.398 70.7664 104.22 70.8384 104.034 70.8384H101.271C101.088 70.8384 100.912 70.7686 100.778 70.6432C100.645 70.5179 100.565 70.3464 100.554 70.1638L98.6193 38.5119L110.113 35.6384L111.909 38.6915Z" fill="black"/>
<path d="M103.573 9.40077C106.009 9.40077 107.984 7.42592 107.984 4.98981C107.984 2.55371 106.009 0.578857 103.573 0.578857C101.136 0.578857 99.1616 2.55371 99.1616 4.98981C99.1616 7.42592 101.136 9.40077 103.573 9.40077Z" fill="#FFB8B8"/>
<path d="M98.2262 39.6194C98.1498 39.5456 98.0888 39.4574 98.0467 39.3598C98.0046 39.2622 97.9823 39.1573 97.9812 39.051L97.6836 17.7798C97.6657 16.6977 97.9913 15.6378 98.6134 14.7524C99.2356 13.8669 100.122 13.2014 101.147 12.8515C101.56 10.9767 103.759 10.7418 105.041 10.7699C105.361 10.7768 105.675 10.8607 105.956 11.0146C106.236 11.1685 106.476 11.3879 106.654 11.654L107.573 13.0327L109.599 14.2202C110.536 14.7674 111.276 15.5983 111.71 16.593C112.145 17.5877 112.253 18.6948 112.018 19.7546L111.706 21.1732C110.608 26.1945 110.712 31.4043 112.011 36.3775L112.638 38.7704C112.671 38.895 112.674 39.0257 112.645 39.1514C112.617 39.2772 112.56 39.3944 112.477 39.4933C112.395 39.5922 112.29 39.6699 112.171 39.72C112.052 39.7701 111.923 39.791 111.795 39.7811L111.066 39.725C110.877 39.7107 110.698 39.6301 110.563 39.4975C110.427 39.3649 110.342 39.1886 110.324 38.9998L110.203 37.7935C110.201 37.7714 110.19 37.7508 110.174 37.7359C110.157 37.7209 110.136 37.7127 110.114 37.7127C110.091 37.7127 110.07 37.7209 110.053 37.7359C110.037 37.7508 110.027 37.7714 110.024 37.7935L109.908 38.9614C109.888 39.1587 109.796 39.3419 109.65 39.476C109.504 39.6102 109.314 39.686 109.116 39.6891L98.8017 39.8478C98.7974 39.8478 98.7931 39.848 98.7888 39.848C98.5786 39.8484 98.3766 39.7663 98.2262 39.6194Z" fill="#004900"/>
<path d="M103.917 7.53246C103.935 8.156 104.368 8.51674 104.9 8.84334C105.431 9.16995 106.053 9.31156 106.661 9.44816C106.743 9.49158 106.835 9.5132 106.927 9.51093C107.02 9.50866 107.11 9.48257 107.19 9.4352C107.269 9.38783 107.335 9.32076 107.381 9.24046C107.427 9.16017 107.452 9.06937 107.452 8.97681L108.011 6.85346C108.208 6.17517 108.352 5.48238 108.44 4.78151C108.575 3.43293 108.255 1.9822 107.314 1.00715C106.373 0.0320972 104.74 -0.314275 103.612 0.436988C102.274 -1.27269 96.155 2.50462 97.6644 3.69349C97.9329 3.90499 98.3434 3.63736 98.6842 3.61142C99.025 3.58548 99.407 3.64543 99.6234 3.90994C99.9063 4.25551 99.7831 4.77028 99.8997 5.20136C99.9479 5.35304 100.026 5.49368 100.128 5.61516C100.231 5.73663 100.357 5.83656 100.499 5.90915C100.64 5.98175 100.795 6.02559 100.954 6.03814C101.112 6.05069 101.272 6.03171 101.423 5.98229C101.705 5.84344 101.97 5.67301 102.213 5.4743C102.475 5.30017 102.805 5.17151 103.099 5.28133C103.487 5.42609 103.625 5.90099 103.66 6.31354C103.719 6.72501 103.805 7.13217 103.917 7.53246Z" fill="black"/>
<path opacity="0.2" d="M102.887 19.3542L102.169 28.1542L98.3973 37.3134L103.965 28.3338L102.887 19.3542Z" fill="black"/>
<path d="M97.5156 40.7244C97.7215 40.5591 97.8886 40.3507 98.0052 40.1138C98.1218 39.877 98.1851 39.6174 98.1905 39.3534C98.1959 39.0895 98.1434 38.8275 98.0367 38.5861C97.9299 38.3446 97.7715 38.1295 97.5727 37.9558L99.9753 32.0049L96.7064 32.665L94.9259 38.2149C94.6564 38.5684 94.5258 39.0084 94.559 39.4517C94.5923 39.8949 94.7869 40.3106 95.1061 40.6199C95.4253 40.9293 95.8469 41.1108 96.291 41.13C96.7351 41.1493 97.1708 41.005 97.5156 40.7244V40.7244Z" fill="#FFB8B8"/>
<path d="M97.3404 38.0997L95.4899 37.4328C95.2993 37.3631 95.1417 37.2245 95.0481 37.0444C94.9546 36.8642 94.9318 36.6556 94.9844 36.4595L98.0369 25.2855L98.5023 15.1866C98.5164 14.8817 98.5909 14.5828 98.7215 14.307C98.8521 14.0312 99.0362 13.7841 99.2632 13.5802C99.4901 13.3762 99.7554 13.2194 100.043 13.1188C100.332 13.0183 100.637 12.976 100.941 12.9945C101.246 13.0129 101.544 13.0918 101.818 13.2264C102.092 13.361 102.336 13.5487 102.537 13.7786C102.737 14.0085 102.89 14.276 102.986 14.5655C103.083 14.8551 103.121 15.1609 103.098 15.4652L102.267 26.5232L98.377 37.6073C98.318 37.7748 98.2056 37.9182 98.0571 38.0155C97.9086 38.1129 97.7323 38.1587 97.5552 38.146C97.4818 38.1404 97.4095 38.1248 97.3404 38.0997Z" fill="#004900"/>
<path d="M116.411 41.308C116.537 41.0762 116.611 40.8195 116.627 40.5559C116.644 40.2924 116.602 40.0285 116.505 39.7829C116.409 39.5372 116.259 39.3157 116.068 39.134C115.876 38.9523 115.647 38.8148 115.397 38.7312L115.321 32.314L112.559 34.1826L113.054 39.99C112.942 40.4201 112.991 40.8764 113.192 41.2727C113.394 41.6689 113.733 41.9775 114.147 42.14C114.561 42.3024 115.02 42.3075 115.437 42.1541C115.854 42.0008 116.201 41.6998 116.411 41.308L116.411 41.308Z" fill="#FFB8B8"/>
<path d="M115.238 38.9534L113.273 39.0509C113.07 39.06 112.872 38.9928 112.716 38.8627C112.56 38.7325 112.459 38.5487 112.432 38.3475L110.943 26.86L107.482 17.3615C107.377 17.0748 107.331 16.7702 107.345 16.4654C107.36 16.1606 107.434 15.8616 107.565 15.586C107.696 15.3103 107.88 15.0634 108.107 14.8596C108.335 14.6559 108.6 14.4993 108.888 14.3989C109.176 14.2986 109.482 14.2566 109.786 14.2753C110.091 14.294 110.388 14.3731 110.662 14.508C110.936 14.6428 111.18 14.8307 111.381 15.0607C111.581 15.2908 111.734 15.5584 111.83 15.848L115.323 26.3726L116.005 38.0996C116.015 38.2768 115.966 38.4525 115.867 38.5995C115.767 38.7465 115.622 38.8568 115.454 38.9133C115.384 38.9364 115.311 38.9499 115.238 38.9534Z" fill="#004900"/>
<path d="M138.82 75.2383H70.3961C70.3485 75.2383 70.3028 75.2194 70.2691 75.1857C70.2354 75.152 70.2165 75.1064 70.2165 75.0587C70.2165 75.0111 70.2354 74.9654 70.2691 74.9318C70.3028 74.8981 70.3485 74.8792 70.3961 74.8792H138.82C138.868 74.8792 138.914 74.8981 138.947 74.9318C138.981 74.9654 139 75.0111 139 75.0587C139 75.1064 138.981 75.152 138.947 75.1857C138.914 75.2194 138.868 75.2383 138.82 75.2383Z" fill="#004900"/>
<path d="M58.0472 36.4648C57.0157 36.4648 56.1954 36.1581 55.6089 35.553C54.2832 34.1854 54.3662 31.5493 54.433 29.4311C54.4524 28.8149 54.4707 28.2328 54.4522 27.7453L54.452 27.7379C54.4567 26.7853 54.8371 25.873 55.5105 25.1992C56.184 24.5254 57.0961 24.1446 58.0487 24.1394H66.6001C67.6302 24.1394 68.4497 24.4457 69.0358 25.05C70.3615 26.4165 70.2793 29.052 70.2134 31.1696C70.1942 31.7871 70.176 32.3705 70.1949 32.8589C70.1915 33.8129 69.8116 34.727 69.1377 35.4023C68.4638 36.0776 67.5505 36.4595 66.5965 36.4648H58.0472ZM54.8112 27.7354C54.83 28.2346 54.8115 28.8213 54.7919 29.4424C54.7274 31.4928 54.647 34.0447 55.8668 35.303C56.3903 35.8431 57.1036 36.1057 58.0471 36.1057H66.596C67.4539 36.1011 68.2754 35.7582 68.8821 35.1515C69.4887 34.5448 69.8314 33.7232 69.8358 32.8653C69.8166 32.3718 69.8349 31.7824 69.8544 31.1584C69.9182 29.1085 69.9977 26.5573 68.778 25.3001C68.2549 24.7608 67.5424 24.4986 66.6001 24.4986H58.0492C57.1921 24.5034 56.3715 24.8459 55.7653 25.4518C55.1592 26.0578 54.8163 26.8783 54.8112 27.7354Z" fill="#004900"/>
<path d="M11.6896 13.2059C10.1902 13.1969 8.72335 12.7672 7.45594 11.9659C5.59919 10.8121 4.19722 8.96431 3.79718 7.14376L3.75708 6.96127L4.25885 6.87148C8.20864 5.99974 12.6761 8.80893 13.6332 12.7686L13.6751 12.9423L13.5017 12.9851C12.9088 13.1319 12.3004 13.206 11.6896 13.2059ZM4.19144 7.24847C4.62242 8.91855 5.93042 10.595 7.64552 11.6608C9.3038 12.7221 11.3134 13.0874 13.2391 12.6778C12.2377 8.9887 8.04482 6.39997 4.3329 7.22305L4.19144 7.24847Z" fill="#004900"/>
<path d="M6.70707 33.6151C5.53208 33.6151 4.57748 33.0893 4.01704 32.1302C3.70291 31.5721 3.5378 30.9426 3.5376 30.3023C3.5374 29.6619 3.70212 29.0323 4.0159 28.4741C4.5853 27.4985 5.56266 26.9693 6.76971 26.9878H18.1637C19.3666 26.9724 20.3447 27.4993 20.9145 28.476C21.2283 29.0341 21.3931 29.6636 21.393 30.3038C21.393 30.9441 21.2281 31.5735 20.9141 32.1316C20.3446 33.106 19.3668 33.6264 18.161 33.6147H6.76679C6.74682 33.615 6.72691 33.6151 6.70707 33.6151ZM6.71374 27.3465C5.66587 27.3465 4.81943 27.8099 4.3261 28.6551C4.04343 29.158 3.89504 29.7253 3.89523 30.3022C3.89542 30.8791 4.04418 31.4462 4.32718 31.9489C4.82882 32.8076 5.6926 33.2723 6.7641 33.2555H18.1637C19.2363 33.2726 20.1027 32.808 20.604 31.9503C20.8868 31.4476 21.0354 30.8805 21.0354 30.3037C21.0354 29.7269 20.887 29.1598 20.6042 28.657C20.1026 27.7971 19.236 27.3341 18.1662 27.347H6.76594C6.74853 27.3467 6.73104 27.3465 6.71373 27.3465H6.71374Z" fill="#004900"/>
<path d="M60.9714 28.4102H57.3795C57.1414 28.4102 56.913 28.3156 56.7446 28.1472C56.5762 27.9788 56.4816 27.7504 56.4816 27.5122C56.4816 27.2741 56.5762 27.0457 56.7446 26.8773C56.913 26.7089 57.1414 26.6143 57.3795 26.6143H60.9714C61.2095 26.6143 61.4379 26.7089 61.6063 26.8773C61.7747 27.0457 61.8693 27.2741 61.8693 27.5122C61.8693 27.7504 61.7747 27.9788 61.6063 28.1472C61.4379 28.3156 61.2095 28.4102 60.9714 28.4102Z" fill="#326A32"/>
<path d="M60.9714 31.2835H57.3795C57.1414 31.2835 56.913 31.1889 56.7446 31.0205C56.5762 30.8521 56.4816 30.6237 56.4816 30.3855C56.4816 30.1474 56.5762 29.919 56.7446 29.7506C56.913 29.5822 57.1414 29.4875 57.3795 29.4875H60.9714C61.2095 29.4875 61.4379 29.5822 61.6063 29.7506C61.7747 29.919 61.8693 30.1474 61.8693 30.3855C61.8693 30.6237 61.7747 30.8521 61.6063 31.0205C61.4379 31.1889 61.2095 31.2835 60.9714 31.2835Z" fill="#326A32"/>
<path d="M60.9714 34.1572H57.3795C57.1414 34.1572 56.913 34.0626 56.7446 33.8942C56.5762 33.7258 56.4816 33.4974 56.4816 33.2593C56.4816 33.0211 56.5762 32.7927 56.7446 32.6243C56.913 32.4559 57.1414 32.3613 57.3795 32.3613H60.9714C61.2095 32.3613 61.4379 32.4559 61.6063 32.6243C61.7747 32.7927 61.8693 33.0211 61.8693 33.2593C61.8693 33.4974 61.7747 33.7258 61.6063 33.8942C61.4379 34.0626 61.2095 34.1572 60.9714 34.1572Z" fill="#326A32"/>
<path d="M67.2568 28.4102H63.6649C63.4268 28.4102 63.1984 28.3156 63.03 28.1472C62.8616 27.9788 62.767 27.7504 62.767 27.5122C62.767 27.2741 62.8616 27.0457 63.03 26.8773C63.1984 26.7089 63.4268 26.6143 63.6649 26.6143H67.2568C67.4949 26.6143 67.7233 26.7089 67.8917 26.8773C68.0601 27.0457 68.1547 27.2741 68.1547 27.5122C68.1547 27.7504 68.0601 27.9788 67.8917 28.1472C67.7233 28.3156 67.4949 28.4102 67.2568 28.4102Z" fill="#326A32"/>
<path d="M67.2568 31.2835H63.6649C63.4268 31.2835 63.1984 31.1889 63.03 31.0205C62.8616 30.8521 62.767 30.6237 62.767 30.3855C62.767 30.1474 62.8616 29.919 63.03 29.7506C63.1984 29.5822 63.4268 29.4875 63.6649 29.4875H67.2568C67.4949 29.4875 67.7233 29.5822 67.8917 29.7506C68.0601 29.919 68.1547 30.1474 68.1547 30.3855C68.1547 30.6237 68.0601 30.8521 67.8917 31.0205C67.7233 31.1889 67.4949 31.2835 67.2568 31.2835Z" fill="#326A32"/>
<path d="M67.2568 34.1572H63.6649C63.4268 34.1572 63.1984 34.0626 63.03 33.8942C62.8616 33.7258 62.767 33.4974 62.767 33.2593C62.767 33.0211 62.8616 32.7927 63.03 32.6243C63.1984 32.4559 63.4268 32.3613 63.6649 32.3613H67.2568C67.4949 32.3613 67.7233 32.4559 67.8917 32.6243C68.0601 32.7927 68.1547 33.0211 68.1547 33.2593C68.1547 33.4974 68.0601 33.7258 67.8917 33.8942C67.7233 34.0626 67.4949 34.1572 67.2568 34.1572Z" fill="#326A32"/>
<path d="M75.4285 15.6484H0.215576V16.0076H75.4285V15.6484Z" fill="#004900"/>
<path d="M69.502 45.7406H5.92652C4.35526 45.7388 2.84885 45.1139 1.7378 44.0028C0.626745 42.8918 0.0017749 41.3854 0 39.8141V8.92433C0.0017749 7.35306 0.626745 5.84666 1.7378 4.7356C2.84885 3.62455 4.35526 2.99958 5.92652 2.9978H69.502C71.0732 2.99958 72.5796 3.62455 73.6907 4.7356C74.8017 5.84666 75.4267 7.35306 75.4285 8.92433V39.8141C75.4267 41.3854 74.8017 42.8918 73.6907 44.0028C72.5796 45.1139 71.0732 45.7388 69.502 45.7406ZM5.92652 3.35699C4.45049 3.35866 3.03539 3.94576 1.99167 4.98948C0.947955 6.03319 0.36086 7.44829 0.359183 8.92433V39.8141C0.360861 41.2901 0.947958 42.7052 1.99167 43.7489C3.03539 44.7927 4.45049 45.3797 5.92652 45.3814H69.502C70.978 45.3798 72.3931 44.7927 73.4368 43.7489C74.4805 42.7052 75.0676 41.2901 75.0693 39.8141V8.92433C75.0676 7.44829 74.4805 6.03319 73.4368 4.98947C72.3931 3.94576 70.978 3.35866 69.502 3.35699H5.92652Z" fill="#004900"/>
</svg>
